<svg xmlns="http://www.w3.org/2000/svg" width="782.04" height="455.763" viewBox="0 0 782.04 455.763"><g transform="translate(-34.833 -172.148)" opacity="0.45"><g transform="translate(34.833 289.549)"><g transform="translate(180.831)"><path d="M131.578,240.648l-11.256-6.5,11.256-6.5,11.256,6.5Z" transform="translate(-120.322 -227.65)" fill="#fff"/><path d="M142.221,246.792l-11.257-6.5,11.256-6.5,11.256,6.5Z" transform="translate(-108.452 -220.797)" fill="#fff" opacity="0.1"/><path d="M152.864,252.937l-11.256-6.5,11.256-6.5,11.256,6.5Z" transform="translate(-96.582 -213.944)" fill="#fff" opacity="0.4"/><path d="M163.507,259.082l-11.257-6.5,11.256-6.5,11.256,6.5Z" transform="translate(-84.712 -207.091)" fill="#fff"/><path d="M174.15,265.226l-11.256-6.5,11.256-6.5,11.257,6.5Z" transform="translate(-72.842 -200.238)" fill="#fff" opacity="0.4"/><path d="M184.793,271.371l-11.256-6.5,11.256-6.5,11.256,6.5Z" transform="translate(-60.973 -193.385)" fill="#fff"/><path d="M195.436,277.516l-11.256-6.5,11.256-6.5,11.256,6.5Z" transform="translate(-49.103 -186.532)" fill="#fff"/><path d="M206.079,283.661l-11.256-6.5,11.256-6.5,11.256,6.5Z" transform="translate(-37.233 -179.679)" fill="#fff"/><path d="M216.722,289.806l-11.257-6.5,11.256-6.5,11.256,6.5Z" transform="translate(-25.364 -172.826)" fill="#fff" opacity="0.1"/></g><g transform="translate(158.227 13.05)"><path d="M120.892,246.817l-11.256-6.5,11.256-6.5,11.257,6.5Z" transform="translate(-109.635 -233.82)" fill="#fff"/><path d="M131.535,252.962l-11.256-6.5,11.256-6.5,11.256,6.5Z" transform="translate(-97.766 -226.967)" fill="#fff"/><path d="M142.178,259.107l-11.256-6.5,11.256-6.5,11.256,6.5Z" transform="translate(-85.896 -220.114)" fill="#fff"/><path d="M152.821,265.251l-11.256-6.5,11.256-6.5,11.256,6.5Z" transform="translate(-74.026 -213.261)" fill="#fff"/><path d="M163.464,271.4l-11.257-6.5,11.256-6.5,11.256,6.5Z" transform="translate(-62.157 -206.408)" fill="#fff"/><path d="M174.107,277.541l-11.256-6.5,11.256-6.5,11.256,6.5Z" transform="translate(-50.287 -199.555)" fill="#fff"/><path d="M184.75,283.686l-11.257-6.5,11.256-6.5,11.256,6.5Z" transform="translate(-38.417 -192.702)" fill="#fff"/><path d="M195.393,289.831l-11.256-6.5,11.256-6.5,11.257,6.5Z" transform="translate(-26.547 -185.849)" fill="#fff"/><path d="M206.036,295.975l-11.256-6.5,11.256-6.5,11.256,6.5Z" transform="translate(-14.678 -178.996)" fill="#fff"/></g><g transform="translate(135.623 26.101)"><path d="M110.206,252.987l-11.257-6.5,11.256-6.5,11.256,6.5Z" transform="translate(-98.949 -239.989)" fill="#fff"/><path d="M120.849,259.131l-11.256-6.5,11.256-6.5,11.256,6.5Z" transform="translate(-87.079 -233.136)" fill="#fff"/><path d="M131.492,265.276l-11.257-6.5,11.256-6.5,11.256,6.5Z" transform="translate(-75.21 -226.283)" fill="#fff"/><path d="M142.135,271.421l-11.256-6.5,11.256-6.5,11.257,6.5Z" transform="translate(-63.34 -219.43)" fill="#fff" opacity="0.1"/><path d="M152.778,277.566l-11.256-6.5,11.256-6.5,11.256,6.5Z" transform="translate(-51.47 -212.577)" fill="#fff" opacity="0.4"/><path d="M163.421,283.711l-11.256-6.5,11.256-6.5,11.257,6.5Z" transform="translate(-39.6 -205.724)" fill="#fff" opacity="0.4"/><path d="M174.064,289.855l-11.256-6.5,11.256-6.5,11.256,6.5Z" transform="translate(-27.731 -198.871)" fill="#fff"/><path d="M184.707,296l-11.256-6.5,11.256-6.5,11.256,6.5Z" transform="translate(-15.861 -192.018)" fill="#fff"/><path d="M195.35,302.145l-11.256-6.5,11.256-6.5,11.256,6.5Z" transform="translate(-3.991 -185.165)" fill="#fff"/></g><g transform="translate(113.019 39.151)"><path d="M99.519,259.156l-11.256-6.5,11.256-6.5,11.256,6.5Z" transform="translate(-88.263 -246.159)" fill="#fff" opacity="0.4"/><path d="M110.163,265.3l-11.256-6.5,11.256-6.5,11.257,6.5Z" transform="translate(-76.393 -239.306)" fill="#fff" opacity="0.4"/><path d="M120.806,271.446l-11.256-6.5,11.256-6.5,11.256,6.5Z" transform="translate(-64.524 -232.453)" fill="#fff" opacity="0.1"/><path d="M131.449,277.591l-11.256-6.5,11.256-6.5,11.256,6.5Z" transform="translate(-52.654 -225.6)" fill="#fff"/><path d="M142.092,283.736l-11.256-6.5,11.256-6.5,11.256,6.5Z" transform="translate(-40.784 -218.747)" fill="#fff"/><path d="M152.735,289.88l-11.257-6.5,11.256-6.5,11.256,6.5Z" transform="translate(-28.914 -211.894)" fill="#fff"/><path d="M163.378,296.025l-11.256-6.5,11.256-6.5,11.257,6.5Z" transform="translate(-17.045 -205.041)" fill="#fff" opacity="0.4"/><path d="M174.021,302.17l-11.256-6.5,11.256-6.5,11.256,6.5Z" transform="translate(-5.175 -198.188)" fill="#fff"/><path d="M184.664,308.315l-11.256-6.5,11.256-6.5,11.257,6.5Z" transform="translate(6.695 -191.335)" fill="#fff"/></g><g transform="translate(90.416 52.202)"><path d="M88.833,265.326l-11.256-6.5,11.256-6.5,11.256,6.5Z" transform="translate(-77.577 -252.329)" fill="#fff"/><path d="M99.477,271.471l-11.257-6.5,11.256-6.5,11.256,6.5Z" transform="translate(-65.707 -245.476)" fill="#fff"/><path d="M110.119,277.616l-11.256-6.5,11.256-6.5,11.257,6.5Z" transform="translate(-53.838 -238.622)" fill="#fff"/><path d="M120.762,283.76l-11.256-6.5,11.256-6.5,11.256,6.5Z" transform="translate(-41.968 -231.77)" fill="#fff"/><path d="M131.406,289.905l-11.256-6.5,11.256-6.5,11.257,6.5Z" transform="translate(-30.098 -224.917)" fill="#fff"/><path d="M142.049,296.05l-11.256-6.5,11.256-6.5,11.256,6.5Z" transform="translate(-18.228 -218.064)" fill="#fff"/><path d="M152.692,302.195l-11.256-6.5,11.256-6.5,11.256,6.5Z" transform="translate(-6.359 -211.211)" fill="#fff"/><path d="M163.335,308.34l-11.256-6.5,11.256-6.5,11.256,6.5Z" transform="translate(5.511 -204.358)" fill="#fff"/><path d="M173.978,314.484l-11.257-6.5,11.256-6.5,11.256,6.5Z" transform="translate(17.381 -197.505)" fill="#fff"/></g><g transform="translate(67.812 65.252)"><path d="M78.147,271.5,66.891,265l11.256-6.5L89.4,265Z" transform="translate(-66.891 -258.498)" fill="#fff"/><path d="M88.79,277.64l-11.256-6.5,11.256-6.5,11.256,6.5Z" transform="translate(-55.021 -251.645)" fill="#fff"/><path d="M99.433,283.785l-11.256-6.5,11.256-6.5,11.256,6.5Z" transform="translate(-43.151 -244.792)" fill="#fff" opacity="0.4"/><path d="M110.076,289.93l-11.256-6.5,11.256-6.5,11.256,6.5Z" transform="translate(-31.282 -237.939)" fill="#fff"/><path d="M120.72,296.075l-11.257-6.5,11.256-6.5,11.256,6.5Z" transform="translate(-19.412 -231.086)" fill="#fff" opacity="0.1"/><path d="M131.362,302.22l-11.256-6.5,11.256-6.5,11.256,6.5Z" transform="translate(-7.542 -224.233)" fill="#fff"/><path d="M142.005,308.364l-11.256-6.5,11.256-6.5,11.256,6.5Z" transform="translate(4.327 -217.38)" fill="#fff"/><path d="M152.649,314.509l-11.256-6.5,11.256-6.5,11.257,6.5Z" transform="translate(16.197 -210.527)" fill="#fff"/><path d="M163.292,320.654l-11.256-6.5,11.256-6.5,11.256,6.5Z" transform="translate(28.067 -203.674)" fill="#fff"/></g><g transform="translate(45.208 78.302)"><path d="M67.461,277.665l-11.257-6.5,11.256-6.5,11.256,6.5Z" transform="translate(-56.205 -264.668)" fill="#fff"/><path d="M78.1,283.81l-11.256-6.5,11.256-6.5,11.257,6.5Z" transform="translate(-44.335 -257.815)" fill="#fff"/><path d="M88.747,289.955l-11.256-6.5,11.256-6.5,11.256,6.5Z" transform="translate(-32.465 -250.962)" fill="#fff" opacity="0.4"/><path d="M99.39,296.1l-11.256-6.5,11.256-6.5,11.257,6.5Z" transform="translate(-20.595 -244.109)" fill="#fff"/><path d="M110.033,302.244l-11.256-6.5,11.256-6.5,11.256,6.5Z" transform="translate(-8.726 -237.256)" fill="#fff"/><path d="M120.676,308.389l-11.256-6.5,11.256-6.5,11.256,6.5Z" transform="translate(3.144 -230.403)" fill="#fff" opacity="0.1"/><path d="M131.319,314.534l-11.256-6.5,11.256-6.5,11.256,6.5Z" transform="translate(15.014 -223.55)" fill="#fff" opacity="0.4"/><path d="M141.963,320.679l-11.257-6.5,11.256-6.5,11.256,6.5Z" transform="translate(26.883 -216.697)" fill="#fff"/><path d="M152.605,326.823l-11.256-6.5,11.256-6.5,11.256,6.5Z" transform="translate(38.753 -209.844)" fill="#fff" opacity="0.1"/></g><g transform="translate(22.604 91.353)"><path d="M56.775,283.835l-11.256-6.5,11.256-6.5,11.256,6.5Z" transform="translate(-45.519 -270.837)" fill="#fff"/><path d="M67.418,289.98l-11.256-6.5,11.256-6.5,11.256,6.5Z" transform="translate(-33.649 -263.984)" fill="#fff" opacity="0.4"/><path d="M78.061,296.125l-11.256-6.5,11.256-6.5,11.256,6.5Z" transform="translate(-21.779 -257.131)" fill="#fff"/><path d="M88.7,302.269l-11.257-6.5,11.256-6.5,11.256,6.5Z" transform="translate(-9.909 -250.278)" fill="#fff"/><path d="M99.347,308.414l-11.256-6.5,11.256-6.5,11.256,6.5Z" transform="translate(1.96 -243.425)" fill="#fff"/><path d="M109.99,314.559l-11.257-6.5,11.256-6.5,11.256,6.5Z" transform="translate(13.83 -236.572)" fill="#fff"/><path d="M120.633,320.7l-11.256-6.5,11.256-6.5,11.257,6.5Z" transform="translate(25.7 -229.719)" fill="#fff"/><path d="M131.276,326.848l-11.256-6.5,11.256-6.5,11.256,6.5Z" transform="translate(37.57 -222.866)" fill="#fff" opacity="0.4"/><path d="M141.919,332.993l-11.256-6.5,11.256-6.5,11.257,6.5Z" transform="translate(49.439 -216.013)" fill="#fff"/></g><g transform="translate(0 104.403)"><path d="M46.089,290l-11.256-6.5,11.256-6.5,11.256,6.5Z" transform="translate(-34.832 -277.007)" fill="#fff"/><path d="M56.732,296.149l-11.257-6.5,11.256-6.5,11.256,6.5Z" transform="translate(-22.963 -270.154)" fill="#fff" opacity="0.1"/><path d="M67.375,302.294l-11.256-6.5,11.256-6.5,11.257,6.5Z" transform="translate(-11.093 -263.301)" fill="#fff"/><path d="M78.018,308.439l-11.256-6.5,11.256-6.5,11.256,6.5Z" transform="translate(0.777 -256.448)" fill="#fff"/><path d="M88.661,314.583l-11.256-6.5,11.256-6.5,11.256,6.5Z" transform="translate(12.646 -249.595)" fill="#fff"/><path d="M99.3,320.728l-11.256-6.5,11.256-6.5,11.256,6.5Z" transform="translate(24.516 -242.742)" fill="#fff"/><path d="M109.947,326.873l-11.257-6.5,11.256-6.5,11.256,6.5Z" transform="translate(36.386 -235.889)" fill="#fff" opacity="0.4"/><path d="M120.59,333.018l-11.256-6.5,11.256-6.5,11.256,6.5Z" transform="translate(48.256 -229.036)" fill="#fff"/><path d="M131.233,339.163l-11.257-6.5,11.256-6.5,11.256,6.5Z" transform="translate(60.125 -222.183)" fill="#fff"/></g></g><g transform="translate(433.427 289.549)"><g transform="translate(180.831)"><path d="M320.781,240.648l-11.256-6.5,11.256-6.5,11.256,6.5Z" transform="translate(-309.524 -227.65)" fill="#fff"/><path d="M331.424,246.792l-11.256-6.5,11.256-6.5,11.256,6.5Z" transform="translate(-297.655 -220.797)" fill="#fff" opacity="0.1"/><path d="M342.067,252.937l-11.256-6.5,11.256-6.5,11.256,6.5Z" transform="translate(-285.785 -213.944)" fill="#fff" opacity="0.4"/><path d="M352.71,259.082l-11.257-6.5,11.256-6.5,11.256,6.5Z" transform="translate(-273.915 -207.091)" fill="#fff"/><path d="M363.353,265.226l-11.256-6.5,11.256-6.5,11.257,6.5Z" transform="translate(-262.045 -200.238)" fill="#fff" opacity="0.4"/><path d="M374,271.371l-11.256-6.5,11.256-6.5,11.256,6.5Z" transform="translate(-250.176 -193.385)" fill="#fff"/><path d="M384.639,277.516l-11.256-6.5,11.256-6.5,11.257,6.5Z" transform="translate(-238.306 -186.532)" fill="#fff"/><path d="M395.282,283.661l-11.256-6.5,11.256-6.5,11.256,6.5Z" transform="translate(-226.436 -179.679)" fill="#fff"/><path d="M405.925,289.806l-11.256-6.5,11.256-6.5,11.256,6.5Z" transform="translate(-214.566 -172.826)" fill="#fff" opacity="0.1"/></g><g transform="translate(158.227 13.05)"><path d="M310.095,246.817l-11.256-6.5,11.256-6.5,11.257,6.5Z" transform="translate(-298.838 -233.82)" fill="#fff"/><path d="M320.738,252.962l-11.256-6.5,11.256-6.5,11.256,6.5Z" transform="translate(-286.969 -226.967)" fill="#fff"/><path d="M331.381,259.107l-11.256-6.5,11.256-6.5,11.257,6.5Z" transform="translate(-275.099 -220.114)" fill="#fff"/><path d="M342.024,265.251l-11.256-6.5,11.256-6.5,11.256,6.5Z" transform="translate(-263.229 -213.261)" fill="#fff"/><path d="M352.667,271.4l-11.256-6.5,11.256-6.5,11.256,6.5Z" transform="translate(-251.359 -206.408)" fill="#fff"/><path d="M363.31,277.541l-11.256-6.5,11.256-6.5,11.256,6.5Z" transform="translate(-239.49 -199.555)" fill="#fff"/><path d="M373.953,283.686l-11.257-6.5,11.256-6.5,11.256,6.5Z" transform="translate(-227.62 -192.702)" fill="#fff"/><path d="M384.6,289.831l-11.256-6.5,11.256-6.5,11.256,6.5Z" transform="translate(-215.75 -185.849)" fill="#fff"/><path d="M395.239,295.975l-11.257-6.5,11.256-6.5,11.256,6.5Z" transform="translate(-203.88 -178.996)" fill="#fff"/></g><g transform="translate(135.624 26.101)"><path d="M299.409,252.987l-11.256-6.5,11.256-6.5,11.256,6.5Z" transform="translate(-288.152 -239.989)" fill="#fff"/><path d="M310.052,259.131l-11.256-6.5,11.256-6.5,11.256,6.5Z" transform="translate(-276.282 -233.136)" fill="#fff"/><path d="M320.695,265.276l-11.257-6.5,11.256-6.5,11.256,6.5Z" transform="translate(-264.413 -226.283)" fill="#fff"/><path d="M331.338,271.421l-11.256-6.5,11.256-6.5,11.256,6.5Z" transform="translate(-252.543 -219.43)" fill="#fff" opacity="0.1"/><path d="M341.981,277.566l-11.257-6.5,11.256-6.5,11.256,6.5Z" transform="translate(-240.673 -212.577)" fill="#fff" opacity="0.4"/><path d="M352.624,283.711l-11.256-6.5,11.256-6.5,11.257,6.5Z" transform="translate(-228.803 -205.724)" fill="#fff" opacity="0.4"/><path d="M363.267,289.855l-11.256-6.5,11.256-6.5,11.256,6.5Z" transform="translate(-216.934 -198.871)" fill="#fff"/><path d="M373.91,296l-11.256-6.5,11.256-6.5,11.256,6.5Z" transform="translate(-205.064 -192.018)" fill="#fff"/><path d="M384.553,302.145l-11.256-6.5,11.256-6.5,11.256,6.5Z" transform="translate(-193.194 -185.165)" fill="#fff"/></g><g transform="translate(113.019 39.151)"><path d="M288.723,259.156l-11.257-6.5,11.256-6.5,11.256,6.5Z" transform="translate(-277.466 -246.159)" fill="#fff" opacity="0.4"/><path d="M299.365,265.3l-11.256-6.5,11.256-6.5,11.257,6.5Z" transform="translate(-265.596 -239.306)" fill="#fff" opacity="0.4"/><path d="M310.008,271.446l-11.256-6.5,11.256-6.5,11.256,6.5Z" transform="translate(-253.727 -232.453)" fill="#fff" opacity="0.1"/><path d="M320.652,277.591l-11.256-6.5,11.256-6.5,11.256,6.5Z" transform="translate(-241.857 -225.6)" fill="#fff"/><path d="M331.295,283.736l-11.256-6.5,11.256-6.5,11.256,6.5Z" transform="translate(-229.987 -218.747)" fill="#fff"/><path d="M341.938,289.88l-11.257-6.5,11.256-6.5,11.256,6.5Z" transform="translate(-218.117 -211.894)" fill="#fff"/><path d="M352.581,296.025l-11.256-6.5,11.256-6.5,11.256,6.5Z" transform="translate(-206.248 -205.041)" fill="#fff" opacity="0.4"/><path d="M363.224,302.17l-11.257-6.5,11.256-6.5,11.256,6.5Z" transform="translate(-194.378 -198.188)" fill="#fff"/><path d="M373.867,308.315l-11.256-6.5,11.256-6.5,11.257,6.5Z" transform="translate(-182.508 -191.335)" fill="#fff"/></g><g transform="translate(90.416 52.202)"><path d="M278.036,265.326l-11.256-6.5,11.256-6.5,11.256,6.5Z" transform="translate(-266.78 -252.329)" fill="#fff"/><path d="M288.68,271.471l-11.257-6.5,11.256-6.5,11.256,6.5Z" transform="translate(-254.91 -245.476)" fill="#fff"/><path d="M299.322,277.616l-11.256-6.5,11.256-6.5,11.256,6.5Z" transform="translate(-243.04 -238.622)" fill="#fff"/><path d="M309.966,283.76l-11.257-6.5,11.256-6.5,11.256,6.5Z" transform="translate(-231.171 -231.77)" fill="#fff"/><path d="M320.608,289.905l-11.256-6.5,11.256-6.5,11.257,6.5Z" transform="translate(-219.301 -224.917)" fill="#fff"/><path d="M331.251,296.05,320,289.551l11.256-6.5,11.256,6.5Z" transform="translate(-207.431 -218.064)" fill="#fff"/><path d="M341.895,302.195l-11.256-6.5,11.256-6.5,11.257,6.5Z" transform="translate(-195.561 -211.211)" fill="#fff"/><path d="M352.538,308.34l-11.256-6.5,11.256-6.5,11.256,6.5Z" transform="translate(-183.692 -204.358)" fill="#fff"/><path d="M363.181,314.484l-11.256-6.5,11.256-6.5,11.256,6.5Z" transform="translate(-171.822 -197.505)" fill="#fff"/></g><g transform="translate(67.812 65.252)"><path d="M267.35,271.5,256.094,265l11.256-6.5,11.256,6.5Z" transform="translate(-256.094 -258.498)" fill="#fff"/><path d="M277.993,277.64l-11.256-6.5,11.256-6.5,11.256,6.5Z" transform="translate(-244.224 -251.645)" fill="#fff"/><path d="M288.636,283.785l-11.256-6.5,11.256-6.5,11.257,6.5Z" transform="translate(-232.354 -244.792)" fill="#fff" opacity="0.4"/><path d="M299.279,289.93l-11.256-6.5,11.256-6.5,11.256,6.5Z" transform="translate(-220.485 -237.939)" fill="#fff"/><path d="M309.922,296.075l-11.256-6.5,11.256-6.5,11.256,6.5Z" transform="translate(-208.615 -231.086)" fill="#fff" opacity="0.1"/><path d="M320.565,302.22l-11.256-6.5,11.256-6.5,11.256,6.5Z" transform="translate(-196.745 -224.233)" fill="#fff"/><path d="M331.209,308.364l-11.257-6.5,11.256-6.5,11.256,6.5Z" transform="translate(-184.876 -217.38)" fill="#fff"/><path d="M341.851,314.509l-11.256-6.5,11.256-6.5,11.257,6.5Z" transform="translate(-173.006 -210.527)" fill="#fff"/><path d="M352.494,320.654l-11.256-6.5,11.256-6.5,11.256,6.5Z" transform="translate(-161.136 -203.674)" fill="#fff"/></g><g transform="translate(45.208 78.302)"><path d="M256.664,277.665l-11.256-6.5,11.256-6.5,11.256,6.5Z" transform="translate(-245.408 -264.668)" fill="#fff"/><path d="M267.307,283.81l-11.256-6.5,11.256-6.5,11.256,6.5Z" transform="translate(-233.538 -257.815)" fill="#fff"/><path d="M277.95,289.955l-11.257-6.5,11.256-6.5,11.256,6.5Z" transform="translate(-221.668 -250.962)" fill="#fff" opacity="0.4"/><path d="M288.593,296.1l-11.256-6.5,11.256-6.5,11.257,6.5Z" transform="translate(-209.799 -244.109)" fill="#fff"/><path d="M299.236,302.244l-11.256-6.5,11.256-6.5,11.256,6.5Z" transform="translate(-197.929 -237.256)" fill="#fff"/><path d="M309.879,308.389l-11.256-6.5,11.256-6.5,11.257,6.5Z" transform="translate(-186.059 -230.403)" fill="#fff" opacity="0.1"/><path d="M320.522,314.534l-11.256-6.5,11.256-6.5,11.256,6.5Z" transform="translate(-174.189 -223.55)" fill="#fff" opacity="0.4"/><path d="M331.165,320.679l-11.256-6.5,11.256-6.5,11.256,6.5Z" transform="translate(-162.32 -216.697)" fill="#fff"/><path d="M341.808,326.823l-11.256-6.5,11.256-6.5,11.256,6.5Z" transform="translate(-150.45 -209.844)" fill="#fff" opacity="0.1"/></g><g transform="translate(22.604 91.353)"><path d="M245.978,283.835l-11.256-6.5,11.256-6.5,11.256,6.5Z" transform="translate(-234.721 -270.837)" fill="#fff"/><path d="M256.621,289.98l-11.256-6.5,11.256-6.5,11.257,6.5Z" transform="translate(-222.852 -263.984)" fill="#fff" opacity="0.4"/><path d="M267.264,296.125l-11.256-6.5,11.256-6.5,11.256,6.5Z" transform="translate(-210.982 -257.131)" fill="#fff"/><path d="M277.907,302.269l-11.256-6.5,11.256-6.5,11.256,6.5Z" transform="translate(-199.112 -250.278)" fill="#fff"/><path d="M288.55,308.414l-11.256-6.5,11.256-6.5,11.256,6.5Z" transform="translate(-187.243 -243.425)" fill="#fff"/><path d="M299.193,314.559l-11.257-6.5,11.256-6.5,11.256,6.5Z" transform="translate(-175.373 -236.572)" fill="#fff"/><path d="M309.836,320.7l-11.256-6.5,11.256-6.5,11.256,6.5Z" transform="translate(-163.503 -229.719)" fill="#fff"/><path d="M320.479,326.848l-11.257-6.5,11.256-6.5,11.256,6.5Z" transform="translate(-151.633 -222.866)" fill="#fff" opacity="0.4"/><path d="M331.122,332.993l-11.256-6.5,11.256-6.5,11.257,6.5Z" transform="translate(-139.763 -216.013)" fill="#fff"/></g><g transform="translate(0 104.403)"><path d="M235.292,290l-11.256-6.5,11.256-6.5,11.256,6.5Z" transform="translate(-224.035 -277.007)" fill="#fff"/><path d="M245.935,296.149l-11.257-6.5,11.256-6.5,11.256,6.5Z" transform="translate(-212.166 -270.154)" fill="#fff" opacity="0.1"/><path d="M256.578,302.294l-11.256-6.5,11.256-6.5,11.256,6.5Z" transform="translate(-200.296 -263.301)" fill="#fff"/><path d="M267.221,308.439l-11.257-6.5,11.256-6.5,11.256,6.5Z" transform="translate(-188.426 -256.448)" fill="#fff"/><path d="M277.864,314.583l-11.256-6.5,11.256-6.5,11.256,6.5Z" transform="translate(-176.556 -249.595)" fill="#fff"/><path d="M288.507,320.728l-11.256-6.5,11.256-6.5,11.256,6.5Z" transform="translate(-164.687 -242.742)" fill="#fff"/><path d="M299.15,326.873l-11.256-6.5,11.256-6.5,11.256,6.5Z" transform="translate(-152.817 -235.889)" fill="#fff" opacity="0.4"/><path d="M309.793,333.018l-11.256-6.5,11.256-6.5,11.256,6.5Z" transform="translate(-140.947 -229.036)" fill="#fff"/><path d="M320.436,339.163l-11.257-6.5,11.256-6.5,11.256,6.5Z" transform="translate(-129.078 -222.183)" fill="#fff"/></g></g><g transform="translate(234.619 172.148)"><g transform="translate(180.831)"><path d="M226.412,185.146l-11.256-6.5,11.256-6.5,11.257,6.5Z" transform="translate(-215.155 -172.148)" fill="#fff"/><path d="M237.055,191.29l-11.256-6.5,11.256-6.5,11.256,6.5Z" transform="translate(-203.286 -165.295)" fill="#fff" opacity="0.1"/><path d="M247.7,197.435l-11.256-6.5,11.256-6.5,11.256,6.5Z" transform="translate(-191.416 -158.442)" fill="#fff" opacity="0.4"/><path d="M258.341,203.58l-11.256-6.5,11.256-6.5,11.256,6.5Z" transform="translate(-179.546 -151.589)" fill="#fff"/><path d="M268.984,209.725l-11.257-6.5,11.256-6.5,11.256,6.5Z" transform="translate(-167.676 -144.736)" fill="#fff" opacity="0.4"/><path d="M279.627,215.869l-11.256-6.5,11.256-6.5,11.256,6.5Z" transform="translate(-155.807 -137.883)" fill="#fff"/><path d="M290.27,222.014l-11.257-6.5,11.256-6.5,11.256,6.5Z" transform="translate(-143.937 -131.03)" fill="#fff"/><path d="M300.913,228.159l-11.256-6.5,11.256-6.5,11.257,6.5Z" transform="translate(-132.067 -124.177)" fill="#fff"/><path d="M311.556,234.3,300.3,227.8l11.256-6.5,11.256,6.5Z" transform="translate(-120.198 -117.324)" fill="#fff" opacity="0.1"/></g><g transform="translate(158.227 13.051)"><path d="M215.726,191.315l-11.257-6.5,11.256-6.5,11.256,6.5Z" transform="translate(-204.469 -178.318)" fill="#fff"/><path d="M226.369,197.46l-11.256-6.5,11.256-6.5,11.256,6.5Z" transform="translate(-192.599 -171.465)" fill="#fff"/><path d="M237.012,203.6l-11.257-6.5,11.256-6.5,11.256,6.5Z" transform="translate(-180.73 -164.612)" fill="#fff"/><path d="M247.655,209.749l-11.256-6.5,11.256-6.5,11.257,6.5Z" transform="translate(-168.86 -157.759)" fill="#fff"/><path d="M258.3,215.894l-11.256-6.5,11.256-6.5,11.256,6.5Z" transform="translate(-156.99 -150.906)" fill="#fff"/><path d="M268.941,222.039l-11.256-6.5,11.256-6.5,11.256,6.5Z" transform="translate(-145.12 -144.053)" fill="#fff"/><path d="M279.584,228.184l-11.256-6.5,11.256-6.5,11.256,6.5Z" transform="translate(-133.251 -137.2)" fill="#fff"/><path d="M290.227,234.329l-11.257-6.5,11.256-6.5,11.256,6.5Z" transform="translate(-121.381 -130.347)" fill="#fff"/><path d="M300.87,240.473l-11.256-6.5,11.256-6.5,11.256,6.5Z" transform="translate(-109.511 -123.494)" fill="#fff"/></g><g transform="translate(135.623 26.101)"><path d="M205.039,197.485l-11.256-6.5,11.256-6.5,11.256,6.5Z" transform="translate(-193.783 -184.487)" fill="#fff"/><path d="M215.682,203.63l-11.256-6.5,11.256-6.5,11.256,6.5Z" transform="translate(-181.913 -177.634)" fill="#fff"/><path d="M226.325,209.774l-11.256-6.5,11.256-6.5,11.256,6.5Z" transform="translate(-170.044 -170.781)" fill="#fff"/><path d="M236.969,215.919l-11.257-6.5,11.256-6.5,11.256,6.5Z" transform="translate(-158.174 -163.928)" fill="#fff" opacity="0.1"/><path d="M247.612,222.064l-11.256-6.5,11.256-6.5,11.256,6.5Z" transform="translate(-146.304 -157.075)" fill="#fff" opacity="0.4"/><path d="M258.255,228.209,247,221.71l11.256-6.5,11.256,6.5Z" transform="translate(-134.434 -150.222)" fill="#fff" opacity="0.4"/><path d="M268.9,234.354l-11.256-6.5,11.256-6.5,11.257,6.5Z" transform="translate(-122.565 -143.369)" fill="#fff"/><path d="M279.541,240.5,268.284,234l11.256-6.5L290.8,234Z" transform="translate(-110.695 -136.516)" fill="#fff"/><path d="M290.184,246.643l-11.256-6.5,11.256-6.5,11.257,6.5Z" transform="translate(-98.825 -129.663)" fill="#fff"/></g><g transform="translate(113.019 39.151)"><path d="M194.353,203.654l-11.256-6.5,11.256-6.5,11.256,6.5Z" transform="translate(-183.097 -190.657)" fill="#fff" opacity="0.4"/><path d="M205,209.8l-11.257-6.5L205,196.8l11.256,6.5Z" transform="translate(-171.227 -183.804)" fill="#fff" opacity="0.4"/><path d="M215.639,215.944l-11.256-6.5,11.256-6.5,11.257,6.5Z" transform="translate(-159.357 -176.951)" fill="#fff" opacity="0.1"/><path d="M226.282,222.089l-11.256-6.5,11.256-6.5,11.256,6.5Z" transform="translate(-147.488 -170.098)" fill="#fff"/><path d="M236.925,228.234l-11.256-6.5,11.256-6.5,11.257,6.5Z" transform="translate(-135.618 -163.245)" fill="#fff"/><path d="M247.568,234.378l-11.256-6.5,11.256-6.5,11.256,6.5Z" transform="translate(-123.748 -156.392)" fill="#fff"/><path d="M258.212,240.523l-11.256-6.5,11.256-6.5,11.256,6.5Z" transform="translate(-111.878 -149.539)" fill="#fff" opacity="0.4"/><path d="M268.855,246.668l-11.256-6.5,11.256-6.5,11.256,6.5Z" transform="translate(-100.009 -142.686)" fill="#fff"/><path d="M279.5,252.813l-11.257-6.5,11.256-6.5,11.256,6.5Z" transform="translate(-88.139 -135.833)" fill="#fff"/></g><g transform="translate(90.416 52.202)"><path d="M183.667,209.824l-11.256-6.5,11.256-6.5,11.257,6.5Z" transform="translate(-172.411 -196.827)" fill="#fff"/><path d="M194.31,215.969l-11.256-6.5,11.256-6.5,11.256,6.5Z" transform="translate(-160.541 -189.974)" fill="#fff"/><path d="M204.953,222.114l-11.256-6.5,11.256-6.5,11.256,6.5Z" transform="translate(-148.671 -183.121)" fill="#fff"/><path d="M215.6,228.258l-11.256-6.5,11.256-6.5,11.256,6.5Z" transform="translate(-136.802 -176.268)" fill="#fff"/><path d="M226.239,234.4l-11.257-6.5,11.256-6.5,11.256,6.5Z" transform="translate(-124.932 -169.415)" fill="#fff"/><path d="M236.882,240.548l-11.256-6.5,11.256-6.5,11.257,6.5Z" transform="translate(-113.062 -162.562)" fill="#fff"/><path d="M247.525,246.693l-11.256-6.5,11.256-6.5,11.256,6.5Z" transform="translate(-101.192 -155.709)" fill="#fff"/><path d="M258.168,252.838l-11.256-6.5,11.256-6.5,11.257,6.5Z" transform="translate(-89.323 -148.856)" fill="#fff"/><path d="M268.811,258.982l-11.256-6.5,11.256-6.5,11.256,6.5Z" transform="translate(-77.453 -142.003)" fill="#fff"/></g><g transform="translate(67.812 65.252)"><path d="M172.981,215.994l-11.257-6.5,11.256-6.5,11.256,6.5Z" transform="translate(-161.725 -202.996)" fill="#fff"/><path d="M183.624,222.139l-11.256-6.5,11.256-6.5,11.257,6.5Z" transform="translate(-149.855 -196.143)" fill="#fff"/><path d="M194.267,228.283l-11.256-6.5,11.256-6.5,11.256,6.5Z" transform="translate(-137.985 -189.29)" fill="#fff" opacity="0.4"/><path d="M204.91,234.428l-11.256-6.5,11.256-6.5,11.257,6.5Z" transform="translate(-126.115 -182.437)" fill="#fff"/><path d="M215.553,240.573l-11.256-6.5,11.256-6.5,11.256,6.5Z" transform="translate(-114.246 -175.584)" fill="#fff" opacity="0.1"/><path d="M226.2,246.718l-11.256-6.5,11.256-6.5,11.256,6.5Z" transform="translate(-102.376 -168.731)" fill="#fff"/><path d="M236.839,252.862l-11.256-6.5,11.256-6.5,11.256,6.5Z" transform="translate(-90.506 -161.878)" fill="#fff"/><path d="M247.482,259.007l-11.257-6.5,11.256-6.5,11.256,6.5Z" transform="translate(-78.636 -155.025)" fill="#fff"/><path d="M258.125,265.152l-11.256-6.5,11.256-6.5,11.256,6.5Z" transform="translate(-66.767 -148.172)" fill="#fff"/></g><g transform="translate(45.208 78.302)"><path d="M162.295,222.163l-11.256-6.5,11.256-6.5,11.256,6.5Z" transform="translate(-151.038 -209.166)" fill="#fff"/><path d="M172.938,228.308l-11.256-6.5,11.256-6.5,11.256,6.5Z" transform="translate(-139.169 -202.313)" fill="#fff"/><path d="M183.581,234.453l-11.256-6.5,11.256-6.5,11.256,6.5Z" transform="translate(-127.299 -195.46)" fill="#fff" opacity="0.4"/><path d="M194.224,240.6l-11.257-6.5,11.256-6.5,11.256,6.5Z" transform="translate(-115.429 -188.607)" fill="#fff"/><path d="M204.867,246.743l-11.256-6.5,11.256-6.5,11.256,6.5Z" transform="translate(-103.56 -181.754)" fill="#fff"/><path d="M215.51,252.887l-11.257-6.5,11.256-6.5,11.256,6.5Z" transform="translate(-91.69 -174.901)" fill="#fff" opacity="0.1"/><path d="M226.153,259.032l-11.256-6.5,11.256-6.5,11.257,6.5Z" transform="translate(-79.82 -168.048)" fill="#fff" opacity="0.4"/><path d="M236.8,265.177l-11.256-6.5,11.256-6.5,11.256,6.5Z" transform="translate(-67.95 -161.195)" fill="#fff"/><path d="M247.439,271.322l-11.256-6.5,11.256-6.5,11.256,6.5Z" transform="translate(-56.081 -154.342)" fill="#fff" opacity="0.1"/></g><g transform="translate(22.604 91.353)"><path d="M151.609,228.333l-11.256-6.5,11.256-6.5,11.256,6.5Z" transform="translate(-140.352 -215.335)" fill="#fff"/><path d="M162.252,234.478,151,227.979l11.256-6.5,11.256,6.5Z" transform="translate(-128.483 -208.482)" fill="#fff" opacity="0.4"/><path d="M172.895,240.623l-11.256-6.5,11.256-6.5,11.257,6.5Z" transform="translate(-116.613 -201.63)" fill="#fff"/><path d="M183.538,246.767l-11.256-6.5,11.256-6.5,11.256,6.5Z" transform="translate(-104.743 -194.777)" fill="#fff"/><path d="M194.181,252.912l-11.256-6.5,11.256-6.5,11.256,6.5Z" transform="translate(-92.873 -187.923)" fill="#fff"/><path d="M204.824,259.057l-11.256-6.5,11.256-6.5,11.256,6.5Z" transform="translate(-81.004 -181.071)" fill="#fff"/><path d="M215.467,265.2l-11.257-6.5,11.256-6.5,11.256,6.5Z" transform="translate(-69.134 -174.217)" fill="#fff"/><path d="M226.11,271.346l-11.256-6.5,11.256-6.5,11.256,6.5Z" transform="translate(-57.264 -167.364)" fill="#fff" opacity="0.4"/><path d="M236.753,277.491l-11.257-6.5,11.256-6.5,11.256,6.5Z" transform="translate(-45.395 -160.512)" fill="#fff"/></g><g transform="translate(0 104.403)"><path d="M140.923,234.5,129.666,228l11.256-6.5,11.256,6.5Z" transform="translate(-129.666 -221.505)" fill="#fff"/><path d="M151.566,240.648l-11.256-6.5,11.256-6.5,11.256,6.5Z" transform="translate(-117.797 -214.652)" fill="#fff" opacity="0.1"/><path d="M162.209,246.792l-11.257-6.5,11.256-6.5,11.256,6.5Z" transform="translate(-105.927 -207.799)" fill="#fff"/><path d="M172.852,252.937l-11.256-6.5,11.256-6.5,11.256,6.5Z" transform="translate(-94.057 -200.946)" fill="#fff"/><path d="M183.495,259.082l-11.257-6.5,11.256-6.5,11.256,6.5Z" transform="translate(-82.187 -194.093)" fill="#fff"/><path d="M194.138,265.226l-11.256-6.5,11.256-6.5,11.257,6.5Z" transform="translate(-70.318 -187.24)" fill="#fff"/><path d="M204.781,271.371l-11.256-6.5,11.256-6.5,11.256,6.5Z" transform="translate(-58.448 -180.387)" fill="#fff" opacity="0.4"/><path d="M215.424,277.516l-11.256-6.5,11.256-6.5,11.257,6.5Z" transform="translate(-46.578 -173.534)" fill="#fff"/><path d="M226.067,283.661l-11.256-6.5,11.256-6.5,11.256,6.5Z" transform="translate(-34.708 -166.681)" fill="#fff"/></g></g><g transform="translate(234.619 406.529)"><g transform="translate(180.831)"><path d="M226.412,295.95l-11.256-6.5,11.256-6.5,11.257,6.5Z" transform="translate(-215.155 -282.953)" fill="#fff"/><path d="M237.055,302.095,225.8,295.6l11.256-6.5,11.256,6.5Z" transform="translate(-203.286 -276.1)" fill="#fff" opacity="0.1"/><path d="M247.7,308.24l-11.256-6.5,11.256-6.5,11.256,6.5Z" transform="translate(-191.416 -269.247)" fill="#fff" opacity="0.4"/><path d="M258.341,314.385l-11.256-6.5,11.256-6.5,11.256,6.5Z" transform="translate(-179.546 -262.394)" fill="#fff"/><path d="M268.984,320.529l-11.257-6.5,11.256-6.5,11.256,6.5Z" transform="translate(-167.676 -255.541)" fill="#fff" opacity="0.4"/><path d="M279.627,326.674l-11.256-6.5,11.256-6.5,11.256,6.5Z" transform="translate(-155.807 -248.688)" fill="#fff"/><path d="M290.27,332.819l-11.257-6.5,11.256-6.5,11.256,6.5Z" transform="translate(-143.937 -241.835)" fill="#fff"/><path d="M300.913,338.964l-11.256-6.5,11.256-6.5,11.257,6.5Z" transform="translate(-132.067 -234.982)" fill="#fff"/><path d="M311.556,345.108l-11.256-6.5,11.256-6.5,11.256,6.5Z" transform="translate(-120.198 -228.129)" fill="#fff" opacity="0.1"/></g><g transform="translate(158.227 13.05)"><path d="M215.726,302.12l-11.257-6.5,11.256-6.5,11.256,6.5Z" transform="translate(-204.469 -289.122)" fill="#fff"/><path d="M226.369,308.265l-11.256-6.5,11.256-6.5,11.256,6.5Z" transform="translate(-192.599 -282.269)" fill="#fff"/><path d="M237.012,314.409l-11.257-6.5,11.256-6.5,11.256,6.5Z" transform="translate(-180.73 -275.416)" fill="#fff"/><path d="M247.655,320.554l-11.256-6.5,11.256-6.5,11.257,6.5Z" transform="translate(-168.86 -268.563)" fill="#fff"/><path d="M258.3,326.7l-11.256-6.5,11.256-6.5,11.256,6.5Z" transform="translate(-156.99 -261.71)" fill="#fff"/><path d="M268.941,332.844l-11.256-6.5,11.256-6.5,11.256,6.5Z" transform="translate(-145.12 -254.857)" fill="#fff"/><path d="M279.584,338.988l-11.256-6.5,11.256-6.5,11.256,6.5Z" transform="translate(-133.251 -248.004)" fill="#fff"/><path d="M290.227,345.133l-11.257-6.5,11.256-6.5,11.256,6.5Z" transform="translate(-121.381 -241.151)" fill="#fff"/><path d="M300.87,351.278l-11.256-6.5,11.256-6.5,11.256,6.5Z" transform="translate(-109.511 -234.298)" fill="#fff"/></g><g transform="translate(135.623 26.101)"><path d="M205.039,308.289l-11.256-6.5,11.256-6.5,11.256,6.5Z" transform="translate(-193.783 -295.292)" fill="#fff"/><path d="M215.682,314.434l-11.256-6.5,11.256-6.5,11.256,6.5Z" transform="translate(-181.913 -288.439)" fill="#fff"/><path d="M226.325,320.579l-11.256-6.5,11.256-6.5,11.256,6.5Z" transform="translate(-170.044 -281.586)" fill="#fff"/><path d="M236.969,326.724l-11.257-6.5,11.256-6.5,11.256,6.5Z" transform="translate(-158.174 -274.733)" fill="#fff" opacity="0.1"/><path d="M247.612,332.869l-11.256-6.5,11.256-6.5,11.256,6.5Z" transform="translate(-146.304 -267.88)" fill="#fff" opacity="0.4"/><path d="M258.255,339.013,247,332.514l11.256-6.5,11.256,6.5Z" transform="translate(-134.434 -261.027)" fill="#fff" opacity="0.4"/><path d="M268.9,345.158l-11.256-6.5,11.256-6.5,11.257,6.5Z" transform="translate(-122.565 -254.174)" fill="#fff"/><path d="M279.541,351.3l-11.256-6.5,11.256-6.5,11.256,6.5Z" transform="translate(-110.695 -247.321)" fill="#fff"/><path d="M290.184,357.448l-11.256-6.5,11.256-6.5,11.257,6.5Z" transform="translate(-98.825 -240.468)" fill="#fff"/></g><g transform="translate(113.019 39.151)"><path d="M194.353,314.459l-11.256-6.5,11.256-6.5,11.256,6.5Z" transform="translate(-183.097 -301.462)" fill="#fff" opacity="0.4"/><path d="M205,320.6l-11.257-6.5,11.256-6.5,11.256,6.5Z" transform="translate(-171.227 -294.609)" fill="#fff" opacity="0.4"/><path d="M215.639,326.749l-11.256-6.5,11.256-6.5,11.257,6.5Z" transform="translate(-159.357 -287.756)" fill="#fff" opacity="0.1"/><path d="M226.282,332.894l-11.256-6.5,11.256-6.5,11.256,6.5Z" transform="translate(-147.488 -280.903)" fill="#fff"/><path d="M236.925,339.038l-11.256-6.5,11.256-6.5,11.257,6.5Z" transform="translate(-135.618 -274.05)" fill="#fff"/><path d="M247.568,345.183l-11.256-6.5,11.256-6.5,11.256,6.5Z" transform="translate(-123.748 -267.197)" fill="#fff"/><path d="M258.212,351.328l-11.256-6.5,11.256-6.5,11.256,6.5Z" transform="translate(-111.878 -260.344)" fill="#fff" opacity="0.4"/><path d="M268.855,357.472l-11.256-6.5,11.256-6.5,11.256,6.5Z" transform="translate(-100.009 -253.491)" fill="#fff"/><path d="M279.5,363.617l-11.257-6.5,11.256-6.5,11.256,6.5Z" transform="translate(-88.139 -246.638)" fill="#fff"/></g><g transform="translate(90.416 52.202)"><path d="M183.667,320.629l-11.256-6.5,11.256-6.5,11.257,6.5Z" transform="translate(-172.411 -307.631)" fill="#fff"/><path d="M194.31,326.774l-11.256-6.5,11.256-6.5,11.256,6.5Z" transform="translate(-160.541 -300.778)" fill="#fff"/><path d="M204.953,332.918l-11.256-6.5,11.256-6.5,11.256,6.5Z" transform="translate(-148.671 -293.925)" fill="#fff"/><path d="M215.6,339.063l-11.256-6.5,11.256-6.5,11.256,6.5Z" transform="translate(-136.802 -287.072)" fill="#fff"/><path d="M226.239,345.208l-11.257-6.5,11.256-6.5,11.256,6.5Z" transform="translate(-124.932 -280.219)" fill="#fff"/><path d="M236.882,351.352l-11.256-6.5,11.256-6.5,11.257,6.5Z" transform="translate(-113.062 -273.366)" fill="#fff"/><path d="M247.525,357.5,236.269,351l11.256-6.5,11.256,6.5Z" transform="translate(-101.192 -266.513)" fill="#fff"/><path d="M258.168,363.642l-11.256-6.5,11.256-6.5,11.257,6.5Z" transform="translate(-89.323 -259.66)" fill="#fff"/><path d="M268.811,369.787l-11.256-6.5,11.256-6.5,11.256,6.5Z" transform="translate(-77.453 -252.807)" fill="#fff"/></g><g transform="translate(67.812 65.252)"><path d="M172.981,326.8l-11.257-6.5,11.256-6.5,11.256,6.5Z" transform="translate(-161.725 -313.801)" fill="#fff"/><path d="M183.624,332.943l-11.256-6.5,11.256-6.5,11.257,6.5Z" transform="translate(-149.855 -306.948)" fill="#fff"/><path d="M194.267,339.088l-11.256-6.5,11.256-6.5,11.256,6.5Z" transform="translate(-137.985 -300.095)" fill="#fff" opacity="0.4"/><path d="M204.91,345.233l-11.256-6.5,11.256-6.5,11.257,6.5Z" transform="translate(-126.115 -293.242)" fill="#fff"/><path d="M215.553,351.378l-11.256-6.5,11.256-6.5,11.256,6.5Z" transform="translate(-114.246 -286.389)" fill="#fff" opacity="0.1"/><path d="M226.2,357.522l-11.256-6.5,11.256-6.5,11.256,6.5Z" transform="translate(-102.376 -279.536)" fill="#fff"/><path d="M236.839,363.667l-11.256-6.5,11.256-6.5,11.256,6.5Z" transform="translate(-90.506 -272.683)" fill="#fff"/><path d="M247.482,369.812l-11.257-6.5,11.256-6.5,11.256,6.5Z" transform="translate(-78.636 -265.83)" fill="#fff"/><path d="M258.125,375.957l-11.256-6.5,11.256-6.5,11.256,6.5Z" transform="translate(-66.767 -258.977)" fill="#fff"/></g><g transform="translate(45.208 78.302)"><path d="M162.295,332.968l-11.256-6.5,11.256-6.5,11.256,6.5Z" transform="translate(-151.038 -319.971)" fill="#fff"/><path d="M172.938,339.113l-11.256-6.5,11.256-6.5,11.256,6.5Z" transform="translate(-139.169 -313.117)" fill="#fff"/><path d="M183.581,345.257l-11.256-6.5,11.256-6.5,11.256,6.5Z" transform="translate(-127.299 -306.264)" fill="#fff" opacity="0.4"/><path d="M194.224,351.4l-11.257-6.5,11.256-6.5,11.256,6.5Z" transform="translate(-115.429 -299.412)" fill="#fff"/><path d="M204.867,357.547l-11.256-6.5,11.256-6.5,11.256,6.5Z" transform="translate(-103.56 -292.558)" fill="#fff"/><path d="M215.51,363.692l-11.257-6.5,11.256-6.5,11.256,6.5Z" transform="translate(-91.69 -285.706)" fill="#fff" opacity="0.1"/><path d="M226.153,369.837l-11.256-6.5,11.256-6.5,11.257,6.5Z" transform="translate(-79.82 -278.852)" fill="#fff" opacity="0.4"/><path d="M236.8,375.981l-11.256-6.5,11.256-6.5,11.256,6.5Z" transform="translate(-67.95 -271.999)" fill="#fff"/><path d="M247.439,382.126l-11.256-6.5,11.256-6.5,11.256,6.5Z" transform="translate(-56.081 -265.147)" fill="#fff" opacity="0.1"/></g><g transform="translate(22.604 91.353)"><path d="M151.609,339.138l-11.256-6.5,11.256-6.5,11.256,6.5Z" transform="translate(-140.352 -326.14)" fill="#fff"/><path d="M162.252,345.283,151,338.784l11.256-6.5,11.256,6.5Z" transform="translate(-128.483 -319.287)" fill="#fff" opacity="0.4"/><path d="M172.895,351.427l-11.256-6.5,11.256-6.5,11.257,6.5Z" transform="translate(-116.613 -312.434)" fill="#fff"/><path d="M183.538,357.572l-11.256-6.5,11.256-6.5,11.256,6.5Z" transform="translate(-104.743 -305.581)" fill="#fff"/><path d="M194.181,363.717l-11.256-6.5,11.256-6.5,11.256,6.5Z" transform="translate(-92.873 -298.728)" fill="#fff"/><path d="M204.824,369.862l-11.256-6.5,11.256-6.5,11.256,6.5Z" transform="translate(-81.004 -291.875)" fill="#fff"/><path d="M215.467,376.006l-11.257-6.5,11.256-6.5,11.256,6.5Z" transform="translate(-69.134 -285.022)" fill="#fff"/><path d="M226.11,382.151l-11.256-6.5,11.256-6.5,11.256,6.5Z" transform="translate(-57.264 -278.169)" fill="#fff" opacity="0.4"/><path d="M236.753,388.3,225.5,381.8l11.256-6.5,11.256,6.5Z" transform="translate(-45.395 -271.316)" fill="#fff"/></g><g transform="translate(0 104.403)"><path d="M140.923,345.307l-11.256-6.5,11.256-6.5,11.256,6.5Z" transform="translate(-129.666 -332.31)" fill="#fff"/><path d="M151.566,351.452l-11.256-6.5,11.256-6.5,11.256,6.5Z" transform="translate(-117.797 -325.457)" fill="#fff" opacity="0.1"/><path d="M162.209,357.6l-11.257-6.5,11.256-6.5,11.256,6.5Z" transform="translate(-105.927 -318.604)" fill="#fff"/><path d="M172.852,363.742l-11.256-6.5,11.256-6.5,11.256,6.5Z" transform="translate(-94.057 -311.751)" fill="#fff"/><path d="M183.495,369.886l-11.257-6.5,11.256-6.5,11.256,6.5Z" transform="translate(-82.187 -304.898)" fill="#fff"/><path d="M194.138,376.031l-11.256-6.5,11.256-6.5,11.257,6.5Z" transform="translate(-70.318 -298.045)" fill="#fff"/><path d="M204.781,382.176l-11.256-6.5,11.256-6.5,11.256,6.5Z" transform="translate(-58.448 -291.192)" fill="#fff" opacity="0.4"/><path d="M215.424,388.321l-11.256-6.5,11.256-6.5,11.257,6.5Z" transform="translate(-46.578 -284.339)" fill="#fff"/><path d="M226.067,394.466l-11.256-6.5,11.256-6.5,11.256,6.5Z" transform="translate(-34.708 -277.486)" fill="#fff"/></g></g></g></svg>