<svg xmlns="http://www.w3.org/2000/svg" xmlns:xlink="http://www.w3.org/1999/xlink" width="374.609" height="222.597" viewBox="0 0 374.609 222.597"><defs><linearGradient id="a" x1="-0.377" y1="-0.609" x2="0.55" y2="0.418" gradientUnits="objectBoundingBox"><stop offset="0" stop-color="#c0bff6"/><stop offset="0.294" stop-color="#c4c3f6"/><stop offset="0.64" stop-color="#d2d2f9"/><stop offset="1" stop-color="#e9e9fd"/></linearGradient><linearGradient id="b" x1="0.896" y1="1.355" x2="0.491" y2="0.354" xlink:href="#a"/><linearGradient id="c" x1="0.303" y1="0.372" x2="1.223" y2="0.869" xlink:href="#a"/></defs><g transform="translate(-68.56 -140.469)"><path d="M156.39,363.066l259.377-222.6-236.779,162.8Z" transform="translate(27.402)" fill="#24126a"/><g transform="translate(68.56 140.469)"><path d="M443.169,140.469l-281.975,136.7L68.56,223.691Z" transform="translate(-68.56 -140.469)" fill="url(#a)"/><path d="M410.393,140.469l-236.779,162.8,92.634,53.482Z" transform="translate(-35.784 -140.469)" fill="url(#b)"/><path d="M184.362,303.268l236.779-162.8-281.975,136.7,22.6,85.893Z" transform="translate(-46.531 -140.469)" fill="url(#c)"/></g><path d="M136.024,274.794l286.1-134.325-281.975,136.7Z" transform="translate(21.048)" fill="#fff"/><path d="M173.614,303.268l236.779-162.8L177.317,305.406Z" transform="translate(32.776)" fill="#fff"/></g></svg>