<svg xmlns="http://www.w3.org/2000/svg" width="71.328" height="76.815" viewBox="0 0 71.328 76.815"><path d="M72.9,32.736C72.217,32.05,45.76,5.062,45.76,5.062a9.419,9.419,0,0,0-13.443.017S5.981,31.913,5.175,32.753a6.889,6.889,0,0,0-1.8,4.475v36.35a5.5,5.5,0,0,0,5.487,5.487H69.216A5.5,5.5,0,0,0,74.7,73.578V37.057A6.6,6.6,0,0,0,72.9,32.736Zm-3.326,7.253L55.671,54.529a.331.331,0,0,0,0,.48L68.582,68.76a2.225,2.225,0,0,1,0,3.155,2.235,2.235,0,0,1-3.155,0L39.536,44.275a.675.675,0,0,0-.994,0L12.668,71.9a2.235,2.235,0,0,1-3.155,0,2.225,2.225,0,0,1,0-3.155L22.424,54.992a.365.365,0,0,0,0-.48L8.467,39.972c-1.663-1.7-.412-6.138,2.761-6.138H66.85C69.679,33.816,71.24,38.308,69.576,39.989Z" transform="translate(-3.375 -2.25)" fill="#f0a60d"/></svg>