<svg xmlns="http://www.w3.org/2000/svg" xmlns:xlink="http://www.w3.org/1999/xlink" width="1920" height="868" viewBox="0 0 1920 868"><defs><filter id="a" x="-10.317" y="96.712" width="1097.653" height="647.526" filterUnits="userSpaceOnUse"><feOffset dy="3" input="SourceAlpha"/><feGaussianBlur stdDeviation="3" result="b"/><feFlood flood-opacity="0.161"/><feComposite operator="in" in2="b"/></filter><filter id="c" x="-10.317" y="96.712" width="1097.653" height="647.526" filterUnits="userSpaceOnUse"><feOffset input="SourceAlpha"/><feGaussianBlur stdDeviation="10" result="d"/><feFlood flood-opacity="0.161" result="e"/><feComposite operator="out" in="SourceGraphic" in2="d"/><feComposite operator="in" in="e"/><feComposite operator="in" in2="SourceGraphic"/></filter><linearGradient id="f" x1="0.5" y1="0.249" x2="0.5" y2="1" gradientUnits="objectBoundingBox"><stop offset="0" stop-color="#fff"/><stop offset="1" stop-color="#fff" stop-opacity="0.2"/></linearGradient><filter id="g"><feOffset dy="3" input="SourceAlpha"/><feGaussianBlur stdDeviation="10" result="h"/><feFlood flood-opacity="0.161" result="i"/><feComposite operator="out" in="SourceGraphic" in2="h"/><feComposite operator="in" in="i"/><feComposite operator="in" in2="SourceGraphic"/></filter><linearGradient id="j" x1="0.5" y1="0.301" x2="0.5" y2="1" gradientUnits="objectBoundingBox"><stop offset="0" stop-color="#fff"/><stop offset="1" stop-color="#fff" stop-opacity="0.451"/></linearGradient><linearGradient id="k" x1="0.5" x2="0.5" y2="1.04" gradientUnits="objectBoundingBox"><stop offset="0" stop-color="#fff"/><stop offset="1" stop-color="#fff"/></linearGradient><filter id="l" x="-23.817" y="329.849" width="1956.817" height="555.237" filterUnits="userSpaceOnUse"><feOffset dy="3" input="SourceAlpha"/><feGaussianBlur stdDeviation="6" result="m"/><feFlood flood-opacity="0.31"/><feComposite operator="in" in2="m"/><feComposite in="SourceGraphic"/></filter><filter id="n" x="-23.817" y="329.849" width="1956.817" height="555.237" filterUnits="userSpaceOnUse"><feOffset input="SourceAlpha"/><feGaussianBlur stdDeviation="10" result="o"/><feFlood flood-opacity="0.239" result="p"/><feComposite operator="out" in="SourceGraphic" in2="o"/><feComposite operator="in" in="p"/><feComposite operator="in" in2="SourceGraphic"/></filter><clipPath id="r"><rect width="1920" height="868"/></clipPath></defs><g id="q" clip-path="url(#r)"><g transform="translate(-0.818 -538.5)"><g data-type="innerShadowGroup"><g transform="matrix(1, 0, 0, 1, 0.82, 538.5)" filter="url(#a)"><path d="M0,628.559H0V3.742c.628-.126,1.248-.249,1.847-.363A188.447,188.447,0,0,1,85.5,6.25a200.148,200.148,0,0,1,44.922,17.9A213.567,213.567,0,0,1,170.407,52.4,225.163,225.163,0,0,1,203.774,89.75a100.614,100.614,0,0,1,74.655-8.49,107.554,107.554,0,0,1,24.928,10.373,114.9,114.9,0,0,1,21.967,16.346,120.983,120.983,0,0,1,17.98,21.545,97.352,97.352,0,0,1,16.208-11.507,115.351,115.351,0,0,1,19.26-8.682,132.124,132.124,0,0,1,21.761-5.483,146.358,146.358,0,0,1,23.711-1.911c3.675,0,7.417.135,11.123.4a153.21,153.21,0,0,1,31.81,5.685,140.4,140.4,0,0,1,28.086,11.554c17.271,9.458,31.127,22.079,40.071,36.5a67.777,67.777,0,0,1,31.878-7.929,72.253,72.253,0,0,1,39.526,12.079,80.866,80.866,0,0,1,9.4-11.96,76.554,76.554,0,0,1,11.442-9.857,72.87,72.87,0,0,1,41.836-13.22,73.666,73.666,0,0,1,24.326,4.16,79.406,79.406,0,0,1,21.767,11.727,85.605,85.605,0,0,1,17.705,18.164,90.046,90.046,0,0,1,12.138,23.471,73.467,73.467,0,0,1,19.4-31.156A66.226,66.226,0,0,1,779.59,141a64.654,64.654,0,0,1,29.768-7.267,65.614,65.614,0,0,1,24.021,4.586,71.388,71.388,0,0,1,20.988,12.829,76.908,76.908,0,0,1,16.074,19.679,81.005,81.005,0,0,1,9.276,25.134c.041.22.069.441.094.635s.055.429.1.648c16.174-2.184,32.128-3.85,47.418-4.952,15.011-1.083,29.5-1.632,43.063-1.632a394.621,394.621,0,0,1,42.288,2.084,198.594,198.594,0,0,1,33.272,6.165c9.494,2.751,17.057,6.155,22.479,10.118,5.584,4.081,8.917,8.771,9.907,13.941,1.347,7.031-1.638,14.76-8.871,22.972-6.994,7.938-17.812,16.176-32.156,24.484-14.195,8.222-31.474,16.3-51.358,24.018a667.354,667.354,0,0,1-66.48,21.573,71.878,71.878,0,0,1-7.8,15.043,67.57,67.57,0,0,1-10.978,12.52,63.529,63.529,0,0,1-13.74,9.319A62.231,62.231,0,0,1,859.2,359.45a62.842,62.842,0,0,1-20.066-3.315,67.729,67.729,0,0,1-18.083-9.353,98.194,98.194,0,0,1-10.357,21.307,92.014,92.014,0,0,1-14.968,17.775A85.972,85.972,0,0,1,776.745,399.1a83.889,83.889,0,0,1-38.11,9.183,84.856,84.856,0,0,1-26.4-4.244,91.861,91.861,0,0,1-23.919-11.972,79.662,79.662,0,0,1-20.2,37.846,69.785,69.785,0,0,1-37.135,20.236,68.466,68.466,0,0,1-12.853,1.222,70.56,70.56,0,0,1-25.617-4.873,63.528,63.528,0,0,1-13.407,8.87,61.8,61.8,0,0,1-15.6,5.213,60.355,60.355,0,0,1-11.331,1.068,63.82,63.82,0,0,1-7.1-.4,123.881,123.881,0,0,1-20.4,10.9,132.849,132.849,0,0,1-34.3,31.77A125.753,125.753,0,0,1,397.4,521.2a131.04,131.04,0,0,1-24.017-7.38,138,138,0,0,1-22.324-11.8,145.09,145.09,0,0,1-20.1-15.811,138.963,138.963,0,0,1-16,18.806,131.553,131.553,0,0,1-19.059,15.5,125.135,125.135,0,0,1-69.51,21.122,128.429,128.429,0,0,1-45.887-8.572,97.339,97.339,0,0,1-53.3,29.838,95.992,95.992,0,0,1-17.994,1.71,97.7,97.7,0,0,1-33.948-6.144C59.072,591.282,32.346,616.174,0,628.559Z" transform="translate(-0.82 103.21)" fill="#fff" stroke="rgba(0,0,0,0)" stroke-miterlimit="10" stroke-width="1" opacity="0.44"/></g><path d="M0,628.559H0V3.742c.628-.126,1.248-.249,1.847-.363A188.447,188.447,0,0,1,85.5,6.25a200.148,200.148,0,0,1,44.922,17.9A213.567,213.567,0,0,1,170.407,52.4,225.163,225.163,0,0,1,203.774,89.75a100.614,100.614,0,0,1,74.655-8.49,107.554,107.554,0,0,1,24.928,10.373,114.9,114.9,0,0,1,21.967,16.346,120.983,120.983,0,0,1,17.98,21.545,97.352,97.352,0,0,1,16.208-11.507,115.351,115.351,0,0,1,19.26-8.682,132.124,132.124,0,0,1,21.761-5.483,146.358,146.358,0,0,1,23.711-1.911c3.675,0,7.417.135,11.123.4a153.21,153.21,0,0,1,31.81,5.685,140.4,140.4,0,0,1,28.086,11.554c17.271,9.458,31.127,22.079,40.071,36.5a67.777,67.777,0,0,1,31.878-7.929,72.253,72.253,0,0,1,39.526,12.079,80.866,80.866,0,0,1,9.4-11.96,76.554,76.554,0,0,1,11.442-9.857,72.87,72.87,0,0,1,41.836-13.22,73.666,73.666,0,0,1,24.326,4.16,79.406,79.406,0,0,1,21.767,11.727,85.605,85.605,0,0,1,17.705,18.164,90.046,90.046,0,0,1,12.138,23.471,73.467,73.467,0,0,1,19.4-31.156A66.226,66.226,0,0,1,779.59,141a64.654,64.654,0,0,1,29.768-7.267,65.614,65.614,0,0,1,24.021,4.586,71.388,71.388,0,0,1,20.988,12.829,76.908,76.908,0,0,1,16.074,19.679,81.005,81.005,0,0,1,9.276,25.134c.041.22.069.441.094.635s.055.429.1.648c16.174-2.184,32.128-3.85,47.418-4.952,15.011-1.083,29.5-1.632,43.063-1.632a394.621,394.621,0,0,1,42.288,2.084,198.594,198.594,0,0,1,33.272,6.165c9.494,2.751,17.057,6.155,22.479,10.118,5.584,4.081,8.917,8.771,9.907,13.941,1.347,7.031-1.638,14.76-8.871,22.972-6.994,7.938-17.812,16.176-32.156,24.484-14.195,8.222-31.474,16.3-51.358,24.018a667.354,667.354,0,0,1-66.48,21.573,71.878,71.878,0,0,1-7.8,15.043,67.57,67.57,0,0,1-10.978,12.52,63.529,63.529,0,0,1-13.74,9.319A62.231,62.231,0,0,1,859.2,359.45a62.842,62.842,0,0,1-20.066-3.315,67.729,67.729,0,0,1-18.083-9.353,98.194,98.194,0,0,1-10.357,21.307,92.014,92.014,0,0,1-14.968,17.775A85.972,85.972,0,0,1,776.745,399.1a83.889,83.889,0,0,1-38.11,9.183,84.856,84.856,0,0,1-26.4-4.244,91.861,91.861,0,0,1-23.919-11.972,79.662,79.662,0,0,1-20.2,37.846,69.785,69.785,0,0,1-37.135,20.236,68.466,68.466,0,0,1-12.853,1.222,70.56,70.56,0,0,1-25.617-4.873,63.528,63.528,0,0,1-13.407,8.87,61.8,61.8,0,0,1-15.6,5.213,60.355,60.355,0,0,1-11.331,1.068,63.82,63.82,0,0,1-7.1-.4,123.881,123.881,0,0,1-20.4,10.9,132.849,132.849,0,0,1-34.3,31.77A125.753,125.753,0,0,1,397.4,521.2a131.04,131.04,0,0,1-24.017-7.38,138,138,0,0,1-22.324-11.8,145.09,145.09,0,0,1-20.1-15.811,138.963,138.963,0,0,1-16,18.806,131.553,131.553,0,0,1-19.059,15.5,125.135,125.135,0,0,1-69.51,21.122,128.429,128.429,0,0,1-45.887-8.572,97.339,97.339,0,0,1-53.3,29.838,95.992,95.992,0,0,1-17.994,1.71,97.7,97.7,0,0,1-33.948-6.144C59.072,591.282,32.346,616.174,0,628.559Z" transform="translate(0 641.712)" fill="#fff" opacity="0.44"/><g transform="matrix(1, 0, 0, 1, 0.82, 538.5)" filter="url(#c)"><path d="M0,628.559H0V3.742c.628-.126,1.248-.249,1.847-.363A188.447,188.447,0,0,1,85.5,6.25a200.148,200.148,0,0,1,44.922,17.9A213.567,213.567,0,0,1,170.407,52.4,225.163,225.163,0,0,1,203.774,89.75a100.614,100.614,0,0,1,74.655-8.49,107.554,107.554,0,0,1,24.928,10.373,114.9,114.9,0,0,1,21.967,16.346,120.983,120.983,0,0,1,17.98,21.545,97.352,97.352,0,0,1,16.208-11.507,115.351,115.351,0,0,1,19.26-8.682,132.124,132.124,0,0,1,21.761-5.483,146.358,146.358,0,0,1,23.711-1.911c3.675,0,7.417.135,11.123.4a153.21,153.21,0,0,1,31.81,5.685,140.4,140.4,0,0,1,28.086,11.554c17.271,9.458,31.127,22.079,40.071,36.5a67.777,67.777,0,0,1,31.878-7.929,72.253,72.253,0,0,1,39.526,12.079,80.866,80.866,0,0,1,9.4-11.96,76.554,76.554,0,0,1,11.442-9.857,72.87,72.87,0,0,1,41.836-13.22,73.666,73.666,0,0,1,24.326,4.16,79.406,79.406,0,0,1,21.767,11.727,85.605,85.605,0,0,1,17.705,18.164,90.046,90.046,0,0,1,12.138,23.471,73.467,73.467,0,0,1,19.4-31.156A66.226,66.226,0,0,1,779.59,141a64.654,64.654,0,0,1,29.768-7.267,65.614,65.614,0,0,1,24.021,4.586,71.388,71.388,0,0,1,20.988,12.829,76.908,76.908,0,0,1,16.074,19.679,81.005,81.005,0,0,1,9.276,25.134c.041.22.069.441.094.635s.055.429.1.648c16.174-2.184,32.128-3.85,47.418-4.952,15.011-1.083,29.5-1.632,43.063-1.632a394.621,394.621,0,0,1,42.288,2.084,198.594,198.594,0,0,1,33.272,6.165c9.494,2.751,17.057,6.155,22.479,10.118,5.584,4.081,8.917,8.771,9.907,13.941,1.347,7.031-1.638,14.76-8.871,22.972-6.994,7.938-17.812,16.176-32.156,24.484-14.195,8.222-31.474,16.3-51.358,24.018a667.354,667.354,0,0,1-66.48,21.573,71.878,71.878,0,0,1-7.8,15.043,67.57,67.57,0,0,1-10.978,12.52,63.529,63.529,0,0,1-13.74,9.319A62.231,62.231,0,0,1,859.2,359.45a62.842,62.842,0,0,1-20.066-3.315,67.729,67.729,0,0,1-18.083-9.353,98.194,98.194,0,0,1-10.357,21.307,92.014,92.014,0,0,1-14.968,17.775A85.972,85.972,0,0,1,776.745,399.1a83.889,83.889,0,0,1-38.11,9.183,84.856,84.856,0,0,1-26.4-4.244,91.861,91.861,0,0,1-23.919-11.972,79.662,79.662,0,0,1-20.2,37.846,69.785,69.785,0,0,1-37.135,20.236,68.466,68.466,0,0,1-12.853,1.222,70.56,70.56,0,0,1-25.617-4.873,63.528,63.528,0,0,1-13.407,8.87,61.8,61.8,0,0,1-15.6,5.213,60.355,60.355,0,0,1-11.331,1.068,63.82,63.82,0,0,1-7.1-.4,123.881,123.881,0,0,1-20.4,10.9,132.849,132.849,0,0,1-34.3,31.77A125.753,125.753,0,0,1,397.4,521.2a131.04,131.04,0,0,1-24.017-7.38,138,138,0,0,1-22.324-11.8,145.09,145.09,0,0,1-20.1-15.811,138.963,138.963,0,0,1-16,18.806,131.553,131.553,0,0,1-19.059,15.5,125.135,125.135,0,0,1-69.51,21.122,128.429,128.429,0,0,1-45.887-8.572,97.339,97.339,0,0,1-53.3,29.838,95.992,95.992,0,0,1-17.994,1.71,97.7,97.7,0,0,1-33.948-6.144C59.072,591.282,32.346,616.174,0,628.559Z" transform="translate(-0.82 103.21)" fill="#fff" opacity="0.44"/></g><path d="M0,628.559H0V3.742c.628-.126,1.248-.249,1.847-.363A188.447,188.447,0,0,1,85.5,6.25a200.148,200.148,0,0,1,44.922,17.9A213.567,213.567,0,0,1,170.407,52.4,225.163,225.163,0,0,1,203.774,89.75a100.614,100.614,0,0,1,74.655-8.49,107.554,107.554,0,0,1,24.928,10.373,114.9,114.9,0,0,1,21.967,16.346,120.983,120.983,0,0,1,17.98,21.545,97.352,97.352,0,0,1,16.208-11.507,115.351,115.351,0,0,1,19.26-8.682,132.124,132.124,0,0,1,21.761-5.483,146.358,146.358,0,0,1,23.711-1.911c3.675,0,7.417.135,11.123.4a153.21,153.21,0,0,1,31.81,5.685,140.4,140.4,0,0,1,28.086,11.554c17.271,9.458,31.127,22.079,40.071,36.5a67.777,67.777,0,0,1,31.878-7.929,72.253,72.253,0,0,1,39.526,12.079,80.866,80.866,0,0,1,9.4-11.96,76.554,76.554,0,0,1,11.442-9.857,72.87,72.87,0,0,1,41.836-13.22,73.666,73.666,0,0,1,24.326,4.16,79.406,79.406,0,0,1,21.767,11.727,85.605,85.605,0,0,1,17.705,18.164,90.046,90.046,0,0,1,12.138,23.471,73.467,73.467,0,0,1,19.4-31.156A66.226,66.226,0,0,1,779.59,141a64.654,64.654,0,0,1,29.768-7.267,65.614,65.614,0,0,1,24.021,4.586,71.388,71.388,0,0,1,20.988,12.829,76.908,76.908,0,0,1,16.074,19.679,81.005,81.005,0,0,1,9.276,25.134c.041.22.069.441.094.635s.055.429.1.648c16.174-2.184,32.128-3.85,47.418-4.952,15.011-1.083,29.5-1.632,43.063-1.632a394.621,394.621,0,0,1,42.288,2.084,198.594,198.594,0,0,1,33.272,6.165c9.494,2.751,17.057,6.155,22.479,10.118,5.584,4.081,8.917,8.771,9.907,13.941,1.347,7.031-1.638,14.76-8.871,22.972-6.994,7.938-17.812,16.176-32.156,24.484-14.195,8.222-31.474,16.3-51.358,24.018a667.354,667.354,0,0,1-66.48,21.573,71.878,71.878,0,0,1-7.8,15.043,67.57,67.57,0,0,1-10.978,12.52,63.529,63.529,0,0,1-13.74,9.319A62.231,62.231,0,0,1,859.2,359.45a62.842,62.842,0,0,1-20.066-3.315,67.729,67.729,0,0,1-18.083-9.353,98.194,98.194,0,0,1-10.357,21.307,92.014,92.014,0,0,1-14.968,17.775A85.972,85.972,0,0,1,776.745,399.1a83.889,83.889,0,0,1-38.11,9.183,84.856,84.856,0,0,1-26.4-4.244,91.861,91.861,0,0,1-23.919-11.972,79.662,79.662,0,0,1-20.2,37.846,69.785,69.785,0,0,1-37.135,20.236,68.466,68.466,0,0,1-12.853,1.222,70.56,70.56,0,0,1-25.617-4.873,63.528,63.528,0,0,1-13.407,8.87,61.8,61.8,0,0,1-15.6,5.213,60.355,60.355,0,0,1-11.331,1.068,63.82,63.82,0,0,1-7.1-.4,123.881,123.881,0,0,1-20.4,10.9,132.849,132.849,0,0,1-34.3,31.77A125.753,125.753,0,0,1,397.4,521.2a131.04,131.04,0,0,1-24.017-7.38,138,138,0,0,1-22.324-11.8,145.09,145.09,0,0,1-20.1-15.811,138.963,138.963,0,0,1-16,18.806,131.553,131.553,0,0,1-19.059,15.5,125.135,125.135,0,0,1-69.51,21.122,128.429,128.429,0,0,1-45.887-8.572,97.339,97.339,0,0,1-53.3,29.838,95.992,95.992,0,0,1-17.994,1.71,97.7,97.7,0,0,1-33.948-6.144C59.072,591.282,32.346,616.174,0,628.559Z" transform="translate(0 641.712)" fill="none" stroke="rgba(0,0,0,0)" stroke-miterlimit="10" stroke-width="1" opacity="0.44"/></g><path d="M912.606,596.7a86.05,86.05,0,0,1-25.465-3.871,94.943,94.943,0,0,1-23.409-11.033,113.834,113.834,0,0,1-20.706-17.325,138.2,138.2,0,0,1-17.356-22.747A71.328,71.328,0,0,1,806.9,551.83a62.256,62.256,0,0,1-20.75,3.583c-16.357,0-32.144-6.46-45.652-18.683a94.382,94.382,0,0,1-24.993,13.779,81.36,81.36,0,0,1-27.714,4.9,82.761,82.761,0,0,1-38.42-9.582,99.267,99.267,0,0,1-17.042-11.28,117.124,117.124,0,0,1-15.169-14.984,134.013,134.013,0,0,1-16.569,22.538,109.63,109.63,0,0,1-19.944,17.216,90.548,90.548,0,0,1-22.668,10.992,81.516,81.516,0,0,1-24.747,3.865,82.984,82.984,0,0,1-36.765-8.678,104.123,104.123,0,0,1-31.242-23.987,84.669,84.669,0,0,1-17.4-6.654,39.6,39.6,0,0,1-27.2.606,45.418,45.418,0,0,1-11.687-6A52.083,52.083,0,0,1,395.1,537.2a44.593,44.593,0,0,1-15.373,2.757c-11.3,0-22.274-4.319-31.725-12.491-9.189-7.945-16.532-19.127-21.234-32.34-13.339,16.8-30.707,26.054-48.9,26.054a54.581,54.581,0,0,1-18.458-3.234,62.3,62.3,0,0,1-16.642-9.136,77.763,77.763,0,0,1-14.212-14.189,96.289,96.289,0,0,1-11.167-18.394,59.833,59.833,0,0,1-7.748,8.373,50.3,50.3,0,0,1-8.854,6.324,41.15,41.15,0,0,1-20.224,5.391,40.388,40.388,0,0,1-13.251-2.248A45.724,45.724,0,0,1,155.3,487.7a56.492,56.492,0,0,1-10.349-9.914,69.533,69.533,0,0,1-8.264-12.894,432.514,432.514,0,0,1-54.623-8.413,249.875,249.875,0,0,1-43.289-13.5c-12.327-5.293-21.917-11.161-28.5-17.441C3.455,419.046,0,412.235,0,405.3c0-7.315,3.827-14.475,11.375-21.283,7.293-6.578,17.869-12.666,31.432-18.094,13.454-5.385,29.418-9.951,47.451-13.572a462.35,462.35,0,0,1,59.43-7.714c0-.181-.012-.365-.021-.543v-.033c-.011-.222-.022-.451-.022-.68a94.221,94.221,0,0,1,4.306-28.484A83.4,83.4,0,0,1,159,302.464a73.343,73.343,0,0,1,6.69-10.831A62.458,62.458,0,0,1,173.8,282.7a52.518,52.518,0,0,1,9.307-6.748,42.949,42.949,0,0,1,21.33-5.751,41.958,41.958,0,0,1,14.515,2.606,48.231,48.231,0,0,1,13.04,7.35c8.07,6.31,14.856,15.342,19.625,26.121a101.694,101.694,0,0,1,7.124-27.6,82.554,82.554,0,0,1,13.516-22.159,61.051,61.051,0,0,1,18.451-14.744,47.607,47.607,0,0,1,45.447.859,58.725,58.725,0,0,1,10.312,7.294,69.888,69.888,0,0,1,9.049,9.668,59.053,59.053,0,0,1,17.755-14.566,44.309,44.309,0,0,1,36.868-2.4,104.988,104.988,0,0,1,25.586-42.049,111.411,111.411,0,0,1,20.015-16.117A108.026,108.026,0,0,1,479.5,173.25a96,96,0,0,1,30.013-4.965,81.56,81.56,0,0,1,24.372,3.633,71.784,71.784,0,0,1,20.858,10.41,125.317,125.317,0,0,1,12.958-27.465,100.623,100.623,0,0,1,18.09-21.455c14.005-12.393,30.327-18.944,47.2-18.944a66.058,66.058,0,0,1,23.792,4.567A229.3,229.3,0,0,1,681.4,70.7a184.141,184.141,0,0,1,33.32-37.614,143.975,143.975,0,0,1,40.2-24.4,122.247,122.247,0,0,1,85.146-2,138.613,138.613,0,0,1,36.2,18.953,170.572,170.572,0,0,1,31.276,29.551,209.675,209.675,0,0,1,25.112,38.482,74.671,74.671,0,0,1,19.8-10.962,64.25,64.25,0,0,1,21.97-3.9c16.981,0,33.349,6.72,47.336,19.433a100.289,100.289,0,0,1,17.942,21.954,124.709,124.709,0,0,1,12.579,28.036,64.322,64.322,0,0,1,15.24-6.923,57.176,57.176,0,0,1,26.832-1.511V581.458a87.01,87.01,0,0,1-15.8-13.3,105.679,105.679,0,0,1-13.226-17.45,70.252,70.252,0,0,1-9.079,9.783,58.987,58.987,0,0,1-10.368,7.389,48.265,48.265,0,0,1-23.684,6.3,47.5,47.5,0,0,1-18.9-3.964A57.686,57.686,0,0,1,986.761,559.2a112.54,112.54,0,0,1-33.839,27.476A87.117,87.117,0,0,1,912.606,596.7Z" transform="translate(826.457 538.5)" fill="#fff" stroke="rgba(0,0,0,0)" stroke-miterlimit="10" stroke-width="1" opacity="0.37"/><g data-type="innerShadowGroup"><path d="M0,716.922V0A142.571,142.571,0,0,1,38.147,23.2,154.585,154.585,0,0,1,68.1,57.327a134.841,134.841,0,0,1,19.526-19.3,126.881,126.881,0,0,1,22.864-14.658,120.548,120.548,0,0,1,25.585-9.311,119.02,119.02,0,0,1,27.688-3.26A120.659,120.659,0,0,1,234.16,33.605a133.175,133.175,0,0,1,27.066,25.857,142.07,142.07,0,0,1,19.5,33.129,206.557,206.557,0,0,1,24.563-5.006,185.011,185.011,0,0,1,25.48-1.793,193.9,193.9,0,0,1,72.064,13.834A201.72,201.72,0,0,1,435.087,116a210.844,210.844,0,0,1,28.971,21.851,220.472,220.472,0,0,1,25.127,26.717A228.739,228.739,0,0,1,509.9,195.53a237.03,237.03,0,0,1,25.934,72.222c.118.223.248.443.374.656l.01.016c.1.17.2.342.3.519a84.427,84.427,0,0,1,23.865-13.63,80.1,80.1,0,0,1,61.206,2.43,84.445,84.445,0,0,1,14.669,8.637,88.911,88.911,0,0,1,12.782,11.441,93.18,93.18,0,0,1,10.547,13.87,96.491,96.491,0,0,1,7.963,15.923,100.1,100.1,0,0,1,6.789,36.5c0,.431-.029.865-.055,1.247v.008c-.022.328-.044.668-.051,1,62.235.955,120.051,6.985,162.8,16.979,10.345,2.418,19.719,5.058,27.862,7.844a138.361,138.361,0,0,1,20.981,8.908c5.8,3.152,10.25,6.443,13.229,9.783,3.054,3.425,4.6,6.947,4.6,10.471,0,6.237-4.791,12.348-14.239,18.164-9.128,5.619-22.394,10.843-39.427,15.527a483.5,483.5,0,0,1-59.683,11.827c-23.124,3.264-48.359,5.64-75.006,7.062a98.464,98.464,0,0,1-10.076,31.088,92.691,92.691,0,0,1-18.894,24.943,84.755,84.755,0,0,1-25.7,16.587,80.153,80.153,0,0,1-51.712,3.156,82.419,82.419,0,0,1-19.309-8.1,92.762,92.762,0,0,1-13.531,16.495,87.009,87.009,0,0,1-16.73,12.658,81.759,81.759,0,0,1-19.3,8.114,80.021,80.021,0,0,1-21.23,2.862c-1.769,0-3.531-.135-5.236-.267l-.117-.009-.876-.066a91.869,91.869,0,0,1-9.942,24.845,120.935,120.935,0,0,1-17.353,22.947,166.964,166.964,0,0,1-24,20.612,225.634,225.634,0,0,1-29.882,17.841,289.549,289.549,0,0,1-35,14.635,350.015,350.015,0,0,1-39.357,10.993,416.2,416.2,0,0,1-88.729,9.317,425.148,425.148,0,0,1-63.524-4.717,373.138,373.138,0,0,1-57.378-13.281,100.549,100.549,0,0,1-81.242,2.128,188.728,188.728,0,0,1-30.324,29.6A176.561,176.561,0,0,1,0,716.921Z" transform="translate(0 685.664)" fill="url(#f)"/><g transform="matrix(1, 0, 0, 1, 0.82, 538.5)" filter="url(#g)"><path d="M0,716.922V0A142.571,142.571,0,0,1,38.147,23.2,154.585,154.585,0,0,1,68.1,57.327a134.841,134.841,0,0,1,19.526-19.3,126.881,126.881,0,0,1,22.864-14.658,120.548,120.548,0,0,1,25.585-9.311,119.02,119.02,0,0,1,27.688-3.26A120.659,120.659,0,0,1,234.16,33.605a133.175,133.175,0,0,1,27.066,25.857,142.07,142.07,0,0,1,19.5,33.129,206.557,206.557,0,0,1,24.563-5.006,185.011,185.011,0,0,1,25.48-1.793,193.9,193.9,0,0,1,72.064,13.834A201.72,201.72,0,0,1,435.087,116a210.844,210.844,0,0,1,28.971,21.851,220.472,220.472,0,0,1,25.127,26.717A228.739,228.739,0,0,1,509.9,195.53a237.03,237.03,0,0,1,25.934,72.222c.118.223.248.443.374.656l.01.016c.1.17.2.342.3.519a84.427,84.427,0,0,1,23.865-13.63,80.1,80.1,0,0,1,61.206,2.43,84.445,84.445,0,0,1,14.669,8.637,88.911,88.911,0,0,1,12.782,11.441,93.18,93.18,0,0,1,10.547,13.87,96.491,96.491,0,0,1,7.963,15.923,100.1,100.1,0,0,1,6.789,36.5c0,.431-.029.865-.055,1.247v.008c-.022.328-.044.668-.051,1,62.235.955,120.051,6.985,162.8,16.979,10.345,2.418,19.719,5.058,27.862,7.844a138.361,138.361,0,0,1,20.981,8.908c5.8,3.152,10.25,6.443,13.229,9.783,3.054,3.425,4.6,6.947,4.6,10.471,0,6.237-4.791,12.348-14.239,18.164-9.128,5.619-22.394,10.843-39.427,15.527a483.5,483.5,0,0,1-59.683,11.827c-23.124,3.264-48.359,5.64-75.006,7.062a98.464,98.464,0,0,1-10.076,31.088,92.691,92.691,0,0,1-18.894,24.943,84.755,84.755,0,0,1-25.7,16.587,80.153,80.153,0,0,1-51.712,3.156,82.419,82.419,0,0,1-19.309-8.1,92.762,92.762,0,0,1-13.531,16.495,87.009,87.009,0,0,1-16.73,12.658,81.759,81.759,0,0,1-19.3,8.114,80.021,80.021,0,0,1-21.23,2.862c-1.769,0-3.531-.135-5.236-.267l-.117-.009-.876-.066a91.869,91.869,0,0,1-9.942,24.845,120.935,120.935,0,0,1-17.353,22.947,166.964,166.964,0,0,1-24,20.612,225.634,225.634,0,0,1-29.882,17.841,289.549,289.549,0,0,1-35,14.635,350.015,350.015,0,0,1-39.357,10.993,416.2,416.2,0,0,1-88.729,9.317,425.148,425.148,0,0,1-63.524-4.717,373.138,373.138,0,0,1-57.378-13.281,100.549,100.549,0,0,1-81.242,2.128,188.728,188.728,0,0,1-30.324,29.6A176.561,176.561,0,0,1,0,716.921Z" transform="translate(-0.82 147.16)" fill="#fff"/></g></g><g data-type="innerShadowGroup"><path d="M1242.039,757.808h0c-2.167-.009-4.361-.055-6.523-.133a202.59,202.59,0,0,1-139.952-63.242,205.563,205.563,0,0,1-30.372-41.322,122.916,122.916,0,0,1-43.9,43.864,121.377,121.377,0,0,1-61.444,16.636h-.012c-1.49,0-3.007-.028-4.511-.083a122.236,122.236,0,0,1-111.181-83.015A121.986,121.986,0,0,1,729.023,712c-1.5,0-3.017-.028-4.521-.082a121.422,121.422,0,0,1-67.659-23.462,122.628,122.628,0,0,1-42.232-55.611A139.83,139.83,0,0,1,568.32,667.48a138.251,138.251,0,0,1-58.205,12.791c-1.7,0-3.431-.032-5.14-.094a138.987,138.987,0,0,1-120.832-80.041,59.732,59.732,0,0,1-20.727,17.925,59.04,59.04,0,0,1-27.385,6.706c-.729,0-1.468-.013-2.2-.04A59.031,59.031,0,0,1,296.9,610.015a60.146,60.146,0,0,1-8.866-9.719,50.4,50.4,0,0,1-15.863,10.717,49.063,49.063,0,0,1-19.328,3.942c-.6,0-1.208-.011-1.817-.033a49.567,49.567,0,0,1-22.871-6.73,38.174,38.174,0,0,1-19.869,5.6c-.46,0-.925-.008-1.382-.025a37.16,37.16,0,0,1-15.879-4.172,38.365,38.365,0,0,1-6.682-4.412,39.451,39.451,0,0,1-5.618-5.666,31.12,31.12,0,0,1-8.874,5.12,29.685,29.685,0,0,1-10.391,1.873c-.359,0-.725-.007-1.087-.02a29.721,29.721,0,0,1-13.091-3.547A31.281,31.281,0,0,1,135.3,594.4a47.722,47.722,0,0,1-12.676,4.044,90.045,90.045,0,0,1-16.7,1.464c-2.564,0-5.187-.094-7.8-.278A97.928,97.928,0,0,1,74.981,595.3c-6.623-2.171-11.914-4.953-15.3-8.043-6.275.471-12.4.71-18.194.71-11.85,0-21.993-.989-29.333-2.859C4.614,583.187.422,580.417.03,577.1c-.271-2.323,1.3-4.79,4.662-7.332,3.249-2.456,8.028-4.878,14.205-7.2a164.453,164.453,0,0,1,21.593-6.258,261.6,261.6,0,0,1,26.823-4.5,256.268,256.268,0,0,1,29.669-1.819c5.914,0,11.454.247,16.468.735,1.137-5.211,5.072-10.09,11.078-13.74a41.274,41.274,0,0,1,10.078-4.33,51.47,51.47,0,0,1,12.088-1.908c.7-.028,1.416-.042,2.119-.042a50,50,0,0,1,11.652,1.341,39.528,39.528,0,0,1,9.82,3.72,26.982,26.982,0,0,1,7.256,5.648,17.622,17.622,0,0,1,3.957,7.124,37.84,37.84,0,0,1,26.774-11.124c.469,0,.942.009,1.4.026a4.888,4.888,0,0,1,.78.105,5.916,5.916,0,0,0,.645.1,51.45,51.45,0,0,1,6.474-8.005,50.539,50.539,0,0,1,7.926-6.518,49.406,49.406,0,0,1,9.149-4.78,48.883,48.883,0,0,1,10.141-2.789,44.512,44.512,0,0,1,15.79-21.579,43.4,43.4,0,0,1,25.778-8.447c.53,0,1.071.01,1.608.029a43.691,43.691,0,0,1,17.52,4.384,59.281,59.281,0,0,1,56.3-40.7c.731,0,1.471.014,2.2.04a59.1,59.1,0,0,1,32.738,11.289,139.929,139.929,0,0,1,48.667-42.581,138.086,138.086,0,0,1,64.555-15.945c1.7,0,3.431.031,5.135.094a139.116,139.116,0,0,1,39.142,7.185,119.642,119.642,0,0,1,42.42-40.875,117.778,117.778,0,0,1,58.437-15.457c1.444,0,2.916.027,4.372.08a118.564,118.564,0,0,1,38.6,8.033,203.23,203.23,0,0,1,200.908-172.34c2.488,0,5.021.046,7.528.137a199.362,199.362,0,0,1,28.667,3.14A209.036,209.036,0,0,1,962.443,199a259.1,259.1,0,0,1,34.313-79.561,261.816,261.816,0,0,1,132.172-104.5A259.909,259.909,0,0,1,1216.032,0c3.2,0,6.45.059,9.661.176,5.446.2,10.946.568,16.346,1.1Z" transform="translate(678.779 624.192)" fill="url(#j)"/><path d="M1242.039,757.808h0c-2.167-.009-4.361-.055-6.523-.133a202.59,202.59,0,0,1-139.952-63.242,205.563,205.563,0,0,1-30.372-41.322,122.916,122.916,0,0,1-43.9,43.864,121.377,121.377,0,0,1-61.444,16.636h-.012c-1.49,0-3.007-.028-4.511-.083a122.236,122.236,0,0,1-111.181-83.015A121.986,121.986,0,0,1,729.023,712c-1.5,0-3.017-.028-4.521-.082a121.422,121.422,0,0,1-67.659-23.462,122.628,122.628,0,0,1-42.232-55.611A139.83,139.83,0,0,1,568.32,667.48a138.251,138.251,0,0,1-58.205,12.791c-1.7,0-3.431-.032-5.14-.094a138.987,138.987,0,0,1-120.832-80.041,59.732,59.732,0,0,1-20.727,17.925,59.04,59.04,0,0,1-27.385,6.706c-.729,0-1.468-.013-2.2-.04A59.031,59.031,0,0,1,296.9,610.015a60.146,60.146,0,0,1-8.866-9.719,50.4,50.4,0,0,1-15.863,10.717,49.063,49.063,0,0,1-19.328,3.942c-.6,0-1.208-.011-1.817-.033a49.567,49.567,0,0,1-22.871-6.73,38.174,38.174,0,0,1-19.869,5.6c-.46,0-.925-.008-1.382-.025a37.16,37.16,0,0,1-15.879-4.172,38.365,38.365,0,0,1-6.682-4.412,39.451,39.451,0,0,1-5.618-5.666,31.12,31.12,0,0,1-8.874,5.12,29.685,29.685,0,0,1-10.391,1.873c-.359,0-.725-.007-1.087-.02a29.721,29.721,0,0,1-13.091-3.547A31.281,31.281,0,0,1,135.3,594.4a47.722,47.722,0,0,1-12.676,4.044,90.045,90.045,0,0,1-16.7,1.464c-2.564,0-5.187-.094-7.8-.278A97.928,97.928,0,0,1,74.981,595.3c-6.623-2.171-11.914-4.953-15.3-8.043-6.275.471-12.4.71-18.194.71-11.85,0-21.993-.989-29.333-2.859C4.614,583.187.422,580.417.03,577.1c-.271-2.323,1.3-4.79,4.662-7.332,3.249-2.456,8.028-4.878,14.205-7.2a164.453,164.453,0,0,1,21.593-6.258,261.6,261.6,0,0,1,26.823-4.5,256.268,256.268,0,0,1,29.669-1.819c5.914,0,11.454.247,16.468.735,1.137-5.211,5.072-10.09,11.078-13.74a41.274,41.274,0,0,1,10.078-4.33,51.47,51.47,0,0,1,12.088-1.908c.7-.028,1.416-.042,2.119-.042a50,50,0,0,1,11.652,1.341,39.528,39.528,0,0,1,9.82,3.72,26.982,26.982,0,0,1,7.256,5.648,17.622,17.622,0,0,1,3.957,7.124,37.84,37.84,0,0,1,26.774-11.124c.469,0,.942.009,1.4.026a4.888,4.888,0,0,1,.78.105,5.916,5.916,0,0,0,.645.1,51.45,51.45,0,0,1,6.474-8.005,50.539,50.539,0,0,1,7.926-6.518,49.406,49.406,0,0,1,9.149-4.78,48.883,48.883,0,0,1,10.141-2.789,44.512,44.512,0,0,1,15.79-21.579,43.4,43.4,0,0,1,25.778-8.447c.53,0,1.071.01,1.608.029a43.691,43.691,0,0,1,17.52,4.384,59.281,59.281,0,0,1,56.3-40.7c.731,0,1.471.014,2.2.04a59.1,59.1,0,0,1,32.738,11.289,139.929,139.929,0,0,1,48.667-42.581,138.086,138.086,0,0,1,64.555-15.945c1.7,0,3.431.031,5.135.094a139.116,139.116,0,0,1,39.142,7.185,119.642,119.642,0,0,1,42.42-40.875,117.778,117.778,0,0,1,58.437-15.457c1.444,0,2.916.027,4.372.08a118.564,118.564,0,0,1,38.6,8.033,203.23,203.23,0,0,1,200.908-172.34c2.488,0,5.021.046,7.528.137a199.362,199.362,0,0,1,28.667,3.14A209.036,209.036,0,0,1,962.443,199a259.1,259.1,0,0,1,34.313-79.561,261.816,261.816,0,0,1,132.172-104.5A259.909,259.909,0,0,1,1216.032,0c3.2,0,6.45.059,9.661.176,5.446.2,10.946.568,16.346,1.1Z" transform="translate(678.779 624.192)" fill="#fff"/></g><g data-type="innerShadowGroup"><g transform="matrix(1, 0, 0, 1, 0.82, 538.5)" filter="url(#l)"><path d="M1684.232,574.553a152.035,152.035,0,0,0-31.213-1.858c-1.318-7.294-10.439-13.456-22.014-14.336-11.733-.892-21.781,4-23.991,11.176a25.645,25.645,0,0,0-36.367-1.231A32.591,32.591,0,0,0,1546.8,554.73a23.145,23.145,0,0,0-32.054-13.641,43.588,43.588,0,0,0-66.756-11.413,61.719,61.719,0,0,0-62.458-7.227A43.6,43.6,0,0,0,1333,485.394c.008-.339.051-.671.051-1.014a43.585,43.585,0,0,0-53.109-42.593A103.231,103.231,0,0,0,1120.012,384.9,75.777,75.777,0,0,0,988.82,341.785a135.54,135.54,0,0,0-220.759-92.748,176.991,176.991,0,0,0-317.406,66.775,137.567,137.567,0,0,0-175,116.2,80.136,80.136,0,0,0-96.182,36.167A93.961,93.961,0,0,0,74.105,506.732a40.22,40.22,0,0,0-61.041,22.115,29.671,29.671,0,0,0-11.97-2.532A29.767,29.767,0,0,0-27.4,547.676a33.746,33.746,0,0,0-22.263,15.775c-.332-.016-.635-.1-.971-.1a25.677,25.677,0,0,0-18.8,8.205c-2.21-7.188-12.258-12.075-24-11.188-11.575.888-20.7,7.05-22.014,14.34a152.017,152.017,0,0,0-31.209,1.866c-25.818,3.969-45.914,12.367-44.928,18.77.888,5.74,18.423,7.89,40.63,5.412,4.736,4.012,14.642,7.018,26.331,7.424,10.407.359,19.622-1.436,25.041-4.454a20.544,20.544,0,0,0,15.913,7.614,20.509,20.509,0,0,0,13.608-5.215,25.694,25.694,0,0,0,19.429,8.947,25.764,25.764,0,0,0,14.247-4.3,33.532,33.532,0,0,0,15.652,3.992,33.72,33.72,0,0,0,24.694-10.8,40.188,40.188,0,0,0,65.063-2.473,94.17,94.17,0,0,0,156.829,16.466,82.767,82.767,0,0,0,155.329-7.219,82.691,82.691,0,0,0,150.206,9.854,137.706,137.706,0,0,0,216.177,25.334,87.151,87.151,0,0,0,139.5,11.645,149.332,149.332,0,0,0,210.687-15.129,98.646,98.646,0,0,0,141.5-18.813,75.8,75.8,0,0,0,117.777-13.342,61.934,61.934,0,0,0,99.114,10.987,43.011,43.011,0,0,0,63.5-12.316,32.527,32.527,0,0,0,51.013-2.86,25.593,25.593,0,0,0,36.987-1.984,20.415,20.415,0,0,0,29.521-2.395c5.426,3.014,14.626,4.8,25.053,4.446,11.674-.4,21.584-3.408,26.327-7.428,22.207,2.477,39.742.331,40.63-5.4C1730.142,586.932,1710.039,578.533,1684.232,574.553Z" transform="translate(185.8 170.05)" opacity="0.88" fill="url(#k)"/></g><g transform="matrix(1, 0, 0, 1, 0.82, 538.5)" filter="url(#n)"><path d="M1684.232,574.553a152.035,152.035,0,0,0-31.213-1.858c-1.318-7.294-10.439-13.456-22.014-14.336-11.733-.892-21.781,4-23.991,11.176a25.645,25.645,0,0,0-36.367-1.231A32.591,32.591,0,0,0,1546.8,554.73a23.145,23.145,0,0,0-32.054-13.641,43.588,43.588,0,0,0-66.756-11.413,61.719,61.719,0,0,0-62.458-7.227A43.6,43.6,0,0,0,1333,485.394c.008-.339.051-.671.051-1.014a43.585,43.585,0,0,0-53.109-42.593A103.231,103.231,0,0,0,1120.012,384.9,75.777,75.777,0,0,0,988.82,341.785a135.54,135.54,0,0,0-220.759-92.748,176.991,176.991,0,0,0-317.406,66.775,137.567,137.567,0,0,0-175,116.2,80.136,80.136,0,0,0-96.182,36.167A93.961,93.961,0,0,0,74.105,506.732a40.22,40.22,0,0,0-61.041,22.115,29.671,29.671,0,0,0-11.97-2.532A29.767,29.767,0,0,0-27.4,547.676a33.746,33.746,0,0,0-22.263,15.775c-.332-.016-.635-.1-.971-.1a25.677,25.677,0,0,0-18.8,8.205c-2.21-7.188-12.258-12.075-24-11.188-11.575.888-20.7,7.05-22.014,14.34a152.017,152.017,0,0,0-31.209,1.866c-25.818,3.969-45.914,12.367-44.928,18.77.888,5.74,18.423,7.89,40.63,5.412,4.736,4.012,14.642,7.018,26.331,7.424,10.407.359,19.622-1.436,25.041-4.454a20.544,20.544,0,0,0,15.913,7.614,20.509,20.509,0,0,0,13.608-5.215,25.694,25.694,0,0,0,19.429,8.947,25.764,25.764,0,0,0,14.247-4.3,33.532,33.532,0,0,0,15.652,3.992,33.72,33.72,0,0,0,24.694-10.8,40.188,40.188,0,0,0,65.063-2.473,94.17,94.17,0,0,0,156.829,16.466,82.767,82.767,0,0,0,155.329-7.219,82.691,82.691,0,0,0,150.206,9.854,137.706,137.706,0,0,0,216.177,25.334,87.151,87.151,0,0,0,139.5,11.645,149.332,149.332,0,0,0,210.687-15.129,98.646,98.646,0,0,0,141.5-18.813,75.8,75.8,0,0,0,117.777-13.342,61.934,61.934,0,0,0,99.114,10.987,43.011,43.011,0,0,0,63.5-12.316,32.527,32.527,0,0,0,51.013-2.86,25.593,25.593,0,0,0,36.987-1.984,20.415,20.415,0,0,0,29.521-2.395c5.426,3.014,14.626,4.8,25.053,4.446,11.674-.4,21.584-3.408,26.327-7.428,22.207,2.477,39.742.331,40.63-5.4C1730.142,586.932,1710.039,578.533,1684.232,574.553Z" transform="translate(185.8 170.05)" fill="#fff" opacity="0.88"/></g></g></g></g></svg>