<svg xmlns="http://www.w3.org/2000/svg" xmlns:xlink="http://www.w3.org/1999/xlink" width="1921" height="334.953" viewBox="0 0 1921 334.953"><defs><linearGradient id="a" x1="0.5" x2="0.5" y2="1" gradientUnits="objectBoundingBox"><stop offset="0" stop-color="#fff"/><stop offset="1" stop-color="#fff" stop-opacity="0"/></linearGradient><linearGradient id="b" y1="1" y2="0" xlink:href="#a"/></defs><g transform="translate(0.5 -3694.5)"><path d="M-11054.826-3585.65h0c-1.673,0-3.371-.046-5.047-.136a92.165,92.165,0,0,1-32.547-7.792,92.432,92.432,0,0,1-26.782-18.058,55,55,0,0,1-8.074,6.765,54.337,54.337,0,0,1-9.271,5.105,53.43,53.43,0,0,1-21.192,4.35c-.977,0-1.97-.027-2.949-.08a54.072,54.072,0,0,1-13.9-2.588,53.67,53.67,0,0,1-12.342-5.867,54.692,54.692,0,0,1-18.255-19.548,85.2,85.2,0,0,1-57.572,22.394c-1.545,0-3.114-.042-4.663-.126a85.406,85.406,0,0,1-22.21-4.175,84.8,84.8,0,0,1-19.679-9.472,86.285,86.285,0,0,1-28.877-31.516,51.673,51.673,0,0,1-18.391,17.89,51.113,51.113,0,0,1-12.068,4.991,51.122,51.122,0,0,1-13.325,1.762c-.928,0-1.87-.025-2.8-.075a50.845,50.845,0,0,1-28.9-10.884,51.555,51.555,0,0,1-10.413-11.063,51.323,51.323,0,0,1-6.772-13.733,51.057,51.057,0,0,1-7.521,13.5,51.516,51.516,0,0,1-11.059,10.555,50.921,50.921,0,0,1-29.452,9.328c-.93,0-1.875-.026-2.81-.076a51.433,51.433,0,0,1-12.98-2.385,51.03,51.03,0,0,1-11.563-5.4A51.694,51.694,0,0,1-11523.5-3650v-123.323a49.516,49.516,0,0,1,14.4-2.131c.9,0,1.814.025,2.716.073a49.734,49.734,0,0,1,16.149,3.656,84.857,84.857,0,0,1,10.224-28.229,85.506,85.506,0,0,1,18.806-22.474,85.261,85.261,0,0,1,25.325-14.852,84.814,84.814,0,0,1,29.779-5.365c1.547,0,3.118.042,4.67.126a85.418,85.418,0,0,1,23.427,4.654,108.867,108.867,0,0,1,14.74-32.786,110.008,110.008,0,0,1,24.056-25.873,109.509,109.509,0,0,1,31.165-16.977,109.1,109.1,0,0,1,36.063-6.1c1.989,0,4.006.054,5.994.161a110.086,110.086,0,0,1,26.5,4.708,109.03,109.03,0,0,1,23.785,10.594,110.106,110.106,0,0,1,20.326,15.639,110.534,110.534,0,0,1,16.124,19.847,83.971,83.971,0,0,1,23.1-11.937,83.562,83.562,0,0,1,26.446-4.276c1.519,0,3.061.042,4.585.124a83.618,83.618,0,0,1,30.689,7.584,83.91,83.91,0,0,1,13.31,7.7,84.641,84.641,0,0,1,11.595,9.909,83.867,83.867,0,0,1,23.869,55.7,47.19,47.19,0,0,1,14.843-9.83,46.415,46.415,0,0,1,17.967-3.594c.846,0,1.7.023,2.547.068a46.807,46.807,0,0,1,16.991,4.162,46.858,46.858,0,0,1,13.846,9.659,46.952,46.952,0,0,1,13.6,30.617,63.879,63.879,0,0,1,34.469-10.123h0c1.146,0,2.309.031,3.454.093a63.879,63.879,0,0,1,20.891,4.694,63.738,63.738,0,0,1,17.579,10.843,64.355,64.355,0,0,1,13.144,15.723,63.891,63.891,0,0,1,7.588,19.334,28.089,28.089,0,0,1,4.5-.376c.461,0,.927.013,1.385.038a26.9,26.9,0,0,1,10.408,2.692,26.976,26.976,0,0,1,8.28,6.257,26.971,26.971,0,0,1,5.329,8.906,26.932,26.932,0,0,1,1.558,10.639c-.006.112-.019.223-.033.336l0,.035c-.01.082-.02.167-.025.25a27.35,27.35,0,0,1,4.334-.347h.007c.475,0,.955.013,1.428.038a27,27,0,0,1,17.546,7.765,27.053,27.053,0,0,1,7.967,17.249,38.264,38.264,0,0,1,13.67-2.528c.685,0,1.377.019,2.058.055a38.138,38.138,0,0,1,22.7,9.028,27.322,27.322,0,0,1,7.73-4.251,26.793,26.793,0,0,1,8.957-1.536c.487,0,.981.013,1.471.04a26.992,26.992,0,0,1,13.615,4.551,27.221,27.221,0,0,1,9.179,10.5,14.516,14.516,0,0,1,5.512-1.113c.245,0,.492.007.735.02a14.263,14.263,0,0,1,8.356,3.245,14.581,14.581,0,0,1,4.793,7.364,20.245,20.245,0,0,1,14.31,9.2,16.227,16.227,0,0,1,4.715-2.75,15.722,15.722,0,0,1,5.531-1c.281,0,.569.008.856.023a15.72,15.72,0,0,1,6.382,1.721,16.129,16.129,0,0,1,4.992,3.985c1.388-3.777,6.36-6.314,12.372-6.314a22.281,22.281,0,0,1,2.855.187,19.717,19.717,0,0,1,9.036,3.448,9.483,9.483,0,0,1,4.117,6.169h.409a95.985,95.985,0,0,1,18.851,2.195,90.3,90.3,0,0,1,19.848,6.336c5.135,2.478,7.744,4.889,7.348,6.791-.439,2.093-4.548,3.293-11.271,3.293a88.087,88.087,0,0,1-14.066-1.3c-3.032,2.3-9.017,3.733-15.618,3.733-.313,0-.625,0-.929-.009-6.233-.12-11.977-1.462-15.364-3.59a13.023,13.023,0,0,1-4.2,3.065,12.451,12.451,0,0,1-5.212,1.135c-.229,0-.464-.006-.694-.019a12.447,12.447,0,0,1-4.538-1.114,13.04,13.04,0,0,1-3.715-2.565,16.3,16.3,0,0,1-5.151,3.588,15.618,15.618,0,0,1-6.315,1.327c-.288,0-.578-.008-.863-.023a15.953,15.953,0,0,1-10.636-4.9,20.185,20.185,0,0,1-15.878,7.724h-.006c-.367,0-.739-.01-1.106-.03a19.782,19.782,0,0,1-8.285-2.3,20.579,20.579,0,0,1-6.407-5.322,26.653,26.653,0,0,1-22.26,12.016h-.006c-.481,0-.969-.013-1.449-.039a26.555,26.555,0,0,1-8.688-1.956,26.767,26.767,0,0,1-7.321-4.508,38.547,38.547,0,0,1-12.1,7.971,37.982,37.982,0,0,1-14.636,2.912c-.7,0-1.4-.019-2.094-.056a38.474,38.474,0,0,1-10.165-1.934,38.177,38.177,0,0,1-8.979-4.4,38.762,38.762,0,0,1-13.026-14.6,47.568,47.568,0,0,1-16.492,14.5,46.771,46.771,0,0,1-10.444,4.014,46.83,46.83,0,0,1-11.427,1.413c-.847,0-1.708-.023-2.559-.069a46.764,46.764,0,0,1-18.066-4.669,46.853,46.853,0,0,1-14.377-10.853,62.1,62.1,0,0,1-9.5,9.344,61.65,61.65,0,0,1-11.312,7.105,60.848,60.848,0,0,1-12.75,4.518,60.991,60.991,0,0,1-13.818,1.583c-1.1,0-2.224-.03-3.328-.09a60.877,60.877,0,0,1-20.434-4.69,61.283,61.283,0,0,1-17.092-10.835,93.542,93.542,0,0,1-13.889,11.821,92.923,92.923,0,0,1-16.008,8.919,92.116,92.116,0,0,1-17.7,5.633A92.614,92.614,0,0,1-11054.826-3585.65Z" transform="translate(11523.5 7614.604)" stroke="rgba(0,0,0,0)" stroke-miterlimit="10" stroke-width="1" opacity="0.82" fill="url(#a)"/><path d="M468.674,0h0C467,0,465.3.046,463.625.136A92.282,92.282,0,0,0,404.3,25.985a55,55,0,0,0-8.074-6.765,54.337,54.337,0,0,0-9.271-5.105,53.43,53.43,0,0,0-21.192-4.35c-.977,0-1.97.027-2.949.08A53.689,53.689,0,0,0,336.569,18.3a54.692,54.692,0,0,0-18.255,19.548,85.2,85.2,0,0,0-57.572-22.394c-1.545,0-3.114.042-4.663.126A84.8,84.8,0,0,0,214.19,29.228a86.285,86.285,0,0,0-28.877,31.516,51.673,51.673,0,0,0-18.391-17.89A50.983,50.983,0,0,0,141.529,36.1c-.928,0-1.87.025-2.8.075a50.845,50.845,0,0,0-28.9,10.884,51.551,51.551,0,0,0-17.186,24.8A51.318,51.318,0,0,0,44.608,38.471c-.93,0-1.875.026-2.81.076A51.229,51.229,0,0,0,0,64.352V187.675a49.516,49.516,0,0,0,14.4,2.131c.9,0,1.814-.025,2.716-.073a49.734,49.734,0,0,0,16.149-3.656A85.376,85.376,0,0,0,117.395,257c1.547,0,3.118-.042,4.67-.126a85.418,85.418,0,0,0,23.427-4.654A108.867,108.867,0,0,0,160.231,285a109.557,109.557,0,0,0,91.283,48.949c1.989,0,4.006-.054,5.994-.161A109.772,109.772,0,0,0,344.241,283a83.689,83.689,0,0,0,49.544,16.213c1.519,0,3.061-.042,4.585-.124a83.592,83.592,0,0,0,44-15.287A84.207,84.207,0,0,0,477.833,218.2a47.19,47.19,0,0,0,14.843,9.83,46.415,46.415,0,0,0,17.967,3.594c.846,0,1.7-.023,2.547-.068a47.038,47.038,0,0,0,44.435-44.438,63.879,63.879,0,0,0,34.469,10.123h0c1.146,0,2.309-.031,3.454-.093a64.152,64.152,0,0,0,59.2-50.6,28.089,28.089,0,0,0,4.5.376c.461,0,.927-.013,1.385-.038a27.054,27.054,0,0,0,25.575-28.494c-.006-.112-.019-.223-.033-.336l0-.035c-.01-.082-.02-.167-.025-.25a27.35,27.35,0,0,0,4.334.347h.007c.475,0,.955-.013,1.428-.038a27.048,27.048,0,0,0,25.513-25.014A38.264,38.264,0,0,0,731.1,95.6c.685,0,1.377-.019,2.058-.055a38.138,38.138,0,0,0,22.7-9.028,27.322,27.322,0,0,0,7.73,4.251A26.793,26.793,0,0,0,772.55,92.3c.487,0,.981-.013,1.471-.04a27.03,27.03,0,0,0,22.794-15.046,14.516,14.516,0,0,0,5.512,1.113c.245,0,.492-.007.735-.02a14.263,14.263,0,0,0,8.356-3.245,14.581,14.581,0,0,0,4.793-7.364,20.245,20.245,0,0,0,14.31-9.2,16.227,16.227,0,0,0,4.715,2.75,15.722,15.722,0,0,0,5.531,1c.281,0,.569-.008.856-.023A15.72,15.72,0,0,0,848,60.5,16.129,16.129,0,0,0,853,56.517c1.388,3.777,6.36,6.314,12.372,6.314a22.281,22.281,0,0,0,2.855-.187,19.717,19.717,0,0,0,9.036-3.448,9.483,9.483,0,0,0,4.117-6.169h.409a95.985,95.985,0,0,0,18.851-2.195A90.3,90.3,0,0,0,920.485,44.5c5.135-2.478,7.744-4.889,7.348-6.791-.439-2.093-4.548-3.293-11.271-3.293a88.087,88.087,0,0,0-14.066,1.3c-3.032-2.3-9.017-3.733-15.618-3.733-.313,0-.625,0-.929.009-6.233.12-11.977,1.462-15.364,3.59a13.023,13.023,0,0,0-4.2-3.065,12.451,12.451,0,0,0-5.212-1.135c-.229,0-.464.006-.694.019a12.447,12.447,0,0,0-4.538,1.114,13.04,13.04,0,0,0-3.715,2.565,16.3,16.3,0,0,0-5.151-3.588,15.618,15.618,0,0,0-6.315-1.327c-.288,0-.578.008-.863.023a15.953,15.953,0,0,0-10.636,4.9,20.185,20.185,0,0,0-15.878-7.724h-.006c-.367,0-.739.01-1.106.03a19.782,19.782,0,0,0-8.285,2.3,20.579,20.579,0,0,0-6.407,5.322A26.653,26.653,0,0,0,775.318,23h-.006c-.481,0-.969.013-1.449.039a26.605,26.605,0,0,0-16.01,6.464,38.547,38.547,0,0,0-12.1-7.971,37.982,37.982,0,0,0-14.636-2.912c-.7,0-1.4.019-2.094.056a38.41,38.41,0,0,0-32.171,20.934,47.568,47.568,0,0,0-16.492-14.5,46.658,46.658,0,0,0-21.871-5.426c-.847,0-1.708.023-2.559.069a46.88,46.88,0,0,0-32.443,15.522,61.857,61.857,0,0,0-20.814-16.449,60.71,60.71,0,0,0-26.568-6.1c-1.1,0-2.224.03-3.328.09a60.994,60.994,0,0,0-37.525,15.525,93.042,93.042,0,0,0-29.9-20.74A92.008,92.008,0,0,0,468.674,0Z" transform="translate(1920 4028.954) rotate(180)" stroke="rgba(0,0,0,0)" stroke-miterlimit="10" stroke-width="1" opacity="0.82" fill="url(#b)"/></g></svg>