<svg xmlns="http://www.w3.org/2000/svg" xmlns:xlink="http://www.w3.org/1999/xlink" width="428" height="170" viewBox="0 0 428 170"><defs><linearGradient id="a" x1="0.5" x2="0.5" y2="1" gradientUnits="objectBoundingBox"><stop offset="0" stop-color="#fff"/><stop offset="1" stop-color="#fff" stop-opacity="0"/></linearGradient><linearGradient id="b" y1="1" y2="0" xlink:href="#a"/><clipPath id="d"><rect width="428" height="170"/></clipPath></defs><g id="c" clip-path="url(#d)"><g transform="translate(0 -103.378)"><path d="M104.475,74.444h0c-.373,0-.751-.01-1.125-.03a20.572,20.572,0,0,1-13.225-5.762,12.248,12.248,0,0,1-1.8,1.508A12.122,12.122,0,0,1,86.258,71.3a11.911,11.911,0,0,1-4.724.97c-.218,0-.439-.006-.657-.018a11.966,11.966,0,0,1-5.849-1.885,12.193,12.193,0,0,1-4.069-4.358A18.991,18.991,0,0,1,58.124,71c-.345,0-.694-.009-1.04-.028a18.9,18.9,0,0,1-9.338-3.042A19.233,19.233,0,0,1,41.309,60.9a11.52,11.52,0,0,1-4.1,3.988A11.365,11.365,0,0,1,31.549,66.4c-.207,0-.417-.006-.625-.017a11.333,11.333,0,0,1-6.442-2.426,11.488,11.488,0,0,1-3.831-5.527A11.44,11.44,0,0,1,9.944,65.868c-.207,0-.418-.006-.626-.017A11.42,11.42,0,0,1,0,60.1V32.608a11.038,11.038,0,0,1,3.209-.475c.2,0,.4.005.605.016a11.085,11.085,0,0,1,3.6.815A19.032,19.032,0,0,1,26.169,17.155c.345,0,.7.009,1.041.028a19.04,19.04,0,0,1,5.222,1.037,24.27,24.27,0,0,1,3.286-7.308A24.422,24.422,0,0,1,56.067,0c.443,0,.893.012,1.336.036A24.47,24.47,0,0,1,76.737,11.358,18.656,18.656,0,0,1,87.781,7.743c.339,0,.682.009,1.022.028a18.633,18.633,0,0,1,9.808,3.408A18.771,18.771,0,0,1,106.517,25.8a10.516,10.516,0,0,1,3.309-2.191,10.347,10.347,0,0,1,4.005-.8c.189,0,.38.005.568.015a10.485,10.485,0,0,1,9.905,9.906,14.24,14.24,0,0,1,7.684-2.257h0c.256,0,.515.007.77.021a14.3,14.3,0,0,1,13.2,11.278,6.257,6.257,0,0,1,1-.084c.1,0,.206,0,.309.008a6.03,6.03,0,0,1,5.7,6.352c0,.025,0,.05-.007.075v.008c0,.018,0,.037-.006.056a6.1,6.1,0,0,1,.966-.077h0c.106,0,.213,0,.318.008a6.029,6.029,0,0,1,5.687,5.576,8.53,8.53,0,0,1,3.047-.563c.153,0,.307,0,.459.012a8.5,8.5,0,0,1,5.061,2.012,6.094,6.094,0,0,1,1.723-.948,5.971,5.971,0,0,1,2-.342c.109,0,.219,0,.328.009a6.026,6.026,0,0,1,5.081,3.354,3.235,3.235,0,0,1,1.229-.248c.055,0,.11,0,.164,0a3.18,3.18,0,0,1,1.863.723,3.251,3.251,0,0,1,1.068,1.642,4.514,4.514,0,0,1,3.19,2.052,3.617,3.617,0,0,1,1.051-.613,3.505,3.505,0,0,1,1.233-.223c.063,0,.127,0,.191.005a3.5,3.5,0,0,1,1.423.384,3.6,3.6,0,0,1,1.113.888,2.814,2.814,0,0,1,2.758-1.408,4.965,4.965,0,0,1,.637.042,4.4,4.4,0,0,1,2.014.769,2.114,2.114,0,0,1,.918,1.375h.091a21.4,21.4,0,0,1,4.2.489,20.134,20.134,0,0,1,4.424,1.412c1.145.552,1.726,1.09,1.638,1.514-.1.467-1.014.734-2.513.734a19.636,19.636,0,0,1-3.136-.29,6.259,6.259,0,0,1-3.482.832l-.207,0a7.133,7.133,0,0,1-3.425-.8,2.9,2.9,0,0,1-.936.683,2.776,2.776,0,0,1-1.162.253c-.051,0-.1,0-.155,0A2.774,2.774,0,0,1,190.8,67.2a2.908,2.908,0,0,1-.828-.572,3.634,3.634,0,0,1-1.148.8,3.482,3.482,0,0,1-1.408.3c-.064,0-.129,0-.192-.005a3.557,3.557,0,0,1-2.371-1.092,4.5,4.5,0,0,1-3.539,1.722h0c-.082,0-.165,0-.247-.007a4.409,4.409,0,0,1-1.847-.512,4.585,4.585,0,0,1-1.428-1.186,5.941,5.941,0,0,1-4.962,2.679h0c-.107,0-.216,0-.323-.009a5.93,5.93,0,0,1-3.569-1.441,8.591,8.591,0,0,1-2.7,1.777,8.466,8.466,0,0,1-3.263.649c-.155,0-.312,0-.467-.013a8.562,8.562,0,0,1-7.172-4.666,10.6,10.6,0,0,1-3.676,3.232,10.4,10.4,0,0,1-4.875,1.21c-.189,0-.381-.005-.57-.015a10.45,10.45,0,0,1-7.232-3.46,13.79,13.79,0,0,1-4.64,3.667,13.534,13.534,0,0,1-5.923,1.36c-.246,0-.5-.007-.742-.02a13.6,13.6,0,0,1-8.365-3.461,20.735,20.735,0,0,1-6.665,4.623,20.509,20.509,0,0,1-8.176,1.693Z" transform="translate(0 103.378)" stroke="rgba(0,0,0,0)" stroke-miterlimit="10" stroke-width="1" opacity="0.82" fill="url(#a)"/><path d="M121.144,0h0c-.432,0-.871.012-1.3.035A23.837,23.837,0,0,0,104.5,6.726a14.22,14.22,0,0,0-2.087-1.751,14.039,14.039,0,0,0-2.4-1.321,13.794,13.794,0,0,0-5.478-1.126c-.252,0-.509.007-.762.021A13.864,13.864,0,0,0,87,4.737,14.149,14.149,0,0,0,82.279,9.8,22,22,0,0,0,67.4,4c-.4,0-.8.011-1.205.033A21.9,21.9,0,0,0,55.364,7.566,22.323,22.323,0,0,0,47.9,15.723a13.365,13.365,0,0,0-4.754-4.631,13.164,13.164,0,0,0-6.564-1.748c-.24,0-.483.007-.724.02a13.131,13.131,0,0,0-7.47,2.817A13.344,13.344,0,0,0,23.946,18.6,13.266,13.266,0,0,0,11.53,9.958c-.24,0-.485.007-.726.02A13.24,13.24,0,0,0,0,16.657V48.58a12.782,12.782,0,0,0,3.721.552c.233,0,.469-.006.7-.019A12.84,12.84,0,0,0,8.6,48.166,22.069,22.069,0,0,0,30.344,66.524c.4,0,.806-.011,1.207-.033a22.051,22.051,0,0,0,6.055-1.2A28.334,28.334,0,0,0,65.012,86.444c.514,0,1.035-.014,1.549-.042A28.375,28.375,0,0,0,88.98,73.255a21.612,21.612,0,0,0,12.806,4.2c.393,0,.791-.011,1.185-.032a21.589,21.589,0,0,0,11.373-3.957,21.8,21.8,0,0,0,9.167-16.983,12.2,12.2,0,0,0,3.837,2.544,11.983,11.983,0,0,0,4.644.93c.219,0,.44-.006.658-.018a12.167,12.167,0,0,0,11.486-11.5,16.5,16.5,0,0,0,8.91,2.62h0c.3,0,.6-.008.893-.024a16.6,16.6,0,0,0,15.3-13.1,7.251,7.251,0,0,0,1.164.1c.119,0,.24,0,.358-.01a7,7,0,0,0,6.611-7.376c0-.029,0-.058-.009-.087V30.55c0-.021-.005-.043-.007-.065a7.06,7.06,0,0,0,1.12.09h0c.123,0,.247,0,.369-.01a7,7,0,0,0,6.595-6.475,9.878,9.878,0,0,0,3.533.654c.177,0,.356,0,.532-.014a9.85,9.85,0,0,0,5.869-2.337,7.059,7.059,0,0,0,2,1.1,6.916,6.916,0,0,0,2.315.4c.126,0,.254,0,.38-.01A6.97,6.97,0,0,0,203.59,22.7a7.043,7.043,0,0,0,2.373-2.717,3.748,3.748,0,0,0,1.425.288c.063,0,.127,0,.19-.005a3.684,3.684,0,0,0,2.16-.84,3.775,3.775,0,0,0,1.239-1.906,5.232,5.232,0,0,0,3.7-2.382,4.193,4.193,0,0,0,1.219.712,4.059,4.059,0,0,0,1.43.259c.073,0,.147,0,.221-.006a4.059,4.059,0,0,0,1.65-.445,4.17,4.17,0,0,0,1.29-1.032c.359.978,1.644,1.634,3.2,1.634a5.751,5.751,0,0,0,.738-.048,5.092,5.092,0,0,0,2.336-.892,2.455,2.455,0,0,0,1.064-1.6h.106a24.777,24.777,0,0,0,4.873-.568,23.318,23.318,0,0,0,5.13-1.64c1.327-.641,2-1.266,1.9-1.758-.114-.542-1.176-.853-2.913-.853a22.737,22.737,0,0,0-3.636.336,7.249,7.249,0,0,0-4.037-.966l-.24,0a8.263,8.263,0,0,0-3.971.929,3.366,3.366,0,0,0-1.085-.793,3.215,3.215,0,0,0-1.347-.294c-.059,0-.12,0-.179,0a3.214,3.214,0,0,0-1.173.288,3.37,3.37,0,0,0-.96.664,4.213,4.213,0,0,0-1.332-.929,4.032,4.032,0,0,0-1.632-.344c-.074,0-.149,0-.223.006a4.121,4.121,0,0,0-2.749,1.268,5.215,5.215,0,0,0-4.1-2h0c-.095,0-.191,0-.286.008a5.108,5.108,0,0,0-2.142.595,5.321,5.321,0,0,0-1.656,1.378,6.887,6.887,0,0,0-5.754-3.11h0c-.124,0-.25,0-.375.01a6.872,6.872,0,0,0-4.138,1.673,9.962,9.962,0,0,0-3.128-2.063,9.805,9.805,0,0,0-3.783-.754c-.18,0-.362,0-.541.015a9.927,9.927,0,0,0-8.316,5.419A12.3,12.3,0,0,0,175.86,6.5a12.047,12.047,0,0,0-5.653-1.4c-.219,0-.441.006-.661.018A12.111,12.111,0,0,0,161.16,9.13a15.993,15.993,0,0,0-5.38-4.258,15.674,15.674,0,0,0-6.867-1.579c-.285,0-.575.008-.86.023a15.754,15.754,0,0,0-9.7,4.019,24.049,24.049,0,0,0-7.728-5.368A23.754,23.754,0,0,0,121.144,0Z" transform="translate(428 273.821) rotate(180)" stroke="rgba(0,0,0,0)" stroke-miterlimit="10" stroke-width="1" opacity="0.82" fill="url(#b)"/></g></g></svg>