<?xml version="1.0" encoding="utf-8"?>
<!-- Generator: Adobe Illustrator 25.2.0, SVG Export Plug-In . SVG Version: 6.00 Build 0)  -->
<svg version="1.1" id="Layer_1" xmlns="http://www.w3.org/2000/svg" xmlns:xlink="http://www.w3.org/1999/xlink" x="0px" y="0px"
	 viewBox="0 0 178.9 233.8" style="enable-background:new 0 0 178.9 233.8;" xml:space="preserve">
<style type="text/css">
	.st0{fill:#263238;}
	.st1{fill:#FFAC00;}
	.st2{fill:none;}
	.st3{fill:#C7C7C7;}
	.st4{fill:#F6C6C6;}
	.st5{fill:#FFFFFF;}
	.st6{fill:#E9C2C8;}
	.st7{fill:none;stroke:#878787;stroke-linecap:round;stroke-linejoin:round;}
	.st8{fill:none;stroke:#263238;stroke-linecap:round;stroke-linejoin:round;}
	.st9{fill:#263238;stroke:#263238;stroke-linecap:round;stroke-linejoin:round;}
</style>
<g transform="translate(-283.268 -2300.597)">
	<g transform="translate(283.268 2361.11)">
		<path class="st0" d="M37.8,40.7L37.8,40.7C37.8,40.7,37.8,40.7,37.8,40.7C37.8,40.6,37.8,40.6,37.8,40.7
			C37.7,40.6,37.7,40.7,37.8,40.7c-1.9,4.4-3.4,8.9-4.4,13.6c-1.1,4.7-1.9,9.4-2.4,14.2L30.6,72c-0.1,0.6-0.1,1.2-0.2,1.8l-0.1,1.8
			c-0.1,1.2-0.1,2.4-0.2,3.6v3.6l0,1.8c0,0.6,0.1,1.2,0.1,1.8c0.1,1.2,0.2,2.4,0.3,3.6c0.2,2.4,0.6,4.8,1,7.1c0,0,0,0.1,0.1,0.1
			c0,0,0.1,0,0.1-0.1l0,0c0-1.2-0.1-2.4-0.1-3.6s-0.1-2.4-0.1-3.6s0-2.4,0-3.6l0-1.8l0-1.8v-3.6l0.1-3.6l0-1.8
			c0-0.6,0.1-1.2,0.1-1.8l0.2-3.6c0.4-4.7,1.1-9.5,2-14.1C34.9,49.8,36.1,45.2,37.8,40.7z"/>
		<path class="st0" d="M38.3,59.3C38.4,59.3,38.3,59.2,38.3,59.3c-0.1-0.1-0.1-0.1-0.1-0.1c0,0,0,0,0,0c-1,3-1.9,6-2.5,9
			c-0.7,3.1-1.2,6.2-1.5,9.3c-0.3,3.1-0.6,6.2-0.7,9.4c-0.1,3.1,0,6.3,0.3,9.4c0,0,0,0.1,0.1,0.1c0,0,0.1,0,0.1-0.1
			c0.4-3.1,0.6-6.2,0.8-9.3s0.2-6.2,0.5-9.3C35.6,71.5,36.7,65.3,38.3,59.3L38.3,59.3z"/>
		<path class="st0" d="M48.7,65.9C48.6,65.8,48.6,65.8,48.7,65.9C48.6,65.9,48.6,65.9,48.7,65.9c-2.7,1.6-5,3.7-7,6
			c-1,1.2-1.9,2.4-2.7,3.8l-0.6,1L38,77.7c-0.1,0.4-0.3,0.7-0.4,1.1c-0.1,0.4-0.2,0.7-0.3,1.1c-0.8,3-1.3,6-1.4,9.1
			c-0.2,3.1,0,6.1,0.3,9.2c0,0,0,0.1,0.1,0.1c0,0,0,0,0.1-0.1l0.8-9.1c0.2-3,0.6-6,1.1-9c0.1-0.4,0.2-0.7,0.3-1.1
			c0.1-0.4,0.2-0.7,0.3-1.1l0.4-1l0.5-1c0.7-1.3,1.5-2.6,2.5-3.8C44,69.8,46.2,67.7,48.7,65.9L48.7,65.9
			C48.7,65.9,48.7,65.9,48.7,65.9C48.7,65.9,48.7,65.9,48.7,65.9L48.7,65.9z"/>
		<path class="st0" d="M43.7,77.5c-1.3,1-2.4,2.3-3.1,3.8c-0.8,1.5-1.3,3-1.8,4.6c-0.1,0.4-0.2,0.8-0.3,1.2l-0.3,1.2
			c-0.1,0.8-0.2,1.6-0.3,2.5c0,0.8,0,1.6,0,2.5c0.1,0.8,0.2,1.6,0.3,2.5c0,0,0,0.1,0.1,0c0,0,0,0,0,0c0.2-0.8,0.3-1.6,0.4-2.4
			s0.3-1.6,0.3-2.4s0.2-1.6,0.3-2.4c0.1-0.8,0.2-1.6,0.3-2.4c0.3-1.6,0.7-3.1,1.4-4.6c0.6-1.5,1.5-2.8,2.6-3.9l0,0
			C43.8,77.6,43.8,77.6,43.7,77.5C43.7,77.5,43.7,77.5,43.7,77.5L43.7,77.5z"/>
		<path class="st0" d="M29.2,86.6c-0.3-4-1-8-1.6-12s-1.3-8-2-11.9s-1.5-7.9-2.4-11.9c0,0,0-0.1,0-0.1c0,0-0.1,0-0.1,0c0,0,0,0,0,0
			c0.7,4,1.3,8,1.9,11.9c0.6,4,1.2,8,1.7,12s0.9,8,1.4,12l1.5,12c0,0,0,0.1,0.1,0.1c0,0,0,0,0,0c0,0,0.1,0,0.1-0.1l0,0
			c0-1,0-2,0.1-3s0-2-0.1-3C29.5,90.6,29.3,88.6,29.2,86.6z"/>
		<path class="st0" d="M26.8,86.6c-0.2-1.6-0.5-3.2-0.8-4.8l-0.6-2.4c-0.2-0.8-0.4-1.6-0.6-2.3C24,74,23,70.9,21.7,67.9l-0.5-1.1
			l-0.5-1.1c-0.3-0.7-0.8-1.4-1.1-2.1c-0.8-1.4-1.8-2.7-2.9-3.9c0,0-0.1,0-0.1,0c0,0,0,0.1,0,0.1l0,0c1.1,1.2,2,2.5,2.7,3.9
			c0.3,0.7,0.7,1.4,1,2.2l0.5,1.1l0.4,1.1c1.1,3,2,6,2.7,9.2c0.4,1.6,0.6,3.1,0.9,4.7l0.4,2.4c0.1,0.8,0.3,1.6,0.4,2.4
			c0.3,1.6,0.5,3.1,0.8,4.7s0.5,3.2,0.9,4.7c0,0,0,0.1,0.1,0.1c0,0,0.1,0,0.1-0.1c0-1.6,0-3.2-0.1-4.8S26.9,88.2,26.8,86.6z"/>
		<path class="st0" d="M23.4,86.7c-0.8-2.1-1.6-4.2-2.6-6.2c-1-2-2-4-3.2-5.9c0,0-0.1,0-0.1,0c0,0,0,0.1,0,0.1c1,2,1.9,4,2.7,6.1
			c0.8,2.1,1.6,4.2,2.2,6.3s1.1,4.3,1.6,6.4s1.1,4.3,1.7,6.4c0,0,0,0,0.1,0c0,0,0.1,0,0.1-0.1c0,0,0,0,0,0c0-2.3-0.2-4.5-0.6-6.7
			C24.9,91,24.3,88.8,23.4,86.7z"/>
		<path class="st0" d="M23.3,93.8c-0.4-1.3-1-2.6-1.8-3.7c-0.7-1.2-1.6-2.3-2.6-3.2c-0.5-0.5-1.1-0.9-1.6-1.2
			c-0.6-0.4-1.2-0.7-1.9-0.8c0,0-0.1,0-0.1,0.1c0,0,0,0,0,0.1l0,0c1.2,0.6,2.2,1.4,3.1,2.4c0.9,1,1.6,2.1,2.2,3.2
			c0.6,1.2,0.9,2.4,1.5,3.6c0.2,0.6,0.5,1.2,0.7,1.8c0.2,0.6,0.5,1.3,0.8,1.9l0,0c0,0,0,0,0.1,0c0,0,0.1,0,0.1-0.1c0,0,0,0,0,0
			c0-0.7,0-1.4-0.1-2.1C23.6,95.1,23.5,94.5,23.3,93.8z"/>
		<path class="st1" d="M23.6,56.6c-4.1-1.1-7.2-4.5-8.1-8.6c-1.5-7.1,3.4-4.1-1-15.2S11,19,12.5,15.8s2.4-2.2,3.7,2
			s6.3,10.8,8.1,23.2S23.6,56.6,23.6,56.6z"/>
		<path class="st1" d="M36.6,44.5c0,0-4.4-1.5-4.6-9.8c-0.2-8.3,3.2-6.6,3.7-16.9s1.2-17.6,3-17.8s6.8,5.1,8.5,16.6
			s-2.2,19.1-5.6,22.5S36.6,44.5,36.6,44.5z"/>
		<path class="st1" d="M21.2,66.6c0,0-1-6.1-3-9s-6.4-5.4-9.3-11s-6.1-8.3-5.9-0.3S6.6,58.3,11,61S21.2,66.6,21.2,66.6z"/>
		<path class="st1" d="M19.3,77.1c-2.7-5-6.1-9.5-10-13.5c-5.9-5.8-10.7-8.6-9-5.8s3.7,2.7,6.6,7.8s2,8.8,6.1,11.7
			S19.3,77.1,19.3,77.1z"/>
		<path class="st1" d="M18.8,87.1c-0.2-0.5-0.3-4.2-6.1-7.3S1.5,77.9,2.2,79.4S6.4,83.5,10,85C12.8,86.1,15.8,86.8,18.8,87.1z"/>
		<path class="st1" d="M36.2,66.9c0,0-2.5-3.2-1.2-10s4.4-5.1,7.8-8.6s2.7-4.1,6.1-7.8s6.4-5.8,7.8-4.2s-0.6,6.3-2.7,9
			s-5.2,4.1-6.8,7.5s-0.8,8.8-4.7,11.3S36.2,66.9,36.2,66.9z"/>
		<path class="st1" d="M44.7,68.8c0,0,6.1-6.9,10.5-12s6.1-9,6.3-5.6s1.5,6.1-2,10.5S44.7,68.8,44.7,68.8z"/>
		<path class="st1" d="M41.5,79.9c0,0-0.2-2.7,9.5-9s13.7-7.5,12.7-4.9s-5.2,5.1-9.8,9.7S41.5,79.9,41.5,79.9z"/>
		<path class="st2" d="M24,55.8c0,0-2.3-12.1-4.6-20.8s-3.9-13.9-3.9-13.9"/>
		<path class="st2" d="M36.2,44.7c0,0,4.1-13.2,5.5-21.1S41.5,9.7,40.8,6.1"/>
		<path class="st2" d="M20.6,66.3c-1.8-3.1-3.9-6.1-6.2-8.9c-3.7-4.4-6.6-6.8-8.3-11"/>
		<path class="st2" d="M36.2,66.9c0,0,1.4-8.1,4.6-12.4S50.5,43.7,53,39.5"/>
		<path class="st2" d="M18.4,86.9c0,0-5.7-3.7-9.8-5.7"/>
		<path class="st3" d="M51,121c-0.4-10.3-11.8-17.1-11.8-17.1H21.7c0,0-11.4,6.8-11.8,17.1s13,48,13,48h15.2
			C38.1,169,51.4,131.3,51,121z"/>
		<path class="st3" d="M41.5,93.8H19.2l2.6,10.1h17.2L41.5,93.8z"/>
		<line class="st2" x1="14.5" y1="114.9" x2="31.1" y2="114.9"/>
		<line class="st2" x1="37.7" y1="114.7" x2="35.9" y2="114.7"/>
		<line class="st2" x1="42.1" y1="121.3" x2="26.5" y2="121.3"/>
		<line class="st2" x1="19.5" y1="122.1" x2="22.3" y2="122.1"/>
		<line class="st2" x1="23.1" y1="125.1" x2="38.3" y2="125.1"/>
		<line class="st2" x1="15.1" y1="125.7" x2="18.1" y2="125.7"/>
		<line class="st2" x1="43.5" y1="109.7" x2="35.9" y2="109.7"/>
		<line class="st2" x1="26.7" y1="109.9" x2="30.5" y2="109.9"/>
		<line class="st2" x1="18.1" y1="108.9" x2="24.3" y2="108.9"/>
		<line class="st2" x1="37.5" y1="106.3" x2="26.9" y2="106.3"/>
		<line class="st2" x1="47.1" y1="130.5" x2="40.5" y2="130.5"/>
		<line class="st2" x1="21.1" y1="132.3" x2="26.1" y2="132.3"/>
		<line class="st2" x1="34.5" y1="133.7" x2="24.7" y2="133.7"/>
	</g>
	<g transform="translate(367.829 2300.597)">
		<path class="st1" d="M64.7,42.8c0,0,1.5-0.4,3.3,3.3c1,2,1.8,4.2,2.4,6.3c0.1,0.3,3.3,1.1,5.4,4.1c1.2,1.7,2.3,3.4,3.2,5.2l1-11.3
			c0,0,4.1,1.6,7.4,1.2s4.2-1.3,4.2-1.3s3.5,16.9,1.8,22.7s-4.1,8.4-9,8.8s-5.1,0.1-8.2-3.1s-7.9-4.4-10.3-7.8
			c-1.5-2-2.7-4.1-3.8-6.3C62.3,64.6,63.8,44.4,64.7,42.8z"/>
		<path class="st2" d="M79.1,64c0,0-2.3,7.6-2,10.1c0.3,1.6,1.2,3,2.5,3.8"/>
		<path class="st4" d="M91.4,40.9c0-2.2,0.2-4.3,0.6-6.4c0.6-2.7,1.9-5,2.2-6.1s0.1-2.2-1.5-1.3s-2.7,3.6-2.8,4.1s-1-1.7-2-2.6
			c-1.1-1.2-2.6-2.2-4.1-2.7c-1.9-0.5-3.3-0.8-3.5,0.1s0.2,1.4,1.3,1.6c1,0.2,2,0.6,2.8,1.2c0.7,1,1.3,2.1,1.8,3.2
			c-0.9-1.1-2-2-3.1-2.8c-1.2-0.8-2.6-1.1-4-0.9c-1.4,0.3-2.7,0.5-2.8,1.4s0.9,1.3,2.1,1.2c0.9,0,1.9,0,2.8,0.1l2.9,3.6
			c-1.6-0.8-3.3-1.4-5-1.9c-1.3,0.1-2.5,0.6-3.4,1.4c-0.8,0.6-0.3,1.5,0.6,1.6c0.8,0,1.6,0,2.3-0.1c1.2,0.4,2.4,0.9,3.5,1.5l0.6,0.4
			c0,0-2.7-0.2-3.3-0.2c-1,0.1-2,0.5-2.7,1.2c-0.5,0.6,0.1,1.4,0.9,1.4c0.8,0,1.6-0.1,2.3-0.3c0.9,0.3,1.8,0.7,2.6,1.2
			c0.2,1.1,0.6,2.2,1.2,3.1c0.9,0.9,2,1.7,3.2,2.2C86.8,46.2,90.6,46.5,91.4,40.9z"/>
		<path class="st2" d="M89.9,31.2c0.6,1.1,1.1,2.4,1.3,3.7"/>
		<path class="st5" d="M80.1,50.5c0,0,0.6,0.8-0.8-2.1c-0.9-1.9-2-3.6-3.1-5.3c0,0,0.7-1.4,1.8-1.5s1.5,0.2,1.9-0.1s0.7-1.7,1.8-1.9
			s2.8,0.6,3.8,0.7s1.1-0.9,2.3-1.1s2.4,0.7,3,1s0.3-0.1,1.2,0c0.7,0.2,1.3,0.5,1.8,1c0,0-1.2,4.9-1.5,6.6c-0.2,0.9-0.4,1.8-0.7,2.7
			C91.7,50.4,86,53.7,80.1,50.5z"/>
		<path class="st0" d="M13.5,182.5L12.8,208c0,0-2.2,2.6-2,4c0.2,1.3,0.5,2.5,0.9,3.7c-0.7,0.5-1.2,1.3-1.4,2.2
			c-0.1,0.8,0,1.7,0.2,2.5c0,0-3.1,5.2-3.1,8.6s3.1,5.4,4.8,4.8s4.8,0.1,5.5-6.3s0.3-8,0.3-8.6s1.4,0,1.5-2.9c0.1-1.3,0-2.6-0.2-3.8
			c0-0.8,1.8-0.5,2.3-3.5s-0.2-4.8,0.5-6.6s6.2-16.8,6.2-16.8L13.5,182.5z"/>
		<path class="st0" d="M48.2,182.5l2.6,23.7c0,0-2.2,3.7-1.8,5.1s2,4.8,2,5.2s-0.8,0.8-0.3,2.8c0.3,1,0.4,2,0.5,3.1
			c0,0-0.8,5.4-0.5,6.5s2.3,2.5,3.5,2.2c2.2-0.2,4.4-0.3,6.6-0.3c0.5,0,6,0.8,7.8,0.2s2.5-2.6,1.8-2.9s-7.4-5.4-9.1-6.6
			s-1.7-2.2-1.5-2.9s1.2-1.2,0.9-3.2s-0.9-4.3-0.9-4.3s1.7-3.8,1.5-6.5c-0.2-1.6-0.3-3.3-0.3-4.9c0.1-0.6,2.3-17.5,2.3-17.5
			L48.2,182.5z"/>
		<path class="st5" d="M23.4,102.3c-2.5,8.9-4.4,18-5.8,27.2c-1.3,9.5-2,19.1-2.2,28.7c0,2.8-0.2,5.1-0.2,5.1s-4.5,3.8-4,7.7
			s1.4,12.6,1.4,12.6c1.2,1,2.5,1.8,4,2.3c2.6,0.9,8.8,0.2,8.8,0.2s1.8,1.8,3.7,0.8s6.9-8.3,7.2-11.8c0.2-2.4,0.2-4.8,0.2-7.2
			c0,0,7.1-18.3,7.4-18.9s2.8,17.5,2.8,17.5c-1.3,2-1.8,4.4-1.5,6.8c0.6,3.5,1.8,9.4,3.5,11.1s11.1,1.5,12.8,0.5
			c1.7-1.1,2.9-2.7,3.4-4.6c0.3-1.5,4.3-5.5,4.1-8.8s-1.4-6.9-1.4-8.2s-0.1-12.5-0.1-12.5l-0.9-21.2c0,0,0.8-11.2-0.5-17.7
			c-0.5-3.2-1.4-6.3-2.5-9.4l-13.7-5.4L23.4,102.3z"/>
		<path class="st2" d="M48.8,129.2c0.5-1.5,0.9-3.1,1.3-4.7"/>
		<path class="st2" d="M43.8,148.8c0,0,2.1-11.9,3.9-16.7"/>
		<path class="st2" d="M28.3,120.8c-0.5,1.1-0.9,2.3-1.1,3.4"/>
		<path class="st2" d="M33.1,109.4c0,0-2,4.5-3.7,8.6"/>
		<line class="st2" x1="37.1" y1="111.3" x2="35.2" y2="126.1"/>
		<path class="st2" d="M61.5,119.6c0.1,1.3,0.2,2.4,0.3,3.3"/>
		<path class="st2" d="M60.5,110.3c0,0,0.3,2.4,0.6,5.3"/>
		<path class="st0" d="M32.4,25.7l0.1,15.3c0,0-12.3,1.9-15.4,2.6s-2.4-0.7-3,0.7s5.3,26.3,6,30.8s4.4,21.8,4.4,21.8l-2.5,7
			c0,0,5.4,2.1,13.2,4.4c3.8,1.3,7.7,2.2,11.7,2.8l3.3-6.4l3.2,6.9c0,0,6.2-2.6,8.3-4.3s4.8-4.4,4.8-4.4l-2.6-9.4l1.1-39
			c0,0,1.7-12.3,0.6-12.8s-16.1-1.7-16.1-1.7l-0.4-4.5L33.7,24.7L32.4,25.7z"/>
		<path class="st6" d="M49.3,38.3L49,35.5L33.6,24.7l-3.2,2.6L33,37.7c0.6,0.5,1.2,0,3.2,1c5.7,2.9,6.9,2.9,6.9,2.9l1.2,2.9l1.2-3.6
			c1.1-0.6,2.1-1.3,3-2.1C48.8,38.6,49.1,38.5,49.3,38.3z"/>
		<path class="st7" d="M44.9,49.8c3.7,16.3,5.3,33,4.7,49.8"/>
		<path class="st8" d="M50.6,54.3c0,0.8-0.6,1.4-1.4,1.4s-1.4-0.6-1.4-1.4s0.6-1.4,1.4-1.4h0C49.9,52.9,50.6,53.5,50.6,54.3z"/>
		<path class="st8" d="M52.5,68.6c0,0.8-0.6,1.4-1.4,1.4s-1.4-0.6-1.4-1.4s0.6-1.4,1.4-1.4h0C51.9,67.2,52.5,67.8,52.5,68.6z"/>
		<path class="st8" d="M53.7,82.4c0,0.8-0.6,1.4-1.4,1.4S51,83.2,51,82.4s0.6-1.4,1.4-1.4c0,0,0,0,0,0C53.1,81,53.7,81.7,53.7,82.4z
			"/>
		<path class="st8" d="M53.5,95.7c0,0.8-0.6,1.4-1.4,1.4s-1.4-0.6-1.4-1.4s0.6-1.4,1.4-1.4h0C52.8,94.3,53.5,95,53.5,95.7z"/>
		<path class="st1" d="M14.6,45.2c0,0-3.9,3.2-4.5,7.3c-0.4,3.1-1.2,6.1-2.3,9c-0.7,1.8-7.9,14-7.8,17.3s2.2,6.1,7.1,4.6
			s6.3-5.2,9-9.3s4.7-7.2,4.7-7.2L14.6,45.2z"/>
		<path class="st1" d="M4.7,75c0,0,1.8-3.4,7.1-3.5c5.3-0.1,8.7,1.4,11.6,1.4s5.5-0.1,5.5-0.1l1.8,11.8c-5.2,1.5-10.6,2.2-16,2.2
			c-7.9-0.2-11.2-0.6-13.3-4c-1.3-2-1.3-4.5-0.1-6.5"/>
		<path class="st4" d="M35.9,68.2c0.4-1.5,1-2.9,1.7-4.2c0.6-0.7,2.8-3.5,3.2-5.1s2.4-0.2,2.2,2.2c-0.2,1.6-0.7,3.1-1.4,4.5
			c-0.1,0.5,8.3-0.9,11.1-0.5s4.2,1.3,3.8,2s-2.9,1.1-2.9,1.1c0,0.8-0.4,1.5-1,1.9c-0.8,0.5-1.6,1.2-2.2,1.9
			c-0.6,1.2-1.4,2.3-2.2,3.4c-1.1,1.4-2.8,2.3-4.6,2.3c-1.7,0-4.8-0.1-5.1,0S35.9,68.2,35.9,68.2z"/>
		<path class="st2" d="M53.6,68.2c-1.9,0.4-3.7,0.9-5.4,1.6"/>
		<line class="st2" x1="50.8" y1="71.2" x2="48" y2="72.5"/>
		<path class="st5" d="M28.9,72.8c2-1.2,3.8-2.6,5.5-4.1c2.1-2,2.8-2.8,3.3-1.4s-0.1,1.6,1,3.6s1.6,2.8,1.7,5c0,1.2-0.1,2.5-0.3,3.7
			c0,1.1,0.7,1.7,0,3s-1,2-1,2s-3.1-0.4-4.1-0.4s-4.3,0.3-4.3,0.3L28.9,72.8z"/>
		<path class="st0" d="M24.9,7.3c0,0-3.8-0.5-4.2,2.4S19.4,24,21.4,26.6s5.3,5.5,8.2,4.6s5.1-1.6,5.2-3.4s-1.1-12.2-1.1-12.2
			s3.7-4.1,5.9-4.6c1.9-0.4,3.8-0.3,5.7,0.2c0.6,0.3,1.6,1.5,3.2,0.6s2.6-2.6,2-3.9l-0.6-1.3c0,0,2.9,0.7,2-1.7S41.2-0.3,33.1,0
			S24.9,7.3,24.9,7.3z"/>
		<path class="st4" d="M29.2,23.5c0,0,1.6,0.3,1.9-2.4s-0.2-6.4-1.1-7.3l-0.9-0.8c0,0,3.7,0.8,3.3-0.5c-0.6-1.3-1.4-2.5-2.4-3.5
			c0,0,2.8,1.4,8.2,0.1c2.5-0.7,5.1-1.1,7.8-1.2c1.2,2,2.2,4.2,3.1,6.3c0.7,2.1,2.2,5.6,2.7,8.1c0.6,2.7,1.1,5.3,1.4,8.1
			c0.1,2.1-0.4,3.8-2,4.8s-1,2-6.2,1.5s-8.1-1.8-10-3.6c-1.7-1.8-3.2-3.8-4.5-5.9L29.2,23.5z"/>
		<path class="st4" d="M31.3,23.2c0,0-1.4-3.1-3.1-1.4s-0.6,5.1,0.8,6.6s3.8,0.6,3.8,0.6"/>
		<path class="st0" d="M45.8,29.3c0,0,0,0.7,1.8,0.2s3.6-1.1,3.2-2.4s-2.1-2.5-3.2-2S46,28.6,45.8,29.3z"/>
		<path class="st9" d="M46,24c-1.1,0.8-2,1.8-2.6,2.9c-0.5,1.5,0.6,3.5-1.2,5S39.4,33,39.4,33s2.6,1.1,4.3-0.1s2.4-4.8,3.4-6.1
			s1.8-1.1,1.8-1.1s2.3,1.8,2.7,2.9s1.2,1.5,2.5,0.9c0.7-0.3,1.4-0.8,1.9-1.4c0,0-1.4,1.4-3-0.8s-1.8-3.7-4.4-3.5L46,24z"/>
		<path class="st0" d="M50.7,30.4c0,0-1.9,0.3-1.9,1s-0.3,1.9-1.3,2.3s-2,0.1-3.1-1.3s-1.7-0.7-1,1.6s4.3,4.8,6.5,5s3.7-1.6,3.7-4.6
			c0-1.3-0.1-2.5-0.3-3.8c-0.3,0.3-0.7,0.5-1.2,0.6C51.5,31.2,50.9,30.9,50.7,30.4z"/>
	</g>
</g>
</svg>
