<svg xmlns="http://www.w3.org/2000/svg" width="256.428" height="216.703" viewBox="0 0 256.428 216.703"><g transform="translate(-109.321 -234.715)"><g transform="translate(109.821 450.918)"><line x2="252.074" fill="none" stroke="#263238" stroke-linecap="round" stroke-linejoin="round" stroke-width="1"/></g><g transform="translate(275.659 234.715)"><path d="M438.62,235.74s.348,43.839.348,55.416-.348,80.911-.348,80.911" transform="translate(-388.159 -181.034)" fill="none" stroke="#263238" stroke-linecap="round" stroke-linejoin="round" stroke-width="3"/><path d="M448.975,226.166l-10.867-9.121,21.068,4.6-17.562-9.86,18.264-3.818-21.771-1.094,24.2-18.235-27.357,13.678,15.779-27.009-21.039,24.2,7.361-35.42-13.678,32.972-1.4-36.826-2.8,37.521L404.245,164.6l10.36,36.311-22.322-24.35L411.8,206.525,384.17,186.812l25.879,24.973-29.3-16.011,26.842,18.112-24.278-3.159,23.575,6.665-18.873,3.152,19.576-.7-11.57,7.716,27.35-7.368Z" transform="translate(-372.215 -160.23)" fill="#f0a60d"/><path d="M423.866,296.74s-1.05,9.114-.348,12.628a63.964,63.964,0,0,1,1.051,12.273c0,4.557.355,23.908.355,27.089s-.355,29.979-.355,32.428v8.419" transform="translate(-383.932 -197.84)" fill="none" stroke="#263238" stroke-linecap="round" stroke-linejoin="round" stroke-width="3"/><path d="M425.55,344.289s1.4-26.741,2.8-30.247,2.456-2.456,2.8-6.665.355-5.963,1.051-7.361a28.832,28.832,0,0,0,1.406-3.862l.724-2.8" transform="translate(-384.558 -196.906)" fill="none" stroke="#263238" stroke-linecap="round" stroke-linejoin="round" stroke-width="3"/><path d="M434.862,284.249l-10.875-9.114,30.508,3.507-27-8.766,27.7-4.912H423.988l24.2-18.235-27.357,13.678L436.616,233.4l-21.046,24.2,7.368-35.42-13.678,32.972-1.406-36.826-2.8,37.521-10.875-34.015L400.493,259,381.2,231.3l16.482,33.319-25.3-16.533,23.546,21.793-26.111-10.686,23.655,12.787-24.5-2.116,23.807,5.622-16.547,3.775,17.243-1.319-11.57,7.716,27.357-7.361Z" transform="translate(-368.97 -176.234)" fill="#f0a60d"/><path d="M435.862,367.249l-10.875-9.114,30.508,3.507-27-8.766,27.7-4.912H424.988l24.2-18.235-27.357,13.678L437.616,316.4l-21.046,24.2,7.368-35.42-13.678,32.972-1.405-36.826-2.8,37.521-10.875-34.015L401.493,342,382.2,314.3l16.482,33.319-25.3-16.533,23.546,21.793-26.111-10.686,23.655,12.787-24.5-2.116,23.807,5.622-16.547,3.775,17.243-1.319-11.57,7.716,27.357-7.361Z" transform="translate(-369.245 -199.102)" fill="#f0a60d"/><path d="M407.528,410.647l-7.506,12.512a8.23,8.23,0,0,0-.891,6.39l3.333,12.425a4.144,4.144,0,0,0,4,3.072h34.2a4.137,4.137,0,0,0,4-3.072L448,429.548a8.266,8.266,0,0,0-.9-6.39l-7.506-12.512a2.833,2.833,0,0,0-2.434-1.377h-27.2a2.833,2.833,0,0,0-2.434,1.377Z" transform="translate(-377.201 -228.843)" fill="#fff" stroke="#263238" stroke-linejoin="round" stroke-width="1"/></g><g transform="translate(132.444 238.484)"><path d="M433.605,361.59s-5.535,7.114-7.709,13.635-17,25.3-17,25.3l3.362,6.919s20.163-18.779,24.509-23.321,18.38-20.757,18.576-22.14-5.731-11.461-5.731-11.461Z" transform="translate(-342.032 -216.433)" fill="#f6c6c6"/><path d="M452.28,358.424l10.1-5.506-1.058-2.4-9.962,7.723Z" transform="translate(-353.73 -216.433)" fill="#263238" stroke="#263238" stroke-linecap="round" stroke-linejoin="round" stroke-width="1"/><path d="M342.24,389.224s22.916,34.008,23.64,35.21,1.927,3.862,3.137,3.862,6.115,1.594,6.354-.094-.884-5.658-1.608-7.824S360.9,387,360.9,387Z" transform="translate(-323.666 -226.483)" fill="#f6c6c6"/><path d="M343.748,391.913s6.426,2.941,11.592,3.123,7.709-1.282,7.709-1.282l-.913-3.123L343.4,390.08Z" transform="translate(-323.986 -227.332)" fill="#263238" stroke="#263238" stroke-linecap="round" stroke-linejoin="round" stroke-width="1"/><path d="M374.822,439.195s-4.347-5.8-5.55-4.579-1.449,4.825-2.652,6.52-12.316,7.477-12.063,8.44,1.036,2.413,3.622,2.413H380.64s1.2-3.622.478-5.55-2.9-8.694-2.9-8.694Z" transform="translate(-327.059 -239.556)" fill="#263238" stroke="#263238" stroke-linecap="round" stroke-linejoin="round" stroke-width="1"/><path d="M354.61,454.656c.275.964,1.1,2.3,3.579,2.3h22.459a14,14,0,0,0,.725-4.463,108.182,108.182,0,0,1-10.679,2.174C365.76,455.337,357.262,454.837,354.61,454.656Z" transform="translate(-327.075 -244.527)" fill="#f0a60d" stroke="#263238" stroke-linecap="round" stroke-linejoin="round" stroke-width="1"/><path d="M414.751,425.856s1.449-3.188.935-4.651-3.622.268-4.122.529-4.115-6.774-4.115-6.774a21.37,21.37,0,0,1-4.919,2.9c-2.26.8-4.919,2.9-5.071,3.847s2.9,7.18,3.325,10.636,1.724,8.9,3.717,10.628,5.318,1.992,5.579,1.058-1.2-4.383-1.2-5.18,3.985-10.628,4.122-11.295S414.751,425.856,414.751,425.856Z" transform="translate(-338.878 -234.187)" fill="#263238" stroke="#263238" stroke-linecap="round" stroke-linejoin="round" stroke-width="1"/><path d="M410.1,445.829a1.217,1.217,0,0,0,0-.384c-2.449.109-5.195-1.326-6.006-3.065-.927-1.992-1.449-7.578-2.26-13.555-.587-4.4-1.963-6.52-2.652-7.3a4.442,4.442,0,0,0-1.732,1.978c-.13.935,2.9,7.18,3.325,10.635s1.724,8.9,3.717,10.628S409.837,446.764,410.1,445.829Z" transform="translate(-338.876 -235.997)" fill="#f0a60d" stroke="#263238" stroke-linecap="round" stroke-linejoin="round" stroke-width="1"/><path d="M402.188,216.61s12.063,3.137,15.439,4.347-3.137,10.375-3.137,10.375l-13.99-.725Z" transform="translate(-339.718 -179.539)" fill="#f6c6c6"/><path d="M348.978,313.571s-5.071,19.779-6.52,28.98-2.9,22.459-2.9,22.459a49.265,49.265,0,0,0,17.388,1.449c9.418-.964,13.041-3.137,13.041-3.137l7.172-31.82,4.644-7.013,23.908,27.98s11.338-5.8,16.4-9.65l10.143-7.716s-16.4-22.916-21.945-28.219S398,296.27,398,296.27L351.2,310.984Z" transform="translate(-322.928 -201.487)" fill="#f0a60d"/><path d="M397.84,331.824l3.883-8.694-1.572,7.629L408.9,323.8l-8.3,11.215Z" transform="translate(-338.985 -208.887)" fill="#263238" stroke="#263238" stroke-linecap="round" stroke-linejoin="round" stroke-width="1"/><path d="M378,383.933c.906-.311,1.819-.659,2.746-1.043" transform="translate(-333.519 -225.351)" fill="none" stroke="#263238" stroke-linecap="round" stroke-linejoin="round" stroke-width="1"/><path d="M341,385.06s10.02,4.224,24,.362" transform="translate(-323.325 -225.949)" fill="none" stroke="#263238" stroke-linecap="round" stroke-linejoin="round" stroke-width="1"/><path d="M428.9,362.6s15.026-8.752,24.227-16.823" transform="translate(-347.542 -215.127)" fill="none" stroke="#263238" stroke-linecap="round" stroke-linejoin="round" stroke-width="1"/><path d="M384.875,259.982c-.478-.964-6.028-14.953-6.028-14.953s.239-3.137.239-7.969a36.228,36.228,0,0,0-.964-8.44,47.084,47.084,0,0,0,5.55-5.311c1.449-1.934,3.376-8.44,3.376-8.44s-6.52-2.173-8.926-2.652-6.991-1.449-10.867-.964-11.1,3.622-11.1,3.622l-1.688-5.55S346.5,204.979,343.6,204.5s-7.477-.478-7.969.485,6.028,15.678,6.028,15.678a72.707,72.707,0,0,0-7.687,3.782c-1.985.724-7.969.956-10.266,2.637-2.659,1.934-4.238,8.3-3.275,9.259s4.1.239,4.1.239l10.94,6.462c4.093,5.593,10.049,18.953,10.049,22.242s-2.413,24.365-2.413,24.365,18.837,1.2,30.146-4.1,20.286-14.714,20.286-14.714S385.361,260.946,384.875,259.982Z" transform="translate(-317.58 -176.117)" fill="#263238" stroke="#263238" stroke-linecap="round" stroke-linejoin="round" stroke-width="1"/><path d="M373.154,211.313c-3.861.478-11.1,3.622-11.1,3.622l-1.688-5.55s-7.969-4.347-10.867-4.825-7.477-.478-7.969.485,6.028,15.678,6.028,15.678-2.536,1.043-5.368,2.507c3.514,2.9,9.469,5.955,17.185,3.043,10.07-3.8,15.939-11.787,17.989-15.011a21.733,21.733,0,0,0-4.209.051Z" transform="translate(-323.463 -176.133)" fill="#f6c6c6" stroke="#263238" stroke-linecap="round" stroke-linejoin="round" stroke-width="1"/><path d="M349.32,211.13a41.823,41.823,0,0,0,6.2,3.622c2.572,1.072,8.129.855,8.129.855l-1.13-4.383Z" transform="translate(-325.617 -178.03)" fill="#263238" stroke="#263238" stroke-linecap="round" stroke-linejoin="round" stroke-width="1"/><path d="M326.175,248.029s8.926-2.9,10.867-2.173,16.163,22.191,15.439,22.916-9.889,7.969-9.889,7.969-9.165-13.5-13.5-20.018S326.175,248.029,326.175,248.029Z" transform="translate(-319.178 -187.565)" fill="#f6c6c6"/><path d="M343.24,262.232s5.071,7.9,6.028,7.969,11.418-9.7,15.482-13.4S380.87,236,380.87,236a19.086,19.086,0,0,0,4.347-2.333c2.521-1.746,4.238-7.042,4.238-7.042s2.818-6.39,3.152-7.593-.145-4.876-.913-3.891a77.83,77.83,0,0,1-5.071,6.216c-2.043,2.123-8.643,10.07-8.643,10.07s-27.922,22.6-28.574,22.814" transform="translate(-323.942 -179.091)" fill="#f6c6c6"/><path d="M408.228,221.852a1.579,1.579,0,0,0-1.855.956,44.1,44.1,0,0,1-5.013,7.122" transform="translate(-339.955 -180.971)" fill="#fff" stroke="#263238" stroke-linecap="round" stroke-linejoin="round" stroke-width="1"/><path d="M408.374,218.219a1.869,1.869,0,0,0-1.637.833c-.594.92-4.217,5.361-5.267,6.7" transform="translate(-339.985 -179.982)" fill="#fff" stroke="#263238" stroke-linecap="round" stroke-linejoin="round" stroke-width="1"/><path d="M406.5,221.35s9.215,3.666,9.484,4.528c1.007,3.275-1.5,7.919-5.513,12.316-3.579,3.948-21.2,21.525-21.2,21.525A18.488,18.488,0,0,1,388,264.312c-1.094,2.76-5.731,5.521-5.731,5.521s-5.426,4.043-6.52,4.615-4.63.913-3.869,0a74.672,74.672,0,0,0,4.782-6.115c1.572-2.376,9.592-14.417,9.592-14.417s14.9-24.85,14.961-25.575" transform="translate(-331.803 -180.845)" fill="#f6c6c6"/><path d="M379.416,291a1.6,1.6,0,0,1,.536-2.173,15.387,15.387,0,0,0,3.623-4.347" transform="translate(-333.848 -198.238)" fill="#fff" stroke="#263238" stroke-linecap="round" stroke-linejoin="round" stroke-width="1"/><path d="M375.728,292.064s-1.188.058.29-1.319a43.121,43.121,0,0,0,4.412-5.8" transform="translate(-332.768 -198.368)" fill="#fff" stroke="#263238" stroke-linecap="round" stroke-linejoin="round" stroke-width="1"/><path d="M325.527,199.405s-9.165,6.267-8.918,8.2,10.367,4.347,11.592,3.622,3.13-14.229,2.652-14.953S325.527,199.405,325.527,199.405Z" transform="translate(-316.603 -173.912)" fill="#f0a60d" stroke="#263238" stroke-linecap="round" stroke-linejoin="round" stroke-width="1"/><path d="M328.71,190.7s-.724,8.2-3.862,13.99-3.376,12.063,6.035,14.714,16.663-4.825,17.127-6.274,1.2-3.376,1.2-3.376-2.9,2.652-6.028-1.927-4.347-9.418-1.21-12.063,7.969-5.071,8.2-8.44.246-11.338.246-11.338Z" transform="translate(-318.337 -168.348)" fill="#263238" stroke="#263238" stroke-linecap="round" stroke-linejoin="round" stroke-width="1"/><path d="M359.516,179.32s1.927,4.825,3.622,5.071,2.9-.478,2.659,1.21a11.461,11.461,0,0,1-1.449,3.622s1.949,12.86.261,13.823-9.911,2.34-17.149.891c-2.13-.427-4.347-4.1-4.347-4.1s-5.637-.138-6.361-3.992,2.71-5.528,4.637-4.8,2.9,3.246,2.9,3.246,7.484-4.825,7.969-7.716a47.009,47.009,0,0,0,.485-6.52Z" transform="translate(-322.127 -169.266)" fill="#f6c6c6"/><path d="M336.2,204.154a.4.4,0,0,1-.268-.1.391.391,0,0,1,0-.558l2.079-2.239a.391.391,0,0,1,.558,0,.4.4,0,0,1,0,.558l-2.079,2.239A.42.42,0,0,1,336.2,204.154Z" transform="translate(-321.897 -175.277)" fill="#f0a60d" stroke="#263238" stroke-linecap="round" stroke-linejoin="round" stroke-width="0.5"/><path d="M339.51,206.59a.375.375,0,0,1-.152,0,.4.4,0,0,1-.21-.522l.964-2.239a.384.384,0,0,1,.514-.2.391.391,0,0,1,.21.514l-.964,2.239a.391.391,0,0,1-.362.21Z" transform="translate(-322.806 -175.953)" fill="#f0a60d" stroke="#263238" stroke-linecap="round" stroke-linejoin="round" stroke-width="0.5"/><path d="M342.849,208.17h-.072a.391.391,0,0,1-.319-.456l.478-2.717a.394.394,0,1,1,.775.138l-.478,2.717a.4.4,0,0,1-.384.319Z" transform="translate(-323.725 -176.25)" fill="#f0a60d" stroke="#263238" stroke-linecap="round" stroke-linejoin="round" stroke-width="0.5"/><path d="M327.589,190.935s13.99-10.614,20.025-13.041,8.44-2.413,8.44-2.413-3.376-6.991-5.071-9.165-15.439.239-18.112,1.449-4.825,3.376-7.477,8.694S324.459,186.857,327.589,190.935Z" transform="translate(-318.665 -165.442)" fill="#f0a60d" stroke="#263238" stroke-linecap="round" stroke-linejoin="round" stroke-width="1"/></g></g></svg>