<?xml version="1.0" encoding="utf-8"?>
<!-- Generator: Adobe Illustrator 25.2.0, SVG Export Plug-In . SVG Version: 6.00 Build 0)  -->
<svg version="1.1" id="Layer_1" xmlns="http://www.w3.org/2000/svg" xmlns:xlink="http://www.w3.org/1999/xlink" x="0px" y="0px"
	 viewBox="0 0 256.4 216.7" style="enable-background:new 0 0 256.4 216.7;" xml:space="preserve">
<style type="text/css">
	.st0{fill:#3F3D56;}
	.st1{fill:#F8A02E;}
	.st2{fill:#2F2E41;}
	.st3{fill:#FF6584;}
	.st4{fill:#FFB8B8;}
	.st5{fill:#E6E6E6;}
	.st6{fill:#F2F2F2;}
	.st7{fill:#FFB6B6;}
	.st8{fill:#CCCCCC;}
</style>
<g transform="translate(-0.001)">
	<path class="st0" d="M110,93.4c3.9-3.8,5.3-10.1,3-14c-2.2-3.9-7.2-4-11.1-0.2c-3.9,3.8-9.4,14.1-7.2,18
		C97,101.1,106.1,97.2,110,93.4z M96.5,95.5c-0.8-0.4-1.1-1.7-0.5-2.8c0.5-1.1,1.7-1.8,2.5-1.4c0.8,0.4,1.1,1.7,0.5,2.8
		C98.5,95.2,97.3,95.9,96.5,95.5z"/>
	<path class="st1" d="M105.1,90.5l-1.1-1c-0.5-0.4-0.9-0.9-1.2-1.5c-0.3-0.8-0.4-1.7-0.2-2.6c0.2-1.3,0.8-2.4,1.7-3.3l-0.1,0.9
		c0.5-0.5,1-1,1.6-1.3c0.6-0.3,1.2-0.3,1.4,0.2c0.3,0.6,0,1.6,0.4,2.1c0.6,0.8,2.3-0.9,3.1-0.2c0.4,0.4,0.2,1.4,0,2.3
		c-0.2,1-0.6,2-1.1,3c-0.9,1.6-2.5,2.6-3.5,2.2C105.7,91,105.4,90.8,105.1,90.5z"/>
	<path class="st2" d="M101.8,90.7c-0.1-0.8,0.1-1.6,0.6-2.3l0.2-0.2c0.4-0.2,0.8-0.3,1.3-0.4c0.4,0,0.8,0.2,0.9,0.6
		c0.1,0.4,0,1,0.3,1.2c0.5,0.4,1.6-0.9,2.1-0.5c0.3,0.3,0.1,1-0.3,1.3c-0.3,0.3-0.8,0.5-1.2,0.5l-1.9,0.3c-0.4,0.1-0.8,0.1-1.2,0.1
		C102.2,91.4,101.9,91.1,101.8,90.7z"/>
	<path class="st3" d="M99.7,91.2c0.4-1.4,0.9-2.7,1.6-4l0.3-0.4c0.4-0.5,0.8-0.8,1.3-1.2c0.4-0.2,0.6-0.1,0.5,0.6
		c-0.1,0.6-0.4,1.5-0.3,1.8c0.3,0.5,1.8-2.2,2-1.7c-0.1,0.8-0.4,1.6-0.9,2.2c-0.3,0.5-0.8,1-1.3,1.4l-1.8,1.4
		c-0.3,0.3-0.7,0.5-1,0.6C99.8,92,99.6,91.8,99.7,91.2z"/>
	<path class="st4" d="M99.9,94.8c-0.3-1.7-2-2.8-3.7-2.4c-0.2,0-0.4,0.1-0.5,0.2l-7.2-8.3l-1.6,5.5l7.1,7.1c0.7,1.6,2.6,2.2,4.2,1.5
		C99.5,97.7,100.2,96.2,99.9,94.8L99.9,94.8z"/>
	<path class="st0" d="M75.9,63L74,66.3c0,0,5.1,2.5,5.1,4.5c0.1,2,0.5,1.5,1.2,2c1,0.9,1.6,2.1,1.7,3.5c0,1.5,12,13.5,12,13.5
		l-3.3,4.5c-1.1-1-2.2-1.8-3.5-2.5c-1.9-1-7.3-2.9-7.7-3.9s-2-1.8-3.5-2.9c-1.5-1.1,1.7-2-0.8-3.8c-2.5-1.8-16.1-16-18.5-17.4
		s-2.5-5.6-2.5-5.6l1.8-2.5L75.9,63z"/>
	<path class="st5" d="M184.8,147.7v-1.6c0-0.5,0-0.9,0-1.4V15.2c0-1.7-1.4-3-3-3c-1.7,0-3,1.4-3,3l0,0v129.5c0,0.5,0,0.9,0,1.4v1.6
		L148,210.5c3,3,8,3,11,0c0,0,0,0,0,0l19.7-49.9v49.1c0,1.7,1.4,3,3,3c1.7,0,3-1.4,3-3v-49.1l19.7,49.9c3,3,8,3,11,0c0,0,0,0,0,0
		L184.8,147.7z"/>
	<path class="st5" d="M33.5,194.3c-3.3-3.3-6.1-7-8.3-11c-2.2-4-3.9-8.4-4.9-12.9c-1-4.6-1.4-9.3-1-13.9c0.7-9.5,4.3-18.6,10.1-26.1
		c0.4-0.5,0.7-0.9,1.1-1.4c0.4-0.5,1.1,0.2,0.7,0.7c-15.8,18.8-14.5,46.7,3,64C34.7,194,34,194.7,33.5,194.3L33.5,194.3z"/>
	<path class="st5" d="M29,131.1c0.4-0.2,0.8-0.3,1.2-0.5l0.1,0.1L29,131.1z"/>
	<path class="st5" d="M36.8,122.2c-0.2,0.9-0.5,1.8-0.9,2.7c-1.2,2.3-3,4.3-5.3,5.5c-0.1,0.1-0.3,0.1-0.4,0.2
		c-0.2-0.2-0.3-0.5-0.5-0.7c-1.1-1.6-1.9-3.4-2.4-5.3c-0.6-2.2-0.1-4.6,1.2-6.4c1.4-1.8,4-2.4,6-1.4c0.6,0.3,1,0.8,1.4,1.3
		c-0.2,0.2-0.4,0.5-0.6,0.7c0,0,0,0-0.1,0.1c-0.2,0.2-0.3,0.4-0.5,0.6c-0.7,0.9-1.4,1.7-2.1,2.6c1,0.2,2,0.3,3,0.2l0.2,0
		C36.2,122.3,36.5,122.2,36.8,122.2z"/>
	<path class="st5" d="M22.5,139.6l-0.3,3.5l-0.1,1l-0.2-0.1c-5.3-2.6-9.2-7.4-10.8-13.2c-0.3-1-0.4-2-0.5-3c1.4-0.2,2.7-0.4,4.1-0.6
		c-1.1-1.4-2.5-2.6-4.1-3.5c0.4-3.5,1.6-6.9,3.7-9.8c0.4,5.9,6.5,9.7,8.8,15.1C24.6,132.4,24.3,136.3,22.5,139.6L22.5,139.6z"/>
	<path class="st5" d="M21.3,170.5c-0.3,0-0.7,0-1,0c-5.7,0-11.1-2.4-15-6.6c-1.6-1.7-2.8-3.7-3.7-5.8l0.1,0c1.4-0.2,2.7-0.4,4.1-0.6
		c-1.5-1.9-3.4-3.4-5.6-4.3c-0.3-1.9-0.3-3.9-0.1-5.8c3.1,5,10.3,5.5,14.9,9.2c2.2,1.8,3.7,4.3,4.2,7.1c0.1,0.7,0.2,1.4,0.2,2.1
		c0,0.2,0,0.3,0,0.5l0.1,0.2L21.3,170.5z"/>
	<path class="st5" d="M34.9,176.4c-0.9,1.1-1.8,2.2-2.6,3.2c1.1,0.2,2.2,0.3,3.3,0.2c-1,3.5-2.8,6.6-5.4,9.2
		c-0.2,0.2-0.5,0.5-0.7,0.7c-0.1,0-0.1,0.1-0.2,0.1l-0.2-0.6l0,0l-1.3-3.6c-1.6-1.7-2.8-3.7-3.3-6v0c-0.3-1.3-0.4-2.7-0.2-4.1
		c0.7-5.9,5.7-11.2,4.5-16.9c2.7,2.2,4.8,5.1,6.1,8.3c-0.7,0.9-1.4,1.7-2.1,2.6c1,0.2,2,0.3,3,0.2c0.4,1.4,0.5,2.9,0.6,4.4
		c0,0.2,0,0.4,0,0.6C35.9,175.2,35.4,175.8,34.9,176.4C35,176.3,34.9,176.4,34.9,176.4L34.9,176.4z"/>
	<path class="st5" d="M206.7,205.6c-0.5-4.6-0.4-9.3,0.4-13.8c0.8-4.5,2.2-9,4.3-13.1c2.1-4.2,4.7-8.1,8-11.5
		c6.5-6.9,15-11.8,24.3-14c0.6-0.1,1.1-0.3,1.7-0.4c0.6-0.1,0.7,0.9,0.1,1c-24.1,4.8-40.6,27.3-37.7,51.7c0,0.3-0.2,0.5-0.5,0.5
		C207,206,206.8,205.8,206.7,205.6L206.7,205.6z"/>
	<path class="st5" d="M242.8,153.5c0.4,0.1,0.8,0.3,1.3,0.3c0,0,0,0.1,0,0.1L242.8,153.5z"/>
	<path class="st5" d="M254.4,151.4c-0.7,0.6-1.5,1.1-2.4,1.5c-2.4,1.1-5,1.4-7.6,1c-0.1,0-0.3-0.1-0.4-0.1c0-0.3,0.1-0.6,0.1-0.9
		c0.2-1.9,0.7-3.8,1.5-5.6c0.9-2.1,2.8-3.7,5-4.3c2.3-0.5,4.6,0.6,5.6,2.7c0.2,0.6,0.3,1.3,0.2,1.9l-0.9,0.2c0,0-0.1,0-0.1,0
		c-0.3,0.1-0.5,0.1-0.8,0.2c-1.1,0.2-2.2,0.5-3.3,0.7c0.7,0.8,1.4,1.5,2.2,2.1l0.2,0.1C254,151.2,254.2,151.3,254.4,151.4z"/>
	<path class="st5" d="M232.4,156l-2.4,2.6l-0.7,0.7c0-0.1-0.1-0.2-0.1-0.2c-2.5-5.4-2.5-11.6-0.1-17c0.4-0.9,0.9-1.8,1.5-2.7
		c1.2,0.7,2.4,1.4,3.6,2.1c0-1.8-0.3-3.6-1-5.3c2.5-2.5,5.6-4.4,9-5.3c-3.4,4.8-1,11.6-2.6,17.3C238.6,151.7,235.9,154.6,232.4,156
		L232.4,156z"/>
	<path class="st5" d="M212.1,179.4c-0.3-0.2-0.5-0.4-0.8-0.6c-4.4-3.6-7.1-8.8-7.6-14.5c-0.1-2.3,0.1-4.6,0.7-6.8l0.1,0
		c1.2,0.7,2.4,1.4,3.6,2.1c0.1-2.4-0.5-4.8-1.7-6.8c1-1.7,2.2-3.2,3.6-4.5c-0.7,5.9,4.6,10.7,5.8,16.5c0.6,2.8,0.1,5.7-1.2,8.2
		c-0.3,0.6-0.7,1.2-1.1,1.8c-0.1,0.1-0.2,0.3-0.3,0.4l-0.1,0.2L212.1,179.4z"/>
	<path class="st5" d="M219,192.5c-1.4,0.3-2.7,0.6-4.1,0.9c0.7,0.8,1.5,1.6,2.4,2.2c-2.9,2.1-6.4,3.4-10,3.8c-0.3,0-0.7,0.1-1,0.1
		l-0.2,0l0.2-0.6v0l1.2-3.6c-0.2-2.3,0.2-4.7,1.2-6.7l0,0c0.6-1.2,1.4-2.3,2.4-3.3c4.2-4.1,11.4-5.1,14.1-10.4
		c0.7,3.4,0.6,7-0.4,10.3c-1.1,0.2-2.2,0.5-3.3,0.7c0.7,0.8,1.4,1.5,2.2,2.1c-0.6,1.3-1.4,2.6-2.3,3.8c-0.1,0.2-0.3,0.3-0.4,0.5
		C220.5,192.2,219.8,192.3,219,192.5C219.1,192.5,219.1,192.5,219,192.5z"/>
	<path class="st6" d="M237.9,126.3H125.6c-2.7,0-4.9-2.2-4.9-4.9V42.9c0-2.7,2.2-4.9,4.9-4.9h112.2c2.7,0,4.9,2.2,4.9,4.9v78.5
		C242.8,124.1,240.6,126.3,237.9,126.3z"/>
	<path class="st5" d="M198.3,42.9h-33.2c-4.4,0-7.9-3.6-7.9-7.9v-0.1h49.1V35C206.3,39.4,202.7,42.9,198.3,42.9z"/>
	<path class="st5" d="M198.5,131.2h-33.2c-4.4,0-7.9-3.6-7.9-7.9v-0.1h49.1v0.1C206.4,127.7,202.9,131.2,198.5,131.2z"/>
	<path class="st1" d="M190.4,111.2c0,4.8-3.6-0.6-8.4-0.6c-4.8-0.1-8.6-4-8.6-8.7c0-4.7,3.9-8.5,8.6-8.6
		C186.8,93.3,190.4,106.4,190.4,111.2z"/>
	<path class="st1" d="M157.2,67.9c0,4.8-3.9,8.7-8.7,8.7c-4.8,0-7.2,9.7-7.2,4.9s2.4-22.2,7.2-22.2
		C153.3,59.2,157.2,63.1,157.2,67.9z"/>
	<path class="st0" d="M145.6,58.3c1.3-0.7,2.8-0.6,4,0.3c1.3,0.9,2.2,2.3,2.4,3.8c0.3,1.6,0.3,3.3,0,4.9c-0.3,1.6-1.2,3.2-2.8,3.7
		c-1.1,0.4-2.3-0.2-2.8-1.2c-0.3-0.9-0.1-2,0.5-2.7c1-1,2.5-1.2,3.8-0.6c1.4,0.7,2.4,2,2.7,3.5c0.4,1.8,0.3,3.6-0.3,5.3
		c-0.5,1.9-1.2,3.7-1.8,5.6c-1.3,3.6-2.1,7.3-2.5,11.1c-0.4,5.8,1.5,12.5,6.8,15.6c2.9,1.6,6.3,2,9.5,1.3c3.3-0.8,6.4-2.4,9-4.6
		c1.4-1.2,2.6-2.4,3.8-3.8c0.7-0.9,1.9-1.2,3-0.9c2.8,0.9,2.2,5.3-0.5,5.8c-1.3,0.2-2.6-0.3-3.5-1.2c-1-0.9-1.7-2.1-2-3.4
		c-0.6-2.8,0-5.8,1.8-8.1c1.9-2.6,4.9-4.2,7.8-5.2c3.4-1,6.9-1.6,10.5-1.8c3.6-0.2,7.2-0.9,10.7-2.1c2.7-1.1,5.3-2.6,7.5-4.5
		c4.5-3.8,7.7-8.9,9.2-14.6c0.3-1.4,0.5-2.8,0.6-4.2c0-0.6-0.8-0.6-0.9,0c-0.8,9.4-6.6,17.7-15.1,21.8c-3.4,1.5-7,2.3-10.7,2.6
		c-3.8,0.2-7.5,0.8-11.2,1.7c-3.3,0.8-6.3,2.6-8.6,5.1c-2,2.3-2.9,5.4-2.6,8.4c0.4,2.8,2.1,5.7,5.1,6.3c1.4,0.3,2.8-0.1,3.7-1.2
		c1-1.3,1.3-3,0.6-4.5c-0.9-1.6-2.9-2.4-4.6-1.7c-0.6,0.3-1.1,0.7-1.6,1.2c-2.4,2.8-5.4,5.2-8.7,6.8c-3.2,1.5-6.9,1.9-10.3,0.9
		c-6.4-2.1-8.8-9.4-8.4-15.5c0.4-4,1.3-7.9,2.7-11.7c0.6-1.9,1.4-3.9,1.8-5.9c0.5-1.8,0.5-3.7-0.1-5.4c-0.5-1.6-1.6-2.9-3-3.5
		c-1.4-0.6-3-0.5-4.3,0.4c-1.8,1.3-1.9,4.6,0.3,5.7c1.5,0.6,3.2,0.2,4.3-1c1.1-1.3,1.7-3,1.7-4.7c0.3-3.2-0.4-7-3.7-8.5
		c-1.3-0.6-2.9-0.6-4.2,0.1c-0.2,0.1-0.3,0.4-0.1,0.6C145.1,58.4,145.3,58.4,145.6,58.3L145.6,58.3z"/>
	<path class="st1" d="M223.3,62.4c0,5.1,8,18,5.3,21.9c-0.3,0.5-0.7,1-1.1,1.4c-1.2,1.5-2.6,2.8-4.1,4c-0.3,0.2-0.5,0.4-0.8,0.6
		c-0.9,0.7-1.9,1.3-2.9,1.8l-0.6,0.3c-12,5.8-26.4,0.7-32.2-11.3c-4.5-9.3-2.5-20.4,4.8-27.6c0.2-0.2,0.4-0.4,0.7-0.6
		c2.2-2,4.8-3.7,7.7-4.7c0,0,0,0,0,0c4.2-1.6,8.9-2,13.3-1.1h0c0.1,0,0.2,0,0.3,0.1C224.7,49.3,223.3,50.8,223.3,62.4z"/>
	<path class="st0" d="M219.7,92c0,0,0,0.1,0,0.1l-0.6,0.3c-0.2-0.1-0.3-0.2-0.3-0.4c0-0.4-0.1-0.9-0.3-1.3c-1.1-3.6-5.1-5.5-8.5-6.1
		c-4.2-0.8-8.7-0.5-12.7-2.2c-1.6-0.7-3.1-1.7-4.3-3.1c-1.2-1.5-1.8-3.4-1.7-5.3c0.2-4.5,3.4-8,4.5-12.3c0.5-1.7,0.4-3.6-0.3-5.2
		c-0.6-1.5-1.9-2.5-3.5-2.8c-0.1,0-0.3-0.1-0.3-0.2c0.2-0.2,0.4-0.4,0.7-0.6c0.3,0,0.6,0.1,0.9,0.2c1.5,0.7,2.7,1.9,3.3,3.5
		c0.7,1.8,0.7,3.7,0.1,5.5c-1.2,4.3-4.6,8-4.4,12.5c0.1,4,3.6,6.5,7.1,7.5c4.3,1.3,9,0.7,13.3,2.2C216.1,85.5,219.4,88.2,219.7,92z"
		/>
	<path class="st0" d="M223.4,89.7c-0.3,0.2-0.5,0.4-0.8,0.6c-0.1-0.1-0.1-0.2-0.1-0.3c0.1-3.7-1.1-7.4-3.6-10.2
		c-1.1-1.2-2.3-2.3-3.7-3.1c-1.5-0.8-3.1-1.4-4.7-1.8c-1.6-0.4-3.1-1.2-4.4-2.3c-1.2-1.2-1.9-2.8-2-4.5c-0.4-4,1.6-7.7,1.7-11.6
		c0.1-1.7-0.4-3.5-1.4-4.9c-0.9-1.3-2.4-2-3.9-1.9c-0.5,0.1-0.5-0.7-0.1-0.8c0,0,0.1,0,0.1,0c1.8-0.1,3.5,0.7,4.6,2.2
		c1.2,1.6,1.8,3.7,1.6,5.7c-0.2,3.9-2.3,7.7-1.7,11.8c0.2,1.7,1.2,3.2,2.6,4.2c1.5,0.9,3.1,1.5,4.8,1.9c1.6,0.5,3.2,1.3,4.6,2.2
		c1.4,1,2.6,2.2,3.5,3.6C222.5,83.1,223.5,86.4,223.4,89.7L223.4,89.7z"/>
	<path class="st0" d="M228.6,84.3c-0.3,0.5-0.7,1-1.1,1.4c0.4-2.2,0.3-4.5-0.3-6.7c-0.7-2.8-2-5.3-4-7.5c-1-1.1-2.1-2-3.3-2.7
		c-1.4-0.8-2.9-1.5-3.9-2.9c-2.1-2.9-0.7-6.8,0-9.9c0.5-1.6,0.4-3.4-0.1-5c-0.5-1.3-1.6-2.3-3-2.5c-0.6-0.1-0.6-0.9,0-0.9
		c0.1,0,0.2,0,0.3,0c1.5,0.3,2.8,1.4,3.4,2.8c0.7,1.8,0.8,3.9,0.2,5.8c-0.7,3.2-2.3,7.4,0.6,9.9c1.2,1.1,2.8,1.7,4.1,2.7
		c1.2,0.9,2.2,1.9,3.1,3C227.5,75.4,228.9,79.8,228.6,84.3z"/>
	<path class="st7" d="M73.6,203.9h5.1l2.4-19.8h-7.6V203.9z"/>
	<path class="st2" d="M70.9,212.8h3.7l0.7-3.5l1.7,3.5h9.7c1.2,0,2.2-1,2.2-2.2c0-0.7-0.4-1.4-0.9-1.8l-7.8-5.4v-3.5l-8.2,0.5
		L70.9,212.8z"/>
	<path class="st7" d="M33.9,193.8l4.4,2.6l12.2-15.7l-6.5-3.9L33.9,193.8z"/>
	<path class="st2" d="M27.1,200l3.2,1.9l2.3-2.6l-0.3,3.8l8.4,5c1,0.6,2.4,0.3,3-0.8c0.4-0.6,0.4-1.4,0.1-2l-4-8.6l1.8-3l-7.3-3.8
		L27.1,200z"/>
	<path class="st7" d="M74.2,77.6l4.2,15.9l-23.6,0.3l3.1-15.2L74.2,77.6z"/>
	<path class="st2" d="M78.5,93.3l5,16.4l2.2,43.8L80,195.3h-6.4L71,154.1L64.6,126l3.8,29.4l-19.7,28.8h-9.7l17.8-31.8l-10.4-33
		c0,0,1-16.3,7.6-25l1.6-4.6L78.5,93.3z"/>
	<path class="st0" d="M78.8,63c0-0.1,0-0.3-0.1-0.4c-1.1-7.1-7.7-12.1-14.8-11c-3.2,0.5-6.1,2.1-8.2,4.6v0c-0.1,0.1-0.2,0.3-0.3,0.4
		c-0.2,0.2-0.4,0.5-0.5,0.7c-1.5,2.2-2.2,4.8-2.2,7.5c0,0,1.2,6.6,1.5,8.3c0.2,1.1,0.3,2.2,0.4,3.3c0.1,0.5,0.1,1.1,0.1,1.6v0
		c0.2,2.6,0.3,4.9,0.3,6.7c0.1,1.3,0.4,2.5,0.7,3.8c0,0,0.1,0.1,0.1,0.1c0.7,0.4,1.6,0.4,2.3,0.1l3.1-1.4l0,0c2-0.9,4.3-1.3,6.5-1
		c3.6,0.5,8.9,1.1,9.2,0.9c0.3-0.2,1.7-12.6,2-16.4c0-0.6,0.1-1.1,0.1-1.8v0C79.2,67,79.1,65,78.8,63z"/>
	<path class="st4" d="M96.4,65.2c-0.5,1.5-2.2,2.4-3.7,1.9c-0.2-0.1-0.3-0.1-0.5-0.2l-7.8,7l-0.8-5.4l7.5-5.8
		c0.9-1.4,2.7-1.8,4.1-0.9C96.3,62.5,96.8,63.9,96.4,65.2L96.4,65.2z"/>
	<path class="st0" d="M67.6,51.6c0,0,7.6,1.4,3.3,16.2l1.7,7.3l7.9-4.5l0.5-1.9l6.9-4.8l3.3,5.9l-4,3.8l-1.1,2.4l-2,0.7l-6.3,6
		l-2.6,1.6c0,0-3.4,2.1-6.3,1c-0.8-0.3-1.5-0.7-2.2-1.2c-1.6-1.3-2.7-3.1-3.2-5c-1.5-5-2.8-10-3.7-15.1L67.6,51.6z"/>
	<path class="st0" d="M95.9,72.4l-4.6-17.4c0-0.2,0.1-0.4,0.3-0.5c0.2,0,0.4,0.1,0.4,0.2l6.2,16.2L95.9,72.4z"/>
	<path class="st8" d="M99.7,76.4c-0.7-0.1-1.3-0.4-1.9-0.7c-0.3-0.2-0.6-0.3-0.9-0.5c-0.1-0.1-0.2-0.1-0.3-0.2l-0.7-0.4
		c-0.2-0.1-0.4-0.2-0.6-0.4c-0.3-0.1-0.6-0.4-0.7-0.7c-0.1-0.3,0-0.7,0.3-0.9c0.2-0.3,0.5-0.5,0.8-0.7c0.7-0.5,1.3-1,2-1.4l0.2-0.4
		c0.5,0.2,1,0.5,1.4,0.9c0.3,0.3,0.5,0.8,0.5,1.3c0,0.1,0,0.2-0.1,0.3c-0.2,0.4-0.4,0.8-0.7,1.2c0,0.1-0.1,0.2-0.1,0.3
		c-0.2,0.6-0.1,1.2,0.2,1.7C99.2,76,99.4,76.2,99.7,76.4z"/>
	<path class="st5" d="M100.7,76.5c-0.3,0-0.7,0-1-0.2C100.1,76.4,100.4,76.5,100.7,76.5z"/>
	<path class="st1" d="M99.7,76.4c-0.7-0.1-1.3-0.4-1.9-0.7c-0.3-0.2-0.6-0.3-0.9-0.5c-0.1-0.1-0.2-0.1-0.3-0.2l-0.7-0.4
		c0.1-0.1,0.2-0.2,0.3-0.3c1-1,2.2-1.6,3.5-2c0,0.1,0,0.2-0.1,0.3c-0.2,0.4-0.4,0.8-0.7,1.2c0,0.1-0.1,0.2-0.1,0.3
		c-0.2,0.6-0.1,1.2,0.2,1.7C99.2,76,99.4,76.2,99.7,76.4L99.7,76.4z"/>
	<path class="st8" d="M253.6,212.9c0,0.2-0.2,0.3-0.3,0.3c0,0,0,0,0,0H4.4c-0.2,0-0.3-0.2-0.3-0.3c0-0.2,0.2-0.3,0.3-0.3l0,0h248.9
		C253.4,212.5,253.6,212.7,253.6,212.9C253.6,212.9,253.6,212.9,253.6,212.9L253.6,212.9z"/>
	<circle class="st7" cx="64.1" cy="39.4" r="10"/>
	<path class="st2" d="M58,31.2L58,31.2c0,0.4-0.1,0.9-0.2,1.3c0,0.1,0,0.2-0.1,0.2l0,0c-0.5,1.5-1.6,2.7-3.1,3.3
		c-0.1,0-0.2,0.1-0.3,0.1c-0.2,0.1-0.5,0.1-0.7,0.1c-0.2,0-0.4,0-0.7,0c-0.2,0-0.3,0-0.5,0c-0.4,0-0.8-0.1-1.2-0.3
		c-0.1,0-0.1,0-0.2-0.1c0,0-0.1,0-0.1,0c-2.6-1.1-3.8-4.1-2.7-6.7c0-0.1,0.1-0.2,0.1-0.2l0,0c0.2-0.5,0.6-1,1-1.4
		c0.9-0.9,1.3-3.2,2.7-3.2c0.1,0,0.1,0,0.2,0c0.9,0,2.7,2.1,3.4,2.5c0.5,0.3,1,0.8,1.4,1.3c0.4,0.5,0.7,1.2,0.8,1.8
		C58,30.5,58,30.9,58,31.2z"/>
	<path class="st2" d="M51.8,29.5c-0.9,0.8-2,1.4-3.1,1.8c-4,1.8-6.9,5.4-7.7,9.7c-0.2,1.7-0.4,3.5-0.8,5.2c-0.5,1.7-1.7,3.3-3.4,3.6
		c-1.2,0.1-2.4-0.2-3.4-0.7c-0.6-0.2-1.2-0.5-1.8-0.7c0.6-1.6,1.3-3.2,1.9-4.7c-1,1.5-2.2,2.9-3.5,4.1L23.5,45
		c5.3,0,4.4-5.2,5.6-10.3c0.7-2.9,6.2-4.8,7.3-7.5c1.7-4.3,6.5-6.3,10.8-4.6c1.8,0.7,3.3,2.1,4.3,3.8C52.5,26.9,52.6,28.6,51.8,29.5
		z"/>
	<path class="st2" d="M73.2,29.4c-1-1.3-3.4-1.3-3.9,0.2l-1-1.4c-1.3-2.9-4.9-2.3-8.1-2c-3.3,0.5-6,2.6-7.5,5.5
		c-1.4,3-1.6,6.3-0.7,9.5c0.5,2.1,1.6,4.1,3.3,5.5c1.7,1.4,9.7,4.6,10.3,1.8c-0.8,3.6,0.8,3.1,3.3,5.8c1.3-3.8,1.9-11.1,3.2-14.9
		l0.6-1.7c0.4-1.2,0.8-2.4,1.1-3.7C74,32.5,74.1,30.7,73.2,29.4z"/>
	<path class="st3" d="M66.6,40.4l-0.4-2.7c0.3-3.4-0.2-8.8,2-9.5l1.4,1.4C68.7,29.8,67.1,34.9,66.6,40.4z"/>
	<path class="st3" d="M69.8,26c0,2.1-0.7,3.8-1.6,3.8c-0.9,0-1.6-1.7-1.6-3.8c0.1-1.4,0.7-2.7,1.6-3.8C69.1,23.3,69.7,24.6,69.8,26z
		"/>
	<path class="st3" d="M71.1,26.9c-0.8,1.9-2.2,3.2-3,2.8c-0.8-0.4-0.8-2.2,0.1-4.1c0.6-1.2,1.7-2.2,3-2.8
		C71.6,24.2,71.5,25.6,71.1,26.9z"/>
</g>
</svg>
