<svg xmlns="http://www.w3.org/2000/svg" width="281.046" height="224.977" viewBox="0 0 281.046 224.977"><g transform="translate(-41.76 -30.92)"><g transform="translate(87.924 34.208)"><path d="M229.273,40.49c-.035,61.5.445,123.189-.5,184.88,0,6.624-3.867,12.742-9.183,15.282-13.535,6.629-27.07,11.219-41.25,16.009L357.8,256.7c12.131-4.321,23.733-8.4,35.819-12.479a23.236,23.236,0,0,0,12.566-12.236c.5-2.039,1.449-4.585,1.449-6.624V40.511" transform="translate(-178.34 -38.746)" fill="none" stroke="#263238" stroke-linecap="round" stroke-linejoin="round" stroke-width="1"/><path d="M275.354,43.88h0a1.894,1.894,0,0,1-1.894-1.9V38.9a1.894,1.894,0,0,1,1.894-1.9h0a1.894,1.894,0,0,1,1.874,1.9V42A1.9,1.9,0,0,1,275.354,43.88Z" transform="translate(-225.934 -37)" fill="#263238" stroke="#263238" stroke-linecap="round" stroke-linejoin="round" stroke-width="1"/><path d="M637.5,43.88h0a1.9,1.9,0,0,1-1.894-1.9V38.9A1.894,1.894,0,0,1,637.5,37h0a1.894,1.894,0,0,1,1.894,1.894V42A1.894,1.894,0,0,1,637.5,43.88Z" transform="translate(-407.14 -37)" fill="#263238" stroke="#263238" stroke-linecap="round" stroke-linejoin="round" stroke-width="1"/><line x2="189.359" transform="translate(44.023 1.304)" fill="#fff" stroke="#263238" stroke-linecap="round" stroke-linejoin="round" stroke-width="3"/></g><g transform="translate(41.76 31.42)"><ellipse cx="35" cy="7.814" rx="35" ry="7.814" transform="translate(0 208.849)" opacity="0.2"/><line y2="157.217" transform="translate(34.495 59.077)" fill="none" stroke="#263238" stroke-linecap="round" stroke-linejoin="round" stroke-width="6"/><path d="M60.85,366.9,85.307,290.04l31.442,74.866" transform="translate(-51.312 -149.612)" fill="none" stroke="#263238" stroke-linecap="round" stroke-linejoin="round" stroke-width="6"/><path d="M139.327,32.1,128.355,58.556l-.395,39.062,11.372,22.714Z" transform="translate(-84.891 -31.76)" fill="#263238" stroke="#263238" stroke-linecap="round" stroke-linejoin="round" stroke-width="1"/><path d="M150.71,31.76l31.407-.34-.35,86.348-31.053,2.223Z" transform="translate(-96.274 -31.42)" fill="#fff" stroke="#263238" stroke-linecap="round" stroke-linejoin="round" stroke-width="1"/><path d="M117.034,117.2,101.81,117a6.74,6.74,0,0,1-6.65-6.82h0a6.735,6.735,0,0,1,6.825-6.65l15.224.195Z" transform="translate(-68.479 -65.477)" fill="#263238" stroke="#263238" stroke-linecap="round" stroke-linejoin="round" stroke-width="1"/><path d="M96.165,119.122s-6.875-1.874-6.875,8.754,12.491,21.25,13.75,32.477-7.095,13.33-6.67,21.669,12.3,8.334,8.544,13.96l-3.747,5.626" transform="translate(-65.542 -71.484)" fill="none" stroke="#263238" stroke-linecap="round" stroke-linejoin="round" stroke-width="2"/></g><g transform="translate(165.908 44.93)"><path d="M371.669,248.206s-6.725,35.974-7.889,41.06-5.1,12.066-5.8,16.488-1.624,24.357-1.624,24.357l3.712.235S371.784,300.3,375.032,294.5s10.083-26.891,10.083-26.891l3.258-6.171s-1.624,19.721-2.089,29.7,3,35.474,3,35.474L393.223,328l5.106-38.972s4.407-20.185,5.336-31.552,1.159-12.066,1.159-12.066l-31.317-2.783Z" transform="translate(-337.159 -139.4)" fill="#263238" stroke="#263238" stroke-linecap="round" stroke-linejoin="round" stroke-width="1"/><path d="M411.547,192.192a67.4,67.4,0,0,0,8.349.7,56.035,56.035,0,0,0,7.889-.7s1.874-12.3,1.374-20.88-10.423-39.087-10.423-39.087l-10.8-.145-.585,58.258A10.035,10.035,0,0,0,411.547,192.192Z" transform="translate(-362.672 -92.284)" fill="#fff" stroke="#263238" stroke-linecap="round" stroke-linejoin="round" stroke-width="1"/><path d="M441.422,128.382s9.913,23.218,13.285,30.6c3.193,6.995,4.022,9.723,2,14.959-2.393,6.181-3.917,9.888-3.917,9.888l-5.8-14.849-8.584-39.9S437.475,123.746,441.422,128.382Z" transform="translate(-378.163 -89.784)" fill="#ffac00"/><path d="M458.76,201.954s1.2-1,5.786.4" transform="translate(-388.396 -126.015)" fill="none" stroke="#263238" stroke-linecap="round" stroke-linejoin="round" stroke-width="1"/><path d="M422.135,129.744s4.527,31.407,8.7,45.792-1.159,46.4-1.159,46.4,6.5,0,10.907-1.859a26.286,26.286,0,0,0,6.955-4.177s.235-21.8-4.172-37.348S432.227,128,432.227,128H421.79Z" transform="translate(-369.897 -89.502)" fill="#ffac00"/><path d="M378.341,127.93H377.9c-1.769.06-8.4.28-11.836.28-4,0-5.626,1.779-5.626,2.5s5.181,31.662,5.031,36.249-1.924,14.649-5.031,21.16S352.3,211.05,352.3,211.05s4.142,2.958,15.239,7.395S386.77,221.9,386.77,221.9s3.847-26.931,1.334-43.209-3.847-48.53-3.847-48.53Z" transform="translate(-335.127 -89.466)" fill="#ffac00"/><path d="M392.069,127.96l28.07,65.418-1.624-.23-28.3-65.188Z" transform="translate(-354.096 -90.293)" fill="#fff" stroke="#263238" stroke-linecap="round" stroke-linejoin="round" stroke-width="1"/><path d="M446.86,258.43s0,16.7.695,17.862,4.407,1.394,4.407-.694-3.5-16.938-3.5-16.938Z" transform="translate(-382.441 -152.259)" fill="#fff" stroke="#263238" stroke-linecap="round" stroke-linejoin="round" stroke-width="1"/><path d="M450.11,254.527l9.938-4.357s6.52,14.8,5.356,16.888-13.6,5.931-13.6,5.931Z" transform="translate(-384.068 -148.244)" fill="#fff"/><path d="M397.156,123.188s-2.363,15.239-1.924,25.3-.59,32.552-1.774,37.878-2.069,14.055-2.069,14.055l11.242.739s1.5-22.484,1.334-35.974-.595-31.367-.595-34.175V126l3.552.15a145.688,145.688,0,0,1,2.813,18.347c.74,9.318.44,24.412.44,24.857s9.913-1.184,9.913-1.184a94.5,94.5,0,0,0-4.287-25.9c-4.437-14.649-6.066-19.086-6.066-19.086l-12.876-2.368Z" transform="translate(-354.686 -86.687)" fill="#263238" stroke="#263238" stroke-linecap="round" stroke-linejoin="round" stroke-width="1"/><path d="M415.268,118.395s1.774,4.886,1.034,6.066-5.621,2.368-10.8-.145a4.643,4.643,0,0,1-1.629-7.694C404.61,116.176,415.268,118.395,415.268,118.395Z" transform="translate(-360.217 -87.532)" fill="#263238" stroke="#263238" stroke-linecap="round" stroke-linejoin="round" stroke-width="1"/><path d="M390.3,82.92a27.64,27.64,0,0,1-5.456,11.717c-4.522,5.681-5.8,9.493-5.566,13.106s3.363,6.031,7.425,6.96,6.031,0,6.5,2.433.809,4.062,3.5,4.642,4.412-.23,4.872-2.318a5.9,5.9,0,0,0,.12-3s-1.279,2.089-2.088,1.044,2.318-2.318,1.159-6.96-3.133-4.5-6.146-7.19a12.307,12.307,0,0,1-4.292-10.208c.12-4.292.8-10.228.8-10.228Z" transform="translate(-348.611 -70.699)" fill="#fff" stroke="#263238" stroke-linecap="round" stroke-linejoin="round" stroke-width="1"/><path d="M399.11,138.59c3.9,1.534,6.37,2,6.575,3.732.23,1.974-.35,5.686,2.088,6.615s3.363-.465,3.363-.465" transform="translate(-358.549 -96.154)" fill="none" stroke="#263238" stroke-linecap="round" stroke-linejoin="round" stroke-width="1"/><path d="M394.79,136.76l.265.125.5.22" transform="translate(-356.388 -95.416)" fill="none" stroke="#263238" stroke-linecap="round" stroke-linejoin="round" stroke-width="1"/><path d="M396.327,84.54s-2.2,9.4-5,12.876c-2.563,3.2-4.047,9.948-.375,12.716" transform="translate(-353.368 -71.509)" fill="none" stroke="#263238" stroke-linecap="round" stroke-linejoin="round" stroke-width="1"/><path d="M400.167,98.7s-2.553,7.08-.814,11.252a7.789,7.789,0,0,0,4.292,4.642c3.363,1.394,6.96,4.757,6.96,6.73" transform="translate(-358.367 -78.594)" fill="none" stroke="#263238" stroke-linecap="round" stroke-linejoin="round" stroke-width="1"/><path d="M400.593,83.445s-.1,9.538,0,12.086,2.553,5.571,4.872,6.73,6.845.809,8.814-1.394,3.133-7.075,3.368-10.208.345-6.031.345-6.031L400.943,82.89Z" transform="translate(-359.268 -70.684)" fill="#ffb6b6"/><path d="M429.9,85.12a35.571,35.571,0,0,1-.929,9.873c-1.274,5.336-2.089,12.761,3.363,16.488,0,0-3.5,2.433-2.089,5.681s4.412,3.947,7.545,3.253a9.019,9.019,0,0,0,4.637-2.438,6.13,6.13,0,0,0,4.062,1.974c2.323,0,5.336-1.394,5.451-6.151s-2.9-11.717-6.61-15.774-6.82-6.41-8.124-8.384A9.392,9.392,0,0,1,435.932,85Z" transform="translate(-373.022 -71.739)" fill="#fff" stroke="#263238" stroke-linecap="round" stroke-linejoin="round" stroke-width="1"/><path d="M441.653,147.479c-1.7,1.279-2.928-.445-2.708-1.649" transform="translate(-378.468 -99.675)" fill="#fff" stroke="#263238" stroke-linecap="round" stroke-linejoin="round" stroke-width="1"/><path d="M436.64,137.5a4.552,4.552,0,0,1,3.5-.16c1.724.6,2.358,3.028,1.244,4.787" transform="translate(-377.328 -95.508)" fill="#fff" stroke="#263238" stroke-linecap="round" stroke-linejoin="round" stroke-width="1"/><path d="M438.6,86.17s-1.164,2.668.46,9.743,5,9.493,7.994,12.526,2.323,8.239.465,10.093" transform="translate(-378.104 -72.325)" fill="none" stroke="#263238" stroke-linecap="round" stroke-linejoin="round" stroke-width="1"/><path d="M456.52,117c5.036,3.762,8.6,6.995,9.673,12.776" transform="translate(-387.275 -85.978)" fill="none" stroke="#263238" stroke-linecap="round" stroke-linejoin="round" stroke-width="1"/><path d="M453.47,114.74l.295.225.54.4" transform="translate(-385.749 -86.62)" fill="none" stroke="#263238" stroke-linecap="round" stroke-linejoin="round" stroke-width="1"/><path d="M441.29,86.86s.565,8.1,4.832,12.756" transform="translate(-379.654 -72.67)" fill="none" stroke="#263238" stroke-linecap="round" stroke-linejoin="round" stroke-width="1"/><path d="M400.6,71.221l22.314,2.5s.14-7.495-1.939-10.532a10.947,10.947,0,0,0-12.491-4.157C402.674,60.838,400.181,68.722,400.6,71.221Z" transform="translate(-359.271 -58.459)" fill="#263238" stroke="#263238" stroke-linecap="round" stroke-linejoin="round" stroke-width="1"/><path d="M405.25,68.335a15.661,15.661,0,0,1,7.165-7.145" transform="translate(-361.621 -59.826)" fill="none" stroke="#707070" stroke-linecap="round" stroke-linejoin="round" stroke-width="1"/><path d="M403.92,78.469a6.378,6.378,0,0,1,.3-1.139" transform="translate(-360.956 -67.902)" fill="none" stroke="#707070" stroke-linecap="round" stroke-linejoin="round" stroke-width="1"/><path d="M417.61,67.646a24.777,24.777,0,0,1,3.053-5.346" transform="translate(-367.806 -60.381)" fill="none" stroke="#707070" stroke-linecap="round" stroke-linejoin="round" stroke-width="1"/><path d="M416.272,77.413a5.262,5.262,0,0,1,.285-2.193" transform="translate(-367.127 -66.846)" fill="none" stroke="#707070" stroke-linecap="round" stroke-linejoin="round" stroke-width="1"/><path d="M431.1,71.42a24.477,24.477,0,0,1,0,4.642" transform="translate(-374.556 -64.944)" fill="none" stroke="#707070" stroke-linecap="round" stroke-linejoin="round" stroke-width="1"/><path d="M428.39,61.46a9.349,9.349,0,0,1,.869,2.3" transform="translate(-373.2 -59.961)" fill="none" stroke="#707070" stroke-linecap="round" stroke-linejoin="round" stroke-width="1"/><path d="M438.79,68.62a18.636,18.636,0,0,1,1.539,6.73" transform="translate(-378.403 -63.543)" fill="none" stroke="#707070" stroke-linecap="round" stroke-linejoin="round" stroke-width="1"/><path d="M433.89,62.56a4.3,4.3,0,0,1,1.284,1.149" transform="translate(-375.952 -60.511)" fill="none" stroke="#707070" stroke-linecap="round" stroke-linejoin="round" stroke-width="1"/><path d="M405.606,88.306a29.619,29.619,0,0,0-8.454-1s-.555,3.467.415,5,4.577,1.8,6.375,1.109S405.606,88.306,405.606,88.306Z" transform="translate(-357.49 -72.877)" fill="#263238" stroke="#263238" stroke-linecap="round" stroke-linejoin="round" stroke-width="1"/><path d="M418.754,90.173a29.256,29.256,0,0,1,8.494.8s-.18,3.5-1.444,4.8-4.846.809-6.465-.24S418.754,90.173,418.754,90.173Z" transform="translate(-368.215 -74.309)" fill="#263238" stroke="#263238" stroke-linecap="round" stroke-linejoin="round" stroke-width="1"/><path d="M414.23,89.3a3.651,3.651,0,0,1,2.423.435" transform="translate(-366.115 -73.866)" fill="none" stroke="#263238" stroke-linecap="round" stroke-linejoin="round" stroke-width="1"/><path d="M414.39,91.544a1.419,1.419,0,0,1,2,.385" transform="translate(-366.195 -74.886)" fill="none" stroke="#263238" stroke-linecap="round" stroke-linejoin="round" stroke-width="1"/><path d="M378.578,225.85l3.033,3.033-3.587,5.106-1.654-5.106Z" transform="translate(-347.171 -137.27)" fill="#ffb6b6"/><path d="M358.139,129.81a4.676,4.676,0,0,0-3.5,1.859c-1.394,1.854-10.592,33.566-12.216,36.349S355.566,189.9,355.566,189.9l7.195-11.6-7.34-11.672,5.251-23.363" transform="translate(-330.124 -91.257)" fill="#ffac00"/><path d="M382.3,225.02l-7.859,12.411.689.969,8.549-13.24Z" transform="translate(-346.205 -136.739)" fill="#263238" stroke="#263238" stroke-linecap="round" stroke-linejoin="round" stroke-width="1"/><path d="M453.769,221.52l-1.219.51,8.274,12.136-.275-2.483Z" transform="translate(-385.288 -135.114)" fill="#263238" stroke="#263238" stroke-linecap="round" stroke-linejoin="round" stroke-width="1"/><path d="M358.393,389.124l-11.856-1.694-1.029,17.812a25.254,25.254,0,0,0-4.5,4.9c-2.068,2.968-2.968,5.551-2.068,6.066a7.09,7.09,0,0,0,5.811.26c2.323-1.034,3.1-3.1,4.127-5.161s2.608-4.9,2.453-6.71S358.393,389.124,358.393,389.124Z" transform="translate(-328.269 -211.852)" fill="#263238" stroke="#263238" stroke-linecap="round" stroke-linejoin="round" stroke-width="1"/><path d="M425.464,389.5l-9.548.645s.5,13.68.645,14.455-1.549,7.495-1.159,8.259,4.257.5,5.676,1.034a33.6,33.6,0,0,0,6.71,2.064c2.578.385,5.811.39,6.455-.9s-6.58-6.066-7.994-7.615a24.159,24.159,0,0,1-2.708-3.872Z" transform="translate(-366.672 -212.888)" fill="#263238" stroke="#263238" stroke-linecap="round" stroke-linejoin="round" stroke-width="1"/><ellipse cx="35.714" cy="5.286" rx="35.714" ry="5.286" transform="translate(0 198.377)" opacity="0.2"/></g></g></svg>