<?xml version="1.0" encoding="utf-8"?>
<!-- Generator: Adobe Illustrator 25.2.0, SVG Export Plug-In . SVG Version: 6.00 Build 0)  -->
<svg version="1.1" id="Layer_1" xmlns="http://www.w3.org/2000/svg" xmlns:xlink="http://www.w3.org/1999/xlink" x="0px" y="0px"
	 viewBox="0 0 223.7 196.9" style="enable-background:new 0 0 223.7 196.9;" xml:space="preserve">
<style type="text/css">
	.st0{fill:#FFB6B6;}
	.st1{fill:#2F2E41;}
	.st2{fill:#DE9898;}
	.st3{fill:#3F3D56;}
	.st4{fill:#F8A02E;}
	.st5{fill:#FFFFFF;}
	.st6{fill:#F0F0F0;}
	.st7{fill:#CACACA;}
	.st8{fill:#E6E6E6;}
	.st9{opacity:0.2;enable-background:new    ;}
</style>
<path class="st0" d="M111,155.9l4.2-1.9l-5.3-17.6l-6.2,2.8L111,155.9z"/>
<path class="st1" d="M108,151.1l6.3-4.5l1.7,2.8l8.9,0.4c1.1,0.1,2,1,2,2.2c0,0.7-0.4,1.3-1,1.7l-7.8,4.9l-3.1-2l1.2,3.1l-3,1.8
	L108,151.1z"/>
<path class="st2" d="M219.7,122.5c0-1.8-0.6-3.2-1.3-3.2H19.1c-0.7,0-1.3,1.4-1.3,3.2v73c0,0.3-0.3,0.6-0.6,0.7
	c-0.5,0.1-1.1,0.1-1.6,0.1c0,0,0,0,0,0c-0.3,0-0.6,0-0.9,0.1l0,0c-0.1-0.3-0.3-0.6-0.4-0.8c0-0.1-0.1-0.2-0.1-0.3v-76.9
	c0-0.5,0-1,0.1-1.5c0-0.7,0.1-1.3,0.2-2c0.6-3.1,1.8-5.2,3.3-5.2h202.1c0.2,0,0.4,0,0.6,0.1c0.3,0.1,0.5,0.3,0.8,0.5
	c0.3,0.3,0.5,0.6,0.7,1c0.8,1.6,1.3,3.4,1.4,5.3c0,0,0,0,0,0.1c0,0.5,0.1,1.1,0.1,1.6l0,7.1l0,4.2l0.1,13.3l0,4.7l0.1,48.4l0,0
	c0,0.4-0.3,0.7-0.7,0.7h-2.7c-0.4,0-0.7-0.3-0.7-0.7L219.7,122.5z"/>
<path class="st1" d="M165.6,76.5h-21.5c-0.6,0-1.1,0.5-1.1,1.1v33.9h23.8V77.7C166.7,77.1,166.2,76.5,165.6,76.5
	C165.6,76.5,165.6,76.5,165.6,76.5L165.6,76.5z M154.9,95.8c-1.4,0-2.5-1.1-2.5-2.5v-3.9c0-1.4,1.1-2.5,2.5-2.5s2.5,1.1,2.5,2.5v3.9
	C157.5,94.7,156.3,95.8,154.9,95.8L154.9,95.8z"/>
<path class="st3" d="M142.9,110.5v3.3c0,0.4,0.3,0.6,0.6,0.6h22.6c0.4,0,0.6-0.3,0.6-0.6v-3.3H142.9z"/>
<path class="st0" d="M115.3,29.3c-0.9,2.4-3.6,3.5-5.9,2.6c-0.2-0.1-0.5-0.2-0.7-0.4L78.3,52.6l-0.8-8.4l29.8-19.3
	c1.5-2.1,4.3-2.6,6.4-1.1C115.5,25,116.1,27.3,115.3,29.3L115.3,29.3z"/>
<path class="st4" d="M47.4,42.6c0,0-3.3,4.8,1.9,9.1s26,3.4,29.4,3.4s18.8-16,18.8-16l-0.1-9.2L78.8,41L47.4,42.6z"/>
<path class="st0" d="M45.6,74.8l0.3,6.3c0,0-1,5.6-0.2,6.8s22.7,3,22.7,3s-0.7-9.4,0.6-16.2L45.6,74.8z"/>
<path class="st1" d="M112.7,138.8l-8.4,7.4l-16.5-33.8c-16.4,2.8-31.8,3.7-45.2,0.3c-4.6-1.2-7.3-5.9-6.2-10.4
	c0.1-0.2,0.1-0.4,0.2-0.6c1.6-4.9,5.8-8.3,9.1-13.7l24.1,0.4l-2.7,9.3l23.4-3c4.7-0.6,9,2.8,9.6,7.5c0,0,0,0,0,0.1
	c0,0.3,0.1,0.5,0.1,0.8L112.7,138.8z"/>
<circle class="st0" cx="55" cy="22.7" r="9.8"/>
<path class="st4" d="M49.3,36.1l9,1.1c0.8,0.1,1.4,0.7,1.6,1.4l1.4,6.5l8.9,10.5c1.9,4,2.6,8.4,2,12.8c-0.7,4.1-2,8.1-3.7,11.8
	c0,0-21.9,8.9-22.7,7.7s-1.1-6.6-1.1-6.6l-2.8-31.3c-0.3-3.3,0.9-6.6,3.2-9c0.5-0.6,1.2-1,2-1.2C48.4,39.7,48.2,36.8,49.3,36.1z"/>
<path class="st0" d="M68.5,169l4.2,2l10-15.4l-6.1-3L68.5,169z"/>
<path class="st1" d="M78.5,165.5l-8.5-3.2L81.6,127c-14.2-4.2-27.3-11.4-38.5-21.1c-3.6-3-6.2-6.9-3.2-10.5c0.1-0.2,0.3-0.3,0.4-0.5
	c3.6-3.7,12.7-3,18-6.3l11.9,12.7l-0.7,3.4l22.3,7.6c4.5,1.6,6.9,6.5,5.3,11c0,0,0,0,0,0.1c-0.1,0.2-0.2,0.5-0.3,0.7L78.5,165.5z"/>
<path class="st1" d="M68.4,166.5l7.2,3l-1.5,3l4.4,7.8c0.6,1,0.2,2.3-0.8,2.8c-0.6,0.3-1.3,0.4-1.9,0.1l-8.3-4.1l0-3.6l-2,2.7
	l-3.1-1.5L68.4,166.5z"/>
<path class="st0" d="M54.4,112.6c-2.1-1.4-2.7-4.2-1.3-6.3c0.1-0.2,0.3-0.4,0.5-0.6L38.8,71.7l8.4,0.8l13,33
	c1.7,1.8,1.7,4.8-0.2,6.5C58.5,113.6,56.2,113.8,54.4,112.6L54.4,112.6z"/>
<path class="st4" d="M54.8,43.4c0,0-4.1-4.2-9.3,0s-8.5,24.8-9.2,28.1s12,21.6,12,21.6l9.1,1.7l-7.2-20.5L54.8,43.4z"/>
<path class="st3" d="M201.2,23.6h-91.8c-1.6,0-3,1.3-3,3v61.9c0,1.6,1.3,3,3,3h91.8c1.6,0,3-1.3,3-3V26.6
	C204.1,24.9,202.8,23.6,201.2,23.6L201.2,23.6z"/>
<path class="st5" d="M200.4,25.8h-90.3c-0.9,0-1.6,0.7-1.6,1.6v60.4c0,0.9,0.7,1.6,1.6,1.6h90.3c0.9,0,1.6-0.7,1.6-1.6V27.4
	C202,26.5,201.3,25.8,200.4,25.8z"/>
<path class="st1" d="M182.8,115.6h-53.7c-0.5,0-1-0.4-1-1c0-0.1,0-0.1,0-0.2l0.8-4c0.1-0.5,0.5-0.8,1-0.8h52c0.5,0,0.9,0.3,1,0.8
	l0.8,4c0.1,0.5-0.2,1.1-0.8,1.2C182.9,115.6,182.9,115.6,182.8,115.6L182.8,115.6z"/>
<path class="st3" d="M130.8,110.4h0.7c0.3,0,0.5,0.2,0.5,0.5v0c0,0.3-0.2,0.5-0.5,0.5h-0.7c-0.3,0-0.5-0.2-0.5-0.5v0
	C130.3,110.6,130.5,110.4,130.8,110.4z"/>
<path class="st3" d="M134.1,110.4h0.7c0.3,0,0.5,0.2,0.5,0.5v0c0,0.3-0.2,0.5-0.5,0.5h-0.7c-0.3,0-0.5-0.2-0.5-0.5v0
	C133.6,110.6,133.8,110.4,134.1,110.4z"/>
<path class="st3" d="M137.4,110.4h0.7c0.3,0,0.5,0.2,0.5,0.5v0c0,0.3-0.2,0.5-0.5,0.5h-0.7c-0.3,0-0.5-0.2-0.5-0.5v0
	C136.9,110.6,137.2,110.4,137.4,110.4z"/>
<path class="st3" d="M140.7,110.4h0.7c0.3,0,0.5,0.2,0.5,0.5v0c0,0.3-0.2,0.5-0.5,0.5h-0.7c-0.3,0-0.5-0.2-0.5-0.5v0
	C140.2,110.6,140.5,110.4,140.7,110.4z"/>
<path class="st3" d="M144,110.4h0.7c0.3,0,0.5,0.2,0.5,0.5v0c0,0.3-0.2,0.5-0.5,0.5H144c-0.3,0-0.5-0.2-0.5-0.5v0
	C143.5,110.6,143.8,110.4,144,110.4z"/>
<path class="st3" d="M147.3,110.4h0.7c0.3,0,0.5,0.2,0.5,0.5v0c0,0.3-0.2,0.5-0.5,0.5h-0.7c-0.3,0-0.5-0.2-0.5-0.5v0
	C146.9,110.6,147.1,110.4,147.3,110.4z"/>
<path class="st3" d="M150.7,110.4h0.7c0.3,0,0.5,0.2,0.5,0.5v0c0,0.3-0.2,0.5-0.5,0.5h-0.7c-0.3,0-0.5-0.2-0.5-0.5v0
	C150.2,110.6,150.4,110.4,150.7,110.4z"/>
<path class="st3" d="M154,110.4h0.7c0.3,0,0.5,0.2,0.5,0.5v0c0,0.3-0.2,0.5-0.5,0.5H154c-0.3,0-0.5-0.2-0.5-0.5v0
	C153.5,110.6,153.7,110.4,154,110.4z"/>
<path class="st3" d="M157.3,110.4h0.7c0.3,0,0.5,0.2,0.5,0.5v0c0,0.3-0.2,0.5-0.5,0.5h-0.7c-0.3,0-0.5-0.2-0.5-0.5v0
	C156.8,110.6,157,110.4,157.3,110.4z"/>
<path class="st3" d="M160.6,110.4h0.7c0.3,0,0.5,0.2,0.5,0.5v0c0,0.3-0.2,0.5-0.5,0.5h-0.7c-0.3,0-0.5-0.2-0.5-0.5v0
	C160.1,110.6,160.3,110.4,160.6,110.4z"/>
<path class="st3" d="M163.9,110.4h0.7c0.3,0,0.5,0.2,0.5,0.5v0c0,0.3-0.2,0.5-0.5,0.5h-0.7c-0.3,0-0.5-0.2-0.5-0.5v0
	C163.4,110.6,163.6,110.4,163.9,110.4z"/>
<path class="st3" d="M167.2,110.4h0.7c0.3,0,0.5,0.2,0.5,0.5v0c0,0.3-0.2,0.5-0.5,0.5h-0.7c-0.3,0-0.5-0.2-0.5-0.5v0
	C166.7,110.6,166.9,110.4,167.2,110.4z"/>
<path class="st3" d="M170.5,110.4h0.7c0.3,0,0.5,0.2,0.5,0.5v0c0,0.3-0.2,0.5-0.5,0.5h-0.7c-0.3,0-0.5-0.2-0.5-0.5v0
	C170,110.6,170.2,110.4,170.5,110.4z"/>
<path class="st3" d="M173.8,110.4h0.7c0.3,0,0.5,0.2,0.5,0.5v0c0,0.3-0.2,0.5-0.5,0.5h-0.7c-0.3,0-0.5-0.2-0.5-0.5v0
	C173.3,110.6,173.5,110.4,173.8,110.4z"/>
<path class="st3" d="M177.1,110.4h0.7c0.3,0,0.5,0.2,0.5,0.5v0c0,0.3-0.2,0.5-0.5,0.5h-0.7c-0.3,0-0.5-0.2-0.5-0.5v0
	C176.6,110.6,176.8,110.4,177.1,110.4z"/>
<path class="st3" d="M180.4,110.4h0.7c0.3,0,0.5,0.2,0.5,0.5v0c0,0.3-0.2,0.5-0.5,0.5h-0.7c-0.3,0-0.5-0.2-0.5-0.5v0
	C179.9,110.6,180.2,110.4,180.4,110.4z"/>
<path class="st3" d="M130.8,112h0.7c0.3,0,0.5,0.2,0.5,0.5v0c0,0.3-0.2,0.5-0.5,0.5h-0.7c-0.3,0-0.5-0.2-0.5-0.5v0
	C130.3,112.2,130.5,112,130.8,112z"/>
<path class="st3" d="M134.1,112h0.7c0.3,0,0.5,0.2,0.5,0.5v0c0,0.3-0.2,0.5-0.5,0.5h-0.7c-0.3,0-0.5-0.2-0.5-0.5v0
	C133.6,112.2,133.8,112,134.1,112z"/>
<path class="st3" d="M137.4,112h0.7c0.3,0,0.5,0.2,0.5,0.5v0c0,0.3-0.2,0.5-0.5,0.5h-0.7c-0.3,0-0.5-0.2-0.5-0.5v0
	C136.9,112.2,137.1,112,137.4,112z"/>
<path class="st3" d="M140.7,112h0.7c0.3,0,0.5,0.2,0.5,0.5v0c0,0.3-0.2,0.5-0.5,0.5h-0.7c-0.3,0-0.5-0.2-0.5-0.5v0
	C140.2,112.2,140.4,112,140.7,112z"/>
<path class="st3" d="M144,112h0.7c0.3,0,0.5,0.2,0.5,0.5v0c0,0.3-0.2,0.5-0.5,0.5H144c-0.3,0-0.5-0.2-0.5-0.5v0
	C143.5,112.2,143.7,112,144,112z"/>
<path class="st3" d="M147.3,112h0.7c0.3,0,0.5,0.2,0.5,0.5v0c0,0.3-0.2,0.5-0.5,0.5h-0.7c-0.3,0-0.5-0.2-0.5-0.5v0
	C146.8,112.2,147,112,147.3,112z"/>
<path class="st3" d="M150.6,112h0.7c0.3,0,0.5,0.2,0.5,0.5v0c0,0.3-0.2,0.5-0.5,0.5h-0.7c-0.3,0-0.5-0.2-0.5-0.5v0
	C150.1,112.2,150.3,112,150.6,112z"/>
<path class="st3" d="M153.9,112h0.7c0.3,0,0.5,0.2,0.5,0.5v0c0,0.3-0.2,0.5-0.5,0.5h-0.7c-0.3,0-0.5-0.2-0.5-0.5v0
	C153.4,112.2,153.7,112,153.9,112z"/>
<path class="st3" d="M157.2,112h0.7c0.3,0,0.5,0.2,0.5,0.5v0c0,0.3-0.2,0.5-0.5,0.5h-0.7c-0.3,0-0.5-0.2-0.5-0.5v0
	C156.7,112.2,157,112,157.2,112z"/>
<path class="st3" d="M160.5,112h0.7c0.3,0,0.5,0.2,0.5,0.5v0c0,0.3-0.2,0.5-0.5,0.5h-0.7c-0.3,0-0.5-0.2-0.5-0.5v0
	C160,112.2,160.3,112,160.5,112z"/>
<path class="st3" d="M163.8,112h0.7c0.3,0,0.5,0.2,0.5,0.5v0c0,0.3-0.2,0.5-0.5,0.5h-0.7c-0.3,0-0.5-0.2-0.5-0.5v0
	C163.4,112.2,163.6,112,163.8,112z"/>
<path class="st3" d="M167.2,112h0.7c0.3,0,0.5,0.2,0.5,0.5v0c0,0.3-0.2,0.5-0.5,0.5h-0.7c-0.3,0-0.5-0.2-0.5-0.5v0
	C166.7,112.2,166.9,112,167.2,112z"/>
<path class="st3" d="M170.5,112h0.7c0.3,0,0.5,0.2,0.5,0.5v0c0,0.3-0.2,0.5-0.5,0.5h-0.7c-0.3,0-0.5-0.2-0.5-0.5v0
	C170,112.2,170.2,112,170.5,112z"/>
<path class="st3" d="M173.8,112h0.7c0.3,0,0.5,0.2,0.5,0.5v0c0,0.3-0.2,0.5-0.5,0.5h-0.7c-0.3,0-0.5-0.2-0.5-0.5v0
	C173.3,112.2,173.5,112,173.8,112z"/>
<path class="st3" d="M177.1,112h0.7c0.3,0,0.5,0.2,0.5,0.5v0c0,0.3-0.2,0.5-0.5,0.5h-0.7c-0.3,0-0.5-0.2-0.5-0.5v0
	C176.6,112.2,176.8,112,177.1,112z"/>
<path class="st3" d="M180.4,112h0.7c0.3,0,0.5,0.2,0.5,0.5v0c0,0.3-0.2,0.5-0.5,0.5h-0.7c-0.3,0-0.5-0.2-0.5-0.5v0
	C179.9,112.2,180.1,112,180.4,112z"/>
<path class="st3" d="M146.6,114h12.3c0.3,0,0.5,0.2,0.5,0.5v0c0,0.3-0.2,0.5-0.5,0.5h-12.3c-0.3,0-0.5-0.2-0.5-0.5v0
	C146.2,114.2,146.4,114,146.6,114z"/>
<path class="st6" d="M194.2,191.1l-2.5-4.1l-0.5,2.3c-0.1,0.4-0.2,0.8-0.3,1.2c-0.7-0.6-1.5-1.2-2.2-1.7c-2.3-1.7-4.6-3.4-6.9-5
	l0.7,4.2c0.3,2.6,1,5.2,2,7.6c0.1,0.3,0.3,0.5,0.4,0.8h10.8c0.1-0.2,0.1-0.5,0.2-0.7c0,0,0,0,0,0C195.9,194,195,192.5,194.2,191.1z"
	/>
<path class="st6" d="M48.6,191.1l-2.5-4.1l-0.5,2.3c-0.1,0.4-0.2,0.8-0.3,1.2c-0.7-0.6-1.5-1.2-2.2-1.7c-2.3-1.7-4.6-3.4-6.9-5
	l0.7,4.2c0.3,2.6,1,5.2,2,7.6c0.1,0.3,0.3,0.5,0.4,0.8H50c0.1-0.2,0.1-0.5,0.2-0.7c0,0,0,0,0,0C50.4,194,49.5,192.5,48.6,191.1z"/>
<path class="st7" d="M253.2,196.8l-91.2,0.1c-0.2,0-0.4-0.2-0.4-0.4c0-0.2,0.2-0.4,0.4-0.4l91.2-0.1c0.2,0,0.4,0.2,0.4,0.4
	C253.6,196.6,253.4,196.8,253.2,196.8L253.2,196.8z"/>
<path class="st7" d="M77.2,196.8l-91.2,0.1c-0.2,0-0.4-0.2-0.4-0.4c0-0.2,0.2-0.4,0.4-0.4l91.2-0.1c0.2,0,0.4,0.2,0.4,0.4
	C77.6,196.6,77.5,196.8,77.2,196.8z"/>
<path class="st1" d="M44.6,14c-1.6,0.5-3-0.9-4.1-2.1l0.4,0.5c-2.6,1.8-4.1,4.8-5.1,7.8s-1.6,6.1-2.7,9.1s-3,5.8-5.8,7.3
	c-3.7,2-8.3,1.1-12.3-0.3l-0.2-0.1c1.6-3,2.6-6.3,2.9-9.7c-1.6,3.2-4,6-6.9,8.1c-2.6-1.2-5.1-2.6-7.5-4.2c-1.5-1-3.2-2.4-3.3-4.2
	s1.2-3.5,2.8-4.4C4.5,21,6.2,20.4,8,20.1c1.8-0.4,3.4-1.5,4.5-3c2.1-3.7-1.5-8.8,0.8-12.4c1.1-1.7,3.3-2.5,5.3-2.9
	c3.1-0.7,6.2-1.3,9.4-1.6c2.8-0.4,5.6-0.2,8.3,0.5c2.6,0.9,5,3,5.6,5.7c1.5,0.8,3.2,1.7,4,3.2S46.3,13.5,44.6,14z"/>
<path class="st1" d="M42.3,13.4c-1.3,1.5-2.1,3.2-2.3,5.2c-3.1,5.7,1.4,10.7,7.1,13.8c2.3,1.3,4.9,1.7,7.5,1.3l0.2-1l0.3,0.9
	c0,0,3.7,12.3,5,13.1c-0.5-2.2-1-12.4-1.3-14.5c-0.4-2.9,0.9-7.3,1.8-9.9c0.6-1.6,0.8-3.3,0.9-5.1v-0.1l0.9,2.8l3.2-1.4
	c-0.6-3.4,0-7.3-7.2-7c-3.9-2.7-7.3-3.1-10.1-2.3c-0.4-0.6-2.4,0.5-3,0.2"/>
<path class="st4" d="M202,27.4v60.4c0,0.9-0.7,1.6-1.6,1.6h-31.8c-3.5-3.3-6.4-7.2-8.5-11.5c-0.1-0.3-0.3-0.6-0.4-0.8
	c-1.9-4.2-3.1-8.7-3.4-13.2c0-0.3,0-0.6-0.1-0.8c0-0.7-0.1-1.5-0.1-2.2c0-4.9,0.9-9.8,2.7-14.4c0.1-0.3,0.2-0.6,0.3-0.8
	c3.7-8.6,10.3-15.6,18.6-19.8h22.6C201.3,25.8,202,26.5,202,27.4z"/>
<path class="st7" d="M195.8,34.1h-84.5c-0.2,0-0.3-0.2-0.3-0.3c0-0.2,0.2-0.3,0.3-0.3h84.5c0.2,0,0.3,0.1,0.3,0.3
	S196,34.1,195.8,34.1C195.8,34.1,195.8,34.1,195.8,34.1z"/>
<ellipse class="st3" cx="117.1" cy="29.7" rx="2" ry="2"/>
<ellipse class="st3" cx="123.9" cy="29.7" rx="2" ry="2"/>
<ellipse class="st3" cx="130.7" cy="29.7" rx="2" ry="2"/>
<path class="st3" d="M191.8,28.2h-4.8c-0.2,0-0.4,0.2-0.4,0.4c0,0.2,0.2,0.4,0.4,0.4c0,0,0,0,0,0h4.8c0.2,0,0.4-0.2,0.4-0.4
	C192.1,28.3,192,28.2,191.8,28.2C191.8,28.2,191.8,28.2,191.8,28.2z"/>
<path class="st3" d="M191.8,29.5h-4.8c-0.2,0-0.4,0.2-0.4,0.4c0,0.2,0.2,0.4,0.4,0.4c0,0,0,0,0,0h4.8c0.2,0,0.4-0.2,0.4-0.4
	C192.1,29.7,192,29.5,191.8,29.5C191.8,29.5,191.8,29.5,191.8,29.5z"/>
<path class="st3" d="M191.8,30.9h-4.8c-0.2,0-0.4,0.2-0.4,0.4c0,0.2,0.2,0.4,0.4,0.4c0,0,0,0,0,0h4.8c0.2,0,0.4-0.2,0.4-0.4
	C192.1,31.1,192,30.9,191.8,30.9C191.8,30.9,191.8,30.9,191.8,30.9z"/>
<path class="st4" d="M126.1,53.7h10.6c0.8,0,1.4,0.6,1.4,1.4v0c0,0.8-0.6,1.4-1.4,1.4h-10.6c-0.8,0-1.4-0.6-1.4-1.4v0
	C124.6,54.3,125.3,53.7,126.1,53.7z"/>
<path class="st8" d="M119.2,59.4h24.2c0.8,0,1.4,0.6,1.4,1.4v0c0,0.8-0.6,1.4-1.4,1.4h-24.2c-0.8,0-1.4-0.6-1.4-1.4v0
	C117.8,60.1,118.5,59.4,119.2,59.4z"/>
<path class="st8" d="M119.2,65.2h24.2c0.8,0,1.4,0.6,1.4,1.4v0c0,0.8-0.6,1.4-1.4,1.4h-24.2c-0.8,0-1.4-0.6-1.4-1.4v0
	C117.8,65.8,118.5,65.2,119.2,65.2z"/>
<path class="st4" d="M120,85.9c0,1.2-0.2,2.4-0.6,3.5h-9.3c-0.9,0-1.6-0.7-1.6-1.6V76.1c0.5-0.1,1-0.1,1.6-0.1
	C115.6,76,120,80.4,120,85.9C120,85.9,120,85.9,120,85.9L120,85.9z"/>
<path class="st9" d="M202.1,46.4v-0.8h-14.2v-9.8H187v9.8h-16.3v-9.8h-0.8v9.8h-10.7c-0.1,0.3-0.2,0.6-0.3,0.8h11.1V63h-13.8
	c0,0.3,0,0.6,0.1,0.8h13.7V77h-10.3c0.1,0.3,0.3,0.6,0.4,0.8h9.9V89h0.8V77.9H187V89h0.8V77.9h14.2V77h-14.2V63.8h14.2V63h-14.2
	V46.4L202.1,46.4z M187,77h-16.3V63.8H187V77z M187,63h-16.3V46.4H187V63z"/>
<path class="st1" d="M190.6,83.1c-0.5,0-0.9-0.4-0.9-0.8c0-0.3,0.1-0.5,0.3-0.7l0.1-0.2l0-0.1c-0.5-1.2-1.9-1.8-3.1-1.3
	c-0.6,0.2-1,0.7-1.3,1.3c-0.8,1.7-1.5,3.4-1.9,5.3c-0.1,0.8-0.1,1.6,0.1,2.4c-1.7-3.7-2.6-7.7-2.6-11.7c0-1,0.1-2,0.2-3
	c0.1-0.8,0.2-1.6,0.4-2.5c0.9-4.4,2.8-8.6,5.6-12.1c1.4-0.7,2.5-1.9,3.2-3.3c0.3-0.5,0.4-1,0.5-1.6c-0.2,0-0.3,0-0.5,0l-0.1,0h0
	c-0.5,0-0.9-0.4-0.9-0.8c0-0.2,0.1-0.4,0.2-0.6l0.2-0.2c0.1-0.1,0.2-0.2,0.3-0.4c0,0,0,0,0,0c0.1-0.1,0.2-0.3,0.3-0.4
	c-0.2-0.3-0.5-0.6-0.8-0.8c-1.2-0.6-2.8-0.3-3.6,0.8c-0.8,1.1-1.1,2.5-0.7,3.8c0.3,1.1,0.8,2.2,1.4,3.1c-0.1,0.1-0.1,0.2-0.2,0.2
	c-1.1,1.5-2.2,3.1-3,4.7c0.2-1.9,0-3.8-0.7-5.5c-0.8-1.6-1.9-3.1-3.1-4.4c-0.8-1.1-2.4-1.3-3.4-0.4c-0.5,0.4-0.8,1-0.9,1.6l0,0.1
	c0.2,0.1,0.3,0.2,0.5,0.3c0.6,0.4,0.7,1.1,0.3,1.7c-0.2,0.3-0.5,0.5-0.8,0.5h0c0.1,0.6,0.2,1.2,0.3,1.8c0.9,3.3,3.1,6.1,6.1,7.7
	c0.1,0,0.2,0.1,0.3,0.1c-0.8,2.4-1.4,4.9-1.6,7.4c-0.1,1.5-0.1,3,0,4.5l0-0.1c-0.3-1.7-1.2-3.2-2.5-4.2c-1.9-1.6-4.6-2.2-6.7-3.4
	c-0.6-0.4-1.5-0.2-1.9,0.4c-0.2,0.3-0.2,0.6-0.2,0.9l0,0.1c0.3,0.1,0.6,0.3,0.9,0.4c0.2,0.1,0.3,0.2,0.5,0.3
	c0.6,0.4,0.7,1.1,0.3,1.7c-0.2,0.3-0.5,0.5-0.8,0.5h0l0,0c0.5,1.3,1.3,2.4,2.2,3.4c2.3,2.5,5.5,3.9,8.9,3.9l0,0c0.5,2,1.1,3.9,2,5.7
	h7c0-0.1,0-0.2,0.1-0.2c-0.6,0-1.3,0-1.9-0.1c0.5-0.6,1-1.3,1.6-1.9c0,0,0,0,0,0c0.3-0.3,0.5-0.7,0.8-1l0,0
	C191,85,190.9,84,190.6,83.1L190.6,83.1z M182.6,67.3L182.6,67.3L182.6,67.3L182.6,67.3z M181,81.3l-0.1-0.1c0-0.1,0-0.2,0-0.3
	c0,0,0-0.1,0-0.1C181,80.9,181,81.1,181,81.3L181,81.3z"/>
</svg>
