<svg xmlns="http://www.w3.org/2000/svg" width="194.649" height="222.596" viewBox="0 0 194.649 222.596"><g transform="translate(-57.6 -35.67)"><g transform="translate(57.85 173.353)"><path d="M78.1,358.14a12.931,12.931,0,1,0,12.926,12.928A12.932,12.932,0,0,0,78.1,358.14Zm0,17.584a1.939,1.939,0,1,1,0,.02Z" transform="translate(-61.488 -333.694)" fill="#263238"/><path d="M83.008,317.62a7.978,7.978,0,1,0,7.978,7.978,7.978,7.978,0,0,0-7.978-7.978Zm0,10.862a2.884,2.884,0,1,1,2.884-2.884,2.884,2.884,0,0,1-2.884,2.884Z" transform="translate(-66.399 -313.531)" fill="#263238"/><rect width="33.218" height="54.062" rx="3.94" fill="none" stroke="#263238" stroke-miterlimit="10" stroke-width="0.5"/><path d="M392.061,358.14a12.931,12.931,0,1,0,12.931,12.926A12.931,12.931,0,0,0,392.061,358.14Zm0,17.584a1.939,1.939,0,1,1,0,.02Z" transform="translate(-217.723 -333.694)" fill="#263238"/><path d="M396.968,317.62a7.978,7.978,0,1,0,7.978,7.978A7.978,7.978,0,0,0,396.968,317.62Zm0,10.862a2.884,2.884,0,1,1,2.042-.843A2.884,2.884,0,0,1,396.968,328.482Z" transform="translate(-222.629 -313.531)" fill="#263238"/><rect width="33.218" height="54.062" rx="3.94" transform="translate(157.735)" fill="none" stroke="#263238" stroke-miterlimit="10" stroke-width="0.5"/></g><g transform="translate(68.928 35.92)"><line y2="8.44" transform="translate(36.142 12.138)" fill="none" stroke="#263238" stroke-linecap="round" stroke-linejoin="round" stroke-width="0.5"/><line x1="8.445" transform="translate(31.917 16.358)" fill="none" stroke="#263238" stroke-linecap="round" stroke-linejoin="round" stroke-width="0.5"/><line y2="5.803" transform="translate(17.674 63.833)" fill="none" stroke="#263238" stroke-linecap="round" stroke-linejoin="round" stroke-width="0.5"/><line x1="5.803" transform="translate(14.775 66.737)" fill="none" stroke="#263238" stroke-linecap="round" stroke-linejoin="round" stroke-width="0.5"/><line y2="5.803" transform="translate(145.341 7.918)" fill="none" stroke="#263238" stroke-linecap="round" stroke-linejoin="round" stroke-width="0.5"/><line x1="5.803" transform="translate(142.437 10.816)" fill="none" stroke="#263238" stroke-linecap="round" stroke-linejoin="round" stroke-width="0.5"/><line y2="5.803" transform="translate(110.52 143.492)" fill="none" stroke="#263238" stroke-linecap="round" stroke-linejoin="round" stroke-width="0.5"/><line x1="5.803" transform="translate(107.622 146.396)" fill="none" stroke="#263238" stroke-linecap="round" stroke-linejoin="round" stroke-width="0.5"/><line y2="6.858" transform="translate(138.745 59.086)" fill="none" stroke="#263238" stroke-linecap="round" stroke-linejoin="round" stroke-width="0.5"/><line x1="6.858" transform="translate(135.318 62.517)" fill="none" stroke="#263238" stroke-linecap="round" stroke-linejoin="round" stroke-width="0.5"/><line y2="6.858" transform="translate(155.891 11.083)" fill="none" stroke="#263238" stroke-linecap="round" stroke-linejoin="round" stroke-width="0.5"/><line x1="6.858" transform="translate(152.46 14.509)" fill="none" stroke="#263238" stroke-linecap="round" stroke-linejoin="round" stroke-width="0.5"/><path d="M85.173,119.151A2.376,2.376,0,1,1,82.8,116.78a2.376,2.376,0,0,1,2.371,2.371Z" transform="translate(-80.159 -76.157)" fill="none" stroke="#263238" stroke-linecap="round" stroke-linejoin="round" stroke-width="0.5"/><path d="M330.893,299.236a2.376,2.376,0,1,1-2.376-2.376A2.376,2.376,0,0,1,330.893,299.236Z" transform="translate(-202.432 -165.767)" fill="none" stroke="#263238" stroke-linecap="round" stroke-linejoin="round" stroke-width="0.5"/><path d="M407.543,142.256a2.371,2.371,0,1,1-.695-1.682A2.376,2.376,0,0,1,407.543,142.256Z" transform="translate(-240.574 -87.652)" fill="none" stroke="#263238" stroke-linecap="round" stroke-linejoin="round" stroke-width="0.5"/><circle cx="1.849" cy="1.849" r="1.849" transform="translate(15.825)" fill="none" stroke="#263238" stroke-linecap="round" stroke-linejoin="round" stroke-width="0.5"/><circle cx="1.849" cy="1.849" r="1.849" transform="translate(42.733 131.354)" fill="none" stroke="#263238" stroke-linecap="round" stroke-linejoin="round" stroke-width="0.5"/><circle cx="1.849" cy="1.849" r="1.849" transform="translate(0 85.989)" fill="none" stroke="#263238" stroke-linecap="round" stroke-linejoin="round" stroke-width="0.5"/></g><g transform="translate(61.492 109.51)"><path d="M65.1,212.764h4.471v-5.446a2.512,2.512,0,0,1,2.512-2.512h0a2.512,2.512,0,0,1,2.512,2.512v15.524a2.683,2.683,0,0,0,2.678,2.683h0a2.683,2.683,0,0,0,2.683-2.683V194.708a3.255,3.255,0,0,1,3.255-3.25h0a3.25,3.25,0,0,1,3.25,3.25v37.679a3.065,3.065,0,0,0,3.065,3.065h0a3.065,3.065,0,0,0,3.06-3.065V186.419A4.019,4.019,0,0,1,96.6,182.4h0a4.019,4.019,0,0,1,4.019,4.019v45.768a3.255,3.255,0,0,0,3.255,3.256h0a3.255,3.255,0,0,0,3.255-3.255V195.718a3.828,3.828,0,0,1,3.828-3.828h0a3.828,3.828,0,0,1,3.828,3.828v26.9a2.869,2.869,0,0,0,2.869,2.869h0a2.869,2.869,0,0,0,2.874-2.869V208a2.738,2.738,0,0,1,2.738-2.738h0A2.738,2.738,0,0,1,126.009,208v4.768H131.1" transform="translate(-65.1 -182.4)" fill="none" stroke="#263238" stroke-miterlimit="10" stroke-width="0.5"/><path d="M189.33,212.764h4.451v-5.446a2.512,2.512,0,0,1,2.487-2.512h0a2.512,2.512,0,0,1,2.512,2.512v15.524a2.683,2.683,0,0,0,2.683,2.683h0a2.683,2.683,0,0,0,2.678-2.683V194.708a3.256,3.256,0,0,1,3.255-3.25h0a3.25,3.25,0,0,1,3.25,3.25v37.679a3.065,3.065,0,0,0,3.065,3.065h0a3.065,3.065,0,0,0,3.06-3.065V186.419a4.019,4.019,0,0,1,4.019-4.019h0a4.019,4.019,0,0,1,4.019,4.019v45.768a3.25,3.25,0,0,0,3.25,3.256h0a3.255,3.255,0,0,0,3.255-3.255V195.718a3.828,3.828,0,0,1,3.828-3.828h0a3.828,3.828,0,0,1,3.828,3.828v26.9a2.869,2.869,0,0,0,2.869,2.869h0a2.869,2.869,0,0,0,2.874-2.869V208a2.738,2.738,0,0,1,2.728-2.738h0A2.738,2.738,0,0,1,250.179,208v4.768h5.094" transform="translate(-126.918 -182.4)" fill="none" stroke="#263238" stroke-miterlimit="10" stroke-width="0.5"/><path d="M313.56,212.764h4.451v-5.446a2.512,2.512,0,0,1,2.487-2.512h0a2.512,2.512,0,0,1,2.487,2.512v15.524a2.683,2.683,0,0,0,2.683,2.683h0a2.683,2.683,0,0,0,2.683-2.683V194.708a3.255,3.255,0,0,1,3.255-3.25h0a3.25,3.25,0,0,1,3.25,3.25v37.679a3.065,3.065,0,0,0,3.04,3.065h0a3.06,3.06,0,0,0,3.06-3.065V186.419a4.019,4.019,0,0,1,4.019-4.019h0a4.019,4.019,0,0,1,4.019,4.019v45.768a3.255,3.255,0,0,0,3.25,3.255h0a3.255,3.255,0,0,0,3.255-3.255V195.718a3.828,3.828,0,0,1,3.828-3.828h0a3.828,3.828,0,0,1,3.828,3.828v26.9a2.869,2.869,0,0,0,2.869,2.869h0a2.869,2.869,0,0,0,2.874-2.869V208a2.738,2.738,0,0,1,2.738-2.738h0A2.738,2.738,0,0,1,374.374,208v4.768h5.119" transform="translate(-188.737 -182.4)" fill="none" stroke="#263238" stroke-miterlimit="10" stroke-width="0.5"/></g><g transform="translate(102.432 234.805)"><ellipse cx="48.797" cy="11.605" rx="48.797" ry="11.605" fill="none" stroke="#263238" stroke-linecap="round" stroke-linejoin="round" stroke-width="0.5"/></g><g transform="translate(110.161 40.372)"><path d="M208.717,53.96s.789-2.462,1.507-4.4a9.919,9.919,0,0,1,2.552-3.959c.618-.442,3.693-1.507,9.671-.176s8.706,3.517,9.671,4.31.97,2.11,1.145,3.693a29.643,29.643,0,0,0,.528,3.08s-.618-1.321-8.179-2.376-10.485-1.758-12.675-.7-4.748,2.376-4.748,2.376Z" transform="translate(-184.972 -44.782)" fill="#263238" stroke="#263238" stroke-linecap="round" stroke-linejoin="round" stroke-width="0.5"/><path d="M205.816,72.045a25.35,25.35,0,0,1-3.517-.568c-2.869-.573-5.215-2.713-2.607-6.275s4.3-6.275,4.3-6.275,1.08-2.01,5.215-3.08,13.1,1.638,16.619,2.984,6.325,3,7.621,5.285.176,2.984-1.934,5.195-3.426,2.884-6.943,3.848S205.816,72.045,205.816,72.045Z" transform="translate(-180.181 -50.167)" fill="#263238" stroke="#263238" stroke-linecap="round" stroke-linejoin="round" stroke-width="0.5"/><path d="M215.081,64.2s-3.391,3.13-3.391,4.692a70.658,70.658,0,0,0,.653,8.732c.392,1.954,3.26,7.953,4.431,8.867s5.215-.131,5.215-.131l1.959,2.607,10.55-6.777s-1.7-3.783-1.829-4.175a22.162,22.162,0,0,1-.131-2.738,4.792,4.792,0,0,0,2.09-2.085,9.546,9.546,0,0,0,.5-3.014s-4.562-4.562-9.646-6.124A19.553,19.553,0,0,0,215.081,64.2Z" transform="translate(-186.713 -54.046)" fill="#f6c6c6" stroke="#263238" stroke-linecap="round" stroke-linejoin="round" stroke-width="0.5"/><path d="M245.556,69.317c1.507,1.231,1.231,3.08,2.371,2.638a10.425,10.425,0,0,0,2.125-1.221,29.278,29.278,0,0,0-5.823-3.924A3.266,3.266,0,0,0,245.556,69.317Z" transform="translate(-202.906 -55.743)" fill="#263238" stroke="#263238" stroke-linecap="round" stroke-linejoin="round" stroke-width="0.5"/><path d="M232.19,106.06l4.2-3.11-2.246,5.717Z" transform="translate(-196.914 -73.727)" fill="#263238" stroke="#263238" stroke-linecap="round" stroke-linejoin="round" stroke-width="0.5"/><path d="M215.8,414.36s-6.506,4.572-7.561,4.748-5.627,1.055-6.154,2.11-.879,2.462.879,2.813a122.483,122.483,0,0,0,12.484.879c2.813,0,5.978.176,7.536-.176s4.044.352,4.923-3.165a16.506,16.506,0,0,0,.176-8.264C227.556,411.371,215.8,414.36,215.8,414.36Z" transform="translate(-181.72 -227.839)" fill="#fff" stroke="#263238" stroke-linecap="round" stroke-linejoin="round" stroke-width="0.5"/><path d="M224.392,432.377a88.471,88.471,0,0,0-10.651-.467,72.923,72.923,0,0,1-11.912-1.03c-.327.929-.306,1.929,1.135,2.221a122.491,122.491,0,0,0,12.484.879c2.813,0,5.978.176,7.536-.176a16.833,16.833,0,0,0,2.884-.457Z" transform="translate(-181.721 -236.909)" fill="none" stroke="#263238" stroke-linecap="round" stroke-linejoin="round" stroke-width="0.5"/><path d="M226.811,428.3h0a.261.261,0,0,1-.261-.266l.025-.919a.256.256,0,0,1,.266-.256.271.271,0,0,1,.261.271v.914a.256.256,0,0,1-.291.256Z" transform="translate(-194.108 -234.908)" fill="#fff" stroke="#263238" stroke-linecap="round" stroke-linejoin="round" stroke-width="0.5"/><path d="M226.612,423.9h0a.538.538,0,0,1-.5-.543l.08-3.542a.543.543,0,0,1,.538-.5.527.527,0,0,1,.5.538l-.08,3.542A.528.528,0,0,1,226.612,423.9Z" transform="translate(-193.889 -231.152)" fill="#fff" stroke="#263238" stroke-linecap="round" stroke-linejoin="round" stroke-width="0.5"/><path d="M213.9,424.612a.779.779,0,0,1-.693-.427,1.216,1.216,0,0,1,0-1.186,2.317,2.317,0,0,1,1.839-.859.794.794,0,0,1,.09,1.582,2.538,2.538,0,0,0-.442.075.784.784,0,0,1-.437.733A.819.819,0,0,1,213.9,424.612Z" transform="translate(-187.391 -232.56)" fill="#fff" stroke="#263238" stroke-linecap="round" stroke-linejoin="round" stroke-width="0.5"/><path d="M217.785,422.215a.769.769,0,0,1-.7-.427,1.216,1.216,0,0,1,0-1.186,2.323,2.323,0,0,1,1.839-.854.79.79,0,1,1,.1,1.577,2.513,2.513,0,0,0-.447.075.784.784,0,0,1-.437.733A.8.8,0,0,1,217.785,422.215Z" transform="translate(-189.322 -231.369)" fill="#fff" stroke="#263238" stroke-linecap="round" stroke-linejoin="round" stroke-width="0.5"/><path d="M221.665,419.82a.784.784,0,0,1-.7-.427,1.211,1.211,0,0,1,0-1.186,2.3,2.3,0,0,1,1.834-.859.79.79,0,0,1,.1,1.578,2.148,2.148,0,0,0-.442.08.8.8,0,0,1-.437.728A.829.829,0,0,1,221.665,419.82Z" transform="translate(-191.252 -230.175)" fill="#fff" stroke="#263238" stroke-linecap="round" stroke-linejoin="round" stroke-width="0.5"/><path d="M205.39,428.27s.085.171,1.8.171,2.231.774,2.4,1.372" transform="translate(-183.578 -235.61)" fill="none" stroke="#263238" stroke-linecap="round" stroke-linejoin="round" stroke-width="0.5"/><path d="M237.74,426.4a2.919,2.919,0,0,1,1.336-.688" transform="translate(-199.676 -234.336)" fill="none" stroke="#263238" stroke-linecap="round" stroke-linejoin="round" stroke-width="0.5"/><path d="M233.06,430.58a14.778,14.778,0,0,1,1.633-2.15" transform="translate(-197.347 -235.69)" fill="none" stroke="#263238" stroke-linecap="round" stroke-linejoin="round" stroke-width="0.5"/><path d="M215.366,241.154s-.176,11.078-.176,22.507.588,21.884,2.01,25.225,5.175,20.673,5.526,22.959-.176,5.8-.176,7.536a10,10,0,0,0,.527,3.165,6,6,0,0,0-.879,2.286c0,.879-1.055,2.638,0,3.165s1.758,1.055,7.033,1.934,8.616-4.22,9.5-5.627-4.12-34.916-4.823-41.07-.236-18.895.819-23.818.527-16.353-.176-18.639-7.561-3.693-11.253-3.341S215.366,241.154,215.366,241.154Z" transform="translate(-188.455 -140.623)" fill="#263238" stroke="#263238" stroke-linecap="round" stroke-linejoin="round" stroke-width="0.5"/><path d="M223.106,242.512S219.3,269.5,219.3,273.892s1.934,9.319,2.462,11.429,2.537,25.948,3.065,27.531a32.739,32.739,0,0,1,.7,5.8s-1.407.528-1.583,1.583.7,1.758.7,2.637-.879,2.286-1.231,3.517a4.12,4.12,0,0,0,.176,2.462s-3.517,4.748-5.1,6.33a77.516,77.516,0,0,1-7.913,6.154c-2.286,1.582-6.858,3.517-7.033,5.978s1.583,4.572,5.978,4.748,12.309.352,16.7-.176,13.012-5.451,14.419-7.209,2.306-1.934,2.306-6.858.176-9.671,0-10.2-.5-1.407-.176-4.22a9.546,9.546,0,0,0-.527-4.748,22.292,22.292,0,0,0,.7-2.638c.176-1.055-1.231-3.517-1.231-3.517s.98-18.212.98-22.256-5.1-12.836-5.1-12.836.7-3.693.7-4.4a8.4,8.4,0,0,0-1.055-2.462s5.2-14.5,5.7-16.433,1.934-8.264,2.286-10.374-.879-6.506-2.462-9.143-8.44-5.8-10.9-3.693S223.106,242.512,223.106,242.512Z" transform="translate(-182.656 -137.057)" fill="#263238" stroke="#263238" stroke-linecap="round" stroke-linejoin="round" stroke-width="0.5"/><path d="M212.74,236.73s4.748,8.264,7.913,9.847,6.33-.7,10.726-5.451,7.033-8.44,10.2-7.209,8.968,13.188,9.847,14.594.7-11.605-1.055-15.649-10.726-5.627-21.6-4.22S212.74,236.73,212.74,236.73Z" transform="translate(-187.236 -136.022)" fill="#fff" stroke="#263238" stroke-linecap="round" stroke-linejoin="round" stroke-width="0.5"/><path d="M210.652,226.715s-.352,3.165-.352,4.923,2.638,1.583,2.638,1.583a57.431,57.431,0,0,1,16.7-3.868c8.792-.528,17.584,1.758,18.99,1.758s2.11-1.231,2.11-2.638-1.583-4.572-1.583-4.572-3.693-4.044-14.594-4.4-18.814-.176-21.1,1.758A9.976,9.976,0,0,0,210.652,226.715Z" transform="translate(-186.022 -131.654)" fill="#666" stroke="#263238" stroke-linecap="round" stroke-linejoin="round" stroke-width="0.5"/><path d="M209.181,96.437s-9.872,7.536-11.892,9.088-.337,2.914.116,3.25a8.842,8.842,0,0,1,1.231,1.572,65.052,65.052,0,0,1-7.4,5.717c-4.376,2.919-5.16,3.366-6.4,4.933s-5.828,6.732-5.828,6.732a27.657,27.657,0,0,0,.673-4.933c0-2.01.924-4.466-.085-6.149s-3.477-3.813-5.717-3.813a6.217,6.217,0,0,0-5.612,2.914c-1.346,2.13-2.381,6.486-3.165,11.2s-4.235,10.45-2.778,12.69,3.813,5.024,6.953,5.024,5.943-.226,7.405-1.572,8.38-4.28,9.164-4.843a25.666,25.666,0,0,1,2.693-1.457s-.111,8.636-.558,12.113-3.366,11.776-3.592,13.564,2.582,3.587,2.582,3.587,2.914-3.014,11.555-3.813a110.926,110.926,0,0,1,20.749.337c2.13.337,5.16,1.8,6.531.452s2.241-1.346,2.01-4.376-.668-6.28-.668-7.626.894-12.113.894-12.449,2.919-13.122,2.919-13.122,6.616-2.01,11.1-2.914,6.39-7.064,4.933-10.656-7.179-7.29-9.646-8.973-10.656-2.01-11.776-1.567-4.6-.226-7.29-.563a18.219,18.219,0,0,0-4.6-.226l-.452.116s-.673-3.7-1.678-4.376A2.519,2.519,0,0,0,209.181,96.437Z" transform="translate(-161.974 -70.283)" fill="#f0a60d" stroke="#263238" stroke-linecap="round" stroke-linejoin="round" stroke-width="0.5"/><path d="M306.93,145.29a13.506,13.506,0,0,0,1.889.241" transform="translate(-234.106 -94.796)" fill="none" stroke="#263238" stroke-linecap="round" stroke-linejoin="round" stroke-width="0.5"/><path d="M281.433,111.17s-2.919,1.572-2.135,4.15,6.059,8.541,8.541,10.55a11.66,11.66,0,0,0,3.517,1.959" transform="translate(-220.289 -77.818)" fill="none" stroke="#263238" stroke-linecap="round" stroke-linejoin="round" stroke-width="0.5"/><path d="M294.39,140s1.909,2.693,3.813,3.477a8.505,8.505,0,0,0,3.477.673" transform="translate(-227.866 -92.164)" fill="none" stroke="#263238" stroke-linecap="round" stroke-linejoin="round" stroke-width="0.5"/><path d="M193.735,174.75a9.64,9.64,0,0,1-1.135,2.6" transform="translate(-177.214 -109.456)" fill="none" stroke="#263238" stroke-linecap="round" stroke-linejoin="round" stroke-width="0.5"/><path d="M195.581,159.13s-.311,4.17-.311,6.3" transform="translate(-178.542 -101.683)" fill="none" stroke="#263238" stroke-linecap="round" stroke-linejoin="round" stroke-width="0.5"/><path d="M193.276,178.81s-.9,2.13-2.246,2.467" transform="translate(-176.433 -111.476)" fill="none" stroke="#263238" stroke-linecap="round" stroke-linejoin="round" stroke-width="0.5"/><path d="M211.577,158.72l.869,9.289-2.437-7.38" transform="translate(-185.877 -101.479)" fill="none" stroke="#263238" stroke-linecap="round" stroke-linejoin="round" stroke-width="0.5"/><path d="M275.42,140.86s1.12,4.938,5.024,6.059a17.17,17.17,0,0,0,6.4.784" transform="translate(-218.426 -92.592)" fill="none" stroke="#263238" stroke-linecap="round" stroke-linejoin="round" stroke-width="0.5"/><path d="M222.9,221.21c-.5,1.914-.387,3.215.914,3.808" transform="translate(-192.152 -132.575)" fill="none" stroke="#263238" stroke-linecap="round" stroke-linejoin="round" stroke-width="0.5"/><path d="M226.121,208.33a25.258,25.258,0,0,1-1,3.24l-.206.543" transform="translate(-193.292 -126.166)" fill="none" stroke="#263238" stroke-linecap="round" stroke-linejoin="round" stroke-width="0.5"/><path d="M231.155,137.72a48.731,48.731,0,0,0-1.537,5.305c-.879,4.22-1.055,14.243-1.055,20.045a48.193,48.193,0,0,1-.633,8.656" transform="translate(-194.794 -91.029)" fill="none" stroke="#263238" stroke-linecap="round" stroke-linejoin="round" stroke-width="0.5"/><path d="M235.3,112.23s-1.407,2.462-.7,3.165a22.991,22.991,0,0,1,2.11,3.341s-.919,2.271-1.889,5.024" transform="translate(-198.013 -78.345)" fill="none" stroke="#263238" stroke-linecap="round" stroke-linejoin="round" stroke-width="0.5"/><path d="M226.642,149.307a4.1,4.1,0,0,1-2.758-.96c-1.954-1.668-2.622-5.34-2.175-11.907a7.158,7.158,0,0,1,.07-.794c.055-6.827,3.693-14.63,3.878-15.072.111-.266.623-1.326.889-1.216s.5-.5.4-.256c0,0-.09.216-.226.568.613-1.377,1.045-2.261,1.105-2.386a.533.533,0,0,1,.708-.241.5.5,0,0,1,.236.708c-.05.105-5.114,10.46-5.933,17.96a13.06,13.06,0,0,0,.1,1.758c.166,1.266.663,2.808,2.075,2.979,2.175.261,5.762-2.688,7.636-7.5,2.788-7.139,9.264-22.025,9.329-22.175a.533.533,0,0,1,1,.357,133.064,133.064,0,0,0-3.677,18.031c-1.135,8.948-5.024,18.588-11.133,19.97A6.881,6.881,0,0,1,226.642,149.307Zm-4.019-9.349c0,4.019.623,6.466,1.934,7.591a3.653,3.653,0,0,0,3.356.548c4.783-1.08,9.043-8.922,10.319-19.091.563-4.421,1.387-8.611,2.115-11.851-2.135,4.989-5.079,11.932-6.727,16.152-1.894,4.853-5.813,8.541-8.747,8.159a2.984,2.984,0,0,1-2.241-1.507Z" transform="translate(-191.632 -77.446)" fill="#fff" stroke="#263238" stroke-linecap="round" stroke-linejoin="round" stroke-width="0.5"/><path d="M234.268,118.53l-.528,4.044,1.583-.7Z" transform="translate(-197.686 -81.48)" fill="#fff" stroke="#263238" stroke-linecap="round" stroke-linejoin="round" stroke-width="0.5"/><path d="M258.033,113.85a60.56,60.56,0,0,0-5.833,2.8" transform="translate(-206.871 -79.151)" fill="none" stroke="#263238" stroke-linecap="round" stroke-linejoin="round" stroke-width="0.5"/><path d="M279,106.251a7.055,7.055,0,0,0,2.241,2.914c1.9,1.683,5.607,1.346,7.069.563s1.874-3.276,1.874-3.276-2.211-2.447-3.336-2.557S279.442,103.112,279,106.251Z" transform="translate(-220.208 -74.13)" fill="#666" stroke="#263238" stroke-linecap="round" stroke-linejoin="round" stroke-width="0.5"/><path d="M276.21,94.782c-.216-.407-.447-.8-.683-1.181a1.722,1.722,0,0,0,.121-.166,1.437,1.437,0,0,0,.226-1.346c-.226-.447-1.236-2.351-1.572-2.351-.176,0-.955.121-1.663.236l-.131-.126a6.029,6.029,0,0,1-.854-.96c.226-.759,1.06-2.8.854-3.517s-2.241-1.457-3.014-1.346c-.5.075-1.638,1.472-2.361,2.447l-1-.181c-.357-1.04-1.06-2.969-1.472-3.049-.558-.116-1.567,1.12-1.567,1.683,0,.181.035.638.085,1.171l-1.321.844a36.394,36.394,0,0,1-2.577,5.275c-.784.9-4.019,2.914-6.059,3.014s-4.26.337-3.813,1.683,2.01,1.457,5.024,1.794a11.013,11.013,0,0,0,6.727-1.794c1.12-.673,3.477-.337,5.049-.337a37.465,37.465,0,0,0,4.15-.558c.447,0,1.683,1,3.014,1.346a9.393,9.393,0,0,0,3.813-.452S277.33,96.912,276.21,94.782Z" transform="translate(-205.451 -63.917)" fill="#f6c6c6" stroke="#263238" stroke-linecap="round" stroke-linejoin="round" stroke-width="0.5"/><path d="M288.171,86.14l-.111,3.14s-.784,2.577-.337,3.477,2.241.111,2.467-.337,1.909-6.029,1.794-6.727-1.683-1.572-2.577-1.572a2.04,2.04,0,0,0-1.457.673" transform="translate(-224.48 -64.357)" fill="#f6c6c6" stroke="#263238" stroke-linecap="round" stroke-linejoin="round" stroke-width="0.5"/><path d="M303.489,100.86s2.01,1.346,2.13,1.794-.226,3.014-.226,4.376-.447,2.693-1.231,1.909-.784-3.366-.9-3.813-.673-.673-.673-.673" transform="translate(-231.946 -72.687)" fill="#f6c6c6" stroke="#263238" stroke-linecap="round" stroke-linejoin="round" stroke-width="0.5"/><path d="M275.574,80.863s-2.8-.558-3.014.563-.337,4.823.563,5.024,2.351.337,2.577,0a21.769,21.769,0,0,0,.9-4.938C276.493,80.837,275.574,80.863,275.574,80.863Z" transform="translate(-216.927 -62.667)" fill="#f6c6c6" stroke="#263238" stroke-linecap="round" stroke-linejoin="round" stroke-width="0.5"/><path d="M294.33,94.6a24.3,24.3,0,0,1,3.477-2.241c.784-.231,2.808,1.819,2.808,1.819a28.638,28.638,0,0,1-.9,4.376c-.563,1.683-1.236,2.241-1.909,2.241a1.387,1.387,0,0,1-1.341-1.457c0-.9.337-3.813.337-3.813" transform="translate(-227.836 -68.449)" fill="#f6c6c6" stroke="#263238" stroke-linecap="round" stroke-linejoin="round" stroke-width="0.5"/><path d="M278.729,91.26a4.846,4.846,0,0,1-1.909,1.572,10.584,10.584,0,0,1-2.13.226" transform="translate(-218.063 -67.91)" fill="none" stroke="#263238" stroke-linecap="round" stroke-linejoin="round" stroke-width="0.5"/><path d="M285,92.6a1.588,1.588,0,0,0,1.346,1.346" transform="translate(-223.193 -68.577)" fill="none" stroke="#263238" stroke-linecap="round" stroke-linejoin="round" stroke-width="0.5"/><path d="M295.22,100s-.226,1.457,1.457,1.12" transform="translate(-228.274 -72.259)" fill="none" stroke="#263238" stroke-linecap="round" stroke-linejoin="round" stroke-width="0.5"/><path d="M188.814,108.795a48.658,48.658,0,0,0,3.255-5.948,25.34,25.34,0,0,1,3.924-6.616,32,32,0,0,1,5.607-4.707c1-.116,1,1.12,1,1.12s1.794-1,2.356-.563.327,1.562-.563,2.246a17.636,17.636,0,0,0-3.477,4.371,3.221,3.221,0,0,1-.337.673s2.467,1.462,2.467,2.135a5.426,5.426,0,0,1-.447,1.678,4.305,4.305,0,0,1-.578,2.693c-.784,1.236-1.341,2.467-2.01,2.467s-1-.111-1-.784a8.155,8.155,0,0,1,.784-2.241,12.812,12.812,0,0,0-1.794,2.01c-.673,1-1.346,2.246-2.467,2.693s-3.14,1-3.14,1l-2.04,3.341a4.341,4.341,0,0,1-2.889-.432,4.219,4.219,0,0,1-1.567-2.467Z" transform="translate(-173.88 -68.037)" fill="#f6c6c6" stroke="#263238" stroke-linecap="round" stroke-linejoin="round" stroke-width="0.5"/><path d="M185.78,125.719a2.306,2.306,0,0,0,1,1.9,7.1,7.1,0,0,0,3.366,1s.447-.337.447.226-1.683,3.477-2.356,4.6-4.371,1.346-5.717-.447a5.56,5.56,0,0,1-1-4.486c.231-.337,3.25-3.014,3.25-3.014S185.67,124.935,185.78,125.719Z" transform="translate(-171.63 -84.851)" fill="#666" stroke="#263238" stroke-linecap="round" stroke-linejoin="round" stroke-width="0.5"/><path d="M214.05,93.76a20.694,20.694,0,0,0-3.7,3.14c-.9,1.236-1.457,1.909-1.457,1.909" transform="translate(-185.32 -69.154)" fill="none" stroke="#263238" stroke-linecap="round" stroke-linejoin="round" stroke-width="0.5"/><line x2="2.577" y2="1.678" transform="translate(26.152 33.468)" fill="none" stroke="#263238" stroke-linecap="round" stroke-linejoin="round" stroke-width="0.5"/><path d="M213.806,106.824s-.784-.558-1.346-.221" transform="translate(-187.096 -75.491)" fill="none" stroke="#263238" stroke-linecap="round" stroke-linejoin="round" stroke-width="0.5"/><path d="M242.971,429.98q-.829.734-1.809,1.613c-3.517,3.165-8.792,3.165-8.792,3.165s-1.758-7.913-3.868-8.44a13.856,13.856,0,0,0-4.923,0s-3.517,4.748-5.1,6.33a77.52,77.52,0,0,1-7.913,6.154c-2.286,1.583-6.858,3.517-7.033,5.978s.422,3.577,4.647,4.813c3.914,1.14,13.64.286,18.036-.241s13.012-5.451,14.419-7.209,2.306-1.934,2.306-6.858C242.941,433.417,242.941,431.568,242.971,429.98Z" transform="translate(-182.641 -234.522)" fill="#fff" stroke="#263238" stroke-linecap="round" stroke-linejoin="round" stroke-width="0.5"/><path d="M242.6,448.736a47.892,47.892,0,0,1-13.429,7.717c-6.481,2.472-14.815,2.628-20.839,1.547-3.09-.558-4.305-1.477-4.758-2.241a1.506,1.506,0,0,0-.04.206c-.176,2.462.422,3.577,4.647,4.813,3.914,1.14,13.64.286,18.036-.241s13.012-5.451,14.419-7.209c1.176-1.467,1.979-1.839,2.216-4.768C242.765,448.62,242.685,448.67,242.6,448.736Z" transform="translate(-182.641 -245.707)" fill="none" stroke="#263238" stroke-linecap="round" stroke-linejoin="round" stroke-width="0.5"/><path d="M221.846,448.25s-2.055.688-1.03,1.567c.472.4,5.149,3.155,6.35,2.381C229.01,451.013,221.846,448.25,221.846,448.25Z" transform="translate(-191.112 -245.553)" fill="none" stroke="#263238" stroke-linecap="round" stroke-linejoin="round" stroke-width="0.5"/><path d="M234.93,444.5s9.721-6.792,10.957-8.8" transform="translate(-198.278 -239.307)" fill="none" stroke="#263238" stroke-linecap="round" stroke-linejoin="round" stroke-width="0.5"/><path d="M231.252,449.073a.809.809,0,0,1-.563-.231c-3.014-3.014-5.526-2.728-5.652-2.713a.79.79,0,0,1-.241-1.562c.136,0,3.376-.5,7.033,3.155a.789.789,0,0,1,0,1.12A.8.8,0,0,1,231.252,449.073Z" transform="translate(-192.902 -243.708)" fill="#fff" stroke="#263238" stroke-linecap="round" stroke-linejoin="round" stroke-width="0.5"/><path d="M235.717,445.544a.784.784,0,0,1-.583-.256,8.106,8.106,0,0,0-6.421-2.838.79.79,0,0,1-.191-1.567,9.666,9.666,0,0,1,7.777,3.336.789.789,0,0,1-.583,1.326Z" transform="translate(-194.744 -241.877)" fill="#fff" stroke="#263238" stroke-linecap="round" stroke-linejoin="round" stroke-width="0.5"/><path d="M240,442.1a.779.779,0,0,1-.618-.3,7.819,7.819,0,0,0-6.5-2.823.794.794,0,0,1-.718-1.412c.98-.543,5.672-.236,8.45,3.25A.789.789,0,0,1,240,442.1ZM232.895,438.977ZM232.955,438.947Z" transform="translate(-196.71 -240.128)" fill="#fff" stroke="#263238" stroke-linecap="round" stroke-linejoin="round" stroke-width="0.5"/><path d="M244.055,438.179a.794.794,0,0,1-.588-.256,9.621,9.621,0,0,0-6.531-3.14.794.794,0,0,1,0-1.583,11.163,11.163,0,0,1,7.687,3.657.789.789,0,0,1-.583,1.321Z" transform="translate(-198.912 -238.063)" fill="#fff" stroke="#263238" stroke-linecap="round" stroke-linejoin="round" stroke-width="0.5"/><path d="M255.632,452.466h0a.532.532,0,0,1-.5-.543l.03-1.392a.5.5,0,0,1,.527-.5h0a.528.528,0,0,1,.5.538l-.03,1.4A.527.527,0,0,1,255.632,452.466Z" transform="translate(-208.329 -246.438)" fill="#fff" stroke="#263238" stroke-linecap="round" stroke-linejoin="round" stroke-width="0.5"/><path d="M255.423,445.646h0a.794.794,0,0,1-.774-.809l.121-5.4a.794.794,0,1,1,1.583.035l-.121,5.4A.794.794,0,0,1,255.423,445.646Z" transform="translate(-208.09 -240.753)" fill="#fff" stroke="#263238" stroke-linecap="round" stroke-linejoin="round" stroke-width="0.5"/><path d="M248,462.64a3.3,3.3,0,0,1,.457,1.351" transform="translate(-204.782 -252.713)" fill="none" stroke="#263238" stroke-linecap="round" stroke-linejoin="round" stroke-width="0.5"/><path d="M211.685,455.6s-1.286.854.944,1.8,8.068.347,11.927-.427a4.978,4.978,0,0,1,3.366.382" transform="translate(-186.527 -249.21)" fill="none" stroke="#263238" stroke-linecap="round" stroke-linejoin="round" stroke-width="0.5"/><path d="M276.78,441.175a7.669,7.669,0,0,1,.688-1.125" transform="translate(-219.103 -241.472)" fill="none" stroke="#263238" stroke-linecap="round" stroke-linejoin="round" stroke-width="0.5"/><path d="M274.39,448.88a13.48,13.48,0,0,1,.683-4.16" transform="translate(-217.913 -243.796)" fill="none" stroke="#263238" stroke-linecap="round" stroke-linejoin="round" stroke-width="0.5"/></g><g transform="translate(158.171 93.873)"><path d="M268.024,157.377A5.275,5.275,0,1,0,262,161.763,5.275,5.275,0,0,0,268.024,157.377Z" transform="translate(-257.538 -151.276)" fill="#666" stroke="#263238" stroke-linecap="round" stroke-linejoin="round" stroke-width="0.5"/><path d="M297.816,165l-23.406-2.14,1.14-7.2,22.909,5.175a1.226,1.226,0,0,1,.944,1.392l-.276,1.758A1.231,1.231,0,0,1,297.816,165Z" transform="translate(-265.934 -153.457)" fill="#263238" stroke="#263238" stroke-linecap="round" stroke-linejoin="round" stroke-width="0.5"/><path d="M276.781,155.916l-1.231-.276-1.14,7.2,1.261.116Z" transform="translate(-265.934 -153.447)" fill="#fff" stroke="#263238" stroke-linecap="round" stroke-linejoin="round" stroke-width="0.5"/><path d="M265,161.6a5.473,5.473,0,0,0,.713.171h.146l1.653-10.394a.255.255,0,0,1-.146-.03,6,6,0,0,0-.728-.055Z" transform="translate(-261.251 -151.283)" fill="#fff" stroke="#263238" stroke-linecap="round" stroke-linejoin="round" stroke-width="0.5"/></g></g></svg>