<?xml version="1.0" encoding="utf-8"?>
<!-- Generator: Adobe Illustrator 25.2.0, SVG Export Plug-In . SVG Version: 6.00 Build 0)  -->
<svg version="1.1" id="Layer_1" xmlns="http://www.w3.org/2000/svg" xmlns:xlink="http://www.w3.org/1999/xlink" x="0px" y="0px"
	 viewBox="0 0 268 214.7" style="enable-background:new 0 0 268 214.7;" xml:space="preserve">
<style type="text/css">
	.st0{fill:#F0F0F0;}
	.st1{fill:#3F3D56;}
	.st2{fill:#F8A02E;}
	.st3{fill:none;stroke:#3F3D56;stroke-miterlimit:10;}
	.st4{fill:#FFB6B6;}
	.st5{fill:#2F2E41;}
	.st6{fill:#F8A02E;stroke:#000000;}
</style>
<g transform="translate(-25 -41.144)">
	<path class="st0" d="M293,241.9c0,1.3-1.1,2.5-3.3,3.6c-11,5.9-48.5,10.3-92.9,10.3c-1.8,0-3.5,0-5.2,0c-50.7-0.4-91-6.5-91-13.9
		c0-7.7,43.1-13.9,96.2-13.9c14.6,0,28.3,0.5,40.7,1.3c3.1,0.2,6.1,0.4,9,0.7c1.2,0.1,2.4,0.2,3.6,0.3c5.6,0.5,10.7,1.2,15.4,1.8
		c2.3,0.3,4.4,0.7,6.4,1c4.4,0.7,8.8,1.8,13.1,3.1C290.1,238.1,293,239.9,293,241.9z"/>
	<path class="st0" d="M217.4,183.9c0,5.1-43.1,9.2-96.2,9.2c-8.8,0-17.3-0.1-25.4-0.3c-31.2-0.8-56-3.1-66.1-6
		c-3.1-0.9-4.8-1.9-4.8-2.9c0-1.1,2.2-2.2,6.2-3.3c2.3-0.6,5.3-1.2,8.8-1.7c0,0,0.1,0,0.1,0c8-1.2,18.9-2.2,31.7-2.9
		c14.4-0.8,31.3-1.3,49.4-1.3C174.4,174.7,217.4,178.8,217.4,183.9z"/>
	<path class="st1" d="M205.4,126.2l-7-2c0,0-2.8-0.5-1.1-5.9s5-3.9,5-3.9l6.2,1.8l2.5,0.8l-3.5,4.9l-0.3,3.2L205.4,126.2z"/>
	<path class="st1" d="M219,112l2.2,8.8l-11.3,10.9l-1,0.2l-2.6-0.7l-2.2-8.8l2.2-2.3l-2.3-0.6l4.9-4.7l2.5,0.5l2-2l-1.4-0.5
		l-0.1-0.5l1.7-1.3L219,112z"/>
	<path class="st2" d="M208.4,124.4l1.5,5.8l6.7-6.4l-1.7-5.9L208.4,124.4z"/>
	<path class="st3" d="M219,112l0.3,1.2l-11.2,10.9l-1,0.2l-2.5-0.7h-0.1l-0.3-1.3l2.2-2.3l-2.3-0.6l4.9-4.7l2.5,0.5l2-2l-1.4-0.5
		l-0.1-0.5l1.7-1.3L219,112z"/>
	
		<ellipse transform="matrix(0.9701 -0.2429 0.2429 0.9701 -20.7646 55.2767)" class="st2" cx="213.8" cy="111.8" rx="0.9" ry="0.6"/>
	<ellipse transform="matrix(0.9701 -0.2429 0.2429 0.9701 -23.267 53.8259)" class="st2" cx="206.7" cy="121.3" rx="0.9" ry="0.6"/>
	<path class="st4" d="M200.7,137.1l1.5-5.2c0,0-4-9.5,0.6-10.4s4.9,8.9,4.9,8.9l-1.8,5.8L200.7,137.1z"/>
	<circle class="st4" cx="229.2" cy="114.8" r="12.2"/>
	<path class="st4" d="M225.2,123.4c0,0-0.7,9-2.5,9.7s19.3,5.7,19.3,5.7l-5.4-6.1c0,0-1.1-9.3,1.4-11.5L225.2,123.4z"/>
	<path class="st0" d="M208.1,134.4l-4.9-0.6c0,0-5.8,3.1-5.8,7s-3.4,10.4-3.4,10.4s-2.5,8.6,3.1,9.2s10.4-9.2,10.4-9.2L208.1,134.4z
		"/>
	<path class="st5" d="M205.3,183.1c0,0-10.7-10.1-13.8-9.5s-9.2,1.5-9.2,6.1s10.1,15.3,10.1,15.3s7.7,16.9,15,17.5
		c4.8,0.4,9.6,1.2,14.4,2.1c0,0-3.4,12.3-1.5,15.6s8.9,7.4,9.5,7s9.2-8.3,12.9-19.6s6.1-19.9,2.8-20.5S205.3,183.1,205.3,183.1z"/>
	<path class="st5" d="M183.3,178.8c0,0-2.1-0.3-1.8,4.9s1.2,23.9,2.8,27.6s1.8,8,1.2,9.5s-1.8,4,0.3,4.3s11-0.9,12-1.2
		s1.8-5.5,1.2-5.5s-2.1-0.3-1.5-2.5s0.9-2.1,0-2.8s-3.4-1.5-2.8-2.1s1.2-15,1.2-15L183.3,178.8z"/>
	<path class="st5" d="M186.3,224.2c0,0-5.2-1.5-5.8,1.8c0,0-0.9,5.2,3.1,7c2.6,1.2,5,2.7,7.4,4.3c0,0,6.4,2.5,6.7-0.6
		s-1.2-14.1-1.2-14.1L186.3,224.2z"/>
	<path class="st5" d="M221,227.8l9.8-8c0,0-1.8,9.8,0.6,11.6l1.1,3.3l-3.1,2.6C229.4,237.3,219.7,235.8,221,227.8z"/>
	<path class="st5" d="M234.7,214.3c0,0-6.4,1.8-5.5,8.3s2.1,13.4,2.1,13.4s0.4,17.2,5,18.4s5.8-1.2,5.8-1.2s5.2-13.5,3.7-17.5
		c-1.9-4.9-4.6-10.3-3.7-12C243,222.2,241.5,213.4,234.7,214.3z"/>
	<path class="st0" d="M238.4,129.8c0,0-2.5,0.3-6.4,0.9s-6.7-2.5-8.9-1.8s-19.9,4.9-19.9,4.9l2.8,21.1c0,0-3.4,24.5-2.8,28.8
		s-7.4,3.7-2.8,8.9s12.6,9.8,28.8,8.3s18.4-1.2,18.4-3.7s-3.7-23.3-2.5-25.1s3.7-4,2.5-6.1s-2.5-3.4-0.6-5.2s2.8-3.7,2.8-4.6
		s4.3-15.9,4.3-15.9s-1.8-7.4-4-7.7s-4-1.8-5.5-1.8s-2.5,0.3-3.4,0L238.4,129.8z"/>
	<path class="st5" d="M211.7,112.6c1.3-0.3,2.6-0.8,3.7-1.5c4.4,3.9,9.9,6.5,15.8,7.3c0,0,0-0.2,0.1-0.5l3.2,0.5l6-0.6
		c0,0.1,0,0.2,0,0.2s0.9-0.2,1.1-2.2c0.1-0.4,0.1-0.7,0.2-1.1c0.5-2.2,1.6-10.1-5-15.3c-4.8-3.8-10.3-2.6-13.9-1.2
		c-2.9,1.2-5.1,3.5-6.3,6.4c-0.3,0.7-0.5,1.5-0.6,2.2l-0.1,0.4c-1.1,0.1-3.2-0.7-4.3-0.3c-1.6,0.6-2.3,2.9-2.5,3.7
		c0,1.2,0.9,2.1,2,2.2C211.3,112.7,211.5,112.7,211.7,112.6z M232,114.9c0.8-2.2,2.5-4.6,5.4-4.5c3,0.1,3.6,2.5,3.5,4.6l-7.6,0.3
		L232,114.9z"/>
	<ellipse transform="matrix(0.1682 -0.9857 0.9857 0.1682 96.7415 308.8701)" class="st5" cx="231.4" cy="97.1" rx="0.5" ry="1.3"/>
	<ellipse class="st2" cx="138.7" cy="49.1" rx="7.7" ry="8"/>
	<path class="st5" d="M125.5,99.7c-1.7-7.3-2.8-14.7-3.1-22.2c-0.3-6.7,0.3-12.3,1.6-16.6c1.7-5.5,4.6-8.9,8.8-10.3l0.2,0.6
		c-9,2.9-10.4,15.9-10,26.2c0.4,7.5,1.4,14.9,3.1,22.1L125.5,99.7z"/>
	<path class="st2" d="M159.3,159.9c-4.2,5.6,0.6,16.4,0.6,16.4s11.7,1.8,16-3.7s-0.6-16.4-0.6-16.4S163.6,154.4,159.3,159.9z"/>
	<path class="st2" d="M78.8,169c3.5,4.1,12.4,2.2,12.4,2.2s3.3-8.5-0.3-12.6s-12.4-2.2-12.4-2.2S75.3,164.9,78.8,169z"/>
	<path class="st5" d="M174.7,183.8c-34.3-18.6-61.3-17.6-77.9-13.5c-18,4.5-28,13.4-28.1,13.5l-0.4-0.5c0.1-0.1,10.2-9.1,28.4-13.6
		c11-2.7,22.4-3.2,33.5-1.7c14.5,1.9,29.6,7,44.8,15.3L174.7,183.8z"/>
	<rect x="121.4" y="129" class="st5" width="0.6" height="38.5"/>
	<circle class="st6" cx="121.6" cy="140" r="22.1"/>
	<circle class="st6" cx="121.6" cy="103" r="16.6"/>
	<ellipse class="st6" cx="121.9" cy="75.4" rx="13" ry="12.7"/>
</g>
</svg>
