<svg xmlns="http://www.w3.org/2000/svg" xmlns:xlink="http://www.w3.org/1999/xlink" width="238.382" height="224.478" viewBox="0 0 238.382 224.478"><defs><linearGradient id="a" x1="0.5" y1="1" x2="0.5" gradientUnits="objectBoundingBox"><stop offset="0" stop-color="gray" stop-opacity="0.251"/><stop offset="0.54" stop-color="gray" stop-opacity="0.122"/><stop offset="1" stop-color="gray" stop-opacity="0.102"/></linearGradient></defs><g transform="translate(-188.007 -8.817)"><ellipse cx="93.187" cy="3.166" rx="93.187" ry="3.166" transform="translate(204.568 226.964)" fill="#2a0645" opacity="0.26"/><g transform="translate(378.593 168.741)"><path d="M776.7,538.909s10.734-13.6,9.9-27.113a26.259,26.259,0,0,1,4.17-16.074,44.026,44.026,0,0,1,5.045-6.3" transform="translate(-775.805 -478.582)" fill="none" stroke="#535461" stroke-miterlimit="10" stroke-width="2"/><path d="M876.335,433.174c-.759,1.891.461,8.747.461,8.747s5.624-4.107,6.383-6a3.69,3.69,0,1,0-6.848-2.75Z" transform="translate(-856.798 -430.858)" fill="#f8a02e"/><path d="M823.836,468.307c.391,2,5.141,7.09,5.141,7.09s2.489-6.5,2.1-8.5a3.688,3.688,0,1,0-7.24,1.412Z" transform="translate(-814.161 -457.794)" fill="#f8a02e"/><path d="M782.6,557.854c1.346,1.529,8.016,3.516,8.016,3.516s-1.134-6.87-2.48-8.4a3.687,3.687,0,1,0-5.536,4.873Z" transform="translate(-779.864 -529.352)" fill="#f8a02e"/><path d="M772.416,640.03c1.068,1.734,7.307,4.831,7.307,4.831s.042-6.964-1.025-8.7a3.689,3.689,0,1,0-6.282,3.868Z" transform="translate(-771.867 -596.735)" fill="#f8a02e"/><path d="M851.479,512.278c-1.886.772-8.749-.4-8.749-.4s4.072-5.652,5.952-6.424a3.688,3.688,0,1,1,2.8,6.826Z" transform="translate(-829.615 -491.421)" fill="#f8a02e"/><path d="M838.768,604.429c-2.036.174-8.228-3-8.228-3s5.573-4.175,7.6-4.349a3.688,3.688,0,1,1,.627,7.35Z" transform="translate(-819.681 -566.305)" fill="#f8a02e"/><path d="M809.985,693.69c-1.971.513-8.615-1.568-8.615-1.568s4.786-5.056,6.757-5.571a3.689,3.689,0,0,1,1.851,7.138Z" transform="translate(-795.91 -639.152)" fill="#f8a02e"/><path d="M876.335,433.174c-.759,1.891.461,8.747.461,8.747s5.624-4.107,6.383-6a3.69,3.69,0,1,0-6.848-2.75Z" transform="translate(-856.798 -430.858)" opacity="0.25"/><path d="M823.836,468.307c.391,2,5.141,7.09,5.141,7.09s2.489-6.5,2.1-8.5a3.688,3.688,0,1,0-7.24,1.412Z" transform="translate(-814.161 -457.794)" opacity="0.25"/><path d="M782.6,557.854c1.346,1.529,8.016,3.516,8.016,3.516s-1.134-6.87-2.48-8.4a3.687,3.687,0,1,0-5.536,4.873Z" transform="translate(-779.864 -529.352)" opacity="0.25"/><path d="M772.416,640.03c1.068,1.734,7.307,4.831,7.307,4.831s.042-6.964-1.025-8.7a3.689,3.689,0,1,0-6.282,3.868Z" transform="translate(-771.867 -596.735)" opacity="0.25"/><path d="M851.479,512.278c-1.886.772-8.749-.4-8.749-.4s4.072-5.652,5.952-6.424a3.688,3.688,0,1,1,2.8,6.826Z" transform="translate(-829.615 -491.421)" opacity="0.25"/><path d="M838.768,604.429c-2.036.174-8.228-3-8.228-3s5.573-4.175,7.6-4.349a3.688,3.688,0,1,1,.627,7.35Z" transform="translate(-819.681 -566.305)" opacity="0.25"/><path d="M809.985,693.69c-1.971.513-8.615-1.568-8.615-1.568s4.786-5.056,6.757-5.571a3.689,3.689,0,0,1,1.851,7.138Z" transform="translate(-795.91 -639.152)" opacity="0.25"/><path d="M777.2,588.646s15.324-8.078,20.04-20.773a26.292,26.292,0,0,1,10.325-13.005,44.165,44.165,0,0,1,7.168-3.718" transform="translate(-776.213 -528.887)" fill="none" stroke="#535461" stroke-miterlimit="10" stroke-width="2"/><path d="M982.552,503.4c-1.458,1.42-3.122,8.182-3.122,8.182s6.805-1.481,8.266-2.895a3.688,3.688,0,1,0-5.144-5.288Z" transform="translate(-941.015 -489.123)" fill="#f8a02e"/><path d="M929.377,514.283c-.453,1.986,1.827,8.565,1.827,8.565s4.91-4.936,5.367-6.922a3.688,3.688,0,1,0-7.191-1.644Z" transform="translate(-900.177 -496.506)" fill="#f8a02e"/><path d="M855.147,579.162c.611,1.943,5.9,6.478,5.9,6.478s1.747-6.74,1.136-8.684a3.689,3.689,0,1,0-7.033,2.221Z" transform="translate(-839.576 -547.751)" fill="#f8a02e"/><path d="M812.639,650.442c.274,2.017,4.721,7.375,4.721,7.375s2.861-6.348,2.591-8.367a3.689,3.689,0,1,0-7.31.992Z" transform="translate(-805.067 -606.392)" fill="#f8a02e"/><path d="M932.646,572.2c-2.036-.057-7.836-3.912-7.836-3.912s6.009-3.516,8.045-3.461a3.688,3.688,0,1,1-.209,7.374Z" transform="translate(-896.504 -540.032)" fill="#f8a02e"/><path d="M887.866,652.467c-1.925-.664-6.306-6.076-6.306-6.076s6.785-1.56,8.711-.9a3.689,3.689,0,0,1-2.406,6.972Z" transform="translate(-861.258 -605.637)" fill="#f8a02e"/><path d="M823.1,721.826c-2.01-.329-7.244-4.923-7.244-4.923s6.426-2.685,8.436-2.356a3.688,3.688,0,1,1-1.192,7.28Z" transform="translate(-807.718 -662.02)" fill="#f8a02e"/></g><path d="M645.009,408.858h-3.065L619.521,293.107l-2.875,115.751H613.39L609.748,293.3,587.9,408.858H584.45L599.3,289.886l.484-3.867,29.13-3.259.905,7.126Z" transform="translate(-270.535 -179.79)" fill="#464353"/><rect width="18.541" height="11.498" transform="translate(294.053 79.767)" fill="#464353"/><path d="M863.05,304.717l11.211-4.527h2.457a1.351,1.351,0,0,1,1.351,1.351v31.574a1.351,1.351,0,0,1-1.351,1.351h-2.457L863.05,329.8Z" transform="translate(-461.416 -229.979)" fill="#464353"/><rect width="22.923" height="22.205" transform="translate(378.711 76.176)" fill="#464353"/><rect width="14.757" height="2.682" transform="translate(338.919 34.469)" fill="#514e7f"/><rect width="41.537" height="30.326" transform="translate(322.081 37.943)" fill="#514e7f"/><rect width="41.537" height="3.594" transform="translate(322.081 64.678)" opacity="0.1"/><rect width="0.93" height="22.205" transform="translate(378.355 76.176)" opacity="0.1"/><rect width="6.324" height="11.498" transform="translate(306.27 79.767)" opacity="0.1"/><path d="M657.94,289.886H627.42l.484-3.867,29.13-3.259Z" transform="translate(-298.655 -179.79)" opacity="0.1"/><rect width="71.863" height="44.268" rx="10.7" transform="translate(306.844 65.252)" fill="#514e7f"/><path d="M834.244,201.07h.218v25.08h-.218a1.794,1.794,0,0,1-1.794-1.794V202.864A1.794,1.794,0,0,1,834.244,201.07Z" transform="translate(-432.827 -126.332)" fill="#514e7f"/><path d="M870.71,188h2.326a1.483,1.483,0,0,1,1.483,1.483V220.8a1.483,1.483,0,0,1-1.483,1.483H870.71Z" transform="translate(-457.865 -117.779)" fill="#514e7f"/><rect width="3.307" height="11.498" transform="translate(294.053 79.767)" opacity="0.1"/><rect width="6.466" height="19.547" rx="3.233" transform="translate(290.317 76.176)" fill="#514e7f"/><circle cx="20.698" cy="20.698" r="20.698" transform="translate(301.383 17.245)" fill="#464353"/><circle cx="15.524" cy="15.524" r="15.524" transform="translate(306.557 22.418)" fill="#f8a02e"/><circle cx="15.092" cy="15.092" r="15.092" transform="translate(345.364 23.282)" fill="#464353"/><circle cx="11.318" cy="11.318" r="11.318" transform="translate(349.138 27.056)" fill="#f8a02e"/><circle cx="1.987" cy="1.987" r="1.987" transform="translate(357.298 69.852)" fill="#f8a02e"/><circle cx="1.987" cy="1.987" r="1.987" transform="translate(363.618 69.852)" fill="#f8a02e" opacity="0.5"/><path d="M438.994,192.422l-.142-.28a12.537,12.537,0,0,1,2.509,1.154c-.346-3-11.864-11.436-13.938-11.436s-4.379-3.58-4.379-3.58-5.989-.923-6.912-1.9-7.143-.408-8.64-.062-3.8-.923-3.8-.923-1.268-2.074-2.879-2.074-3.335-2.309-3.335-2.309a7.158,7.158,0,0,0-2.886-1.617,7.491,7.491,0,0,1-3.919-2.886c-.809-1.158-4.838-1.728-7.14-1.382s-8.526-.47-8.526-.47a6.1,6.1,0,0,0,3.145-3.926c-2.267-.117-8.225-5.122-8.225-5.122s.245,1.617.529,3.874l-.384-.494-.052.041a37.364,37.364,0,0,1-.052-4.838c0-.124.021-.249.028-.377a10.762,10.762,0,0,0,3.373-10.606c-.062-.263-.135-.518-.218-.771a4.792,4.792,0,0,0,1.382.346h.245a2.022,2.022,0,0,0,1.517-.67h0a1.619,1.619,0,0,0,.169-.263.438.438,0,0,0,.031-.055,1.882,1.882,0,0,0,.1-.263.986.986,0,0,0,.024-.1,2.12,2.12,0,0,0,.041-.214V140.9a4.1,4.1,0,0,0-.346-1.541,6.841,6.841,0,0,1-.847-2.737,1.694,1.694,0,0,1,.028-.232,12.421,12.421,0,0,1,.733-2.188v-.031c.035-.107.062-.214.086-.321a.789.789,0,0,0,.028-.1,2.926,2.926,0,0,0,.052-.384v-.028a3.66,3.66,0,0,0-2.395-3.29c-1.182-.525-2.533-.667-3.615-1.382-1.234-.812-1.911-2.219-2.824-3.383a6.446,6.446,0,0,0-5.53-2.716c-1.31.149-2.5.836-3.8,1.1-1.98.411-4.075-.187-6.044.273a2.073,2.073,0,0,0-1.23.691,1.406,1.406,0,0,0-.249.626h0a2.387,2.387,0,0,0,0,.629v.017a4.426,4.426,0,0,0,.107.591l.031.121a.511.511,0,0,0,.028.121c.01.041.045.162.066.242.038.135.069.27.1.408v.048c.031.142.062.283.086.429h0a7.277,7.277,0,0,1,.111.905h0a4.171,4.171,0,0,1-.529,2.461c-.864,1.382-2.7,1.994-3.5,3.435a2.979,2.979,0,0,0-.346,1.123h0a3.012,3.012,0,0,0-.017.394v.052a1.312,1.312,0,0,0,.031.346.672.672,0,0,0,0,.083,2.98,2.98,0,0,0,.069.3.31.31,0,0,0,.028.1,2.693,2.693,0,0,0,.138.346h0c.37.771,1.068,1.407,1.213,2.243h0a.129.129,0,0,0,.017.076,5.623,5.623,0,0,1-.314,1.863,2.215,2.215,0,0,0-.041.228h0v.46a.853.853,0,0,0,0,.1v.225a.548.548,0,0,0,.035.128l.024.086a1.286,1.286,0,0,0,.055.121l.038.076a1.262,1.262,0,0,0,.083.121.573.573,0,0,0,.042.055.938.938,0,0,0,.159.149c.477.346,1.22.256,1.611.691a.822.822,0,0,1,.111.173l.021.041a.954.954,0,0,1,.066.19h0a1.9,1.9,0,0,1,0,.788c-.138.691-.432,1.32-.587,2-.031.138-.052.28-.069.422h0a.7.7,0,0,1-.017.19v.27a1.122,1.122,0,0,0,.021.263c.021.086,0,.083.021.121l.021.1a.494.494,0,0,0,.038.135l.031.086c.017.048.041.1.062.145a.612.612,0,0,0,.035.066,1.211,1.211,0,0,0,.124.2,2.173,2.173,0,0,0,1.832.76,5.771,5.771,0,0,0,1.223-.138c.09.211.183.422.283.626a10.737,10.737,0,0,0,1.946,2.737,2.606,2.606,0,0,1-.035.321c-.079.788-.176,1.635-.287,2.488-.9-.411-1.586-.57-1.859-.273-1.158,1.272,0,5.661,0,5.661s-5.651,0-7.033,1.268-3.916,0-3.916,0-5.184.581-4.838,1.621-2.765,0-2.765,0-2.191.232-2.074,1.728-3.342,2.191-2.882,3.231-2.074,1.728-2.074,1.728-2.533-.114-1.611,1.382h0s-1.382,3.235-2.533,3.456-2.651,2.886-2.651,2.886-4.437.809-4.237,2.195-6.822,11.3-6.822,11.3-2.305,4.752-.691,8.218a68.233,68.233,0,0,1,3.11,7.043c.346,1.268,4.534,6.853,4.5,7.893a24.708,24.708,0,0,0,2.45,4.292l-.415.429-.909.937s-2.882,7.161.574,7.506c2.92.29,5.018.5,6.083.211a1.458,1.458,0,0,0,.484-.211l.041-.031c1.258,1.856,2.15,3.152,2.15,3.152s.124-.183.346-.5l.346.494s.276-.394.746-1.037c-.152,3.142-.173,6.238-.173,6.238s1.5-.232.809,6.7,4.147,12.587,4.147,12.587V266.4h0a6.891,6.891,0,0,0,.048.691,20.966,20.966,0,0,0,1.794,7.258c1.614,3,0,10.855,0,10.855s-.107,6.407.28,14.4c0,.218.024.442.035.664-6.988,5.841-14.484,13.582-14.484,13.582a3.8,3.8,0,0,1,1.037.467l-.418.536-1.9,2.347h0l-1.472,1.818h0l2.333,7.185,2.547-1s1.382,2.395,1.092,4.019a1.728,1.728,0,0,1-.346.805,1.017,1.017,0,0,0-.18.4c-.667,2.6,2.115,13.824,6.528,14.311a1.546,1.546,0,0,0,1.977-.854,5.954,5.954,0,0,0-.29-3.48s-2.333-2.813-.823-5.844c.885-1.773,2.347-4.147,3.4-5.823l.435-.691c.95,1.2,1.534,1.97,1.534,1.97l3.394-3.649c.073.156.145.308.221.453a10.846,10.846,0,0,0,.878,1.458l2.3,9.127.93-.207c-.021.221-.035.456-.048.691a11.429,11.429,0,0,0,.757,5.281,3.146,3.146,0,0,0,3.086,1.932c5.357-.131,6.912-3.031,6.912-3.031v-7.258l1.842-.411s-.135-15.946-.608-24.838c0-.2-.021-.387-.031-.574v-.079l11.83-12.721.909-.363a12.291,12.291,0,0,0,7.721-10.741,36.994,36.994,0,0,1,.919-7.852c.919-3.58.117-22.177-1.611-26.794a47.092,47.092,0,0,1-2.305-9.822s1.728-2.419,0-4.434a8.853,8.853,0,0,1-1.21-1.977l2.25-.37,1.3-.214.691-.117c-.346,3.055-.4,5.4.415,5.962,2.537,1.728,11.059-4.044,11.059-4.044-3.11,0-4.838-23.214-4.206-23.791s1.576-12.21.75-14.284,2.9-11.332,2.9-11.332l.574-.85h0s13.6,5.934,15.092,7.071,6.221-2.765,7.026-1.255,5.875,3.76,5.875,3.76,7.489-.757,8.294,1.092,5.647,6.179,5.647,6.179a26.387,26.387,0,0,1,.183-3.038c.1.238.2.48.3.726,2.295,5.429,6.114,12.3,9.653,8.605C444.005,204.107,440.954,196.338,438.994,192.422ZM336.528,216.96v.066L336.5,217Zm-2.682-26.639-1.465,15.452-2.879,2.982-.346.366-2.976-3.238s-1.5-.691,0-1.963-2.533-4.147-2.533-4.147-.118-2.074,1.382-2.654,3.456-4.389,3.456-4.389l5.416-2.765h0Zm19.271,79.086a1.832,1.832,0,0,1,.346-.252c.646-.366,1.061.035,1.275.74a5.958,5.958,0,0,1-.245,3.553c-.805,1.849,1.154,9.241,1.154,9.241s-2.537,1.151-3,3.349a2.282,2.282,0,0,1-.346.753c-.031-.194-.059-.38-.086-.56-.225-1.382-.346-2.274-.346-2.274a14.716,14.716,0,0,1-.232-5.426c.366-2.222,1.106-6.736,1.382-8.446.069-.415.107-.664.111-.691Z" transform="translate(-98.399 -113.727)" fill="url(#a)"/><path d="M483.654,220.978l.746-.5,2.1,4.441-.809.95H483.25s.086-2.419.145-2.506S483.654,220.978,483.654,220.978Z" transform="translate(-212.874 -177.816)" fill="#464353"/><path d="M422.2,731.27v9.5s-1.555,2.893-6.912,3.024a3.145,3.145,0,0,1-3.086-1.925,11.522,11.522,0,0,1-.757-5.27,20.738,20.738,0,0,1,.259-2.44Z" transform="translate(-165.871 -512.079)" fill="#3f3d56"/><path d="M422.245,731.27v2.941L411.49,736.6a20.725,20.725,0,0,1,.259-2.44Z" transform="translate(-165.914 -512.079)" opacity="0.1"/><path d="M403.663,601.8l-13.478,3-2.3-9.1a11.019,11.019,0,0,1-.878-1.455c-.149-.29-.294-.6-.432-.919-2.509-5.74-3.625-16.094-4.1-24.9-.024-.446-.048-.888-.069-1.324-.387-7.97-.28-14.363-.28-14.363s1.614-7.835,0-10.828a20.983,20.983,0,0,1-1.794-7.258c-.035-.439-.048-.691-.048-.691l.249-.653,1.016-2.689h11.177l6.5,5.5.988.836-.111.691c-.28,1.707-1.02,6.221-1.382,8.426a14.643,14.643,0,0,0,.232,5.412s.135.878.346,2.271c.052.346.111.712.176,1.109.826,5.108,2.374,14.436,3.034,16.665a25.3,25.3,0,0,1,.467,4.223c.028.415.052.847.076,1.3C403.528,585.9,403.663,601.8,403.663,601.8Z" transform="translate(-145.49 -380.766)" fill="#514e7f"/><path d="M423.678,758.49v.1s-1.555,2.893-6.912,3.024a3.145,3.145,0,0,1-3.086-1.925A13.387,13.387,0,0,0,423.678,758.49Z" transform="translate(-167.347 -529.892)" opacity="0.1"/><path d="M667.03,338.08c-3.553,3.688-7.354-3.169-9.653-8.585-1.289-3.048-2.1-5.644-2.1-5.644l9.456-4s.581.923,1.31,2.385C668,326.14,671.056,333.888,667.03,338.08Z" transform="translate(-325.451 -242.844)" fill="#f8cfd5"/><path d="M454.816,199.808a43.14,43.14,0,0,0,.764,10.209s-19.236,2.074-17.508-.919c1.013-1.756,1.669-6.39,2.036-9.932.266-2.509.384-4.469.384-4.469s18.431-7.372,15.666-1.151A18.285,18.285,0,0,0,454.816,199.808Z" transform="translate(-183.237 -158.558)" fill="#f8cfd5"/><path d="M461.755,241.052l-2.585,30.872,11.864-1.956-2.074-25.46.691-6.8Z" transform="translate(-188.552 -150.309)" fill="#464353"/><path d="M471.028,270.108l-5.153.85-6.715,1.106.473-5.633,2.115-25.239,2.692-1.14,1.908-.805,3.3-1.4-.691,6.8Z" transform="translate(-188.545 -150.4)" opacity="0.1"/><path d="M349.439,696.754c-1.51,3.024.823,5.83.823,5.83a5.875,5.875,0,0,1,.29,3.456c-.48,1.344-1.977.85-1.977.85-4.707-.518-7.558-13.216-6.349-14.671s-.736-4.8-.736-4.8l-2.547.992-2.333-7.168,1.472-1.814,1.9-2.343,1.289-1.59,12.874,13.433s-.549.826-1.306,2.011C351.785,692.607,350.323,694.992,349.439,696.754Z" transform="translate(-116.912 -475.583)" fill="#3f3d56"/><path d="M407.2,622.9l-16.05,17.214c-2.813-5.495-4.023-16.52-4.534-25.827a44.035,44.035,0,0,1,8.059-5.664s7.389-5.346,8.948-7.911c.826,5.108,2.374,14.436,3.034,16.665A35.613,35.613,0,0,1,407.2,622.9Z" transform="translate(-149.639 -426.64)" opacity="0.1"/><path d="M374.91,423.878l-18.69-2.81,1.016-2.689h11.177Z" transform="translate(-121.181 -268.54)" opacity="0.1"/><path d="M407.011,619.5,390.605,637.1c-2.523-5.74-3.639-16.094-4.116-24.9-.024-.446-.048-.888-.069-1.324a44.778,44.778,0,0,1,8.128-5.723s6.895-4.987,8.771-7.638c.052.346.111.712.176,1.109.826,5.108,2.374,14.436,3.034,16.665A27.583,27.583,0,0,1,407.011,619.5Z" transform="translate(-149.508 -424.546)" opacity="0.1"/><path d="M360.543,688.953s-.549.826-1.306,2.011c-2.747-3.473-9.262-11.47-12.856-13.855l1.289-1.59Z" transform="translate(-123.305 -475.596)" opacity="0.1"/><path d="M401.076,461a36.841,36.841,0,0,0-.919,7.835,12.257,12.257,0,0,1-7.721,10.714l-.909.346L360.078,513.63S348.442,498.424,344.64,497.5c0,0,15.32-15.783,22.578-19.239,0,0,8.757-6.335,9.217-8.522s3-3.342,3-3.342-1.96-7.372-1.154-9.217a5.924,5.924,0,0,0,.245-3.542c-.214-.691-.629-1.1-1.275-.74a1.835,1.835,0,0,0-.346.252l-19.927-3v-10.24s-4.838-5.644-4.147-12.556-.809-6.68-.809-6.68.073-11.674,1.058-12.649,10.447-5.44,10.447-5.44l29.666,5.27,1.223,5.675s1.037,4.513,2.765,6.518,0,4.42,0,4.42a46.989,46.989,0,0,0,2.305,9.8C401.211,438.885,402,457.426,401.076,461Z" transform="translate(-122.167 -296.99)" fill="#514e7f"/><path d="M460.22,193.546a18.356,18.356,0,0,0-1.341,6.262,10.714,10.714,0,0,1-14.709-.643c.266-2.509.384-4.469.384-4.469S462.984,187.325,460.22,193.546Z" transform="translate(-187.299 -158.558)" opacity="0.1"/><path d="M456.855,171.7a10.714,10.714,0,1,1-.3-2.513A10.714,10.714,0,0,1,456.855,171.7Z" transform="translate(-181.578 -138.877)" fill="#f8cfd5"/><path d="M417.127,238.286s-7.7-3.57-8.18-4.033S392.493,274.8,392.493,274.8L388,295.2s23.96,10.25,29.144,8.868,5.644,0,5.644,0,5.3-29.721,7.029-32.369-1.614-29.607-1.614-29.607l-5.989-7.838Z" transform="translate(-150.542 -186.827)" opacity="0.1"/><path d="M417.127,234.286s-7.7-3.57-8.18-4.033S392.493,270.8,392.493,270.8L388,291.2s23.96,10.25,29.144,8.868,5.644,0,5.644,0,5.3-29.721,7.029-32.369-1.614-29.607-1.614-29.607l-5.989-7.838Z" transform="translate(-150.542 -184.209)" opacity="0.1"/><path d="M429.777,269.7a22.868,22.868,0,0,0-1.451,4.621c-.408,1.645-.85,3.6-1.3,5.713-2.039,9.514-4.272,22.039-4.272,22.039s-.142-.422-1.14-.567a11.852,11.852,0,0,0-4.493.567c-5.184,1.382-29.148-8.871-29.148-8.871l.691-3.11,3.8-17.28s16.015-41.012,16.475-40.549c.28.28,3.273,1.728,5.554,2.8,1.455.691,2.627,1.227,2.627,1.227l4.838-3.822.266-.211,5.962,7.835S431.5,267.05,429.777,269.7Z" transform="translate(-150.522 -185.524)" fill="#f8a02e"/><path d="M412.743,240.306c.691,2.658-.919,7.026-.919,7.026s-5.53,13.6-7.143,19.879-10.845,18.946-10.845,18.946-1.355,1.358-3.252,3.249c-.211.211-.432.429-.653.657l3.8-17.28s16.015-41.012,16.475-40.549c.28.28,3.273,1.728,5.554,2.8C414.333,236.335,412.283,238.547,412.743,240.306Z" transform="translate(-151.805 -185.505)" opacity="0.1"/><path d="M374.168,232.618c.691,2.658-.919,7.026-.919,7.026s-5.53,13.6-7.144,19.879-10.845,18.946-10.845,18.946-1.355,1.358-3.252,3.249c-.225.225-.46.456-.691.691-3.7,3.688-8.913,8.858-10.541,10.368-.238.225-.4.37-.47.418a1.457,1.457,0,0,1-.484.211c-1.064.29-3.162.079-6.083-.211-3.456-.346-.574-7.486-.574-7.486l.909-.937.829-.857,9.414-9.687.691-.729,2.879-2.969,1.465-15.414.035-.37s-.429-.978-1.089-2.471c-1.759-4.04-5.215-11.837-6.48-14.356-.145-.294-.259-.511-.346-.646,0-.017-.017-.035-.028-.048-.923-1.5,1.61-1.382,1.61-1.382s2.537-.691,2.074-1.728,3-1.728,2.882-3.224,2.074-1.728,2.074-1.728,3.11,1.037,2.765,0,4.838-1.614,4.838-1.614,2.533,1.268,3.916,0,7.054-1.265,7.054-1.265-1.158-4.379,0-5.647,9.839,5.647,9.839,5.647S373.477,229.964,374.168,232.618Z" transform="translate(-113.921 -177.817)" fill="#464353"/><path d="M370.61,413.61s9.563,13.478,16.243,9.1-8.986-15.783-8.986-15.783Z" transform="translate(-139.162 -299.83)" opacity="0.1"/><path d="M370.61,411.61s9.563,13.478,16.243,9.1-8.986-15.783-8.986-15.783Z" transform="translate(-139.162 -298.521)" fill="#f8cfd5"/><path d="M492.173,306.035c.729-6.362,2.844-15.922,1.12-18.821-.854-1.438-1.486-4.178-1.949-7.178-.249-1.614-.446-3.3-.6-4.908-.422-4.254-.556-7.9-.556-7.9s-4.147-18.5-3.342-22.3c.5-2.378-.076-8.336-.581-12.462l.266-.211,5.962,7.835s3.338,26.957,1.61,29.607a22.86,22.86,0,0,0-1.452,4.621l3.3-1.382-.691,6.8,2.074,25.46Z" transform="translate(-214.843 -185.525)" opacity="0.1"/><path d="M486.58,220.48s5.958,4.994,8.225,5.108a6.1,6.1,0,0,1-3.145,3.919s6.221.823,8.526.467,6.335.225,7.14,1.382a7.456,7.456,0,0,0,3.936,2.872,7.082,7.082,0,0,1,2.886,1.614l-10.143,14.975s-3.688,9.217-2.882,11.291-.117,13.71-.75,14.284,1.1,23.732,4.206,23.732c0,0-8.522,5.761-11.059,4.033s3.228-20.39.691-24.655-3.11-19.982-3.11-19.982-4.147-18.493-3.339-22.294S486.58,220.48,486.58,220.48Z" transform="translate(-215.053 -177.816)" fill="#464353"/><path d="M666.045,322.228c-3.079-.961-7.8-.988-8.668,7.258-1.289-3.048-2.1-5.644-2.1-5.644l9.456-4S665.316,320.766,666.045,322.228Z" transform="translate(-325.451 -242.838)" opacity="0.1"/><path d="M534.615,262.93l5.651.691s1.728,2.305,3.335,2.305S546.479,268,546.479,268s2.305,1.265,3.8.919,7.717-.916,8.64.062,6.912,1.9,6.912,1.9,2.305,3.57,4.379,3.57,13.592,8.412,13.938,11.4c0,0-11.4-7.258-11.519,8.7,0,0-4.838-4.32-5.647-6.162s-8.294-1.092-8.294-1.092-5.066-2.25-5.875-3.746-5.53,2.385-7.026,1.248-15.092-7.054-15.092-7.054l-4.206-7.9Z" transform="translate(-241.17 -205.596)" fill="#464353"/><circle cx="0.978" cy="0.978" r="0.978" transform="translate(266.412 69.375)" fill="#3f3d56"/><circle cx="0.978" cy="0.978" r="0.978" transform="translate(265.434 89.796)" fill="#3f3d56"/><circle cx="0.978" cy="0.978" r="0.978" transform="translate(266.412 79.048)" fill="#3f3d56"/><circle cx="0.978" cy="0.978" r="0.978" transform="translate(263.589 100.544)" fill="#3f3d56"/><path d="M350.569,713.5c-.48,1.344-1.977.85-1.977.85-4.707-.518-7.558-13.216-6.349-14.671s-.753-4.814-.753-4.814l-2.547.992-2.333-7.168,1.472-1.814c1.465,2.54,3.563,6.193,4.057,7.126a13.039,13.039,0,0,1,1.3,6.221C343.356,702.473,345.962,713.214,350.569,713.5Z" transform="translate(-116.912 -483.03)" opacity="0.1"/><path d="M456.583,169.2c-.235-.079-.47-.173-.691-.266a4.494,4.494,0,0,1-2.1-1.382c-.439-.643-.581-1.548-1.265-1.915-.788-.422-1.728.149-2.582.346a5.415,5.415,0,0,1-3.062-.408c-1.472-.543-3.529-1.541-5.039-.508-1.175.8-.719,2.5-1.02,3.715-.467,1.883-2.468,3.11-2.844,5.015-.169.84-.059,1.866-.74,2.388a1.762,1.762,0,0,1-.664.29,10.714,10.714,0,1,1,20.02-7.258Z" transform="translate(-181.603 -138.901)" opacity="0.1"/><path d="M436.77,141.285a5.369,5.369,0,0,0,3.062.4c.867-.2,1.79-.774,2.578-.346.691.37.829,1.272,1.265,1.915a4.362,4.362,0,0,0,2.108,1.382,5.989,5.989,0,0,0,1.877.525,2.125,2.125,0,0,0,1.763-.667,2.733,2.733,0,0,0,.062-2.744,6.771,6.771,0,0,1-.847-2.734c.045-1.14.871-2.132.94-3.269a3.655,3.655,0,0,0-2.395-3.283c-1.182-.522-2.533-.667-3.615-1.382-1.234-.809-1.911-2.212-2.824-3.373a6.448,6.448,0,0,0-5.53-2.709c-1.31.149-2.5.833-3.8,1.1-1.98.411-4.075-.187-6.045.273a2.074,2.074,0,0,0-1.23.674,2.737,2.737,0,0,0-.021,2.34,5.412,5.412,0,0,1-.218,4.237c-.864,1.4-2.7,1.991-3.5,3.428a3.041,3.041,0,0,0-.079,2.765c.38.795,1.116,1.441,1.23,2.316a5.569,5.569,0,0,1-.314,1.856,1.655,1.655,0,0,0,.411,1.728c.508.346,1.22.259,1.61.691a1.382,1.382,0,0,1,.183,1.189c-.138.691-.432,1.317-.587,1.994a2.443,2.443,0,0,0,.266,1.994c.67.905,2.025.85,3.11.608a2.168,2.168,0,0,0,.874-.346c.691-.522.57-1.548.74-2.388.377-1.9,2.378-3.135,2.844-5.015.3-1.213-.156-2.917,1.019-3.719C433.238,139.743,435.3,140.742,436.77,141.285Z" transform="translate(-171.502 -115.317)" fill="#464353"/><path d="M463.61,533.93s10.848,6.912,11.194,9.563Z" transform="translate(-200.021 -382.939)" opacity="0.1"/><path d="M462,549.93s12.442,5.989,11.75,8.063Z" transform="translate(-198.967 -393.409)" opacity="0.1"/><path d="M459.61,565.26s7.029,3.688,7.489,5.875Z" transform="translate(-197.403 -403.441)" opacity="0.1"/><path d="M468.28,589.26s4.607,4.033,5.53,3S468.28,589.26,468.28,589.26Z" transform="translate(-203.077 -419.147)" opacity="0.1"/><path d="M449.61,596.6s3.591,5.758,1.863,6.1S449.61,596.6,449.61,596.6Z" transform="translate(-190.859 -423.95)" opacity="0.1"/><path d="M395.269,300.6s-6.107,3.684-4.265,4.607S395.269,300.6,395.269,300.6Z" transform="translate(-152.281 -230.247)" opacity="0.1"/><path d="M396.232,261.26s-6.221,11.4-3.342,10.6S396.232,261.26,396.232,261.26Z" transform="translate(-153.244 -204.503)" opacity="0.1"/><path d="M589.231,294.26s-3.8,4.472-3.11,6.912Z" transform="translate(-280.138 -226.098)" opacity="0.1"/><path d="M614.621,300.6s-5.706,5.066-4.87,5.644Z" transform="translate(-295.602 -230.247)" opacity="0.1"/><path d="M633.943,318.61s-.577,3.332.346,3.456Z" transform="translate(-311.371 -242.033)" opacity="0.1"/><path d="M441.471,509.894c-1.469,1.9-1.469,5.27-2.132,6.653-.363.76-1.172,2.074-1.828,3.138-.214-.691-.629-1.1-1.275-.74-.425-3.169-1.175-8.64-1.417-9.742-.346-1.555,3.456-5.7,3.456-5.7s3.715.778,4.666,2.678S442.939,508,441.471,509.894Z" transform="translate(-181.165 -363.026)" opacity="0.05"/><path d="M360.439,385.061c-4.147.574-11.864,11.633-11.864,11.633s-1.013-1.472-2.419-3.529c-1.769-2.609-4.147-6.165-5.875-8.861l10.126-10.444,1.842,1.984s3.573,3.57,3.573,4.261a6.5,6.5,0,0,0,1.569,1.984C358.735,383.481,360.439,385.061,360.439,385.061Z" transform="translate(-119.314 -278.189)" opacity="0.1"/><path d="M359.686,269.716c-.145-.294-.259-.511-.346-.646l4.465.3,2.367,14.695C364.406,280.032,360.95,272.236,359.686,269.716Z" transform="translate(-131.786 -209.614)" opacity="0.1"/><path d="M355.152,384.191c-3.7,3.688-8.913,8.858-10.541,10.368-.238.225-.4.37-.47.418a1.458,1.458,0,0,1-.484.211c-1.628-2.392-3.95-5.837-5.747-8.64l.829-.857L348.16,376l1.165,1.255s3.573,3.57,3.573,4.261A10.794,10.794,0,0,0,355.152,384.191Z" transform="translate(-117.763 -279.589)" opacity="0.1"/><path d="M331.3,269.276l-5.184-.346s-1.382,3.224-2.533,3.456-2.651,2.879-2.651,2.879-4.437.809-4.244,2.191-6.822,11.27-6.822,11.27-2.305,4.742-.691,8.2a67.846,67.846,0,0,1,3.11,7.026c.346,1.265,4.437,6.8,4.4,7.835s10.458,16.243,10.458,16.243,7.717-11.059,11.864-11.636c0,0-4.607-4.261-4.607-4.952s-3.546-4.261-3.546-4.261l-4.493-4.838s-1.5-.691,0-1.96-2.533-4.147-2.533-4.147-.117-2.074,1.382-2.651,3.456-4.375,3.456-4.375l5.415-2.765Z" transform="translate(-98.582 -209.522)" fill="#464353"/><path d="M317,334.882s6.221-1.265,6.335-.46S317,334.882,317,334.882Z" transform="translate(-104.079 -252.205)" opacity="0.1"/><path d="M332,354.43s5.274.691,5.042,1.818S332,354.43,332,354.43Z" transform="translate(-113.895 -265.474)" opacity="0.1"/><path d="M344.61,297.76s5.07,7.178,5.761,5.692Z" transform="translate(-122.147 -228.389)" opacity="0.1"/><g transform="translate(248.531 12.372)" opacity="0.1"><path d="M431.716,136.345a7.748,7.748,0,0,0-.311-2.478,7.676,7.676,0,0,1-.228-1.037,4.247,4.247,0,0,0,.228,1.728,8.912,8.912,0,0,1,.311,1.787Z" transform="translate(-427.32 -132.83)"/><path d="M502.836,158.24c.135-1.037.847-1.98.912-3.041a2.687,2.687,0,0,0-.021-.529c-.135,1.071-.878,2.022-.919,3.11a2.58,2.58,0,0,0,.028.46Z" transform="translate(-474.203 -147.122)"/><path d="M454.6,171.6a2.125,2.125,0,0,1-1.763.667,5.989,5.989,0,0,1-1.877-.525,4.487,4.487,0,0,1-2.108-1.382c-.439-.643-.581-1.545-1.265-1.915-.788-.422-1.728.149-2.582.346a5.368,5.368,0,0,1-3.059-.4c-1.472-.543-3.532-1.541-5.042-.511-1.175.8-.719,2.506-1.02,3.719-.467,1.88-2.468,3.11-2.844,5.015-.169.84-.059,1.866-.74,2.388a2.163,2.163,0,0,1-.878.346c-1.1.242-2.454.3-3.11-.608a1.849,1.849,0,0,1-.346-.881,2.184,2.184,0,0,0,.346,1.572c.67.905,2.025.85,3.11.608a2.164,2.164,0,0,0,.878-.346c.691-.522.57-1.548.74-2.388.377-1.9,2.378-3.135,2.844-5.015.3-1.213-.155-2.917,1.02-3.719,1.51-1.037,3.57-.031,5.042.511a5.361,5.361,0,0,0,3.059.4c.871-.2,1.794-.774,2.582-.346.691.37.826,1.272,1.265,1.915a4.362,4.362,0,0,0,2.108,1.382,5.989,5.989,0,0,0,1.877.525,2.125,2.125,0,0,0,1.763-.667,2.042,2.042,0,0,0,.373-1.586,1.728,1.728,0,0,1-.373.9Z" transform="translate(-425.209 -155.47)"/><path d="M421.561,166.486c-.114-.874-.85-1.521-1.23-2.315a2.938,2.938,0,0,1-.27-.95,3.01,3.01,0,0,0,.27,1.642c.37.771,1.068,1.407,1.213,2.239a2.157,2.157,0,0,0,.017-.615Z" transform="translate(-420.04 -152.717)"/><path d="M425.671,183.349a1.313,1.313,0,0,0-.2-1.1c-.391-.446-1.134-.346-1.61-.691a1.209,1.209,0,0,1-.453-.823,1.556,1.556,0,0,0,.453,1.514c.453.328,1.22.259,1.61.691A.943.943,0,0,1,425.671,183.349Z" transform="translate(-422.229 -164.182)"/></g><path d="M168.48,706.174s-14.294-.864-12.611,9.155a2.425,2.425,0,0,0,1.272,2.575s.024-.743,1.465-.491a6.569,6.569,0,0,0,1.552.073,3.249,3.249,0,0,0,1.9-.781h0s4.019-1.662,5.581-8.229c0,0,1.154-1.434,1.109-1.8l-2.419,1.037a4.306,4.306,0,0,1,.176,3.186s-.079-3.11-.543-3.052c-.093.017-1.255.6-1.255.6s1.42,3.031.346,5.236c0,0,.408-3.736-.791-5.018l-1.7.992s1.659,3.131.532,5.689c0,0,.29-3.919-.888-5.447l-1.541,1.2s1.559,3.086.608,5.208c0,0-.124-4.565-.94-4.908a9.321,9.321,0,0,0-1.552,1.673s1.064,2.243.4,3.425c0,0-.4-3.041-.74-3.055a10.092,10.092,0,0,0-1.479,3.394,7.345,7.345,0,0,1,1.154-3.587,4.053,4.053,0,0,0-2.053,1.065s.207-1.424,2.385-1.548a9.351,9.351,0,0,1,1.407-1.621,8.839,8.839,0,0,0-3.477.4s1.154-1.341,3.871-.733l1.521-1.241a12.612,12.612,0,0,0-4.057.042s1.382-1.189,4.469-.321l1.652-.988a15.188,15.188,0,0,0-3.878-.346s1.528-.823,4.361.069l1.185-.532s-1.78-.346-2.3-.4-.549-.2-.549-.2a6.19,6.19,0,0,1,3.342.373A15.259,15.259,0,0,0,168.48,706.174Z" transform="translate(39.492 -496.682)" fill="#f8a02e"/><ellipse cx="10.119" cy="1.711" rx="10.119" ry="1.711" transform="translate(188.007 220.386)" fill="#2a0645" opacity="0.26"/></g></svg>