<svg xmlns="http://www.w3.org/2000/svg" xmlns:xlink="http://www.w3.org/1999/xlink" width="261.364" height="228.893" viewBox="0 0 261.364 228.893"><defs><linearGradient id="a" x1="0.5" y1="1" x2="0.5" gradientUnits="objectBoundingBox"><stop offset="0" stop-color="gray" stop-opacity="0.251"/><stop offset="0.54" stop-color="gray" stop-opacity="0.122"/><stop offset="1" stop-color="gray" stop-opacity="0.102"/></linearGradient></defs><g transform="translate(0 -0.008)"><path d="M165.08,480.392l-96.347-.47L59.16,457.468l33.851-2.457-5.9-24.619,66.954-8.678L89.952,399.426l5.663-1.345L198.709,414.9l-5.678,38.42-8.115,21.114Z" transform="translate(-42.507 -286.021)" fill="#f8a02e"/><path d="M187,698.605s5.911-.946,9.458,3.231c0,0-2.6,2.049-8.2-.788Z" transform="translate(-159.296 -514.109)" fill="#f8a02e"/><path d="M178.6,698.51s-3.772,4.642-1.914,9.81c0,0,3.074-1.23,3.409-7.5Z" transform="translate(-151.517 -514.107)" fill="#f8a02e"/><path d="M172.76,667.568s2.364-4.338,11.822,1.734c0,0-1.261,2.916-5.438,2.68S173.863,669.854,172.76,667.568Z" transform="translate(-149.065 -490.796)" fill="#f8a02e"/><path d="M156.852,670.278s-4.906-.563-5.382,10.668c0,0,3.11.645,5.32-2.908S158.093,672.493,156.852,670.278Z" transform="translate(-133.767 -493.818)" fill="#f8a02e"/><path d="M160.44,627.842s2.759-7.645,12.768-2.207c0,0-2.286,7.015-11.744,4.808Z" transform="translate(-140.213 -460.341)" fill="#f8a02e"/><path d="M149.52,588.655s5.2-7.724,14.423-.563c0,0-3.231,7.251-13.635,3.31Z" transform="translate(-132.366 -432.583)" fill="#f8a02e"/><path d="M145.6,551.169s6.069-7.1,15.2,0c0,0-5.754,6.226-15.2,1.813Z" transform="translate(-129.55 -405.974)" fill="#f8a02e"/><path d="M142.24,512.979s6.148-7.409,14.9-.394c0,0-6.936,6.542-14.9,2.128Z" transform="translate(-127.136 -378.348)" fill="#f8a02e"/><path d="M144.2,474.789s6.474-9.537,14.66-3.074c0,0-6.936,8.2-14.66,4.887Z" transform="translate(-128.544 -349.537)" fill="#f8a02e"/><path d="M149.52,436.834s6.857-9.458,14.817-2.207c0,0-8.118,8.2-14.817,3.941Z" transform="translate(-132.366 -322.537)" fill="#f8a02e"/><path d="M156.735,398.881s8.118-8.889,15.2-5.348c0,0-8.459,9.441-15.555,7.707Z" transform="translate(-137.295 -294.377)" fill="#f8a02e"/><path d="M166.024,361.273s9.368-10.888,14.817-7.251c0,0-6.9,8.445-15.482,9.289Z" transform="translate(-143.748 -266.053)" fill="#f8a02e"/><path d="M179.461,325.474s8.2-8.889,14.19-6.682c0,0-7.015,9.221-15.29,9.458Z" transform="translate(-153.088 -241.02)" fill="#f8a02e"/><path d="M194.434,289.293s9.064-8.512,13-7.015c0,0-6.542,9.458-13.4,8.906Z" transform="translate(-164.355 -214.911)" fill="#f8a02e"/><path d="M208.32,250.551s7.8-10.17,12.062-9.382c0,0-4.732,9.067-12.062,10.415Z" transform="translate(-174.615 -185.469)" fill="#f8a02e"/><path d="M221.574,210.207s6.9-7.794,10.623-7.777c0,0-5.444,10.415-10.908,10.319Z" transform="translate(-183.934 -157.666)" fill="#f8a02e"/><path d="M228.417,158.956l6.663-16.236s.332,14.677-7.51,19.248Z" transform="translate(-188.446 -114.763)" fill="#f8a02e"/><path d="M240.075,99.363s1.1-13.559.394-14.663c0,0,4.763,11.273-.439,20.653Z" transform="translate(-197.399 -73.075)" fill="#f8a02e"/><path d="M130.47,635.609s-6.908-4.281-11.38,6.193c0,0,6.148,4.081,12.194-3.521Z" transform="translate(-110.502 -468.289)" fill="#f8a02e"/><path d="M116.612,594.618s-8.473-3.865-12.582,7.071c0,0,6.545,4.5,13.354-4.307Z" transform="translate(-99.681 -438.983)" fill="#f8a02e"/><path d="M105.4,553.479s-6.069-7.1-15.2,0c0,0,5.754,6.226,15.2,1.813Z" transform="translate(-89.744 -407.634)" fill="#f8a02e"/><path d="M103.476,512.979s-6.148-7.409-14.9-.394c0,0,6.936,6.542,14.9,2.128Z" transform="translate(-88.58 -378.348)" fill="#f8a02e"/><path d="M109.266,470.859s-4.312-10.682-13.686-6.089c0,0,5.067,9.472,13.3,7.862Z" transform="translate(-93.61 -345.337)" fill="#f8a02e"/><path d="M116.243,430.977s-4.287-10.868-13.793-5.83c0,0,5.821,9.962,13.371,7.507Z" transform="translate(-98.546 -316.734)" fill="#f8a02e"/><path d="M136.46,381.712s-1.689-11.915-9.57-12.982c0,0,1.672,12.565,8.509,15.13Z" transform="translate(-116.106 -277.155)" fill="#f8a02e"/><path d="M150.115,343.837s-.659-14.356-7.175-14.857c0,0,.22,10.9,6.44,16.889Z" transform="translate(-127.638 -248.594)" fill="#f8a02e"/><path d="M163.833,307.806s-1.942-11.938-8.163-13.4c0,0,.771,11.561,7.547,16.326Z" transform="translate(-136.785 -223.755)" fill="#f8a02e"/><path d="M186.814,271.593s-.065-12.436-3.865-14.263c0,0-2.356,11.259,2.764,15.85Z" transform="translate(-155.997 -197.112)" fill="#f8a02e"/><path d="M197.55,236.819s-.532-12.8-4.467-14.609c0,0-1.345,10.133,3.879,15.448Z" transform="translate(-163.555 -171.878)" fill="#f8a02e"/><path d="M214.68,200.868s-.023-10.415-2.832-12.858c0,0-2.792,11.409,1.365,14.952Z" transform="translate(-176.49 -147.305)" fill="#f8a02e"/><path d="M219.767,154.334,217.034,137s-3.713,14.2,2.863,20.464Z" transform="translate(-180.126 -110.653)" fill="#f8a02e"/><path d="M213.756,104.318s-7.015-11.653-6.871-12.948c0,0,.746,12.214,9.57,18.3Z" transform="translate(-173.582 -77.867)" fill="#f8a02e"/><path d="M209.676,79.471S203.055,62.92,200.06,61.58c0,0,9.458,4.808,10.167,17.418Z" transform="translate(-168.68 -56.463)" fill="#f8a02e"/><path d="M220.013,154.612l-.453-.138c5.587-18.221,6.981-29.837,3.927-32.751l.324-.343C227.05,124.454,225.736,135.944,220.013,154.612Z" transform="translate(-182.691 -99.43)" fill="#444053"/><path d="M164.8,278.7l-.67-.239c.594-1.669,1.233-3.364,1.9-5.033,5.832-14.536,10.8-28.058,13.981-38.44l.583-.281c-3.189,10.4-8.067,24.441-13.905,39C166.024,275.345,165.388,277.031,164.8,278.7Z" transform="translate(-142.864 -180.859)" fill="#444053"/><path d="M161.448,487.249c-.09-.1-9.145-10.3-15.459-27.707a102.512,102.512,0,0,1-6.1-31.746c-.433-13.548,2.41-28.675,7.279-42.417l.529.619c-10.933,30.842-6.59,57.271-.828,73.186,6.246,17.252,15.2,27.338,15.287,27.439Z" transform="translate(-125.415 -289.118)" fill="#444053"/><path d="M567.675,670.36s-6.381,7.789-1.315,19.563l-50.949,22.1-4.889,1.025-2.252-9.852,1.506-12.433v-6.8Z" transform="translate(-390.134 -493.88)" fill="#d5d6db"/><path d="M59.16,576.245l70.518-12.855,93.439,14.885L165.08,599.169Z" transform="translate(-42.507 -404.799)" fill="#f8a02e"/><path d="M59.16,576.245l70.518-12.855,93.439,14.885L165.08,599.169Z" transform="translate(-42.507 -404.799)" fill="#f8a02e"/><path d="M140.964,652.47s-6.6,12.5,1,24.036L246.54,699.165s-6.491-9.953.335-23.769Z" transform="translate(-124.311 -481.026)" fill="#f8a02e"/><path d="M140.964,652.47s-6.6,12.5,1,24.036L246.54,699.165s-6.491-9.953.335-23.769Z" transform="translate(-124.311 -481.026)" opacity="0.1"/><path d="M154.534,667.86s-3.769,9.143,0,15.059" transform="translate(-134.765 -492.084)" opacity="0.1"/><path d="M255.882,754.771l58.38-24.911s3.265.7,1.154,3.1-58.408,24.208-58.408,24.208l-105.7-25.052Z" transform="translate(-133.652 -536.632)" fill="#f8a02e"/><path d="M255.882,754.771l58.38-24.911s3.265.7,1.154,3.1-58.408,24.208-58.408,24.208l-105.7-25.052Z" transform="translate(-133.652 -536.632)" opacity="0.1"/><path d="M499.423,742.86s-5.63,6.756,0,16.889" transform="translate(-381.979 -545.973)" opacity="0.1"/><rect width="26.62" height="0.281" transform="translate(119.448 205.197) rotate(-18.45)" opacity="0.1"/><rect width="32.436" height="0.281" transform="translate(119.439 207.463) rotate(-20.82)" opacity="0.1"/><rect width="37.595" height="0.281" transform="translate(119.608 210.135) rotate(-22.26)" opacity="0.1"/><rect width="43.275" height="0.281" transform="translate(120.014 212.49) rotate(-24.31)" opacity="0.1"/><rect width="47.332" height="0.281" transform="matrix(0.916, -0.401, 0.401, 0.916, 120.327, 213.637)" opacity="0.1"/><rect width="56.64" height="0.281" transform="translate(120.982 215.562) rotate(-23.36)" opacity="0.1"/><path d="M152.23,587.355l49.541-10.415,30.181,5.77-40.6,13.089Z" transform="translate(-109.38 -414.535)" fill="#fff" opacity="0.3"/><path d="M582.045,659.69s2.562,1.033,1.058,2.629S524,680.585,524,680.585Z" transform="translate(-401.436 -486.214)" fill="#f8a02e"/><path d="M666.972,574.18s-6.378,7.786-1.312,19.563l-50.949,22.1-4.889,1.03-2.252-9.852,1.529-12.43v-6.8Z" transform="translate(-461.482 -424.774)" fill="#d5d6db"/><path d="M158.46,480.063l70.515-12.853,93.442,14.885L264.38,502.99Z" transform="translate(-113.856 -335.692)" fill="#3a3768"/><path d="M240.219,556.29s-6.6,12.5,1,24.036l104.572,22.66s-6.488-9.962.346-23.771Z" transform="translate(-195.626 -411.919)" fill="#3a3768"/><path d="M240.219,556.29s-6.6,12.5,1,24.036l104.572,22.66s-6.488-9.962.346-23.771l-33.069-7.158Z" transform="translate(-195.626 -411.919)" opacity="0.1"/><path d="M253.827,571.68s-3.766,9.14,0,15.059" transform="translate(-206.11 -422.977)" opacity="0.1"/><path d="M355.172,658.591l58.383-24.911s3.262.7,1.151,3.1S356.3,660.984,356.3,660.984L250.6,635.932Z" transform="translate(-204.994 -467.525)" fill="#3a3768"/><path d="M355.172,658.591l58.383-24.911s3.262.7,1.151,3.1S356.3,660.984,356.3,660.984L250.6,635.932Z" transform="translate(-204.994 -467.525)" opacity="0.1"/><path d="M598.713,646.68s-5.63,6.756,0,16.889" transform="translate(-453.321 -476.866)" opacity="0.1"/><rect width="26.62" height="0.281" transform="translate(147.399 178.127) rotate(-18.45)" opacity="0.1"/><rect width="32.436" height="0.281" transform="translate(147.393 180.392) rotate(-20.82)" opacity="0.1"/><rect width="37.595" height="0.281" transform="translate(147.558 183.059) rotate(-22.26)" opacity="0.1"/><rect width="43.275" height="0.281" transform="translate(147.968 185.415) rotate(-24.31)" opacity="0.1"/><rect width="47.332" height="0.281" transform="matrix(0.916, -0.401, 0.401, 0.916, 148.276, 186.558)" opacity="0.1"/><rect width="56.64" height="0.281" transform="translate(148.933 188.483) rotate(-23.36)" opacity="0.1"/><path d="M251.53,491.175l49.541-10.415,30.181,5.77-40.6,13.089Z" transform="translate(-180.728 -345.428)" fill="#fff" opacity="0.45"/><path d="M681.367,563.51s2.559,1.033,1.058,2.626S623.33,584.4,623.33,584.4Z" transform="translate(-472.806 -417.107)" fill="#3a3768"/><path d="M676.393,464.15s-6.381,13.981-1.315,25.756l-50.949,15.9-4.878,1.033L617,496.991l1.506-12.433v-6.8Z" transform="translate(-468.258 -345.715)" fill="#d5d6db"/><path d="M167.89,370.035l70.518-12.855,93.442,14.885L273.81,392.96Z" transform="translate(-120.632 -256.634)" fill="#f8a02e"/><path d="M249.674,446.26s-6.606,12.5.994,24.036l104.572,22.66s-6.491-9.962.343-23.769Z" transform="translate(-202.415 -332.861)" fill="#f8a02e"/><path d="M249.674,446.26s-6.606,12.5.994,24.036l104.572,22.66s-6.491-9.962.343-23.769Z" transform="translate(-202.415 -332.861)" opacity="0.1"/><path d="M263.264,461.65s-3.769,9.143,0,15.059" transform="translate(-212.889 -343.919)" opacity="0.1"/><path d="M364.612,554.31l58.38-18.719s3.265.7,1.154,3.1S365.737,556.7,365.737,556.7L260.04,531.65Z" transform="translate(-211.777 -394.215)" fill="#f8a02e"/><path d="M364.612,554.31l58.38-18.719s3.265.7,1.154,3.1S365.737,556.7,365.737,556.7L260.04,531.65Z" transform="translate(-211.777 -394.215)" opacity="0.1"/><path d="M608.153,536.65s-5.63,6.756,0,16.889" transform="translate(-460.103 -397.808)" opacity="0.1"/><rect width="26.62" height="0.281" transform="translate(150.057 147.154) rotate(-18.45)" opacity="0.1"/><rect width="32.436" height="0.281" transform="translate(150.049 149.421) rotate(-20.82)" opacity="0.1"/><rect width="37.595" height="0.281" transform="translate(150.212 152.09) rotate(-22.26)" opacity="0.1"/><rect width="43.275" height="0.281" transform="translate(150.625 154.443) rotate(-24.31)" opacity="0.1"/><rect width="47.332" height="0.281" transform="matrix(0.916, -0.401, 0.401, 0.916, 150.935, 155.589)" opacity="0.1"/><rect width="56.64" height="0.281" transform="translate(151.591 157.516) rotate(-23.36)" opacity="0.1"/><path d="M260.96,381.145,310.5,370.73l30.181,5.77-40.6,13.089Z" transform="translate(-187.504 -266.37)" fill="#fff" opacity="0.3"/><path d="M690.8,453.48s2.561,1.033,1.058,2.629-59.095,18.266-59.095,18.266Z" transform="translate(-479.582 -338.049)" fill="#f8a02e"/><path d="M374.627,149.885s-10.7-.645-9.447,6.86a1.831,1.831,0,0,0,.951,1.928s.02-.563,1.1-.369a4.8,4.8,0,0,0,1.165.056,2.426,2.426,0,0,0,1.421-.585h0s3.009-1.244,4.18-6.165c0,0,.867-1.072.844-1.348l-1.813.771a3.248,3.248,0,0,1,.132,2.387s-.059-2.339-.408-2.286c-.07,0-.937.453-.937.453s1.061,2.272.259,3.921c0,0,.3-2.8-.591-3.758l-1.272.743s1.241,2.345.4,4.259c0,0,.217-2.936-.667-4.079l-1.154.9s1.168,2.311.456,3.9c0,0-.093-3.417-.7-3.676a6.956,6.956,0,0,0-1.163,1.255s.8,1.689.3,2.564c0,0-.3-2.277-.563-2.288a7.577,7.577,0,0,0-1.109,2.533,5.478,5.478,0,0,1,.864-2.685,3.015,3.015,0,0,0-1.537.8s.155-1.067,1.787-1.16a6.921,6.921,0,0,1,1.053-1.213,6.59,6.59,0,0,0-2.607.3,2.953,2.953,0,0,1,2.9-.563l1.126-.929a9.712,9.712,0,0,0-3.04.031s1.044-.89,3.347-.242l1.241-.74a11.28,11.28,0,0,0-2.9-.251,4.459,4.459,0,0,1,3.268.051l.884-.4s-1.331-.262-1.723-.3-.411-.149-.411-.149a4.647,4.647,0,0,1,2.505.281A11.17,11.17,0,0,0,374.627,149.885Z" transform="translate(-287.249 -119.901)" fill="#f8a02e"/><path d="M909.227,259.465s-10.7-.645-9.447,6.86a1.831,1.831,0,0,0,.951,1.928s.02-.563,1.1-.369a4.961,4.961,0,0,0,1.165.056,2.418,2.418,0,0,0,1.407-.586h0s3.012-1.244,4.18-6.164c0,0,.867-1.072.844-1.348l-1.807.771a3.248,3.248,0,0,1,.132,2.387s-.059-2.339-.405-2.286c-.07,0-.94.453-.94.453s1.061,2.272.262,3.921c0,0,.3-2.8-.594-3.758l-1.272.743s1.241,2.345.4,4.259c0,0,.217-2.936-.667-4.079l-1.151.9s1.165,2.311.453,3.9c0,0-.093-3.417-.7-3.676a7.059,7.059,0,0,0-1.162,1.255s.8,1.689.3,2.564c0,0-.3-2.277-.563-2.288a7.577,7.577,0,0,0-1.109,2.533,5.46,5.46,0,0,1,.867-2.685,3.029,3.029,0,0,0-1.54.8s.158-1.067,1.787-1.16a7.031,7.031,0,0,1,1.053-1.216,6.614,6.614,0,0,0-2.606.3,2.953,2.953,0,0,1,2.9-.563l1.126-.929a9.714,9.714,0,0,0-3.04.031s1.042-.889,3.347-.242l1.239-.74a11.281,11.281,0,0,0-2.9-.25,4.459,4.459,0,0,1,3.268.051l.887-.4s-1.334-.262-1.726-.3-.411-.149-.411-.149a4.614,4.614,0,0,1,2.505.281A11.351,11.351,0,0,0,909.227,259.465Z" transform="translate(-671.367 -198.636)" fill="#f8a02e" opacity="0.1"/><path d="M432.838,298.743s-4.661-9.663-10.6-4.9a1.828,1.828,0,0,0-1.219,1.771s.493-.256.844.78a4.99,4.99,0,0,0,.518,1.042,2.429,2.429,0,0,0,1.208.957h0s2.553,2.021,7.42.642a4.815,4.815,0,0,0,1.582.07l-1.554-1.2a3.267,3.267,0,0,1-2.021,1.278s2.015-1.191,1.8-1.467c-.045-.056-.844-.6-.844-.6s-1.467,2.035-3.3,2.139c0,0,2.59-1.1,2.989-2.35l-1.267-.749s-1.444,2.229-3.524,2.426c0,0,2.668-1.241,3.234-2.57l-1.345-.563s-1.45,2.145-3.184,2.3c0,0,2.939-1.748,2.865-2.409a7.132,7.132,0,0,0-1.664-.4s-1.075,1.517-2.089,1.517c0,0,1.838-1.376,1.725-1.6a7.426,7.426,0,0,0-2.759.281,5.48,5.48,0,0,1,2.767-.563,3.032,3.032,0,0,0-1.447-.954s1.008-.383,1.883.994a6.945,6.945,0,0,1,1.573.327,6.609,6.609,0,0,0-1.531-2.125s1.3.262,1.894,2.252l1.365.54a9.389,9.389,0,0,0-1.509-2.637s1.284.476,1.844,2.815l1.25.721a11.136,11.136,0,0,0-1.2-2.657,4.46,4.46,0,0,1,1.548,2.877l.78.58s-.422-1.292-.563-1.652-.07-.433-.07-.433a4.619,4.619,0,0,1,.98,2.322A10.5,10.5,0,0,0,432.838,298.743Z" transform="translate(-327.445 -222.399)" fill="#f8a02e" opacity="0.1"/><path d="M816.619,195.123s-4.659-9.663-10.6-4.9a1.832,1.832,0,0,0-1.219,1.771s.5-.253.844.78a4.878,4.878,0,0,0,.521,1.044,2.415,2.415,0,0,0,1.2.954h0s2.556,2.021,7.42.645a4.838,4.838,0,0,0,1.585.068l-1.545-1.2a3.266,3.266,0,0,1-2.018,1.281s2.013-1.193,1.8-1.469c-.045-.056-.844-.6-.844-.6s-1.464,2.035-3.3,2.139c0,0,2.593-1.1,2.992-2.348l-1.286-.743s-1.441,2.227-3.524,2.426c0,0,2.669-1.244,3.237-2.573l-1.348-.563s-1.45,2.148-3.181,2.3c0,0,2.936-1.748,2.863-2.407a6.962,6.962,0,0,0-1.661-.4s-1.075,1.514-2.091,1.514c0,0,1.841-1.376,1.728-1.6a7.443,7.443,0,0,0-2.761.281,5.478,5.478,0,0,1,2.767-.563,3.014,3.014,0,0,0-1.444-.954s1.008-.383,1.883.994a6.971,6.971,0,0,1,1.574.329,6.588,6.588,0,0,0-1.534-2.128s1.3.265,1.894,2.266l1.368.54a9.4,9.4,0,0,0-1.509-2.64s1.284.476,1.841,2.815l1.253.721a11.241,11.241,0,0,0-1.2-2.657,4.446,4.446,0,0,1,1.548,2.877l.78.58s-.419-1.292-.563-1.652-.07-.431-.07-.431a4.631,4.631,0,0,1,.977,2.322A10.809,10.809,0,0,0,816.619,195.123Z" transform="translate(-603.197 -147.946)" fill="#f8a02e" opacity="0.1"/><path d="M869.487,364.926s-4.659-9.666-10.6-4.9a1.832,1.832,0,0,0-1.219,1.771s.5-.253.844.78a4.881,4.881,0,0,0,.518,1.044,2.416,2.416,0,0,0,1.2.954h0s2.556,2.024,7.423.645c0,0,1.357.234,1.582.068l-1.554-1.2a3.266,3.266,0,0,1-2.021,1.281s2.013-1.194,1.8-1.469c-.045-.056-.845-.6-.845-.6s-1.464,2.035-3.3,2.142c0,0,2.592-1.1,2.992-2.35l-1.269-.749s-1.441,2.229-3.524,2.426c0,0,2.669-1.244,3.237-2.573l-1.348-.563s-1.45,2.145-3.181,2.3c0,0,2.939-1.748,2.866-2.41a7,7,0,0,0-1.664-.4s-1.075,1.514-2.091,1.514c0,0,1.841-1.376,1.728-1.6a7.442,7.442,0,0,0-2.761.281,5.5,5.5,0,0,1,2.77-.563,3.009,3.009,0,0,0-1.447-.954s1.008-.386,1.883.994a6.946,6.946,0,0,1,1.574.327,6.639,6.639,0,0,0-1.531-2.128s1.3.265,1.894,2.266l1.365.54a9.349,9.349,0,0,0-1.509-2.638s1.284.473,1.841,2.815l1.253.718a11.24,11.24,0,0,0-1.2-2.657,4.457,4.457,0,0,1,1.551,2.88l.78.563s-.422-1.292-.563-1.652-.07-.431-.07-.431a4.6,4.6,0,0,1,.977,2.322A11.4,11.4,0,0,0,869.487,364.926Z" transform="translate(-641.177 -269.951)" fill="#f8a02e" opacity="0.1"/><ellipse cx="6.471" cy="0.723" rx="6.471" ry="0.723" transform="translate(50.375 219.288)" fill="#f8a02e" opacity="0.1"/><ellipse cx="6.471" cy="0.723" rx="6.471" ry="0.723" transform="translate(7.952 206.993)" fill="#f8a02e" opacity="0.1"/><ellipse cx="6.471" cy="0.723" rx="6.471" ry="0.723" transform="translate(82.712 227.454)" fill="#f8a02e" opacity="0.1"/><ellipse cx="6.471" cy="0.723" rx="6.471" ry="0.723" transform="translate(248.422 209.667)" fill="#f8a02e" opacity="0.1"/><ellipse cx="6.471" cy="0.723" rx="6.471" ry="0.723" transform="translate(194.571 206.157)" fill="#f8a02e" opacity="0.1"/><ellipse cx="7.654" cy="1.315" rx="7.654" ry="1.315" transform="translate(158.552 222.094)" fill="#f8a02e" opacity="0.1"/><path d="M673.99,790.14s-10.657,5.506-5.151,11.991a2.06,2.06,0,0,0,2.015,1.309s-.3-.546.844-.982a5.484,5.484,0,0,0,1.151-.611,2.7,2.7,0,0,0,1.03-1.376h0s2.179-2.916.49-8.312a5.349,5.349,0,0,0,.028-1.773l-1.295,1.776a3.626,3.626,0,0,1,1.492,2.218s-1.407-2.215-1.689-1.97c-.062.051-.642.971-.642.971s2.32,1.574,2.491,3.617c0,0-1.306-2.863-2.716-3.271l-.808,1.441s2.533,1.542,2.815,3.862c0,0-1.472-2.942-2.975-3.535l-.594,1.523s2.443,1.554,2.668,3.485c0,0-2.044-3.229-2.778-3.127a7.8,7.8,0,0,0-.4,1.872s1.725,1.154,1.756,2.288c0,0-1.593-2.013-1.838-1.88a8.483,8.483,0,0,0,.388,3.077,6.074,6.074,0,0,1-.707-3.077,3.379,3.379,0,0,0-1.022,1.644s-.459-1.112,1.053-2.137a7.788,7.788,0,0,1,.318-1.768,7.419,7.419,0,0,0-2.331,1.779s.256-1.461,2.474-2.187l.563-1.542a10.49,10.49,0,0,0-2.9,1.768s.492-1.45,3.077-2.145l.766-1.408a12.924,12.924,0,0,0-2.933,1.408,4.985,4.985,0,0,1,3.17-1.821l.622-.887s-1.43.51-1.83.693-.479.093-.479.093a5.176,5.176,0,0,1,2.564-1.165A12.541,12.541,0,0,0,673.99,790.14Z" transform="translate(-504.37 -579.944)" fill="#f8a02e"/><path d="M559.84,149.627c-1.841-5-11.974-5.472-16.371-4.2a131.448,131.448,0,0,1-13.23,2.449l-.228-.217c.456-.135.467-.467.411-.96a15.022,15.022,0,0,1,.028-1.948,4.8,4.8,0,0,0,4.076-.915h0c2.533-1.126,1.852-5.945,2.336-7.262.363-.985.754-6.789.929-9.683h.037l.02-.971c.025-.419.036-.664.036-.664s.248-7.077.732-8.509c.45-1.317.816-7.955.873-9.008V107.6l-.037-.614c.025-.448.037-.946.034-1.469,0-2.407-.251-5.438-.281-5.928v-.256c.02-1.027-.11-6.173-4.487-8.118-1.613-.721-3.552-1.579-5.43-2.415-.484-4.18-1.59-8.338-1.495-12.549,0-.633.056-1.267.118-1.9,0,.183-.02.369-.023.563v1.227c.166-5.267,2.156-10.561,1.97-15.715-.017.5-.054,1.011-.1,1.517a16.362,16.362,0,0,0-.54-5.177,3.064,3.064,0,0,0-.884-1.6,3.64,3.64,0,0,0-1.543-.611,31.02,31.02,0,0,0-4.051-.754,6.256,6.256,0,0,0-.912-1.771c-2.854-3.918-7.082-7.6-12.081-8.445-2.508-.422-5.393-.07-7.1,1.723a5.321,5.321,0,0,0-.5.507c-.918,1.095-1.312,2.533-2.252,3.626-.062.073-.132.141-.2.211-1.841,1.647-4.709,1.99-6.756,3.468a8.108,8.108,0,0,0-1.011.881,17.14,17.14,0,0,0-2.207,2.683,11.127,11.127,0,0,0-2.159,4.188c-.588,3.1,1.52,6.032,1.911,9.148.873,6.972-6.843,13.159-5.382,20.039a9.176,9.176,0,0,0,2.483,4.456C483.566,97.243,481,99.886,481,99.886v.158h-.476l.048.563h-.048l.262,3.054-.262,4.447v.419h.017c.087,1.63.433,7.49.844,8.726.484,1.433.729,8.509.729,8.509s.535,10,1.025,11.324-.205,6.128,2.336,7.262h0a5.349,5.349,0,0,0,2.553,1.058c-.13,1.053-.048,1.816.372,2.055a1.227,1.227,0,0,0,.591.169,6.269,6.269,0,0,0-.459.8,11.924,11.924,0,0,1-2.95-.7c-2.73-1.126-11.791-3.659-14.423-1.878s-8.965,3.4-6.041,10.57,4.287,7.352,4.287,7.352a10.414,10.414,0,0,1,2.339,2.35c.878,1.32,9.061,4.341,11.107,4.341a20.037,20.037,0,0,1,2.6.129s-2.221,1.948-1.925,3.079-.676,10.19-.676,10.19,2.252,2.269,3.215-.707l.034.045c.18.245,1.154,1.351,2.987-.045a16.745,16.745,0,0,1,2.381-1.509l8.872-1.255a25.109,25.109,0,0,1,2.778-.02,5.806,5.806,0,0,0,3.659-1.362c1.838.7,3.9,1.461,4.887,1.74,1.993.563,11.152,3.02,13.295,2.252a2.975,2.975,0,0,0,1.154-.822l2.044.065-.957.191s1.863.031,4.4.065l-.107.062,3.178-.028c4.65.042,9.874.056,10.561-.1a74.182,74.182,0,0,1,8.309,0H554s6.139-1.224,3.606-7.454c-1.948-4.785-7.935-6.176-10.592-6.559.749-.149,1.393-.265,1.821-.332,1.855-.282,5.458-1.97,5.751-2.547s3.313-2.252,4.093-3.206S561.689,154.629,559.84,149.627Zm-50.85,14-.3.1-.2.068-.388.383c-.31-.208-.642-.428-.988-.653C507.72,163.558,508.348,163.594,508.989,163.625Zm26.828,7.932Z" transform="translate(-358.589 -43.42)" fill="url(#a)"/><path d="M686.65,276.385s4.307,11.259,6.756,10.133,1.785-5.911,2.252-7.223.985-11.259.985-11.259.237-7.037.7-8.461c.434-1.309.785-7.91.845-8.948v-.138l-.465-8.163-2.629-.656-6.1,2.252-.844,4.822-.329,1.883-.141.8Z" transform="translate(-518.302 -185.86)" fill="#be6f72"/><path d="M691.69,358.3s4.11,3.364,5.348,3.659,2,2.919,2,2.919" transform="translate(-521.924 -269.661)" opacity="0.1"/><path d="M537.541,278.135s-4.307,11.259-6.756,10.133-1.785-5.911-2.252-7.223-.985-11.259-.985-11.259-.236-7.037-.7-8.461c-.433-1.309-.785-7.91-.844-8.948v-.138l.467-8.163,2.629-.656,6.1,2.252.844,4.822.329,1.883.141.8Z" transform="translate(-402.873 -187.118)" fill="#be6f72"/><rect width="9.613" height="14.983" transform="translate(153.1 30.763)" fill="#3e373a"/><rect width="9.613" height="14.983" transform="translate(153.1 30.763)" opacity="0.1"/><path d="M555.034,404.3s-3.285,3.611-2.066,4.267,9.1,12.948,9.1,12.948,25.9,3.189,30.78-1.6,4.785-13.334,4.785-13.334-3.924.844-4.352.386-2.778-2.671-2.778-2.671S557.286,402.288,555.034,404.3Z" transform="translate(-422.055 -302.071)" fill="#4b4b5b"/><path d="M555.034,404.3s-3.285,3.611-2.066,4.267,9.1,12.948,9.1,12.948,25.9,3.189,30.78-1.6,4.785-13.334,4.785-13.334-3.924.844-4.352.386-2.778-2.671-2.778-2.671S557.286,402.288,555.034,404.3Z" transform="translate(-422.055 -302.071)" opacity="0.02"/><path d="M583.664,178.289l-8.445,6.756-2.553.186-.937.068-15.743,1.154-16.326-1.193-2.429-.177-3.1-.225-6.474-6.193a110.885,110.885,0,0,1,8.6-8.222,17.64,17.64,0,0,1,4.166-2.784l.186-.065a4.634,4.634,0,0,0,1.785-1.244c3.17-3.268,6.1-11.333,6.1-11.333s13.981-7.223,12.293,2.252,6.286,7.133,6.286,7.133l2.629,1.2,1.039.476,2.649,1.213,5.976,2.742C584.053,172.189,583.664,178.289,583.664,178.289Z" transform="translate(-404.066 -121.705)" fill="#be6f72"/><circle cx="12.574" cy="12.574" r="12.574" transform="translate(138.69 15.878)" opacity="0.1"/><path d="M582.491,226.03H526v-.138l.467-8.163a110.881,110.881,0,0,1,8.6-8.222l35.467-1.407,1.65-1.74,5.976,2.742c4.692,2.156,4.315,8.256,4.315,8.256S583.113,224.426,582.491,226.03Z" transform="translate(-402.873 -160.489)" opacity="0.1"/><path d="M582.491,225.03H526v-.138l.467-8.163a110.878,110.878,0,0,1,8.6-8.222l35.467-1.407,1.65-1.74,5.976,2.742c4.692,2.156,4.315,8.256,4.315,8.256S583.113,223.426,582.491,225.03Z" transform="translate(-402.873 -159.771)" fill="#e7c7ca"/><path d="M584.808,187.642s8.912,11.355,20.782-.234,1.315,25.849,1.315,25.849L581.29,216.3Z" transform="translate(-442.6 -145.273)" opacity="0.1"/><path d="M584.808,189.642s8.912,11.355,20.782-.234,1.315,25.849,1.315,25.849L581.29,218.3Z" transform="translate(-442.6 -146.71)" fill="#e7c7ca"/><path d="M587.881,201.814l.943,14.381,1.01,4.785.771,3.659s1.97,28.148,1.407,29.556.282,2.533.4,3.282-.118,2.629-.025,3.474,0,1.219-2.156.918-5.162-.825-5.162-.825-7.6.563-10.226-.374-7.6-.94-7.6-.94-7.507.189-9.945-.093-3.755,3-5.348,2.063,1.875-10.038,3-12.667-1.5-9.289-1.5-9.289l3.378-18.738.752-4.248V203.4l.186-.065a4.632,4.632,0,0,0,1.785-1.244l.844,13.438,26.46.94V201.35" transform="translate(-421.222 -156.89)" opacity="0.1"/><path d="M587.881,199.814l.943,14.381,1.01,4.785.771,3.659s1.97,28.148,1.407,29.556.282,2.533.4,3.282-.118,2.629-.025,3.474,0,1.219-2.156.918-5.162-.825-5.162-.825-7.6.563-10.226-.374-7.6-.94-7.6-.94-7.507.189-9.945-.093-3.755,3-5.348,2.063,1.875-10.038,3-12.667-1.5-9.289-1.5-9.289l3.378-18.738.752-4.248V201.4l.186-.065a4.633,4.633,0,0,0,1.785-1.244l.844,13.438,26.46.94V199.35" transform="translate(-421.222 -155.453)" fill="#e7c7ca"/><path d="M580.874,60.523a3.1,3.1,0,0,0-.844-1.593,3.457,3.457,0,0,0-1.486-.608,29.367,29.367,0,0,0-3.907-.749,6.254,6.254,0,0,0-.844-1.754c-2.759-3.9-6.84-7.569-11.642-8.4-2.514-.436-5.427-.045-7.037,1.937-.884,1.089-1.264,2.533-2.156,3.6-1.72,2.077-4.825,2.334-6.992,3.941a12.954,12.954,0,0,0-2.815,3.257,11.171,11.171,0,0,0-2.08,4.163c-.563,3.071,1.467,6,1.841,9.1.844,6.933-6.587,13.083-5.182,19.924.819,3.989,4.5,6.8,8.315,8.222,1.343.5,2.877,1,3.5,2.294.281.563.329,1.213.594,1.782.889,1.9,3.814,1.97,5.385.588s2.066-3.617,2.252-5.7c.754-9.109-2.894-18.108-2.469-27.239.127-2.761.9-5.894,3.378-7.144,3.33-1.689,7.336,1.126,11,.588a21.823,21.823,0,0,1,1.053,13.317c-.583,2.429-1.59,4.785-1.664,7.29-.11,3.814,1.948,7.3,3.727,10.671a5.679,5.679,0,0,1,.752,2.058,4.961,4.961,0,0,1-.4,2.153c-1.005,2.705-2.739,5.216-2.936,8.1a1.308,1.308,0,0,0,.211.963,1.21,1.21,0,0,0,.726.327c3.04.521,5.669-2.173,7.152-4.878a22.867,22.867,0,0,0,2.821-9.717c.307-5.731-1.748-11.369-1.621-17.106C579.652,73.381,582.6,66.814,580.874,60.523Z" transform="translate(-411.172 -46.173)" opacity="0.1"/><path d="M581.874,59.523a3.1,3.1,0,0,0-.844-1.593,3.458,3.458,0,0,0-1.486-.608,29.36,29.36,0,0,0-3.907-.749,6.251,6.251,0,0,0-.844-1.754c-2.759-3.9-6.84-7.569-11.642-8.4-2.513-.436-5.427-.045-7.037,1.937-.884,1.089-1.264,2.533-2.156,3.6-1.72,2.077-4.825,2.334-6.992,3.941a12.955,12.955,0,0,0-2.815,3.257,11.172,11.172,0,0,0-2.08,4.163c-.563,3.071,1.467,6,1.841,9.1.844,6.933-6.587,13.083-5.182,19.923.819,3.989,4.5,6.8,8.315,8.222,1.343.5,2.877,1,3.5,2.294.282.563.329,1.213.594,1.782.889,1.9,3.814,1.97,5.385.588s2.066-3.617,2.252-5.7c.754-9.109-2.894-18.108-2.469-27.239.127-2.761.9-5.894,3.378-7.144,3.33-1.689,7.336,1.126,11,.588a21.824,21.824,0,0,1,1.053,13.317c-.583,2.429-1.59,4.785-1.664,7.29-.11,3.814,1.948,7.3,3.727,10.671a5.676,5.676,0,0,1,.752,2.058,4.959,4.959,0,0,1-.4,2.153c-1,2.705-2.739,5.216-2.936,8.1a1.309,1.309,0,0,0,.211.963,1.211,1.211,0,0,0,.726.327c3.04.521,5.669-2.173,7.153-4.878a22.868,22.868,0,0,0,2.82-9.717c.307-5.731-1.748-11.369-1.621-17.106C580.652,72.381,583.6,65.814,581.874,59.523Z" transform="translate(-411.891 -45.455)" fill="#3e373a"/><path d="M581.79,472.5l11.167.358-1.6-8.281-8.554.813Z" transform="translate(-418.025 -333.802)" fill="#c3c7d9"/><path d="M660.846,421.882c-.752.937-3.659,2.626-3.941,3.189s-3.752,2.252-5.537,2.533-7.411,1.5-8.445,2.159c-.74.473-6.682,1.97-10.587,2.8a30.06,30.06,0,0,1-3.206.577c-1.689.093-20.171-6.193-20.171-6.193l3.564-3.659.2-.068c1.008-.341,5.663-1.914,8.247-2.663,2.911-.844,6.288-4.315,6.288-4.315s4.971-1.689,5.63-1.877S631.2,407.8,631.2,407.8s10.789-1.5,15.012-2.767,13.981-.8,15.763,4.174S661.609,420.945,660.846,421.882Z" transform="translate(-462.481 -302.809)" fill="#4b4b5b"/><path d="M557.79,497.365s-2.156,2.252-4.315,2.066-9.708.563-9.708.563a15.137,15.137,0,0,0-3.8,2.2c-1.765,1.391-2.7.281-2.877.045l-.031-.045c-.94,2.958-3.1.7-3.1.7s.937-9.007.65-10.133,1.855-3.06,1.855-3.06l2.533-.645,6.418-1.644,9.2,3.189Z" transform="translate(-408.592 -362.435)" fill="#e7c7ca"/><path d="M538.987,493.26l-1.9,13.179-.031-.045c-.94,2.958-3.1.7-3.1.7s.937-9.008.65-10.133,1.855-3.06,1.855-3.06Z" transform="translate(-408.592 -366.631)" opacity="0.1"/><path d="M599,360.08s4.971,1.689,9.289,0" transform="translate(-455.324 -270.94)" opacity="0.1"/><path d="M659.29,371.42s2.063,1.03,3.659,0" transform="translate(-498.644 -279.088)" opacity="0.1"/><path d="M659.29,378.893s3.471.464,4.129-.473" transform="translate(-498.644 -284.117)" opacity="0.1"/><path d="M655.29,393.72s6.519-.844,8.138-1.97" transform="translate(-495.77 -293.695)" opacity="0.1"/><path d="M584.62,391.75s3.659,2.063,6.381,1.97" transform="translate(-444.992 -293.695)" opacity="0.1"/><path d="M632.327,480.522a30.044,30.044,0,0,1-3.206.577c-1.689.093-20.171-6.193-20.171-6.193l3.564-3.659.2-.068c.563.4,1.025.738,1.354,1,1.551,1.222,3.048-.374,3.611-.374s5.441,4.034,5.441,4.034,4.5,1.033,5.255,1.97,3.378.752,3.845,1.407A2.511,2.511,0,0,1,632.327,480.522Z" transform="translate(-462.474 -350.767)" opacity="0.1"/><path d="M498.321,409.247s-4.554.262-7.181-.844-11.352-3.659-13.886-1.866-8.633,3.378-5.818,10.511,4.129,7.319,4.129,7.319a10.159,10.159,0,0,1,2.252,2.336c.844,1.315,8.726,4.315,10.7,4.315s5.441,0,10.319,3.378a21.208,21.208,0,0,0,9.289,3.755s6.193,2.533,8.121,3.1,10.739,3,12.8,2.252,3.378-5.444,3.378-5.444.937-4.222.467-4.878-3.1-.47-3.845-1.407-5.255-1.97-5.255-1.97-4.867-4.036-5.43-4.036-2.061,1.593-3.611.374a82.394,82.394,0,0,0-9.714-6.193C501.473,418.066,498.321,409.247,498.321,409.247Z" transform="translate(-363.146 -303.873)" fill="#4b4b5b"/><path d="M536.27,427.142a5.376,5.376,0,0,1,4.614,1.219c2.252,1.878,9.829,5.647,9.829,5.647" transform="translate(-410.252 -319.046)" opacity="0.1"/><path d="M705.875,427s-10.04,1.52-11.915,3.583" transform="translate(-523.555 -319.023)" opacity="0.1"/><path d="M711.424,501.494h-.442a75.7,75.7,0,0,0-8,0c-1.219.282-17.359,0-17.359,0l3.155-.656s-1.171-4.1-.428-4.445c0,0-4.222-2.781-1.039-4.659a9.876,9.876,0,0,1,6.615-1.087l7.991-2.708,1.534-.521s9.008.47,11.445,6.663S711.424,501.494,711.424,501.494Z" transform="translate(-517.562 -362.435)" fill="#e7c7ca"/><path d="M753.018,501.53h-.442c2.621-2.162,8.549-8.743-9.067-13.539l1.534-.521s9.008.47,11.445,6.663S753.018,501.53,753.018,501.53Z" transform="translate(-559.157 -362.471)" opacity="0.1"/><circle cx="0.493" cy="0.493" r="0.493" transform="translate(176.809 130.778)" fill="#4b4b5b"/><circle cx="0.493" cy="0.493" r="0.493" transform="translate(173.946 131.591)" fill="#4b4b5b"/><g transform="translate(126.737 17.708)" opacity="0.1"><path d="M617.831,116.843a21.842,21.842,0,0,0-1.616-9.047c-3.659.546-7.668-2.277-11-.588-2.466,1.25-3.24,4.383-3.378,7.144-.034.729-.039,1.458-.025,2.187,0-.259,0-.521.025-.78.129-2.761.9-5.894,3.378-7.144,3.333-1.689,7.336,1.126,11,.588a21.78,21.78,0,0,1,1.616,7.639Z" transform="translate(-584.076 -106.563)"/><path d="M552.972,117.77a9.386,9.386,0,0,0-.037-1.841c-.3-2.477-1.652-4.844-1.9-7.26-.315,2.913,1.54,5.711,1.9,8.667A1.761,1.761,0,0,1,552.972,117.77Z" transform="translate(-547.574 -108.006)"/><path d="M559.052,209.608c-.174,2.089-.667,4.321-2.252,5.706s-4.5,1.309-5.385-.588c-.281-.563-.324-1.219-.6-1.782-.625-1.289-2.162-1.79-3.5-2.294-3.814-1.427-7.493-4.222-8.312-8.222a8.646,8.646,0,0,1-.149-1.1,8.874,8.874,0,0,0,.149,2.505c.819,3.989,4.5,6.8,8.312,8.222,1.343.5,2.88,1,3.5,2.294.282.563.329,1.213.6,1.782.887,1.9,3.811,1.97,5.385.588s2.063-3.617,2.252-5.706a32.167,32.167,0,0,0,.087-3.3C559.14,208.35,559.1,208.981,559.052,209.608Z" transform="translate(-538.823 -174.583)"/><path d="M687.93,120.716v1.219c.158-5.236,2.077-10.5,1.889-15.625C689.672,111.05,688.037,115.9,687.93,120.716Z" transform="translate(-645.959 -106.31)"/><path d="M655.2,200.117a3.636,3.636,0,0,0,.065-1.016,5.632,5.632,0,0,0-.752-2.058c-1.627-3.1-3.482-6.266-3.7-9.7,0,.146-.02.281-.022.439-.113,3.811,1.945,7.3,3.724,10.671a6.76,6.76,0,0,1,.687,1.666Z" transform="translate(-619.269 -164.531)"/><path d="M665.724,216.823a22.9,22.9,0,0,1-2.84,9.717c-1.486,2.705-4.112,5.4-7.155,4.878a1.2,1.2,0,0,1-.726-.329.7.7,0,0,1-.132-.22c-.034.22-.062.442-.079.667a1.3,1.3,0,0,0,.211.96,1.2,1.2,0,0,0,.726.329c3.043.521,5.669-2.173,7.155-4.878a22.9,22.9,0,0,0,2.84-9.717c.034-.659.037-1.315.017-1.97C665.735,216.449,665.735,216.634,665.724,216.823Z" transform="translate(-622.134 -185.311)"/></g><path d="M695.31,510.046s7.124,2.989,11.822-3.626" transform="translate(-524.525 -376.087)" fill="none" stroke="#000" stroke-miterlimit="10" stroke-width="1" opacity="0.1"/><path d="M700.29,533.473a13.89,13.89,0,0,1,13.23-.124" transform="translate(-528.103 -394.29)" fill="none" stroke="#000" stroke-miterlimit="10" stroke-width="1" opacity="0.1"/><path d="M561.93,527.436s2.443-5.512,8.968-1.309" transform="translate(-428.689 -389.112)" fill="none" stroke="#000" stroke-miterlimit="10" stroke-width="1" opacity="0.1"/><path d="M533.79,231.192l4.982-4.5s19.318-1.267,20.118,5.3c0,0,6.849-7.786,21.252-6.052l6.094,4.853-16.844,7.392-16.368,5.678-12.056-5.4Z" transform="translate(-408.47 -174.375)" opacity="0.1"/><path d="M533.79,232.192l4.982-4.5s19.318-1.267,20.118,5.3c0,0,6.849-7.786,21.252-6.052l6.094,4.853-16.844,7.392-16.368,5.678-12.056-5.4Z" transform="translate(-408.47 -175.093)" fill="#d5d6db"/><path d="M437.38,204.83l2.2,26.367,23.363,1.174-1.013-26.254-.02-.442Z" transform="translate(-314.264 -147.168)" opacity="0.1"/><path d="M437.38,202.83l2.2,26.367,23.363,1.174-1.013-26.254-.02-.442Z" transform="translate(-314.264 -145.731)" fill="#f8a02e"/><path d="M573.811,202.83l-24.1,3.614v26.485l23.552-3.4Z" transform="translate(-394.975 -145.731)" opacity="0.1"/><path d="M573.811,200.83l-24.1,3.614v26.485l23.552-3.4Z" transform="translate(-394.975 -144.294)" fill="#f8a02e"/><path d="M581.909,223.79l-13.019,1.447.284,4.436,12.726-1.391Z" transform="translate(-408.756 -160.791)" fill="#fff" opacity="0.3"/><path d="M536.846,330.141l1.326,3.566a4.43,4.43,0,0,0,4.127.844c2.156-.844,4.036-1.264,4.974-2.086s2.252-4.951,2.252-4.951,1.315-4.5,2.626-5.63,4.785-16.639,0-15.121-8.445,15.591-8.445,15.591a3.338,3.338,0,0,1-2.063,1.126c-1.219.1-3.659-.189-4.129.844S535.439,328.078,536.846,330.141Z" transform="translate(-410.259 -232.556)" fill="#be6f72"/><path d="M620.248,254.582a8.106,8.106,0,0,1-7.068-1.762l1.016,26.251a7.164,7.164,0,0,0,6.052,2Z" transform="translate(-465.513 -193.872)" opacity="0.1"/><path d="M620.248,252.582a8.107,8.107,0,0,1-7.068-1.762l1.016,26.251a7.164,7.164,0,0,0,6.052,2Z" transform="translate(-465.513 -192.435)" fill="#f8a02e"/><path d="M620.248,252.582a8.107,8.107,0,0,1-7.068-1.762l1.016,26.251a7.164,7.164,0,0,0,6.052,2Z" transform="translate(-465.513 -192.435)" opacity="0.1"/><path d="M640.29,239.892s9.8-3,12.36-2.576" transform="translate(-484.992 -182.702)" opacity="0.1"/><path d="M573.021,237.512s-9.5-2.252-11.09-1.613" transform="translate(-428.689 -181.631)" opacity="0.1"/><path d="M662.25,243.894s6.556-2.4,8.926-1.261" transform="translate(-500.771 -186.331)" opacity="0.1"/><path d="M650.52,449.542a21.555,21.555,0,0,1,3.231-2.007,52.7,52.7,0,0,0,4.785-2.925" transform="translate(-492.342 -331.676)" opacity="0.1"/><path d="M543.177,360.08s-4.112,3.364-5.348,3.659-2,2.919-2,2.919" transform="translate(-409.936 -270.94)" opacity="0.1"/><path d="M670.029,328.383l-1.312,3.575a4.433,4.433,0,0,1-4.129.844c-2.159-.844-4.034-1.264-4.974-2.086s-2.252-4.951-2.252-4.951-1.312-4.5-2.626-5.63-4.785-16.639,0-15.121,8.445,15.591,8.445,15.591a3.338,3.338,0,0,0,2.063,1.126c1.219.1,3.659-.189,4.129.844S671.436,326.328,670.029,328.383Z" transform="translate(-493.611 -231.299)" fill="#be6f72"/><path d="M707.15,364.94s2.688,1.728,2.677,3.794" transform="translate(-533.032 -274.432)" opacity="0.1"/><circle cx="12.574" cy="12.574" r="12.574" transform="translate(138.735 15.262)" fill="#be6f72"/><path d="M582.177,96.462c1.526-.239,2.863-1.126,4.321-1.635,3.262-1.146,6.871-.36,10.173.673a13.192,13.192,0,0,0,3.882.844,3.929,3.929,0,0,0,3.417-1.689,3.818,3.818,0,0,0-.022-3.527,9.935,9.935,0,0,0-2.3-2.835c-2.927-2.764-6.559-5.348-10.575-5.067a14.554,14.554,0,0,0-4.647,1.331,51.236,51.236,0,0,0-5.455,2.747c-1.354.785-3.862,1.835-4.642,3.271C574.557,93.81,579.419,96.9,582.177,96.462Z" transform="translate(-438.763 -72.001)" fill="#3e373a"/><path d="M603.967,113.989a3.928,3.928,0,0,1-3.417,1.689,13.2,13.2,0,0,1-3.885-.828c-3.3-1.033-6.908-1.821-10.173-.673-1.455.509-2.8,1.407-4.321,1.633-2.224.349-5.8-1.588-6.193-4.051-.436,2.846,3.716,5.283,6.193,4.9,1.526-.239,2.865-1.126,4.321-1.633,3.265-1.148,6.871-.36,10.173.673a12.67,12.67,0,0,0,3.885.828,3.958,3.958,0,0,0,3.417-1.689,3.3,3.3,0,0,0,.394-2.058A3.036,3.036,0,0,1,603.967,113.989Z" transform="translate(-438.76 -92.518)" opacity="0.1"/><g transform="translate(217.91 174.022)"><path d="M1026.275,661.63s1.669,2.182-.771,5.478-4.45,6.077-3.64,8.132c0,0,3.682-6.119,6.677-6.207S1029.565,665.309,1026.275,661.63Z" transform="translate(-1004.412 -661.63)" fill="#f8a02e"/><path d="M1026.518,661.63a2.7,2.7,0,0,1,.341.684c2.922,3.434,4.481,6.64,1.669,6.719-2.618.076-5.756,4.757-6.508,5.937a2.743,2.743,0,0,0,.087.281s3.682-6.119,6.677-6.207S1029.809,665.309,1026.518,661.63Z" transform="translate(-1004.655 -661.63)" opacity="0.1"/><path d="M1048.016,670.257c0,.768-.087,1.391-.191,1.391s-.194-.622-.194-1.391.107-.405.214-.405S1048.016,669.488,1048.016,670.257Z" transform="translate(-1023.056 -667.475)" fill="#ffd037"/><path d="M1049.433,673.388c-.673.366-1.261.588-1.312.5s.453-.467,1.126-.844.408-.1.459,0S1050.108,673.019,1049.433,673.388Z" transform="translate(-1023.406 -669.689)" fill="#ffd037"/><path d="M997.1,661.63s-1.669,2.182.771,5.478,4.45,6.077,3.637,8.132c0,0-3.679-6.119-6.677-6.207S993.822,665.309,997.1,661.63Z" transform="translate(-984.062 -661.63)" fill="#f8a02e"/><path d="M997.1,661.63a2.705,2.705,0,0,0-.341.684c-2.922,3.434-4.481,6.64-1.669,6.719,2.615.076,5.756,4.757,6.508,5.937a2.178,2.178,0,0,1-.09.281s-3.679-6.119-6.677-6.207S993.822,665.309,997.1,661.63Z" transform="translate(-984.062 -661.63)" opacity="0.1"/><path d="M995.64,670.257c0,.768.084,1.391.192,1.391s.194-.622.194-1.391-.11-.405-.214-.405S995.64,669.488,995.64,670.257Z" transform="translate(-985.701 -667.475)" fill="#ffd037"/><path d="M990.814,673.388c.673.366,1.261.588,1.312.5s-.453-.467-1.126-.844-.408-.1-.459,0S990.139,673.019,990.814,673.388Z" transform="translate(-981.939 -669.689)" fill="#ffd037"/><ellipse cx="17.452" cy="2.677" rx="17.452" ry="2.677" transform="translate(0 24.954)" fill="#f8a02e" opacity="0.63"/><path d="M1008.368,696.929l-.084.681-.118.963-.048.4-.118.963-.051.4-.115.96-1.337,10.95c-.118.977-1.714,1.74-3.642,1.74h-6.939c-1.928,0-3.521-.763-3.642-1.74l-1.337-10.95-.118-.96-.048-.4-.118-.963-.051-.4-.115-.963-.084-.681c-.065-.563.8-1.019,1.889-1.019h14.192C1007.572,695.91,1008.436,696.374,1008.368,696.929Z" transform="translate(-981.934 -686.261)" fill="#65617d"/><path d="M919.928,658.53l-.115.963H902.248l-.118-.963Z" transform="translate(-893.578 -647.181)" fill="#9d9cb5"/><path d="M920.186,663.38l-.115.963H902.838l-.118-.963Z" transform="translate(-894.002 -650.665)" fill="#9d9cb5"/><path d="M920.451,668.23l-.118.963h-16.9l-.115-.963Z" transform="translate(-894.433 -654.15)" fill="#9d9cb5"/></g></g></svg>