<?xml version="1.0" encoding="utf-8"?>
<!-- Generator: Adobe Illustrator 25.2.0, SVG Export Plug-In . SVG Version: 6.00 Build 0)  -->
<svg version="1.1" id="Layer_1" xmlns="http://www.w3.org/2000/svg" xmlns:xlink="http://www.w3.org/1999/xlink" x="0px" y="0px"
	 viewBox="0 0 1044.1 860.8" style="enable-background:new 0 0 1044.1 860.8;" xml:space="preserve">
<style type="text/css">
	.st0{opacity:0.35;fill:#FFFFFF;enable-background:new    ;}
	.st1{fill:#878787;}
	.st2{fill:#B1B0B0;}
	.st3{fill:none;}
	.st4{fill:#FFFFFF;}
	.st5{fill:#263239;}
	.st6{fill:#E3E3E2;}
	.st7{fill:#F8AA12;}
	.st8{fill:#C8C7C7;}
	.st9{fill:none;stroke:#263239;stroke-linecap:round;stroke-linejoin:round;}
	.st10{fill:#F6C6C6;}
	.st11{fill:#E9C2C8;}
	.st12{fill:none;stroke:#878787;stroke-linecap:round;stroke-linejoin:round;}
	.st13{fill:#263239;stroke:#263239;stroke-linecap:round;stroke-linejoin:round;}
</style>
<g id="Group_422" transform="translate(-880.385 -89.257)">
	<path id="Icon_awesome-theater-masks" class="st0" d="M1218.7,501.4c-58.3,17.6-97.4,69.3-93.5,124.6c18.5-21.4,46.8-39.8,81.1-52
		L1218.7,501.4z M1038.3,585.2l-51.5-301.8c-0.3-1.5-0.1-3,0.4-4.5c93.8-53.9,200-82.4,307-82.4c2.6,0,5.2,0.3,7.9,0.3
		c22.7-22.6,51.5-38.4,83.8-43.7c30.7-5.1,61.8-7.7,92.9-8.9c-16.2-23.5-39.8-40.7-67.9-45.4c-38.6-6.4-77.6-9.6-116.7-9.6
		c-124.5,0-247.4,32.7-357.6,95.9c-39.3,22.6-60.3,69.6-52.2,116.9l51.5,301.8C959,739.3,1157.3,842.8,1268,842.8
		c5.4-0.1,10.9-0.6,16.3-1.3c-22-28.7-47-68.1-64.2-113.6C1142.8,706,1047.8,641,1038.3,585.2L1038.3,585.2z M1196.7,354.1
		c-1.2-6.7-3.5-13.1-6.6-19.2c-13.4,15-33.6,26.5-57.4,30.8c-23.8,4.3-46.6,0.7-64.1-8.7c-1,6.8-0.9,13.6,0.1,20.3
		c6.2,36.5,39.9,60.8,75.3,54.4C1179.4,425.4,1203,390.6,1196.7,354.1z M1868.3,292.5c-144.5-83-311-113.3-474.3-86.3
		c-44.4,7.3-79.7,44.2-87.8,91.4l-51.5,301.8c-25,146.4,154.8,330,257.2,348.6c102.4,18.6,332.1-90.4,357.1-236.8l51.5-301.8
		C1928.6,362.1,1907.6,315.1,1868.3,292.5L1868.3,292.5z M1424.5,455.3c6.2-36.5,39.9-60.8,75.3-54.4c35.3,6.4,58.9,41.2,52.7,77.7
		c-1.2,6.7-3.5,13.1-6.6,19.2c-13.4-15-33.6-26.5-57.4-30.8c-23.8-4.3-46.6-0.7-64.1,8.7C1423.4,468.9,1423.4,462,1424.5,455.3
		L1424.5,455.3z M1538.9,789.5c-90.4-16.5-151.9-99.7-144.6-189.8c33.5,42.9,91.3,77.6,161.6,90.4c70.3,12.8,136.2,0.6,181.8-27.9
		C1714.7,749.5,1629.4,805.9,1538.9,789.5z M1750.6,535c-13.4-15-33.6-26.5-57.4-30.8c-23.8-4.3-46.6-0.7-64.1,8.7
		c-1-6.8-0.9-13.6,0.1-20.3c6.2-36.5,39.9-60.8,75.3-54.4c35.3,6.4,58.9,41.2,52.7,77.7C1756,522.5,1753.8,529,1750.6,535
		L1750.6,535z"/>
	<g id="Acting-bro_1_" transform="translate(928.354 28.065)">
		<g id="freepik--Trunk--inject-2" transform="translate(523.496 765.873)">
			<rect id="Rectangle_225" x="2.3" y="-36.3" class="st1" width="323.6" height="117.8"/>
			<rect id="Rectangle_226" x="38.9" y="-36.3" class="st2" width="12.1" height="117.8"/>
			<rect id="Rectangle_227" x="59.2" y="-36.3" class="st2" width="12.1" height="117.8"/>
			<rect id="Rectangle_228" x="147.9" y="-36.3" class="st2" width="12.1" height="117.8"/>
			<rect id="Rectangle_229" x="168.2" y="-36.3" class="st2" width="12.1" height="117.8"/>
			<rect id="Rectangle_230" x="256.9" y="-36.3" class="st2" width="12.1" height="117.8"/>
			<rect id="Rectangle_231" x="277.2" y="-36.3" class="st2" width="12.1" height="117.8"/>
			<line id="Line_50" class="st3" x1="325.6" y1="21.3" x2="3" y2="21.3"/>
			<path id="Path_7189" class="st4" d="M104.9,19.4c-1.8-7.5-3.6-12.3-7.2-15.1s-7.7-3.6-11.6,1c0,0-6.8,10.7-6,16.6
				s7.4,10.9,13.2,10.6S106.5,26.9,104.9,19.4z M90.4,17.1c-4.3-0.6-4.7-4.5-4-7c0.8-2,2-3.7,3.6-5.1c1.6-0.8,3.4-0.6,4.9,0.4
				c2.8,1.7,4.4,4.8,4.3,8.1C98.9,16.3,94.6,17.7,90.4,17.1L90.4,17.1z"/>
			<path id="Path_7190" class="st5" d="M94.6,22c-0.1,1-1,1.7-2,1.5c-1-0.1-1.7-1-1.5-2c0.1-0.9,0.9-1.5,1.8-1.5
				C93.8,20,94.6,20.9,94.6,22C94.6,21.9,94.6,22,94.6,22z"/>
			<path id="Path_7191" class="st5" d="M92.6,23.8l-1.3,4.2l3.3,0L92.6,23.8z"/>
			<path id="Path_7192" class="st4" d="M253.7,19.4c-1.8-7.5-3.6-12.3-7.2-15.1s-7.7-3.6-11.6,1c0,0-6.8,10.7-6,16.6
				s7.4,10.9,13.2,10.6S255.4,26.9,253.7,19.4z M239.2,17.1c-4.3-0.6-4.7-4.5-4-7c0.8-2,2-3.7,3.6-5.1c1.6-0.8,3.5-0.6,4.9,0.4
				c2.8,1.7,4.4,4.8,4.3,8.1C247.8,16.3,243.5,17.7,239.2,17.1L239.2,17.1z"/>
			<path id="Path_7193" class="st5" d="M243.4,22c-0.1,1-1,1.7-2,1.5c-1-0.1-1.7-1-1.5-2c0.1-0.9,0.9-1.5,1.8-1.5
				C242.7,20,243.5,20.9,243.4,22C243.4,21.9,243.4,22,243.4,22z"/>
			<path id="Path_7194" class="st5" d="M241.5,23.8l-1.3,4.2l3.3,0L241.5,23.8z"/>
			<rect id="Rectangle_232" x="160.7" y="3.6" class="st4" width="6.7" height="28.9"/>
			<rect id="Rectangle_233" x="160.7" y="14.7" class="st4" width="6.7" height="17.8"/>
		</g>
		<g id="freepik--Vase--inject-2" transform="translate(117.773 694.148)">
			<path id="Path_7195" class="st6" d="M60.9,19.4v-55.8H38.2v55.8c0,12.4-5.7,24-15.3,31.7C10.4,61.2,2.3,78,2.3,97
				c0,30.7,21.2,55.5,47.3,55.5S96.9,127.7,96.9,97c0-19.1-8.2-35.8-20.6-45.8C66.6,43.5,60.9,31.8,60.9,19.4L60.9,19.4z"/>
		</g>
		<g id="freepik--Plant--inject-2-2" transform="translate(11.645 416.492)">
			<path id="Path_7196" class="st5" d="M106.7,76.1L106.7,76.1c0.1-0.1,0.1-0.1,0-0.2c-0.1-0.1-0.1-0.1-0.2,0c0,0,0,0.1,0,0.1
				c-5.1,12.2-9.1,24.8-12,37.7c-2.9,12.9-5.2,25.9-6.6,39.1l-0.9,9.9c-0.1,1.6-0.3,3.3-0.4,4.9l-0.3,5c-0.1,3.3-0.3,6.6-0.4,9.9
				v9.9l0.1,5c0,1.6,0.2,3.3,0.3,5c0.3,3.3,0.4,6.6,0.8,9.9c0.6,6.6,1.6,13.1,2.6,19.7c0,0.1,0.1,0.2,0.2,0.2c0.1,0,0.2-0.1,0.2-0.2
				l0,0c0-3.3-0.2-6.6-0.2-9.9c-0.1-3.3-0.4-6.6-0.3-9.9s0-6.6-0.1-9.8l-0.1-4.9l0.1-4.9v-9.8l0.3-9.8l0.1-4.9
				c0-1.6,0.2-3.3,0.3-4.9l0.6-9.8c1.1-13.1,3-26.1,5.6-39C98.5,101.1,102,88.4,106.7,76.1z"/>
			<path id="Path_7197" class="st5" d="M108.1,127.4c0-0.1,0-0.2-0.1-0.2c-0.1,0-0.2,0-0.2,0.1c0,0,0,0,0,0c-2.8,8.2-5.1,16.5-7,25
				c-1.9,8.5-3.2,17-4.1,25.7c-0.9,8.6-1.8,17.2-2,25.9c-0.2,8.7,0.1,17.3,0.9,25.9c0,0.1,0,0.1,0.2,0.2c0.1,0,0.2-0.1,0.2-0.2
				c1-8.6,1.6-17.2,2.2-25.8s0.7-17.2,1.3-25.8C100.6,161,103.5,144,108.1,127.4L108.1,127.4z"/>
			<path id="Path_7198" class="st5" d="M136.6,145.5c-0.1-0.1-0.2-0.1-0.2,0c0,0,0,0,0,0c-7.1,4.5-13.5,10.1-19,16.5
				c-2.8,3.2-5.3,6.7-7.5,10.4l-1.5,2.9l-1.2,3c-0.4,1-0.8,2-1.1,3c-0.3,1-0.6,2-0.9,3.1c-2.2,8.2-3.5,16.7-3.9,25.2
				c-0.4,8.5-0.1,16.9,0.9,25.3c0,0.1,0.1,0.2,0.2,0.1c0.1,0,0.1-0.1,0.1-0.2l2.2-25.1c0.6-8.3,1.7-16.5,3.2-24.7c0.2-1,0.5-2,0.8-3
				c0.2-1,0.5-2,0.9-3l1-2.9l1.3-2.7c2-3.6,4.3-7.1,6.8-10.4c5.1-6.7,11.1-12.5,17.9-17.4l0,0C136.7,145.7,136.7,145.6,136.6,145.5
				C136.7,145.5,136.6,145.5,136.6,145.5L136.6,145.5z"/>
			<path id="Path_7199" class="st5" d="M122.8,177.7c-3.7,2.7-6.7,6.3-8.7,10.4c-2.1,4.1-3.7,8.3-4.9,12.8c-0.3,1.1-0.6,2.2-0.8,3.3
				l-0.8,3.3c-0.4,2.2-0.7,4.5-0.8,6.8c0,2.3,0,4.5,0,6.8c0.2,2.3,0.5,4.5,0.9,6.8c0,0.1,0.1,0.2,0.2,0.1c0.1,0,0.1-0.1,0.1-0.1
				c0.5-2.2,0.9-4.5,1.2-6.7s0.7-4.4,0.9-6.6s0.6-4.4,0.8-6.6c0.2-2.2,0.5-4.4,0.9-6.5c0.8-4.4,2.1-8.6,3.8-12.7
				c1.6-4.1,4.1-7.8,7.3-10.7l0,0c0.1-0.1,0.1-0.3,0-0.3C122.9,177.7,122.9,177.7,122.8,177.7L122.8,177.7z"/>
			<path id="Path_7200" class="st5" d="M82.9,202.8c-0.9-11.1-2.8-22.2-4.5-33.2c-1.7-11-3.7-22-5.7-33s-4.3-21.9-6.6-32.7
				c0-0.1,0-0.2-0.1-0.2s-0.2,0-0.2,0.1c0,0,0,0.1,0,0.1c1.9,11,3.6,22,5.2,33c1.7,11,3.2,22,4.6,33.1c1.4,11,2.5,22.2,3.9,33.1
				l4,33.2c0,0.1,0.1,0.2,0.2,0.2c0,0,0,0,0,0c0.1,0,0.2-0.1,0.2-0.2c0.1-2.8,0.1-5.6,0.2-8.4s-0.1-5.6-0.2-8.4
				C83.7,213.9,83.3,208.4,82.9,202.8z"/>
			<path id="Path_7201" class="st5" d="M76.3,202.7c-0.6-4.4-1.4-8.8-2.2-13.2l-1.6-6.5c-0.5-2.2-1-4.3-1.6-6.5
				c-2.2-8.6-5.1-17.1-8.6-25.3l-1.3-3.1l-1.5-3c-0.9-2-2.1-3.9-3.2-5.9c-2.2-3.9-4.9-7.5-8-10.6c-0.1-0.1-0.2-0.1-0.3,0
				c-0.1,0.1-0.1,0.2,0,0.3l0,0c2.9,3.3,5.4,6.9,7.4,10.9c1,2,2,3.9,2.8,6l1.3,3l1.2,3.1c3.1,8.2,5.6,16.7,7.4,25.3
				c1,4.3,1.8,8.6,2.5,13l1,6.5c0.4,2.2,0.8,4.3,1.1,6.5c0.7,4.3,1.5,8.7,2.3,13c0.8,4.4,1.5,8.7,2.4,13.1c0,0.1,0.1,0.1,0.2,0.1
				c0.1,0,0.2-0.1,0.2-0.2c0-4.4,0-8.9-0.3-13.3S76.6,207.1,76.3,202.7z"/>
			<path id="Path_7202" class="st5" d="M67,203.1c-2.1-5.8-4.5-11.5-7.1-17.1c-2.6-5.6-5.6-11-8.9-16.3c-0.1-0.1-0.2-0.1-0.3,0
				c-0.1,0.1-0.1,0.2,0,0.3c2.9,5.4,5.4,11,7.6,16.8c2.3,5.7,4.3,11.5,6,17.3c1.7,5.9,3,11.8,4.5,17.7c1.6,5.9,3,11.8,4.8,17.8
				c0,0.1,0.1,0.1,0.2,0.1c0.1,0,0.2-0.1,0.2-0.1c0,0,0,0,0,0c0.1-6.2-0.5-12.4-1.8-18.5C71,214.9,69.2,208.9,67,203.1L67,203.1z"/>
			<path id="Path_7203" class="st5" d="M66.6,222.7c-1.1-3.6-2.8-7.1-4.9-10.3c-2-3.3-4.4-6.2-7.2-8.9c-1.4-1.3-2.9-2.4-4.5-3.4
				c-1.6-1-3.3-1.8-5.2-2.3c-0.1,0-0.2,0.1-0.2,0.2c0,0.1,0,0.1,0,0.1l0,0c3.3,1.6,6.2,3.8,8.5,6.6c2.4,2.7,4.4,5.7,5.9,8.9
				c1.7,3.2,2.6,6.7,4,10c0.7,1.8,1.3,3.4,2,5.1c0.6,1.8,1.4,3.5,2.2,5.1l0,0c0,0.1,0.1,0.1,0.1,0.1c0.1,0,0.2-0.1,0.2-0.1
				c0,0,0,0,0,0c0.1-1.9,0-3.8-0.2-5.7C67.4,226.3,67.1,224.5,66.6,222.7z"/>
			<path id="Path_7204" class="st7" d="M67.3,119.9c-11.3-3.2-20-12.4-22.4-23.9c-4.2-19.7,9.3-11.2-2.8-42.1s-9.4-37.9-5.2-46.8
				s6.5-6.1,10.3,5.6s17.3,29.9,22.4,64.1S67.3,119.9,67.3,119.9z"/>
			<path id="Path_7205" class="st7" d="M103.3,86.7c0,0-12.2-4.2-12.6-27.1c-0.5-22.9,8.9-18.2,10.3-46.8s3.3-48.6,8.4-49.1
				s18.8,14,23.4,45.8c4.6,31.9-6.1,52.8-15.4,62.2S103.3,86.7,103.3,86.7z"/>
			<path id="Path_7206" class="st7" d="M60.7,147.4c0,0-2.8-16.8-8.4-24.8s-17.8-15-25.7-30.4S9.8,69.3,10.2,91.3
				s10.3,33.2,22.4,40.7C44.8,139.5,60.7,147.4,60.7,147.4z"/>
			<path id="Path_7207" class="st7" d="M55.6,176.4c0,0-11.2-21.5-27.6-37.4s-29.5-23.9-24.8-15.9s10.3,7.5,18.2,21.5
				s5.6,24.3,16.8,32.2S55.6,176.4,55.6,176.4z"/>
			<path id="Path_7208" class="st7" d="M54.2,204c-0.5-1.4-0.9-11.7-16.8-20.1s-30.9-5.1-29-0.9s11.7,11.2,21.5,15.4
				S54.2,204,54.2,204z"/>
			<path id="Path_7209" class="st7" d="M102.3,148.4c0,0-7-8.9-3.3-27.6s12.2-14,21.5-23.9s7.5-11.2,16.8-21.5s17.8-15.9,21.5-11.7
				s-1.8,17.3-7.5,24.8s-14.5,11.2-18.7,20.6c-4.2,9.4-2.3,24.3-13.1,31.3S102.3,148.4,102.3,148.4z"/>
			<path id="Path_7210" class="st7" d="M125.7,153.5c0,0,16.8-19.2,29-33.2c12.1-14,16.8-24.8,17.3-15.4s4.2,16.8-5.6,29
				S125.7,153.5,125.7,153.5z"/>
			<path id="Path_7211" class="st7" d="M116.8,184.4c0,0-0.5-7.5,26.2-24.8s37.9-20.6,35.1-13.6s-14.5,14-27.1,26.6
				C138.4,185.3,116.8,184.4,116.8,184.4z"/>
			<path id="Path_7212" class="st3" d="M68.4,117.9c0,0-6.3-33.5-12.8-57.4S44.9,22.1,44.9,22.1"/>
			<path id="Path_7213" class="st3" d="M102.2,87c0,0,11.4-36.3,15.1-58.3s-0.5-38.4-2.3-48.2"/>
			<path id="Path_7214" class="st3" d="M59.3,146.7c-5-8.7-10.8-16.9-17.2-24.6C31.7,110,23.8,103.5,19.1,91.8"/>
			<path id="Path_7215" class="st3" d="M102.3,148.4c0,0,3.7-22.5,12.6-34.1s26.6-29.9,33.7-41.6"/>
			<path id="Path_7216" class="st3" d="M53.1,203.5c0,0-15.7-10.2-27-15.9"/>
			<path id="Path_7217" class="st8" d="M143.2,297.8c-1.1-28.4-32.6-47.3-32.6-47.3H62.3c0,0-31.5,18.9-32.6,47.3
				s35.8,132.4,35.8,132.4h41.9C107.5,430.2,144.3,326.1,143.2,297.8z"/>
			<path id="Path_7218" class="st8" d="M116.8,222.6H55.2l7.1,27.9h47.4L116.8,222.6z"/>
			<line id="Line_51" class="st3" x1="42.3" y1="281" x2="88.1" y2="281"/>
			<line id="Line_52" class="st3" x1="106.4" y1="280.4" x2="101.4" y2="280.4"/>
			<line id="Line_53" class="st3" x1="118.5" y1="298.7" x2="75.4" y2="298.7"/>
			<line id="Line_54" class="st3" x1="56.1" y1="300.9" x2="63.8" y2="300.9"/>
			<line id="Line_55" class="st3" x1="66" y1="309.1" x2="108" y2="309.1"/>
			<line id="Line_56" class="st3" x1="44" y1="310.8" x2="52.3" y2="310.8"/>
			<line id="Line_57" class="st3" x1="122.4" y1="266.6" x2="101.4" y2="266.6"/>
			<line id="Line_58" class="st3" x1="76" y1="267.2" x2="86.5" y2="267.2"/>
			<line id="Line_59" class="st3" x1="52.3" y1="264.4" x2="69.4" y2="264.4"/>
			<line id="Line_60" class="st3" x1="105.8" y1="257.2" x2="76.6" y2="257.2"/>
			<line id="Line_61" class="st3" x1="132.3" y1="324.1" x2="114.1" y2="324.1"/>
			<line id="Line_62" class="st3" x1="60.5" y1="329" x2="74.3" y2="329"/>
			<line id="Line_63" class="st3" x1="97.5" y1="332.9" x2="70.5" y2="332.9"/>
		</g>
		<g id="freepik--Floor--inject-2-2" transform="translate(23.375 883.678)">
			<line id="Line_64" class="st9" x1="840.5" y1="-36.3" x2="2.3" y2="-36.3"/>
		</g>
		<g id="freepik--character-1--inject-2" transform="translate(196.081 249.429)">
			<path id="Path_7219" class="st7" d="M180.9,81.8c0,0,4.2-1.1,9.2,9.2c2.8,5.6,5.1,11.5,6.7,17.5c0.3,0.8,9.2,3.1,15,11.4
				c3.3,4.6,6.3,9.4,8.9,14.5l2.8-31.2c0,0,11.4,4.5,20.3,3.3s11.7-3.6,11.7-3.6s9.7,46.5,5,62.6s-11.4,23.1-24.8,24.2
				s-14.2,0.3-22.5-8.6s-21.7-12.2-28.4-21.5c-4-5.5-7.6-11.4-10.6-17.5C174.3,142.2,178.4,86.3,180.9,81.8z"/>
			<path id="Path_7220" class="st3" d="M220.7,140.5c0,0-6.4,20.8-5.6,27.8c0.7,4.4,3.2,8.2,7,10.6"/>
			<path id="Path_7221" class="st10" d="M254.6,76.7c0-6,0.6-11.9,1.7-17.8c1.7-7.5,5.4-13.9,6.1-17s0.3-6.1-4.2-3.6
				c-4.5,2.5-7.5,10-7.8,11.4s-2.8-4.7-5.6-7.2s-6.1-6.1-11.4-7.5s-9.2-2.2-9.7,0.3s0.6,3.9,3.6,4.4c2.8,0.5,5.5,1.6,7.8,3.3
				c1.7,1.4,5,8.9,5,8.9c-2.6-2.9-5.5-5.5-8.6-7.8c-3.3-2.2-7.2-3.1-11.1-2.5c-3.9,0.8-7.5,1.4-7.8,3.9s2.5,3.6,5.9,3.3
				c2.6-0.1,5.2,0,7.8,0.3l8.1,10c0,0-10.9-5-13.9-5.3s-7.2,2.2-9.4,3.9s-0.8,4.2,1.7,4.5c2.1,0.1,4.3,0,6.4-0.3
				c3.4,1,6.7,2.4,9.7,4.2l1.7,1.1c0,0-7.5-0.6-9.2-0.6c-2.8,0.3-5.4,1.5-7.5,3.3c-1.4,1.7,0.3,3.9,2.5,3.9c2.2-0.1,4.3-0.3,6.4-0.8
				c1.1-0.3,7.2,3.3,7.2,3.3c0.5,3.1,1.6,6,3.3,8.6c2.5,3.3,8.9,6.1,8.9,6.1S252.4,92.1,254.6,76.7z"/>
			<path id="Path_7222" class="st3" d="M250.4,49.9c1.8,3.1,3,6.6,3.6,10.1"/>
			<path id="Path_7223" class="st4" d="M223.4,103.2c0,0,1.7,2.2-2.2-5.8c-2.5-5.1-5.4-10.1-8.6-14.7c0,0,2-3.9,5-4.2
				s4.2,0.6,5.4-0.3s2-4.7,5-5.3s7.8,1.7,10.6,2s3.1-2.5,6.4-3.1s6.7,1.9,8.4,2.8s0.8-0.3,3.3,0c1.9,0.4,3.6,1.4,5,2.8
				c0,0-3.3,13.6-4.2,18.1c-0.5,2.5-1.1,5.1-2,7.5C255.5,102.9,239.6,111.8,223.4,103.2z"/>
			<path id="Path_7224" class="st5" d="M39.7,467.5L37.5,538c0,0-5.9,7.2-5.5,11c0.6,3.5,1.4,6.9,2.5,10.2c-1.9,1.5-3.3,3.6-3.8,6
				c-0.2,2.3-0.1,4.6,0.4,6.8c0,0-8.5,14.4-8.5,23.8c0,9.3,8.5,14.9,13.2,13.2s13.2,0.4,15.3-17.4s0.9-22.1,0.9-23.8s3.8,0,4.2-8.1
				c0.3-3.5,0.1-7.1-0.4-10.6c0-2.1,5.1-1.3,6.4-9.8s-0.4-13.2,1.3-18.3c1.7-5.1,17-46.3,17-46.3L39.7,467.5z"/>
			<path id="Path_7225" class="st5" d="M135.2,467.5l7.2,65.4c0,0-5.9,10.2-5.1,14c0.8,3.8,5.5,13.2,5.5,14.4c0,1.3-2.1,2.1-0.9,7.6
				c0.7,2.8,1.1,5.6,1.3,8.5c0,0-2.1,14.9-1.3,17.9s6.4,6.8,9.8,5.9s17-0.9,18.3-0.9s16.6,2.1,21.6,0.4s6.8-7.2,5.1-8.1
				s-20.4-14.9-25.1-18.3c-4.7-3.4-4.7-5.9-4.3-8.1s3.4-3.4,2.6-8.9c-0.8-5.5-2.5-12-2.5-12s4.7-10.6,4.3-17.9
				c-0.4-7.3-1.3-11.9-0.9-13.6s6.4-48.3,6.4-48.3L135.2,467.5z"/>
			<path id="Path_7226" class="st4" d="M66.8,246.1c-6.9,24.7-12.3,49.8-16.1,75.2c-3.6,26.3-5.5,52.7-5.9,79.2c0,7.6-0.4,14-0.4,14
				s-12.3,10.6-11,21.2s3.8,34.8,3.8,34.8c3.2,2.9,7,5,11,6.4c7.2,2.5,24.2,0.4,24.2,0.4s5.1,5.1,10.2,2.1s19.1-22.9,19.9-32.7
				c0.5-6.6,0.7-13.3,0.4-20c0,0,19.5-50.5,20.4-52.2s7.6,48.3,7.6,48.3s-5.9,8.9-4.3,18.7c1.7,9.7,5.1,25.9,9.8,30.6
				s30.6,4.2,35.2,1.3c4.6-3,7.9-7.5,9.3-12.7c0.8-4.3,11.9-15.3,11.5-24.2s-3.8-19.1-3.8-22.5s-0.4-34.4-0.4-34.4l-2.6-58.4
				c0,0,2.1-31-1.3-48.8s-6.8-25.9-6.8-25.9l-37.8-14.9L66.8,246.1z"/>
			<path id="Path_7227" class="st3" d="M137,320.5c1.4-4.3,2.6-8.6,3.5-13"/>
			<path id="Path_7228" class="st3" d="M123.3,374.6c0,0,5.7-32.9,10.7-46"/>
			<path id="Path_7229" class="st3" d="M80.4,297.1c-1.3,3.1-2.4,6.2-3,9.5"/>
			<path id="Path_7230" class="st3" d="M93.6,265.7c0,0-5.6,12.5-10.2,23.9"/>
			<line id="Line_65" class="st3" x1="104.7" y1="270.8" x2="99.6" y2="311.7"/>
			<path id="Path_7231" class="st3" d="M172,294c0.3,3.5,0.6,6.7,0.8,9.2"/>
			<path id="Path_7232" class="st3" d="M169.4,268.3c0,0,0.7,6.7,1.5,14.7"/>
			<path id="Path_7233" class="st5" d="M91.7,34.5l0.4,42.1c0,0-34,5.4-42.5,7.3s-6.5-1.9-8.4,1.9s14.5,72.7,16.4,84.9
				s12.2,60.1,12.2,60.1L63,250.3c0,0,14.9,5.7,36.3,12.3s32.2,7.6,32.2,7.6l9.2-17.6l8.8,19.2c0,0,17.2-7.3,23-11.9
				s13.4-12.2,13.4-12.2l-7.3-26l3.1-107.6c0,0,4.6-34,1.5-35.2s-44.4-4.6-44.4-4.6l-1.1-12.5L95.2,31.9L91.7,34.5z"/>
			<path id="Path_7234" class="st11" d="M138.3,69.3l-0.7-7.6L95.2,31.8l-8.7,7.1l6.9,28.8c1.6,1.3,3.3-0.1,8.8,2.7
				c15.7,8,19.1,8,19.1,8l3.4,8l3.4-9.8c2.9-1.7,5.7-3.7,8.4-5.7C137.1,70.4,137.7,69.8,138.3,69.3z"/>
			<path id="Path_7235" class="st12" d="M126.2,101.1c10.3,45,14.7,91.2,13,137.4"/>
			<path id="Path_7236" class="st9" d="M141.8,113.5c0,2.1-1.7,3.8-3.8,3.8s-3.8-1.7-3.8-3.8s1.7-3.8,3.8-3.8
				S141.8,111.4,141.8,113.5L141.8,113.5z"/>
			<path id="Path_7237" class="st9" d="M147.2,153c0,2.1-1.7,3.8-3.8,3.8s-3.8-1.7-3.8-3.8s1.7-3.8,3.8-3.8S147.2,150.8,147.2,153
				L147.2,153z"/>
			<path id="Path_7238" class="st9" d="M150.7,191.2c0,2.1-1.7,3.8-3.8,3.8c-2.1,0-3.8-1.7-3.8-3.8c0-2.1,1.7-3.8,3.8-3.8
				c0,0,0,0,0,0C148.9,187.4,150.6,189.1,150.7,191.2z"/>
			<path id="Path_7239" class="st9" d="M149.9,228c0,2.1-1.7,3.8-3.8,3.8s-3.8-1.7-3.8-3.8s1.7-3.8,3.8-3.8S149.9,225.8,149.9,228
				L149.9,228z"/>
			<path id="Path_7240" class="st7" d="M42.7,88.5c0,0-10.9,8.9-12.5,20c-1.2,8.5-3.4,16.8-6.4,24.8c-2,5-21.7,38.7-21.5,47.8
				s6.1,17,19.5,12.8s17.5-14.5,24.8-25.6s12.8-20,12.8-20L42.7,88.5z"/>
			<path id="Path_7241" class="st7" d="M15.1,170.8c0,0,5-9.5,19.7-9.7s23.9,3.9,32,3.9s15.3-0.3,15.3-0.3l5,32.5
				c0,0-22.5,6.7-44.2,6.1S12,201.7,6.1,192.2c-3.5-5.4-3.6-12.4-0.3-17.9"/>
			<path id="Path_7242" class="st10" d="M101.3,151.9c0,0,3.1-9.7,4.7-11.7s7.8-9.7,8.9-14.2c1.1-4.5,6.7-0.6,6.1,6.1
				c-0.6,6.7-3.6,11.1-3.9,12.5s22.8-2.5,30.6-1.4s11.7,3.6,10.6,5.6s-8.1,3.1-8.1,3.1c0,2.1-1,4.2-2.8,5.4
				c-2.3,1.5-4.4,3.3-6.1,5.4c-1.8,3.3-3.8,6.4-6.2,9.3c-3.1,4-7.8,6.3-12.8,6.4c-4.7,0-13.4-0.3-14.2,0S101.3,151.9,101.3,151.9z"
				/>
			<path id="Path_7243" class="st3" d="M150.3,151.9c-5.1,1.1-10.2,2.6-15,4.5"/>
			<line id="Line_66" class="st3" x1="142.5" y1="160.2" x2="134.7" y2="163.8"/>
			<path id="Path_7244" class="st4" d="M82.1,164.7c5.4-3.4,10.5-7.2,15.3-11.4c5.8-5.6,7.8-7.8,9.2-3.9s-0.3,4.5,2.8,10
				s4.5,7.8,4.7,13.9s-0.8,7.2-0.8,10.3s2,4.7,0,8.3c-2,3.6-2.8,5.6-2.8,5.6s-8.6-1.1-11.4-1.1s-12,0.8-12,0.8L82.1,164.7z"/>
			<path id="Path_7245" class="st5" d="M71.1-16.1c0,0-10.5-1.5-11.6,6.6s-3.6,39.4,1.9,46.5S76,52.2,84,49.7s14.1-4.5,14.3-9.5
				s-3-33.7-3-33.7s10.1-11.3,16.3-12.8s14-0.3,15.6,0.5c1.6,0.9,4.3,4.2,8.8,1.8s7.2-7.2,5.5-10.7l-1.6-3.6c0,0,8,2,5.6-4.6
				S116-37,93.6-36.3S71.1-16.1,71.1-16.1z"/>
			<path id="Path_7246" class="st10" d="M82.9,28.7c0,0,4.4,0.7,5.4-6.5S87.6,4.4,85.2,2.1l-2.4-2.3c0,0,10.2,2.3,9.1-1.4
				s-6.5-9.7-6.5-9.7s7.8,4,22.7,0.3s21.5-3.4,21.5-3.4c3.2,5.6,6,11.5,8.4,17.5c1.9,5.9,6.1,15.6,7.4,22.3s3.6,16.5,3.9,22.2
				s-1.1,10.4-5.7,13.2s-2.8,5.6-17.1,4.1s-22.4-5-27.6-9.9S86.3,38.9,86.3,38.9L82.9,28.7z"/>
			<path id="Path_7247" class="st10" d="M88.6,27.6c0,0-4-8.6-8.5-3.8s-1.6,14,2.3,18.3s10.5,1.8,10.5,1.8"/>
			<path id="Path_7251" class="st5" d="M128.7,44.6c0,0,0.1,2,5.1,0.5s9.9-3.1,8.9-6.7s-5.7-6.8-8.9-5.6S129.3,42.7,128.7,44.6z"/>
			<path id="Path_7252" class="st13" d="M129.1,29.9c0,0-5.7,4-7.2,8.1s1.8,9.6-3.2,13.8s-7.6,2.9-7.6,2.9s7.3,3,12-0.3
				s6.5-13.3,9.4-16.8s5-3,5-3s6.2,5,7.4,8s3.4,4,6.9,2.5c2-0.8,3.8-2.2,5.1-3.9c0,0-3.9,4-8.3-2.2s-4.9-10.2-12.1-9.7L129.1,29.9z"
				/>
			<path id="Path_7255" class="st5" d="M142.2,47.6c0,0-5.1,0.7-5.4,2.8s-0.7,5.4-3.6,6.2s-5.5,0.2-8.6-3.6s-4.8-2-2.7,4.3
				s11.9,13.2,17.9,13.9s10.3-4.3,10.1-12.8c0.1-3.5-0.2-7-0.8-10.5c-0.9,0.8-2.1,1.4-3.3,1.6C144.4,49.8,142.9,49,142.2,47.6z"/>
		</g>
	</g>
</g>
</svg>
