<svg xmlns="http://www.w3.org/2000/svg" xmlns:xlink="http://www.w3.org/1999/xlink" width="924.876" height="332.953" viewBox="0 0 924.876 332.953"><defs><linearGradient id="a" x1="0.5" x2="0.5" y2="1" gradientUnits="objectBoundingBox"><stop offset="0" stop-color="#fff"/><stop offset="1" stop-color="#fff" stop-opacity="0"/></linearGradient></defs><path d="M-11056.846-3587.65h0c-1.666,0-3.356-.046-5.025-.135a91.891,91.891,0,0,1-32.406-7.745,92.028,92.028,0,0,1-26.667-17.949,54.728,54.728,0,0,1-8.039,6.724,54.189,54.189,0,0,1-9.231,5.075,53.281,53.281,0,0,1-21.1,4.324c-.973,0-1.961-.026-2.937-.079a53.922,53.922,0,0,1-13.838-2.573,53.491,53.491,0,0,1-12.288-5.832,54.4,54.4,0,0,1-18.177-19.431,84.906,84.906,0,0,1-57.323,22.26c-1.539,0-3.1-.042-4.644-.125a85.164,85.164,0,0,1-22.114-4.15,84.5,84.5,0,0,1-19.594-9.415,85.82,85.82,0,0,1-28.752-31.327,51.407,51.407,0,0,1-18.312,17.783,50.941,50.941,0,0,1-12.017,4.961,50.985,50.985,0,0,1-13.268,1.752c-.924,0-1.862-.025-2.79-.075a50.674,50.674,0,0,1-28.776-10.819,51.284,51.284,0,0,1-10.368-11,50.978,50.978,0,0,1-6.743-13.651,50.724,50.724,0,0,1-7.489,13.421,51.258,51.258,0,0,1-11.011,10.491,50.76,50.76,0,0,1-29.325,9.272c-.926,0-1.867-.026-2.8-.076a51.3,51.3,0,0,1-12.925-2.371,50.861,50.861,0,0,1-11.514-5.366,51.419,51.419,0,0,1-17.18-17.913V-3774.2a49.371,49.371,0,0,1,14.333-2.118c.9,0,1.807.024,2.7.073a49.6,49.6,0,0,1,16.08,3.634,84.241,84.241,0,0,1,10.18-28.06,85.021,85.021,0,0,1,18.725-22.339,84.918,84.918,0,0,1,25.216-14.763,84.574,84.574,0,0,1,29.65-5.333c1.541,0,3.105.042,4.65.125a85.173,85.173,0,0,1,23.325,4.626,108.15,108.15,0,0,1,14.677-32.59,109.434,109.434,0,0,1,23.952-25.718,109.086,109.086,0,0,1,31.031-16.876,108.8,108.8,0,0,1,35.906-6.063c1.981,0,3.989.054,5.969.16a109.78,109.78,0,0,1,26.383,4.68,108.661,108.661,0,0,1,23.683,10.53,109.6,109.6,0,0,1,20.238,15.546,109.921,109.921,0,0,1,16.055,19.728,83.667,83.667,0,0,1,23-11.866,83.323,83.323,0,0,1,26.332-4.25c1.513,0,3.048.042,4.565.123a83.375,83.375,0,0,1,30.558,7.539,83.619,83.619,0,0,1,13.252,7.656,84.258,84.258,0,0,1,11.545,9.85,83.294,83.294,0,0,1,23.766,55.366,47,47,0,0,1,14.779-9.771,46.284,46.284,0,0,1,17.889-3.572c.843,0,1.7.023,2.536.068a46.666,46.666,0,0,1,16.918,4.137,46.654,46.654,0,0,1,13.786,9.6,46.633,46.633,0,0,1,13.539,30.434,63.682,63.682,0,0,1,34.32-10.062h0c1.142,0,2.3.031,3.439.092a63.685,63.685,0,0,1,20.8,4.666,63.482,63.482,0,0,1,17.5,10.778,64.005,64.005,0,0,1,13.087,15.629,63.436,63.436,0,0,1,7.555,19.219,28.022,28.022,0,0,1,4.483-.374c.459,0,.923.013,1.379.037a26.816,26.816,0,0,1,10.363,2.676,26.85,26.85,0,0,1,8.245,6.219,26.8,26.8,0,0,1,5.306,8.853,26.707,26.707,0,0,1,1.551,10.575c-.006.111-.018.222-.032.334l0,.035c-.01.082-.02.166-.025.249a27.279,27.279,0,0,1,4.315-.345h.007c.472,0,.95.013,1.421.038a26.9,26.9,0,0,1,17.471,7.719,26.874,26.874,0,0,1,7.933,17.146,38.151,38.151,0,0,1,13.61-2.512c.682,0,1.371.018,2.049.055a38.007,38.007,0,0,1,22.606,8.974,27.221,27.221,0,0,1,7.7-4.226,26.716,26.716,0,0,1,8.918-1.527c.485,0,.978.013,1.465.04a26.912,26.912,0,0,1,13.557,4.524,27.08,27.08,0,0,1,9.139,10.433,14.475,14.475,0,0,1,5.488-1.107c.244,0,.49.007.732.02a14.217,14.217,0,0,1,8.32,3.226,14.5,14.5,0,0,1,4.772,7.32,20.16,20.16,0,0,1,14.247,9.148,16.168,16.168,0,0,1,4.7-2.734,15.68,15.68,0,0,1,5.507-1c.28,0,.567.008.853.023a15.672,15.672,0,0,1,6.354,1.71,16.053,16.053,0,0,1,4.971,3.961c1.382-3.754,6.333-6.277,12.319-6.277a22.227,22.227,0,0,1,2.843.186,19.65,19.65,0,0,1,9,3.427,9.425,9.425,0,0,1,4.1,6.132h.407a95.733,95.733,0,0,1,18.77,2.181,90.013,90.013,0,0,1,19.762,6.3c5.113,2.463,7.711,4.86,7.316,6.75-.437,2.08-4.528,3.274-11.223,3.274a87.85,87.85,0,0,1-14.006-1.292c-3.02,2.289-8.979,3.71-15.551,3.71-.312,0-.623,0-.925-.009-6.207-.12-11.925-1.454-15.3-3.569a12.969,12.969,0,0,1-4.181,3.046,12.415,12.415,0,0,1-5.189,1.129c-.229,0-.462-.006-.691-.019a12.412,12.412,0,0,1-4.519-1.107,12.974,12.974,0,0,1-3.7-2.55,16.23,16.23,0,0,1-5.13,3.566,15.567,15.567,0,0,1-6.288,1.319c-.287,0-.575-.008-.859-.023a15.9,15.9,0,0,1-10.59-4.871,20.11,20.11,0,0,1-15.81,7.678h-.006c-.365,0-.736-.01-1.1-.03a19.715,19.715,0,0,1-8.249-2.284,20.474,20.474,0,0,1-6.38-5.29,26.55,26.55,0,0,1-22.164,11.944h-.006c-.479,0-.965-.013-1.442-.039a26.481,26.481,0,0,1-8.651-1.944,26.662,26.662,0,0,1-7.29-4.481,38.38,38.38,0,0,1-12.05,7.923,37.875,37.875,0,0,1-14.573,2.895c-.693,0-1.4-.019-2.085-.056a38.37,38.37,0,0,1-10.121-1.922,38.039,38.039,0,0,1-8.94-4.369,38.552,38.552,0,0,1-12.971-14.517,47.34,47.34,0,0,1-16.421,14.414,46.6,46.6,0,0,1-10.4,3.99,46.7,46.7,0,0,1-11.377,1.4c-.843,0-1.7-.023-2.548-.069a46.623,46.623,0,0,1-17.988-4.641,46.644,46.644,0,0,1-14.315-10.788,61.745,61.745,0,0,1-9.462,9.288,61.368,61.368,0,0,1-11.263,7.063,60.667,60.667,0,0,1-12.694,4.491,60.838,60.838,0,0,1-13.759,1.574c-1.1,0-2.215-.03-3.314-.089a60.705,60.705,0,0,1-20.346-4.662,61.028,61.028,0,0,1-17.018-10.77,93.077,93.077,0,0,1-13.829,11.75,92.58,92.58,0,0,1-15.938,8.865,91.834,91.834,0,0,1-17.626,5.6A92.365,92.365,0,0,1-11056.846-3587.65Z" transform="translate(11523.999 3920.103)" stroke="rgba(0,0,0,0)" stroke-miterlimit="10" stroke-width="1" opacity="0.82" fill="url(#a)"/></svg>