<?xml version="1.0" encoding="utf-8"?>
<!-- Generator: Adobe Illustrator 25.2.0, SVG Export Plug-In . SVG Version: 6.00 Build 0)  -->
<svg version="1.1" id="Layer_1" xmlns="http://www.w3.org/2000/svg" xmlns:xlink="http://www.w3.org/1999/xlink" x="0px" y="0px"
	 viewBox="0 0 1044.1 860.8" style="enable-background:new 0 0 1044.1 860.8;" xml:space="preserve">
<style type="text/css">
	.st0{opacity:0.39;}
	.st1{fill:#FFFFFF;}
	.st2{fill:none;stroke:#FFFFFF;stroke-width:2.1477;stroke-miterlimit:10;}
	.st3{fill:none;stroke:#FFFFFF;stroke-width:2.1477;stroke-linecap:round;stroke-linejoin:round;}
	.st4{opacity:0.35;}
	.st5{fill:#FFFFFF;stroke:#FFFFFF;stroke-width:1.062;}
	.st6{opacity:0.35;fill:#FFFFFF;enable-background:new    ;}
	.st7{fill:none;stroke:#263239;stroke-width:1.0739;stroke-linecap:round;stroke-linejoin:round;}
	.st8{fill:none;stroke:#263239;stroke-width:3.2216;stroke-linecap:round;stroke-linejoin:round;}
	.st9{fill:#F1A60D;}
	.st10{fill:#FFFFFF;stroke:#263239;stroke-width:1.0739;stroke-linejoin:round;}
	.st11{fill:#F6C6C6;}
	.st12{fill:#263239;stroke:#263239;stroke-width:1.0739;stroke-linecap:round;stroke-linejoin:round;}
	.st13{fill:#F1A60D;stroke:#263239;stroke-width:1.0739;stroke-linecap:round;stroke-linejoin:round;}
	.st14{fill:#F6C6C6;stroke:#263239;stroke-width:1.0739;stroke-linecap:round;stroke-linejoin:round;}
	.st15{fill:#FFFFFF;stroke:#263239;stroke-width:1.0739;stroke-linecap:round;stroke-linejoin:round;}
	.st16{fill:#F1A60D;stroke:#263239;stroke-width:0.5369;stroke-linecap:round;stroke-linejoin:round;}
</style>
<g id="Group_512" transform="translate(-880.385 -89.257)">
	<g id="Group_413" transform="translate(-13854.602 -2171.074)" class="st0">
		<g id="freepik--Speakers--inject-2" transform="translate(14894 2844.098)">
			<path id="Path_7319" class="st1" d="M15.3-26.3c-19.8,0-35.9,16.1-35.9,35.9c0,19.8,16.1,35.9,35.9,35.9S51.2,29.5,51.2,9.6
				S35.1-26.3,15.3-26.3C15.3-26.3,15.3-26.3,15.3-26.3z M15.3,22.6c-7.2,0-13-5.8-13-13c0-7.2,5.8-13,13-13s13,5.8,13,13l0,0
				C28.3,16.8,22.5,22.6,15.3,22.6z"/>
			<path id="Rectangle_240" class="st2" d="M-55.3-44.7H85.9c2.3,0,4.2,1.9,4.2,4.2v235c0,2.3-1.9,4.2-4.2,4.2H-55.3
				c-2.3,0-4.2-1.9-4.2-4.2v-235C-59.5-42.8-57.6-44.7-55.3-44.7z"/>
			<path id="Path_7320" class="st1" d="M725.6,65.4c-32.2,0-58.2,26.1-58.2,58.2s26.1,58.2,58.2,58.2c32.2,0,58.2-26.1,58.2-58.2
				c0,0,0,0,0,0C783.8,91.4,757.7,65.4,725.6,65.4z M725.6,144.6c0-4.8,4-8.7,8.8-8.7c4.8,0,8.7,4,8.7,8.8c0,4.8-4,8.7-8.8,8.7
				C729.5,153.3,725.6,149.4,725.6,144.6L725.6,144.6z"/>
			<path id="Path_7320_1_" class="st1" d="M15.3,65.4c-32.2,0-58.2,26.1-58.2,58.2s26.1,58.2,58.2,58.2s58.2-26.1,58.2-58.2
				c0,0,0,0,0,0C73.5,91.4,47.4,65.4,15.3,65.4z M15.3,144.6c0-4.8,4-8.7,8.8-8.7c4.8,0,8.7,4,8.7,8.8c0,4.8-4,8.7-8.8,8.7
				C19.2,153.3,15.3,149.4,15.3,144.6L15.3,144.6z"/>
			<path id="Path_7321" class="st1" d="M725.6-26.3c-19.8,0-35.9,16.1-35.9,35.9s16.1,35.9,35.9,35.9s35.9-16.1,35.9-35.9l0,0
				C761.5-10.2,745.4-26.3,725.6-26.3z M725.6,22.6c-7.2,0-13-5.8-13-13s5.8-13,13-13c7.2,0,13,5.8,13,13c0,3.4-1.4,6.7-3.8,9.2
				C732.3,21.3,729,22.6,725.6,22.6z"/>
			<path id="Rectangle_241" class="st2" d="M655-44.7h141.1c2.3,0,4.2,1.9,4.2,4.2v235c0,2.3-1.9,4.2-4.2,4.2H655
				c-2.3,0-4.2-1.9-4.2-4.2v-235C650.8-42.8,652.7-44.7,655-44.7z"/>
		</g>
		<g id="freepik--Graphics--inject-2" transform="translate(15048.547 2343.276)">
			<line id="Line_67" class="st3" x1="73.1" y1="-41" x2="73.1" y2="-12.7"/>
			<line id="Line_68" class="st3" x1="87.3" y1="-26.8" x2="58.9" y2="-26.8"/>
			<line id="Line_69" class="st3" x1="11.2" y1="132.4" x2="11.2" y2="151.8"/>
			<line id="Line_70" class="st3" x1="20.9" y1="142.1" x2="1.5" y2="142.1"/>
			<line id="Line_71" class="st3" x1="439.3" y1="-55.1" x2="439.3" y2="-35.7"/>
			<line id="Line_72" class="st3" x1="449" y1="-45.4" x2="429.6" y2="-45.4"/>
			<line id="Line_73" class="st3" x1="322.5" y1="399.5" x2="322.5" y2="418.9"/>
			<line id="Line_74" class="st3" x1="332.3" y1="409.2" x2="312.8" y2="409.2"/>
			<line id="Line_75" class="st3" x1="417.2" y1="116.4" x2="417.2" y2="139.4"/>
			<line id="Line_76" class="st3" x1="428.7" y1="127.9" x2="405.7" y2="127.9"/>
			<line id="Line_77" class="st3" x1="474.7" y1="-44.5" x2="474.7" y2="-21.5"/>
			<line id="Line_78" class="st3" x1="486.2" y1="-33" x2="463.2" y2="-33"/>
			<path id="Path_7322" class="st3" d="M-31.3,62.5c0,4.4-3.5,8-7.9,8s-8-3.5-8-7.9c0-4.4,3.5-8,7.9-8c0,0,0,0,0,0
				C-34.8,54.5-31.3,58.1-31.3,62.5z"/>
			<path id="Path_7323" class="st3" d="M382.7,365.9c0,4.4-3.6,8-8,8c-4.4,0-8-3.6-8-8c0-4.4,3.6-8,8-8
				C379.1,357.9,382.7,361.5,382.7,365.9L382.7,365.9z"/>
			<path id="Path_7324" class="st3" d="M511.8,101.4c0,4.4-3.6,7.9-8,7.9c-4.4,0-7.9-3.6-7.9-8c0-4.4,3.6-7.9,8-7.9
				c2.1,0,4.1,0.8,5.6,2.3C511,97.3,511.8,99.3,511.8,101.4z"/>
			<circle id="Ellipse_142" class="st3" cx="11.2" cy="-75.5" r="6.2"/>
			<circle id="Ellipse_143" class="st3" cx="101.4" cy="365" r="6.2"/>
			<circle id="Ellipse_144" class="st3" cx="-41.9" cy="212.9" r="6.2"/>
		</g>
		<g id="freepik--Wave--inject-2" transform="translate(14909.274 2576.374)">
			<path id="Path_7325" class="st2" d="M-58.4,72.3h20.1V47.7c0-6.2,5.1-11.3,11.3-11.3l0,0l0,0c6.2,0,11.3,5.1,11.3,11.3v69.9
				c0,6.7,5.4,12.1,12.1,12.1l0,0c6.7,0,12.1-5.4,12.1-12.1V-9c0-8.1,6.6-14.6,14.7-14.6l0,0c8.1,0,14.6,6.6,14.6,14.6v169.7
				c0,7.6,6.2,13.8,13.8,13.8h0l0,0c7.6,0,13.8-6.2,13.8-13.8v-207c0-10,8.1-18.1,18.1-18.1l0,0c10,0,18.1,8.1,18.1,18.1l0,0v206.1
				c0,8.1,6.6,14.7,14.7,14.7l0,0c8.1,0,14.7-6.6,14.7-14.7l0,0V-4.5c0-9.5,7.7-17.2,17.2-17.2l0,0c9.5,0,17.2,7.7,17.2,17.2l0,0
				v121.1c0,7.1,5.8,12.9,12.9,12.9c0,0,0,0,0,0l0,0c7.1,0,12.9-5.8,12.9-12.9c0,0,0,0,0,0V50.8c0-6.8,5.5-12.3,12.3-12.3l0,0
				c6.8,0,12.3,5.5,12.3,12.3v21.5h22.9"/>
			<path id="Path_7326" class="st2" d="M222.7,72.3h20V47.7c0-6.2,5-11.3,11.2-11.3l0,0c6.2,0,11.3,5.1,11.3,11.3v69.9
				c0,6.7,5.4,12.1,12.1,12.1l0,0c6.7,0,12.1-5.4,12.1-12.1V-9c0-8.1,6.6-14.6,14.7-14.6l0,0c8.1,0,14.6,6.6,14.6,14.6c0,0,0,0,0,0
				v169.7c0,7.6,6.2,13.8,13.8,13.8h0l0,0c7.6,0,13.8-6.2,13.8-13.8v-207c0-10,8.1-18.1,18.1-18.1l0,0c10,0,18.1,8.1,18.1,18.1l0,0
				v206.1c0,8.1,6.5,14.6,14.6,14.7c0,0,0,0,0,0l0,0c8.1,0,14.7-6.6,14.7-14.7l0,0V-4.5c0-9.5,7.7-17.2,17.2-17.2l0,0
				c9.5,0,17.2,7.7,17.2,17.2l0,0v121.1c0,7.1,5.8,12.9,12.9,12.9c0,0,0,0,0,0l0,0c7.1,0,12.9-5.8,12.9-12.9c0,0,0,0,0,0V50.8
				c0-6.8,5.5-12.3,12.3-12.3l0,0c6.8,0,12.3,5.5,12.3,12.3v21.5h22.9"/>
			<path id="Path_7327" class="st2" d="M503.7,72.3h20V47.7c0-6.2,5-11.3,11.2-11.3l0,0c6.2,0.1,11.2,5.1,11.2,11.3v69.9
				c0,6.7,5.4,12.1,12.1,12.1l0,0c6.7,0,12.1-5.4,12.1-12.1V-9c0-8.1,6.6-14.6,14.7-14.6l0,0c8.1,0,14.6,6.6,14.6,14.6c0,0,0,0,0,0
				v169.7c0,7.6,6.1,13.7,13.7,13.8l0,0c7.6,0,13.8-6.2,13.8-13.8c0,0,0,0,0,0v-207c0-10,8.1-18.1,18.1-18.1l0,0
				c10,0,18.1,8.1,18.1,18.1l0,0v206.1c0,8.1,6.5,14.6,14.6,14.7l0,0c8.1,0,14.7-6.6,14.7-14.7l0,0V-4.5c0-9.5,7.7-17.2,17.2-17.2
				l0,0c9.5,0,17.2,7.7,17.2,17.2v121.1c0,7.1,5.8,12.9,12.9,12.9c0,0,0,0,0,0l0,0c7.1,0,12.9-5.8,12.9-12.9c0,0,0,0,0,0V50.8
				c0-6.8,5.5-12.3,12.3-12.3l0,0c6.8,0,12.3,5.5,12.3,12.3v21.5h23.1"/>
		</g>
	</g>
	<g id="Group_408" transform="translate(116.873 -173.5)" class="st4">
		<rect id="Rectangle_242" x="762.5" y="1041.9" class="st5" width="1046.2" height="10.6"/>
	</g>
	<g id="Group_428">
		<path id="Path_6913" class="st6" d="M1486.5,598.9c0,0,0.1,0.6,0.4,1.7c2.5,11.1,16.9,72.9,23.2,79.4c-2,12.5-7,36.5-11.9,41.9
			c-4.9,5.4-7,33,0,52.7c6.9,19.7,12.2,51.8,6.9,67.9c-5.3,16.1-21.8,26.8-14.5,34.6c7.2,7.8,25.7,22.1,25,32.2
			c-0.7,10.1,0.7,37,11.9,37.6c11.2,0.6,11.9,5.4,14.5-16.1c2.6-21.5,4.6-32.2,4-52.5c-0.7-20.3-9-44.1-9-44.1s18.2,31,20.2,42.3
			c2,11.3-2,29.8,0,38.2c2,8.3-2,32.1,12.5,33.1c14.5,0.9,22.4,5.7,24.4-14c2-19.7-0.7-48.9-9.2-69.8c-8.6-20.9-19.8-34-17.8-51.9
			c2-17.9,0-64.4-9.2-78.7c-9.2-23.9,13.2-76.9,13.2-76.9l19.1-31.6c0,0,20.4,14.9,25,14.3c4.6-0.6,15.8-3,15.8-3l7.2,1.2l5.3-0.6
			l9.2,3l11.2-6.6c0,0-13.2,2.4,7.9,3c21.1,0.6,24.4,0,24.4,0l9.2-3c0,0-4-7.2,7.9-7.2c11.9,0,11.9-8.9,11.9-8.9
			s-13.2-8.3-12.5-13.7c0.7-5.4,1.3-8.3-5.3-16.7c-6.6-8.4-70.5-70.4-89.6-81.7s-6.6-34,2-45.9c8.6-11.9,15.2-48.9,15.2-48.9
			s7.2-10.7,5.9-19.7s-11.9-40.6-11.9-40.6s-7.2-13.7,0-26.8c7.2-13.1,34.9-67.4,40.8-75.1c5.9-7.8,10.5-12.5,21.1-44.1
			s15.8-50.1,15.8-50.1s14.8-6.9,23.7-12.2s21.1-5.7,21.1-5.7s17.1,0.6,17.8-3.3s-4-3.3-4-3.3s7.9-0.9,8.9-4.2s2.3-6-4.6-7.2
			c-5-1-9.8-2.5-14.5-4.5l15.5-6c0,0,1-6.3-8.6-4.8c-9.6,1.5-33.9,5.4-43.1,14c-9.2,8.6-23.1,17.6-23.1,17.6l-30,53.4
			c0,0-16.1,24.5-17.8,37c-1.6,12.5-19.1,35.8-19.1,35.8s-23.7,36.1-31.6,42.6c-5.1,4.5-9.5,9.8-12.8,15.8l-7.2,0.6
			c0,0-9.6-20.3-6.3-32.2c3.3-11.9,19.8-24.3,16.8-27.6c-3-3.3-11.2-11.2-11.2-11.2h-4.3l1.6-5.2l-4.9-0.8c0,0,2.6-12.9-3.3-11.4
			s-16.5,0.8-18.8-1.8c-2.3-2.7-20.4-13.4-30.3-10.5c-9.9,3-39.5,14.6-37.6,33.1c-11.9,5.7-22.7,14.6-18.8,25.3
			c4,10.7,11.9,35.5,37.9,20.9c10.2,7.8,24,8.3,24,8.3s4.3,23-9.9,23.3c-14.2,0.3-28.3,1.8-36.9,6.3s-43.8,14.3-67.2,12.5
			c-23.4-1.8-31.6-3-56.3-1.5s-52,1.5-52,1.5s-25.4,10.1-34.3,20.6c-8.9,10.4-13.2,15.5-13.2,15.5l-11.5,15.5c0,0-3,5.7,2.6,5.4
			s6.3-4.5,6.3-4.5l-0.3,12.2c0,0,0.3,4.8,5.3,0.9c2,0.6,9.6,5.1,9.6-1.5c0-6.6-4-19.7-2.6-22.4c1.3-2.7,9.2-8.3,11.9-8.3
			s5.9,2.4,4,5.7c-2,3.3-3,6-2.3,11.3c0.7,5.4,6.3,5.4,6.3,5.4l4.3-9.8c0,0-0.3-4.2,4.6-6.9c4.9-2.7,13.5-14.9,12.8-20.6
			c19.1,2.1,66.5,9.8,66.5,9.8s22.1,4.5,38.9,1.5c16.8-3,73.8-7.5,81.7-6s21.4,20.9,21.4,20.9s13.2,8.9,13.2,15.8s4.9,31.9,4.9,31.9
			s-4,24.7-15.5,26.2c-11.5,1.5-68.8-4.5-93.2-3.3c-24.4,1.2-23.1,0.9-23.1,0.9l-1.6,5.1l-2.6,0.6l-13.5,2.1v3.3l-3.7-0.3l-1,5.7
			l-0.8,3l-15.7,0.3l-4.2,8.6l-14.1,3.9l2,3.9l-2.6,2.1l0.7,2.4l2,3.3l-0.3,4.5l-2.6,2.5l2.6,4.6h4.4v9.3l3.9,6.9
			c0,0,7.5,2.7,9.5,2.7c2,0,10-1.8,14.6-3c4.4-1.3,8.7-2.9,12.9-4.8l-1,5.1c0,0,0.3,2.4,4.3,2.4c2.1-0.1,4.2,0.8,5.6,2.4l-2,4.5
			l10.5,2.7c0,0-3.3,8.9-0.3,10.4c3,1.5,8.6,2.1,8.6,2.1l0.7,5.7c0,0-1.3,3.6,2.6,3.6s13.8,2.1,14.2,4.5s1,5.4,1,5.4l16.1,6.9
			c0,0,12.2,6,13.2,6.9c1,0.9,13.8,0.3,13.8,0.3l5.9-2.1L1486.5,598.9z"/>
		<g id="Choreographer-bro" transform="translate(971.73 191.511)">
			<g id="freepik--Window--inject-2" transform="translate(11 38)">
				<line id="Line_80" class="st7" x1="-63.7" y1="649.5" x2="760.7" y2="649.5"/>
			</g>
			<g id="freepik--Plant--inject-2" transform="translate(520.704 234.715)">
				<path id="Path_7399" class="st8" d="M94.3,67.6c0,0,0.8,104.6,0.8,132.2s-0.8,193-0.8,193"/>
				<path id="Path_7400" class="st9" d="M157.1,94.4l-25.9-21.8l50.3,11l-41.9-23.5l43.6-9.1l-51.9-2.6l57.7-43.5l-65.3,32.6
					L161.3-27l-50.2,57.7l17.6-84.5L96,24.9l-3.3-87.8L86,26.6L50.4-52.5l24.7,86.6L21.8-24l46.6,71.5L2.5,0.5l61.7,59.6L-5.7,21.9
					l64,43.2L0.4,57.5l56.2,15.9l-45,7.5l46.7-1.7L30.8,97.7L96,80.1L157.1,94.4z"/>
				<path id="Path_7401" class="st8" d="M69.2,173c0,0-2.5,21.7-0.8,30.1c1.8,9.7,2.6,19.5,2.5,29.3c0,10.9,0.8,57,0.8,64.6
					s-0.8,71.5-0.8,77.4v20.1"/>
				<path id="Path_7402" class="st8" d="M71.7,288.7c0,0,3.3-63.8,6.7-72.2s5.9-5.9,6.7-15.9c0.8-10,0.8-14.2,2.5-17.6
					c1.3-3,2.5-6.1,3.4-9.2l1.7-6.7"/>
				<path id="Path_7403" class="st9" d="M131.1,194.7L105.2,173l72.8,8.4l-64.4-20.9l66.1-11.7h-74.5l57.7-43.5l-65.3,32.6
					l37.7-64.4l-50.2,57.7l17.6-84.5l-32.6,78.7l-3.4-87.8L60,127L34.1,45.8l15.1,88.7l-46-66.1l39.3,79.5l-60.4-39.4l56.2,52
					L-24,135l56.4,30.5l-58.5-5l56.8,13.4l-39.5,9l41.1-3.1L4.8,198.1l65.3-17.6L131.1,194.7z"/>
				<path id="Path_7404" class="st9" d="M132.9,338.2l-25.9-21.7l72.8,8.4l-64.4-20.9l66.1-11.7h-74.5l57.7-43.5l-65.3,32.6
					l37.7-64.4l-50.2,57.7l17.6-84.5l-32.6,78.7l-3.4-87.8l-6.7,89.5l-25.9-81.1L50.9,278l-46-66.1l39.3,79.5l-60.4-39.4l56.2,52
					l-62.3-25.5l56.4,30.5l-58.5-5l56.8,13.4l-39.5,9l41.1-3.1L6.5,341.5L71.8,324L132.9,338.2z"/>
				<path id="Path_7405" class="st10" d="M46.3,370.8l-17.9,29.8c-2.8,4.6-3.5,10.1-2.1,15.2l7.9,29.6c1.2,4.3,5.1,7.3,9.5,7.3h81.6
					c4.5,0,8.4-3,9.5-7.3l8-29.6c1.4-5.2,0.6-10.7-2.1-15.2l-17.9-29.8c-1.2-2-3.4-3.3-5.8-3.3H52.1
					C49.7,367.5,47.5,368.7,46.3,370.8z"/>
			</g>
			<g id="freepik--character-3--inject-2" transform="translate(268.974 101.355)">
				<path id="Path_7406" class="st11" d="M239.4,377.5c0,0-17.2,22.1-23.9,42.3c-6.7,20.2-52.7,78.5-52.7,78.5l10.4,21.5
					c0,0,62.5-58.3,76-72.3c13.5-14.1,57-64.4,57.6-68.7c0.6-4.3-17.8-35.6-17.8-35.6L239.4,377.5z"/>
				<path id="Path_7407" class="st12" d="M261.1,367.7l31.3-17.1l-3.3-7.4l-30.9,24L261.1,367.7z"/>
				<path id="Path_7408" class="st11" d="M13,432c0,0,71.1,105.5,73.3,109.2c2.2,3.7,6,12,9.7,12c3.8,0,19,4.9,19.7-0.3
					s-2.7-17.6-5-24.3c-2.2-6.7-39.9-103.5-39.9-103.5L13,432z"/>
				<path id="Path_7409" class="st12" d="M16.7,437.7c0,0,19.9,9.1,36,9.7s23.9-4,23.9-4l-2.8-9.7l-58.1-1.7L16.7,437.7z"/>
				<path id="Path_7410" class="st12" d="M103.5,546.5c0,0-13.5-18-17.2-14.2s-4.5,15-8.2,20.2c-3.7,5.3-38.2,23.2-37.4,26.2
					c0.8,3,3.2,7.5,11.2,7.5h69.7c0,0,3.7-11.2,1.5-17.2s-9-27-9-27L103.5,546.5z"/>
				<path id="Path_7411" class="st13" d="M40.8,579c0.9,3,3.4,7.1,11.1,7.1h69.7c1.5-4.5,2.3-9.1,2.2-13.8
					c-10.9,2.8-22,5.1-33.1,6.7C75.4,581.1,49,579.6,40.8,579z"/>
				<path id="Path_7412" class="st12" d="M190.7,521.8c0,0,4.5-9.9,2.9-14.4c-1.6-4.5-11.2,0.8-12.8,1.6s-12.8-21-12.8-21
					c-4.7,3.7-9.8,6.7-15.3,9c-7,2.5-15.3,9-15.7,11.9c-0.5,2.9,9,22.3,10.3,33s5.3,27.6,11.5,33c6.2,5.4,16.5,6.2,17.3,3.3
					c0.8-2.9-3.7-13.6-3.7-16.1c0-2.5,12.4-33,12.8-35C185.7,525,190.7,521.8,190.7,521.8z"/>
				<path id="Path_7413" class="st13" d="M176.3,578.1c0.1-0.4,0.1-0.8,0-1.2c-7.6,0.3-16.1-4.1-18.6-9.5c-2.9-6.2-4.5-23.5-7-42
					c-1.8-13.7-6.1-20.2-8.2-22.6c-3,2.2-5.2,4.7-5.4,6.1c-0.4,2.9,9,22.3,10.3,33s5.3,27.6,11.5,33
					C165.1,580.2,175.5,581,176.3,578.1z"/>
				<path id="Path_7414" class="st11" d="M149.2,42.2c0,0,37.4,9.7,47.9,13.5c10.5,3.8-9.7,32.2-9.7,32.2l-43.4-2.2L149.2,42.2z"/>
				<path id="Path_7415" class="st9" d="M36.2,274.9c0,0-15.7,61.4-20.2,89.9c-4.5,28.5-9,69.7-9,69.7c17.6,4.7,35.8,6.2,53.9,4.5
					c29.2-3,40.5-9.7,40.5-9.7l22.2-98.7l14.4-21.8l74.2,86.8c0,0,35.2-18,50.9-29.9l31.5-23.9c0,0-50.9-71.1-68.1-87.5
					s-38.2-32.9-38.2-32.9L43.1,266.9L36.2,274.9z"/>
				<path id="Path_7416" class="st12" d="M137.9,308.6l12-27l-4.9,23.7l27.1-21.6l-25.8,34.8L137.9,308.6z"/>
				<path id="Path_7417" class="st7" d="M93.3,419.1c2.8-1,5.6-2,8.5-3.2"/>
				<path id="Path_7418" class="st7" d="M10.2,420.8c0,0,31.1,13.1,74.4,1.1"/>
				<path id="Path_7419" class="st7" d="M207.7,384.7c0,0,46.6-27.1,75.2-52.2"/>
				<path id="Path_7420" class="st12" d="M164.1,187.4c-1.5-3-18.7-46.4-18.7-46.4s0.7-9.7,0.7-24.7c0-8.8-1-17.6-3-26.2
					c0,0,12.7-10.5,17.2-16.5c4.5-6,10.5-26.2,10.5-26.2s-20.2-6.7-27.7-8.2c-7.5-1.5-21.7-4.5-33.7-3C97.4,37.7,75,47.5,75,47.5
					l-5.2-17.2c0,0-24.7-13.5-33.7-15s-23.2-1.5-24.7,1.5s18.7,48.6,18.7,48.6c-8.2,3.4-16.1,7.4-23.8,11.7
					c-6.2,2.2-24.7,3-31.8,8.2c-8.2,6-13.1,25.7-10.2,28.7c3,3,12.7,0.7,12.7,0.7l33.9,20c12.7,17.3,31.2,58.8,31.2,69
					s-7.5,75.6-7.5,75.6s58.4,3.7,93.5-12.7S191,221,191,221S165.6,190.4,164.1,187.4z"/>
				<path id="Path_7421" class="st14" d="M109.5,36.3c-12,1.5-34.4,11.2-34.4,11.2l-5.2-17.2c0,0-24.7-13.5-33.7-15
					s-23.2-1.5-24.7,1.5s18.7,48.6,18.7,48.6s-7.9,3.2-16.7,7.8c10.9,9,29.4,18.5,53.3,9.4C98,71,116.2,46.2,122.6,36.2
					C118.2,35.8,113.8,35.9,109.5,36.3L109.5,36.3z"/>
				<path id="Path_7422" class="st12" d="M28.9,29.9c6.1,4.3,12.5,8,19.2,11.2c8,3.3,25.2,2.7,25.2,2.7l-3.5-13.6L28.9,29.9z"/>
				<path id="Path_7423" class="st11" d="M-22.9,114.8c0,0,27.7-9,33.7-6.7c6,2.2,50.1,68.8,47.9,71.1S28,203.8,28,203.8
					S-0.4,162-13.9,141.7C-27.4,121.5-22.9,114.8-22.9,114.8z"/>
				<path id="Path_7424" class="st11" d="M15.2,185.1c0,0,15.7,24.5,18.7,24.7c3,0.2,35.4-30.1,48-41.6s50-64.5,50-64.5
					c4.8-1.8,9.3-4.3,13.5-7.2c7.8-5.4,13.1-21.8,13.1-21.8s8.7-19.8,9.8-23.6c1-3.7-0.4-15.1-2.8-12.1c-2.4,3.1-9.4,12.7-15.7,19.3
					S123,89.6,123,89.6s-86.6,70.1-88.6,70.8"/>
				<path id="Path_7425" class="st15" d="M167.2,54c-2.4-0.6-4.9,0.7-5.8,3c-1.6,4-11.8,18-15.6,22.1"/>
				<path id="Path_7426" class="st15" d="M167.5,45.8c-2-0.1-4,0.9-5.1,2.6c-1.8,2.9-13.1,16.6-16.3,20.8"/>
				<path id="Path_7427" class="st11" d="M187.1,52.9c0,0,28.6,11.4,29.4,14c3.1,10.2-4.7,24.6-17.1,38.2
					c-11.1,12.2-65.8,66.8-65.8,66.8c-0.7,4.9-2,9.7-4,14.2c-3.4,8.6-17.8,17.1-17.8,17.1s-16.8,12.5-20.2,14.3
					c-3.4,1.8-14.4,2.8-12,0s10-11.6,14.8-19s29.8-44.7,29.8-44.7s46.2-77.1,46.4-79.3"/>
				<path id="Path_7428" class="st15" d="M96.7,215c-1.4-2.3-0.6-5.3,1.7-6.7c4.5-3.8,8.4-8.3,11.2-13.5"/>
				<path id="Path_7429" class="st15" d="M88.6,217.9c0,0-3.7,0.2,0.9-4.1c4.6-4.3,12.5-16.1,13.7-18"/>
				<path id="Path_7430" class="st13" d="M-17,6.3c0,0-28.4,19.4-27.7,25.4s32.2,13.5,36,11.2S1.1-1.2-0.4-3.4S-17,6.3-17,6.3z"/>
				<path id="Path_7431" class="st12" d="M-12.5-3.4c0,0-2.2,25.4-12,43.4S-34.9,77.4-5.7,85.6s51.7-15,53.1-19.5
					c1.4-4.5,3.7-10.5,3.7-10.5s-9,8.2-18.7-6S19,20.5,28.7,12.3S53.4-3.5,54.1-13.9c0.7-10.5,0.8-35.2,0.8-35.2L-12.5-3.4z"/>
				<path id="Path_7432" class="st11" d="M71.3-41.6c0,0,6,15,11.2,15.7c5.3,0.8,9-1.5,8.2,3.8c-0.8,4-2.4,7.8-4.5,11.2
					c0,0,6,39.9,0.8,42.9S56.4,39.3,34,34.8c-6.6-1.3-13.5-12.7-13.5-12.7S3,21.6,0.7,9.7S9.1-7.5,15.1-5.2s9,10.1,9,10.1
					s23.2-15,24.7-23.9c1-6.7,1.5-13.5,1.5-20.2L71.3-41.6z"/>
				<path id="Path_7433" class="st16" d="M-0.3,16.8c-0.3,0-0.6-0.1-0.8-0.3c-0.5-0.5-0.5-1.2,0-1.7c0,0,0,0,0,0l6.4-6.9
					c0.5-0.5,1.2-0.5,1.7,0c0,0,0,0,0,0c0.5,0.5,0.5,1.2,0,1.7l-6.4,6.9C0.4,16.7,0.1,16.8-0.3,16.8z"/>
				<path id="Path_7434" class="st16" d="M7.2,22.3c-0.2,0-0.3,0-0.5,0c-0.6-0.3-0.9-1-0.7-1.6l3-6.9c0.3-0.6,0.9-0.9,1.6-0.6
					c0,0,0,0,0,0c0.6,0.3,0.9,1,0.7,1.6c0,0,0,0,0,0l-3,6.9C8.1,22,7.7,22.3,7.2,22.3L7.2,22.3z"/>
				<path id="Path_7435" class="st16" d="M14.7,26.2h-0.2c-0.7-0.1-1.1-0.7-1-1.4c0,0,0,0,0,0l1.5-8.4c0.1-0.7,0.8-1.1,1.4-1
					c0.7,0.1,1.1,0.8,1,1.4l-1.5,8.4C15.8,25.8,15.3,26.2,14.7,26.2L14.7,26.2z"/>
				<path id="Path_7439" class="st13" d="M-17,6.3c0,0,43.4-32.9,62.1-40.5s26.2-7.5,26.2-7.5S60.9-63.3,55.6-70.1
					S7.7-69.3-0.6-65.6s-15,10.5-23.2,27S-26.7-6.4-17,6.3z"/>
			</g>
		</g>
	</g>
</g>
</svg>
