<?xml version="1.0" encoding="utf-8"?>
<!-- Generator: Adobe Illustrator 25.2.0, SVG Export Plug-In . SVG Version: 6.00 Build 0)  -->
<svg version="1.1" id="Layer_1" xmlns="http://www.w3.org/2000/svg" xmlns:xlink="http://www.w3.org/1999/xlink" x="0px" y="0px"
	 viewBox="0 0 1044.1 860.8" style="enable-background:new 0 0 1044.1 860.8;" xml:space="preserve">
<style type="text/css">
	.st0{opacity:0.35;fill:#FFFFFF;enable-background:new    ;}
	.st1{fill:#F6B4B7;}
	.st2{fill:#2F2F41;}
	.st3{fill:#E6E6E6;}
	.st4{fill:#403D56;}
	.st5{fill:#F6A030;}
	.st6{fill:#FFFFFF;}
	.st7{fill:#F0F0F0;}
	.st8{fill:#CBCACA;}
	.st9{opacity:0.2;fill:#010202;enable-background:new    ;}
</style>
<g id="Group_417" transform="translate(-880.385 -89.257)">
	<g id="Group_416">
		<path id="Path_6824" class="st0" d="M1906.7,808.4c-11,0.5-20.4-8-20.9-19c-0.3-5.9,2.1-11.6,6.4-15.6l1.4-5.4
			c-0.2-0.4-0.4-0.9-0.5-1.3c-11.6-27.3-43.1-40.1-70.3-28.5c-13,5.5-23.3,15.9-28.7,28.9c-16.2,39-36.8,78.1-41.9,119.3
			c-2.2,18.2-1.3,36.7,2.8,54.6c-38-83-57.8-173.1-57.9-264.4c0-22.9,1.3-45.8,3.8-68.5c2.1-18.7,5-37.2,8.8-55.6
			c20.4-99.8,64.1-193.3,127.7-272.9c30.8-16.8,55.6-42.6,71.3-73.9c5.7-11.3,9.7-23.3,11.9-35.7c-3.5,0.5-7,0.7-10.5,1
			c-1.1,0.1-2.2,0.1-3.3,0.2l-0.4,0c-10.9,0.5-20.2-8-20.7-18.9c-0.2-4.8,1.4-9.6,4.4-13.4c1.5-1.8,3-3.7,4.5-5.5
			c2.3-2.8,4.6-5.6,6.9-8.5c0.3-0.3,0.5-0.6,0.7-0.9c2.6-3.2,5.2-6.4,7.9-9.7c-4.8-7.4-11.2-13.6-18.8-18.1
			c-26.2-15.4-62.4-4.7-81.3,19c-19,23.7-22.6,57-16,86.6c6.5,25.2,17.2,49.1,31.7,70.8c-1.4,1.8-2.9,3.6-4.3,5.4
			c-26,33.4-48.6,69.3-67.6,107.2c4.6-42.4-0.9-85.3-16.1-125.1c-15.4-37.1-44.3-68.4-69.7-100.5c-30.5-38.6-93.1-21.7-98.5,27.2
			c-0.1,0.5-0.1,0.9-0.2,1.4c3.8,2.1,7.5,4.4,11.1,6.8c12.4,8.3,15.8,25.2,7.5,37.6c-4.2,6.3-10.9,10.6-18.4,11.7l-0.6,0.1
			c1.3,13.6,3.7,27.1,7.1,40.3c19.8,74.7,70,137.8,138.3,174.1c2.2,1.1,4.4,2.3,6.6,3.4c-19.1,54.1-31,110.4-35.6,167.6
			c-2.6,33.7-2.4,67.6,0.5,101.3l-0.2-1.2c-7.3-37.5-27.3-71.3-56.6-95.7c-43.6-35.8-105.1-49-152.1-77.7c-14.5-9.3-33.7-5.1-43,9.4
			c-4,6.2-5.6,13.6-4.7,20.9c0.1,0.4,0.1,0.8,0.2,1.3c7,2.9,13.8,6.1,20.4,9.8c3.8,2.1,7.5,4.4,11.1,6.8
			c12.4,8.3,15.8,25.2,7.5,37.6c-4.2,6.3-10.9,10.6-18.4,11.7l-0.6,0.1c-0.4,0.1-0.7,0.1-1.1,0.2c12,28.6,28.8,54.9,49.7,77.8
			c52.2,56,125.1,88,201.6,88.4h0.1c10.3,44.7,25.2,88.1,44.4,129.7h158.7c0.6-1.8,1.1-3.6,1.6-5.3c-14.7,0.9-29.4,0-43.9-2.6
			c11.8-14.4,23.5-29,35.3-43.5c0.3-0.3,0.5-0.6,0.7-0.9c6-7.4,12-14.7,18-22.1v0C1914.7,853,1912.1,830.4,1906.7,808.4
			L1906.7,808.4z M1725,450.9l0.1-0.1l-0.1,0.2V450.9z M1689.8,767.8l-1.4-3.1c0.1-2.2,0.1-4.4,0-6.7c0-0.6-0.1-1.3-0.1-1.9
			c0.5,3.9,1,7.9,1.5,11.8L1689.8,767.8z"/>
		<g id="Group_351" transform="translate(960 284)">
			<path id="Path_6825" class="st1" d="M342.9,462.4l14.1-6.3l-17.7-58.9l-20.9,9.3L342.9,462.4z"/>
			<path id="Path_6826" class="st2" d="M332.8,446.4l21.1-14.9l5.8,9.4l29.8,1.5c3.8,0.2,6.8,3.4,6.6,7.2c-0.1,2.3-1.3,4.3-3.3,5.5
				l-26.1,16.2l-10.3-6.5l4,10.4l-9.9,6.1L332.8,446.4z"/>
			<path id="Path_6827" class="st3" d="M706,351c0-5.9-2-10.7-4.4-10.7H36.2c-2.5,0-4.4,4.8-4.4,10.7v243.6c0,1.1-0.9,2.1-2,2.2
				c-1.8,0.2-3.6,0.3-5.4,0.5c0,0-0.1,0-0.1,0c-1,0.1-1.9,0.2-2.9,0.2h0c-0.5-0.9-1-1.9-1.5-2.8c-0.2-0.3-0.3-0.7-0.3-1V337.1
				c0-1.6,0.1-3.3,0.2-4.9c0.2-2.2,0.4-4.4,0.8-6.6c1.9-10.3,6.1-17.2,10.9-17.2h674.7c0.7,0,1.4,0.2,2,0.4c0.9,0.4,1.8,1,2.5,1.8
				c1,1,1.8,2.1,2.5,3.4c2.4,4.2,4.1,10.4,4.6,17.6c0,0.1,0,0.1,0,0.2c0.2,1.8,0.2,3.6,0.2,5.4l0.2,23.7l0.1,14.1l0.3,44.3l0.1,15.7
				l0.5,161.4l0,0c0,1.2-1,2.2-2.2,2.2h-8.9c-1.2,0-2.2-1-2.2-2.2L706,351z"/>
			<path id="Path_6828" class="st2" d="M525.2,197.6h-71.7c-2.1,0-3.8,1.7-3.8,3.8v113.2H529V201.4
				C529,199.3,527.3,197.6,525.2,197.6C525.2,197.6,525.2,197.6,525.2,197.6L525.2,197.6z M489.6,261.9c-4.7,0-8.4-3.8-8.5-8.5
				v-13.1c0-4.7,3.8-8.5,8.5-8.5c4.7,0,8.5,3.8,8.5,8.5l0,0v13.1C498,258.1,494.2,261.9,489.6,261.9L489.6,261.9z"/>
			<path id="Path_6829" class="st4" d="M449.4,311V322c0,1.2,1,2.1,2.1,2.1h75.6c1.2,0,2.1-1,2.1-2.1V311H449.4z"/>
			<path id="Path_6830" class="st1" d="M357.3,39.9c-3.1,7.8-12,11.7-19.9,8.6c-0.8-0.3-1.6-0.7-2.4-1.2l-101.2,70.5l-2.8-28.1
				l99.5-64.5c4.9-6.9,14.5-8.5,21.4-3.6C357.8,25.7,360,33.3,357.3,39.9L357.3,39.9z"/>
			<path id="Path_6831" class="st5" d="M130.8,84.3c0,0-11,16.2,6.2,30.5s86.9,11.5,98.1,11.4c11.2-0.1,62.8-53.5,62.8-53.5
				l-0.3-30.8l-62.3,37L130.8,84.3z"/>
			<path id="Path_6832" class="st1" d="M124.6,191.8l1.1,21c0,0-3.3,18.6-0.6,22.6c2.7,4,75.7,9.9,75.7,9.9s-2.3-31.3,1.8-53.9
				L124.6,191.8z"/>
			<path id="Path_6833" class="st2" d="M348.8,405.4L320.7,430l-55.1-112.7c-54.7,9.4-106.2,12.4-150.8,1
				c-15.1-3.8-24.3-19.4-20.6-34.8c0.2-0.7,0.4-1.4,0.6-2.1c5.3-16.3,19.3-27.8,30.3-45.7l80.4,1.2l-9,31l78.1-10.1
				c15.7-2,30.1,9.3,32,25.4c0.1,0.8,0.2,1.7,0.2,2.6L348.8,405.4z"/>
			<circle id="Ellipse_112" class="st1" cx="156" cy="18" r="32.7"/>
			<path id="Path_6834" class="st5" d="M136.8,62.4l29.9,3.5c2.6,0.3,4.7,2.2,5.3,4.8l4.8,21.8l29.7,34.9c0,0,10.7,20,6.7,42.6
				c-2.4,13.6-6.6,26.9-12.4,39.5c0,0-73,29.8-75.7,25.9c-2.7-4-3.5-22.1-3.5-22.1l-9.4-104.5c-1.1-11.1,2.9-22.2,10.8-30.1
				c2.4-2.3,4.7-4,6.6-4C133.8,74.5,133.3,64.9,136.8,62.4z"/>
			<path id="Path_6835" class="st1" d="M201.1,506.2l13.9,6.8l33.4-51.5l-20.5-10L201.1,506.2z"/>
			<path id="Path_6836" class="st2" d="M234.3,494.5l-28.5-10.8L245,366c-53.2-15.6-93.4-40.7-128.4-70.6
				c-11.9-10.1-20.8-23-10.7-35.2c0.5-0.6,1-1.1,1.5-1.7c12-12.3,42.3-9.9,60.1-21.2l39.7,42.4l-2.5,11.4l74.6,25.3
				c15,5.1,22.9,21.6,17.6,36.9c-0.3,0.8-0.6,1.6-0.9,2.4L234.3,494.5z"/>
			<path id="Path_6837" class="st2" d="M200.6,498l23.9,10l-4.9,9.9l14.6,26c1.9,3.3,0.7,7.5-2.6,9.4c-2,1.1-4.4,1.2-6.4,0.2
				L197.5,540l0.1-12.2l-6.7,8.9l-10.4-5.1L200.6,498z"/>
			<path id="Path_6838" class="st1" d="M153.9,317.8c-7.1-4.6-9.1-14.1-4.5-21.2c0.5-0.8,1-1.5,1.7-2.1L102,181.4l28.1,2.8
				l43.5,110.3c5.8,6.2,5.5,15.9-0.7,21.7C167.7,321.1,159.8,321.7,153.9,317.8L153.9,317.8z"/>
			<path id="Path_6839" class="st5" d="M155.2,86.9c0,0-13.7-14-31.1,0.1s-28.5,82.9-30.6,93.9c-2.1,11.1,40,72.2,40,72.2l30.3,5.8
				l-23.9-68.4L155.2,86.9z"/>
			<path id="Path_6840" class="st4" d="M643.9,20.8H337.5c-5.5,0-9.9,4.5-9.9,9.9v206.8c0,5.5,4.4,9.9,9.9,9.9h306.4
				c5.5,0,9.9-4.4,9.9-9.9V30.8C653.8,25.3,649.4,20.9,643.9,20.8z"/>
			<path id="Path_6841" class="st6" d="M641.3,28H340c-2.9,0-5.3,2.4-5.3,5.3V235c0,2.9,2.4,5.3,5.3,5.3h301.3
				c2.9,0,5.3-2.4,5.3-5.3V33.3C646.6,30.4,644.3,28,641.3,28L641.3,28z"/>
			<path id="Path_6842" class="st2" d="M582.6,327.9H403.4c-1.8,0-3.3-1.5-3.3-3.3c0-0.2,0-0.5,0.1-0.7l2.8-13.2
				c0.3-1.5,1.7-2.6,3.2-2.6h173.7c1.6,0,2.9,1.1,3.2,2.6l2.8,13.2c0.4,1.8-0.8,3.5-2.5,3.9C583.1,327.9,582.9,327.9,582.6,327.9
				L582.6,327.9z"/>
			<path id="Rectangle_135" class="st4" d="M407.9,310.5h4.5c0.3,0,0.5,0.2,0.5,0.5v2.3c0,0.3-0.2,0.5-0.5,0.5h-4.5
				c-0.3,0-0.5-0.2-0.5-0.5V311C407.4,310.7,407.7,310.5,407.9,310.5z"/>
			<path id="Rectangle_136" class="st4" d="M419,310.5h4.5c0.3,0,0.5,0.2,0.5,0.5v2.3c0,0.3-0.2,0.5-0.5,0.5H419
				c-0.3,0-0.5-0.2-0.5-0.5V311C418.5,310.7,418.7,310.5,419,310.5z"/>
			<path id="Rectangle_137" class="st4" d="M430,310.5h4.5c0.3,0,0.5,0.2,0.5,0.5v2.3c0,0.3-0.2,0.5-0.5,0.5H430
				c-0.3,0-0.5-0.2-0.5-0.5V311C429.5,310.7,429.7,310.5,430,310.5z"/>
			<path id="Rectangle_138" class="st4" d="M441.1,310.5h4.5c0.3,0,0.5,0.2,0.5,0.5v2.3c0,0.3-0.2,0.5-0.5,0.5h-4.5
				c-0.3,0-0.5-0.2-0.5-0.5V311C440.6,310.7,440.8,310.5,441.1,310.5z"/>
			<path id="Rectangle_139" class="st4" d="M452.1,310.5h4.5c0.3,0,0.5,0.2,0.5,0.5v2.3c0,0.3-0.2,0.5-0.5,0.5h-4.5
				c-0.3,0-0.5-0.2-0.5-0.5V311C451.6,310.7,451.8,310.5,452.1,310.5z"/>
			<path id="Rectangle_140" class="st4" d="M463.2,310.5h4.5c0.3,0,0.5,0.2,0.5,0.5v2.3c0,0.3-0.2,0.5-0.5,0.5h-4.5
				c-0.3,0-0.5-0.2-0.5-0.5V311C462.6,310.7,462.9,310.5,463.2,310.5z"/>
			<path id="Rectangle_141" class="st4" d="M474.2,310.5h4.5c0.3,0,0.5,0.2,0.5,0.5v2.3c0,0.3-0.2,0.5-0.5,0.5h-4.5
				c-0.3,0-0.5-0.2-0.5-0.5V311C473.7,310.7,473.9,310.5,474.2,310.5z"/>
			<path id="Rectangle_142" class="st4" d="M485.2,310.5h4.5c0.3,0,0.5,0.2,0.5,0.5v2.3c0,0.3-0.2,0.5-0.5,0.5h-4.5
				c-0.3,0-0.5-0.2-0.5-0.5V311C484.7,310.7,485,310.5,485.2,310.5z"/>
			<path id="Rectangle_143" class="st4" d="M496.3,310.5h4.5c0.3,0,0.5,0.2,0.5,0.5v2.3c0,0.3-0.2,0.5-0.5,0.5h-4.5
				c-0.3,0-0.5-0.2-0.5-0.5V311C495.8,310.7,496,310.5,496.3,310.5z"/>
			<path id="Rectangle_144" class="st4" d="M507.3,310.5h4.5c0.3,0,0.5,0.2,0.5,0.5v2.3c0,0.3-0.2,0.5-0.5,0.5h-4.5
				c-0.3,0-0.5-0.2-0.5-0.5V311C506.8,310.7,507,310.5,507.3,310.5z"/>
			<path id="Rectangle_145" class="st4" d="M518.4,310.5h4.5c0.3,0,0.5,0.2,0.5,0.5v2.3c0,0.3-0.2,0.5-0.5,0.5h-4.5
				c-0.3,0-0.5-0.2-0.5-0.5V311C517.9,310.7,518.1,310.5,518.4,310.5z"/>
			<path id="Rectangle_146" class="st4" d="M529.4,310.5h4.5c0.3,0,0.5,0.2,0.5,0.5v2.3c0,0.3-0.2,0.5-0.5,0.5h-4.5
				c-0.3,0-0.5-0.2-0.5-0.5V311C528.9,310.7,529.1,310.5,529.4,310.5z"/>
			<path id="Rectangle_147" class="st4" d="M540.5,310.5h4.5c0.3,0,0.5,0.2,0.5,0.5v2.3c0,0.3-0.2,0.5-0.5,0.5h-4.5
				c-0.3,0-0.5-0.2-0.5-0.5V311C539.9,310.7,540.2,310.5,540.5,310.5z"/>
			<path id="Rectangle_148" class="st4" d="M551.5,310.5h4.5c0.3,0,0.5,0.2,0.5,0.5v2.3c0,0.3-0.2,0.5-0.5,0.5h-4.5
				c-0.3,0-0.5-0.2-0.5-0.5V311C551,310.7,551.2,310.5,551.5,310.5z"/>
			<path id="Rectangle_149" class="st4" d="M562.5,310.5h4.5c0.3,0,0.5,0.2,0.5,0.5v2.3c0,0.3-0.2,0.5-0.5,0.5h-4.5
				c-0.3,0-0.5-0.2-0.5-0.5V311C562,310.7,562.3,310.5,562.5,310.5z"/>
			<path id="Rectangle_150" class="st4" d="M573.6,310.5h4.5c0.3,0,0.5,0.2,0.5,0.5v2.3c0,0.3-0.2,0.5-0.5,0.5h-4.5
				c-0.3,0-0.5-0.2-0.5-0.5V311C573.1,310.7,573.3,310.5,573.6,310.5z"/>
			<path id="Rectangle_151" class="st4" d="M407.8,316h4.5c0.3,0,0.5,0.2,0.5,0.5v2.3c0,0.3-0.2,0.5-0.5,0.5h-4.5
				c-0.3,0-0.5-0.2-0.5-0.5v-2.3C407.3,316.2,407.5,316,407.8,316z"/>
			<path id="Rectangle_152" class="st4" d="M418.9,316h4.5c0.3,0,0.5,0.2,0.5,0.5v2.3c0,0.3-0.2,0.5-0.5,0.5h-4.5
				c-0.3,0-0.5-0.2-0.5-0.5v-2.3C418.3,316.2,418.6,316,418.9,316z"/>
			<path id="Rectangle_153" class="st4" d="M429.9,316h4.5c0.3,0,0.5,0.2,0.5,0.5v2.3c0,0.3-0.2,0.5-0.5,0.5h-4.5
				c-0.3,0-0.5-0.2-0.5-0.5v-2.3C429.4,316.2,429.6,316,429.9,316z"/>
			<path id="Rectangle_154" class="st4" d="M440.9,316h4.5c0.3,0,0.5,0.2,0.5,0.5v2.3c0,0.3-0.2,0.5-0.5,0.5h-4.5
				c-0.3,0-0.5-0.2-0.5-0.5v-2.3C440.4,316.2,440.7,316,440.9,316z"/>
			<path id="Rectangle_155" class="st4" d="M452,316h4.5c0.3,0,0.5,0.2,0.5,0.5v2.3c0,0.3-0.2,0.5-0.5,0.5H452
				c-0.3,0-0.5-0.2-0.5-0.5v-2.3C451.5,316.2,451.7,316,452,316z"/>
			<path id="Rectangle_156" class="st4" d="M463,316h4.5c0.3,0,0.5,0.2,0.5,0.5v2.3c0,0.3-0.2,0.5-0.5,0.5H463
				c-0.3,0-0.5-0.2-0.5-0.5v-2.3C462.5,316.2,462.7,316,463,316z"/>
			<path id="Rectangle_157" class="st4" d="M474.1,316h4.5c0.3,0,0.5,0.2,0.5,0.5v2.3c0,0.3-0.2,0.5-0.5,0.5h-4.5
				c-0.3,0-0.5-0.2-0.5-0.5v-2.3C473.6,316.2,473.8,316,474.1,316z"/>
			<path id="Rectangle_158" class="st4" d="M485.1,316h4.5c0.3,0,0.5,0.2,0.5,0.5v2.3c0,0.3-0.2,0.5-0.5,0.5h-4.5
				c-0.3,0-0.5-0.2-0.5-0.5v-2.3C484.6,316.2,484.8,316,485.1,316z"/>
			<path id="Rectangle_159" class="st4" d="M496.2,316h4.5c0.3,0,0.5,0.2,0.5,0.5v2.3c0,0.3-0.2,0.5-0.5,0.5h-4.5
				c-0.3,0-0.5-0.2-0.5-0.5v-2.3C495.6,316.2,495.9,316,496.2,316z"/>
			<path id="Rectangle_160" class="st4" d="M507.2,316h4.5c0.3,0,0.5,0.2,0.5,0.5v2.3c0,0.3-0.2,0.5-0.5,0.5h-4.5
				c-0.3,0-0.5-0.2-0.5-0.5v-2.3C506.7,316.2,506.9,316,507.2,316z"/>
			<path id="Rectangle_161" class="st4" d="M518.2,316h4.5c0.3,0,0.5,0.2,0.5,0.5v2.3c0,0.3-0.2,0.5-0.5,0.5h-4.5
				c-0.3,0-0.5-0.2-0.5-0.5v-2.3C517.7,316.2,518,316,518.2,316z"/>
			<path id="Rectangle_162" class="st4" d="M529.3,316h4.5c0.3,0,0.5,0.2,0.5,0.5v2.3c0,0.3-0.2,0.5-0.5,0.5h-4.5
				c-0.3,0-0.5-0.2-0.5-0.5v-2.3C528.8,316.2,529,316,529.3,316z"/>
			<path id="Rectangle_163" class="st4" d="M540.3,316h4.5c0.3,0,0.5,0.2,0.5,0.5v2.3c0,0.3-0.2,0.5-0.5,0.5h-4.5
				c-0.3,0-0.5-0.2-0.5-0.5v-2.3C539.8,316.2,540,316,540.3,316z"/>
			<path id="Rectangle_164" class="st4" d="M551.4,316h4.5c0.3,0,0.5,0.2,0.5,0.5v2.3c0,0.3-0.2,0.5-0.5,0.5h-4.5
				c-0.3,0-0.5-0.2-0.5-0.5v-2.3C550.9,316.2,551.1,316,551.4,316z"/>
			<path id="Rectangle_165" class="st4" d="M562.4,316h4.5c0.3,0,0.5,0.2,0.5,0.5v2.3c0,0.3-0.2,0.5-0.5,0.5h-4.5
				c-0.3,0-0.5-0.2-0.5-0.5v-2.3C561.9,316.2,562.1,316,562.4,316z"/>
			<path id="Rectangle_166" class="st4" d="M573.4,316h4.5c0.3,0,0.5,0.2,0.5,0.5v2.3c0,0.3-0.2,0.5-0.5,0.5h-4.5
				c-0.3,0-0.5-0.2-0.5-0.5v-2.3C572.9,316.2,573.2,316,573.4,316z"/>
			<path id="Rectangle_167" class="st4" d="M460.8,322.6H504c0.3,0,0.5,0.2,0.5,0.5v2.3c0,0.3-0.2,0.5-0.5,0.5h-43.1
				c-0.3,0-0.5-0.2-0.5-0.5v-2.3C460.3,322.8,460.5,322.6,460.8,322.6z"/>
			<path id="Path_6843" class="st7" d="M620.6,579.9l-8.5-13.7l-1.7,7.8c-0.3,1.4-0.6,2.8-0.9,4.1c-2.4-2.1-5-4-7.5-5.8
				c-7.7-5.6-15.5-11.2-23.2-16.9l2.4,14c1.5,8.6,3,17.4,6.7,25.3c0.4,0.9,0.9,1.8,1.3,2.6h35.9c0.3-0.8,0.5-1.6,0.6-2.5
				c0-0.1,0-0.1,0-0.2C626.4,589.6,623.4,584.5,620.6,579.9z"/>
			<path id="Path_6844" class="st7" d="M134.7,579.9l-8.5-13.7l-1.7,7.8c-0.3,1.4-0.6,2.8-0.9,4.1c-2.4-2.1-5-4-7.5-5.8
				c-7.7-5.6-15.5-11.2-23.2-16.9l2.4,14c1.5,8.6,3,17.4,6.7,25.3c0.4,0.9,0.9,1.8,1.3,2.6h35.9c0.3-0.8,0.5-1.6,0.6-2.5
				c0-0.1,0-0.1,0-0.2C140.5,589.6,137.6,584.5,134.7,579.9z"/>
			<path id="Path_6845" class="st8" d="M817.7,599l-304.5,0.3c-0.7,0-1.3-0.6-1.3-1.3c0-0.7,0.6-1.3,1.3-1.3l304.5-0.3
				c0.7,0,1.3,0.6,1.3,1.3C819.1,598.5,818.5,599,817.7,599L817.7,599z"/>
			<path id="Path_6846" class="st8" d="M230.3,599l-304.5,0.3c-0.7,0-1.3-0.6-1.3-1.3c0-0.7,0.6-1.3,1.3-1.3l0,0l304.5-0.3
				c0.7,0,1.3,0.6,1.3,1.3C231.6,598.5,231,599,230.3,599z"/>
			<path id="Path_6847" class="st2" d="M121.4-11.1c-5.3,1.6-10.2-2.8-13.8-7l1.3,1.5c-8.6,6.1-13.8,16-17.1,26
				c-3.3,10-5.2,20.5-9,30.3C79,49.6,72.9,59.1,63.6,64c-12.5,6.6-27.8,3.6-41.1-1.2c-0.2-0.1-0.3-0.1-0.5-0.2
				c5.4-10.1,8.7-21.1,9.7-32.5c-5.5,10.7-13.4,19.9-23,27c-8.7-3.9-17-8.6-25-13.9c-5.1-3.4-10.5-7.9-11.1-14
				c-0.6-6.1,4-11.7,9.3-14.6S-6.6,10.8-0.8,9s11.9-4.6,14.9-9.9c7.1-12.2-4.8-29.4,2.8-41.3c3.8-5.8,11-8.2,17.8-9.8
				c10.3-2.5,20.8-4.2,31.3-5.3c9.3-0.9,18.8-1.3,27.7,1.7s16.8,9.9,18.7,19c5.1,2.7,10.6,5.7,13.4,10.8S127-12.8,121.4-11.1z"/>
			<path id="Path_6848" class="st2" d="M113.6-13.2c-5,6.3-7.8,13.2-7.8,17.2c-10.5,19.2,4.5,35.6,23.7,46.1
				c7.6,4.2,16.5,5.7,25.1,4.4l0.8-3.4l1.1,3.1c0,0,12.5,41.2,16.6,43.6c-1.6-7.3-3.3-41.3-4.2-48.4c-1.2-9.7,3-24.2,6-33
				c1.9-5.4,2.8-11.1,2.8-16.9v-0.3l2.9,9.5L191.3,4c-2-11.4,0-24.4-23.9-23.3c-12.9-8.9-24.3-10.3-33.7-7.7
				c-1.2-1.9-8.2,1.6-10.2,0.6"/>
			<path id="Path_6849" class="st5" d="M646.6,33.3V235c0,2.9-2.4,5.3-5.3,5.3H535.1c-11.8-10.9-21.4-23.9-28.4-38.3
				c-0.5-0.9-0.9-1.9-1.3-2.8c-6.4-13.9-10.3-28.9-11.5-44.2c-0.1-0.9-0.1-1.9-0.2-2.8c-0.1-2.4-0.2-4.9-0.2-7.4
				c0-16.4,3.1-32.8,9.2-48c0.4-0.9,0.8-1.9,1.1-2.8C515.9,65.3,538,41.9,566,28h75.4C644.3,28,646.6,30.4,646.6,33.3L646.6,33.3z"
				/>
			<path id="Path_6850" class="st8" d="M626.2,55.8H344.2c-0.6,0-1.1-0.5-1.1-1.1c0-0.6,0.5-1.1,1.1-1.1h281.9
				c0.6,0,1.1,0.5,1.1,1.1C627.3,55.3,626.8,55.8,626.2,55.8z"/>
			<ellipse id="Ellipse_113" class="st4" cx="363.4" cy="41.1" rx="6.6" ry="6.7"/>
			<ellipse id="Ellipse_114" class="st4" cx="386.1" cy="41.1" rx="6.6" ry="6.7"/>
			<ellipse id="Ellipse_115" class="st4" cx="408.8" cy="41.1" rx="6.6" ry="6.7"/>
			<path id="Path_6851" class="st4" d="M612.5,36.1h-16.1c-0.7,0-1.2,0.5-1.2,1.2s0.5,1.2,1.2,1.2h16.1c0.7,0,1.2-0.5,1.2-1.2
				S613.2,36.1,612.5,36.1z"/>
			<path id="Path_6852" class="st4" d="M612.5,40.6h-16.1c-0.7,0-1.2,0.5-1.2,1.2s0.5,1.2,1.2,1.2h16.1c0.7,0,1.2-0.5,1.2-1.2
				S613.2,40.6,612.5,40.6z"/>
			<path id="Path_6853" class="st4" d="M612.5,45.2h-16.1c-0.7,0-1.2,0.5-1.2,1.2s0.5,1.2,1.2,1.2h16.1c0.7,0,1.2-0.5,1.2-1.2
				S613.2,45.2,612.5,45.2z"/>
			<path id="Rectangle_168" class="st5" d="M393,121.3h35.7c2.5,0,4.6,2,4.6,4.6v0.5c0,2.5-2,4.6-4.6,4.6H393c-2.5,0-4.6-2-4.6-4.6
				v-0.5C388.5,123.3,390.5,121.3,393,121.3z"/>
			<path id="Rectangle_169" class="st3" d="M370.2,140.5h81.2c2.5,0,4.6,2,4.6,4.6v0.5c0,2.5-2,4.6-4.6,4.6h-81.2
				c-2.5,0-4.6-2-4.6-4.6V145C365.7,142.5,367.7,140.5,370.2,140.5z"/>
			<path id="Rectangle_170" class="st3" d="M370.2,159.6h81.2c2.5,0,4.6,2,4.6,4.6v0.5c0,2.5-2,4.6-4.6,4.6h-81.2
				c-2.5,0-4.6-2-4.6-4.6v-0.5C365.7,161.7,367.7,159.6,370.2,159.6z"/>
			<path id="Path_6854" class="st5" d="M373.1,228.7c0,3.9-0.7,7.9-2.1,11.6h-31c-2.9,0-5.3-2.4-5.3-5.3v-39
				c1.7-0.3,3.5-0.4,5.2-0.4C358.2,195.6,373.1,210.4,373.1,228.7C373.1,228.7,373.1,228.7,373.1,228.7L373.1,228.7z"/>
			<path id="Path_6855" class="st9" d="M646.9,96.8V94h-47.4V61.2h-2.8V94h-54.3V61.2h-2.8V94h-35.9c-0.4,0.9-0.8,1.9-1.1,2.8h37
				v55.4h-46c0,0.9,0.1,1.9,0.2,2.8h45.8v44.2h-34.3c0.4,0.9,0.9,1.9,1.3,2.8h33v37.2h2.8V202h54.3v37.2h2.8V202h47.4v-2.8h-47.4
				V155h47.4v-2.8h-47.4V96.8H646.9z M596.7,199.2h-54.3V155h54.3V199.2z M596.7,152.2h-54.3V96.8h54.3V152.2z"/>
			<path id="Path_6856" class="st2" d="M608.8,219.4c-1.6,0.1-3-1.2-3.1-2.8c0-0.9,0.3-1.7,0.9-2.3l0.2-0.8l-0.1-0.2
				c-1.7-4-6.4-5.9-10.4-4.2c-1.9,0.8-3.4,2.3-4.2,4.3c-2.4,5.8-5.4,11.5-6.2,17.6c-0.3,2.7-0.2,5.4,0.4,8.1
				c-5.6-12.2-8.5-25.6-8.5-39c0-3.4,0.2-6.8,0.6-10.1c0.3-2.8,0.7-5.5,1.3-8.2c3-14.7,9.5-28.5,18.9-40.3
				c4.5-2.5,8.2-6.3,10.5-10.9c0.8-1.7,1.4-3.4,1.8-5.3c-0.5,0.1-1,0.1-1.5,0.1l-0.5,0h-0.1c-1.6,0.1-3-1.2-3.1-2.8
				c0-0.7,0.2-1.4,0.7-2l0.7-0.8c0.3-0.4,0.7-0.8,1-1.3c0,0,0.1-0.1,0.1-0.1c0.4-0.5,0.8-0.9,1.2-1.4c-0.7-1.1-1.7-2-2.8-2.7
				c-3.9-2.3-9.2-0.7-12,2.8s-3.3,8.4-2.4,12.8c1,3.7,2.5,7.3,4.7,10.4c-0.2,0.3-0.4,0.5-0.6,0.8c-3.8,4.9-7.2,10.2-10,15.8
				c0.7-6.3-0.1-12.6-2.4-18.5c-2.3-5.5-6.5-10.1-10.3-14.8c-4.5-5.7-13.7-3.2-14.5,4c0,0.1,0,0.1,0,0.2c0.6,0.3,1.1,0.6,1.6,1
				c1.8,1.2,2.3,3.7,1.1,5.6c-0.6,0.9-1.6,1.6-2.7,1.7l-0.1,0c0.2,2,0.5,4,1,6c2.9,11,10.3,20.3,20.4,25.7c0.3,0.2,0.6,0.3,1,0.5
				c-2.8,8-4.6,16.3-5.3,24.7c-0.4,5-0.4,10,0.1,15l0-0.2c-1.1-5.5-4-10.5-8.4-14.1c-6.4-5.3-15.5-7.2-22.5-11.5
				c-2.1-1.4-5-0.8-6.3,1.4c-0.6,0.9-0.8,2-0.7,3.1c0,0.1,0,0.1,0,0.2c1,0.4,2,0.9,3,1.5c0.6,0.3,1.1,0.6,1.6,1
				c1.8,1.2,2.3,3.7,1.1,5.6c-0.6,0.9-1.6,1.6-2.7,1.7l-0.1,0l-0.2,0c1.8,4.2,4.2,8.1,7.3,11.5c7.7,8.3,18.5,13,29.8,13.1h0
				c1.5,6.6,3.7,13,6.6,19.1h23.4c0.1-0.3,0.2-0.5,0.2-0.8c-2.2,0.1-4.3,0-6.5-0.4c1.7-2.1,3.5-4.3,5.2-6.4c0,0,0.1-0.1,0.1-0.1
				c0.9-1.1,1.8-2.2,2.7-3.3l0,0C609.9,226,609.6,222.6,608.8,219.4L608.8,219.4z M581.9,166.6L581.9,166.6L581.9,166.6L581.9,166.6
				z M576.7,213.4l-0.2-0.5c0-0.3,0-0.7,0-1c0-0.1,0-0.2,0-0.3C576.6,212.3,576.7,212.8,576.7,213.4L576.7,213.4z"/>
		</g>
	</g>
</g>
</svg>
