<?xml version="1.0" encoding="utf-8"?>
<!-- Generator: Adobe Illustrator 25.2.0, SVG Export Plug-In . SVG Version: 6.00 Build 0)  -->
<svg version="1.1" id="Layer_1" xmlns="http://www.w3.org/2000/svg" xmlns:xlink="http://www.w3.org/1999/xlink" x="0px" y="0px"
	 viewBox="0 0 1044.1 860.8" style="enable-background:new 0 0 1044.1 860.8;" xml:space="preserve">
<style type="text/css">
	.st0{opacity:0.35;}
	.st1{fill:none;stroke:#FFFFFF;stroke-width:6.4848;stroke-linecap:round;stroke-linejoin:round;}
	.st2{fill:#FFFFFF;stroke:#FFFFFF;stroke-width:1.0808;stroke-linecap:round;stroke-linejoin:round;}
	.st3{fill:none;stroke:#FFFFFF;stroke-width:2.1616;stroke-linecap:round;stroke-linejoin:round;}
	.st4{fill:none;stroke:#263239;stroke-width:1.0808;stroke-linecap:round;stroke-linejoin:round;}
	.st5{fill:#263239;stroke:#263239;stroke-width:1.0808;stroke-linecap:round;stroke-linejoin:round;}
	.st6{fill:none;stroke:#263239;stroke-width:3.2424;stroke-linecap:round;stroke-linejoin:round;}
	.st7{opacity:0.2;fill:#010202;enable-background:new    ;}
	.st8{fill:none;stroke:#263239;stroke-width:6.4848;stroke-linecap:round;stroke-linejoin:round;}
	.st9{fill:#FFFFFF;stroke:#263239;stroke-width:1.0808;stroke-linecap:round;stroke-linejoin:round;}
	.st10{fill:none;stroke:#263239;stroke-width:2.1616;stroke-linecap:round;stroke-linejoin:round;}
	.st11{fill:#F8AA12;stroke:#263239;stroke-width:1.0808;stroke-linecap:round;stroke-linejoin:round;}
	.st12{fill:#F6B4B7;}
	.st13{fill:none;stroke:#717070;stroke-width:1.0808;stroke-linecap:round;stroke-linejoin:round;}
</style>
<g id="Group_425" transform="translate(-880.385 -89.257)">
	<g id="freepik--spotlight-2--inject-1" transform="translate(1447.592 174.992)" class="st0">
		<line id="Line_21" class="st1" x1="223.7" y1="113.1" x2="223.7" y2="773.1"/>
		<path id="Path_7090" class="st1" d="M101.6,777.3l119.6-322.7L375,768.9"/>
		<path id="Path_7091" class="st2" d="M321.2-86.5L267.5,24.6l-1.9,164l55.6,95.4L321.2-86.5z"/>
		<path id="Path_7092" class="st2" d="M321.2-86.5l153.6-1.4l-1.7,362.5l-151.9,9.3L321.2-86.5z"/>
		<path id="Path_7093" class="st2" d="M292.4,120.8l-74.5-0.8c-18.2-0.2-32.7-13-32.5-28.6l0,0c0.2-15.6,15.2-28.1,33.4-27.9
			l74.5,0.8L292.4,120.8z"/>
		<path id="Path_7094" class="st3" d="M204.7,96.3c0,0-33.6-7.9-33.6,36.7s61.1,89.2,67.3,136.3c6.2,47.1-34.7,56-32.6,91
			c2.1,35,60.1,35,41.8,58.6l-18.3,23.6"/>
	</g>
	<g id="Fashion_photoshoot-bro" transform="translate(852.529 196.034)">
		<g id="freepik--Cyclorama--inject-1" transform="translate(192.32 40.513)">
			<path id="Path_7087" class="st4" d="M179.9-76.8c-0.1,205.5,1.6,411.7-1.8,617.9c0,22.1-13.6,42.6-32.4,51.1
				C98,614.4,50.3,629.7,0.4,645.7l632.6,0.1c42.8-14.4,83.7-28.1,126.3-41.7c19.5-7.3,35.4-22,44.3-40.9c1.8-6.8,5.1-15.3,5.1-22.1
				V-76.7"/>
			<path id="Path_7088" class="st5" d="M174.6-58.7L174.6-58.7c-3.7,0-6.7-3-6.7-6.7c0,0,0,0,0,0v-10.9c0-3.7,3-6.7,6.6-6.7
				c0,0,0,0,0,0l0,0c3.7,0,6.6,3,6.6,6.7v10.9C181.1-61.7,178.2-58.7,174.6-58.7z"/>
			<path id="Path_7089" class="st5" d="M812.4-58.7L812.4-58.7c-3.7,0-6.7-3-6.7-6.7v-10.9c0-3.7,3-6.7,6.6-6.7c0,0,0,0,0,0l0,0
				c3.7,0,6.7,3,6.7,6.7c0,0,0,0,0,0v10.9C819-61.6,816-58.7,812.4-58.7L812.4-58.7z"/>
			<line id="Line_20" class="st6" x1="155.5" y1="-78.3" x2="823" y2="-78.3"/>
		</g>
		<g id="freepik--spotlight-2--inject-1-2" transform="translate(41.76 31.42)">
			<ellipse id="Ellipse_130" class="st7" cx="111.6" cy="640.6" rx="123.4" ry="27.5"/>
			<line id="Line_21-2" class="st8" x1="109.8" y1="85.1" x2="109.8" y2="639.2"/>
			<path id="Path_7090-2" class="st8" d="M21.8,642.8L108,371.8l110.8,263.9"/>
			<path id="Path_7091-2" class="st5" d="M180.1-82.5l-38.7,93.3L140,148.5l40.1,80.1L180.1-82.5z"/>
			<path id="Path_7092-2" class="st9" d="M180.1-82.5l110.7-1.2l-1.2,304.4l-109.5,7.8L180.1-82.5z"/>
			<path id="Path_7093-2" class="st5" d="M159.3,91.5l-53.7-0.7c-13.1-0.2-23.6-10.9-23.4-24l0,0c0.2-13.1,10.9-23.6,24-23.4
				c0,0,0,0,0,0L160,44L159.3,91.5z"/>
			<path id="Path_7094-2" class="st10" d="M96.1,71c0,0-24.2-6.6-24.2,30.9s44,74.9,48.5,114.5c4.4,39.6-25,47-23.5,76.4
				s43.3,29.4,30.1,49.2l-13.2,19.8"/>
		</g>
		<g id="freepik--character-2--inject-1" transform="translate(446.657 75.481)">
			<path id="Path_7095" class="st5" d="M142.6,263.9c0,0-23.7,126.8-27.8,144.7c-4.1,17.9-18,42.5-20.4,58.1
				c-2.4,15.6-5.7,85.9-5.7,85.9l13.1,0.8c0,0,41.3-105.9,52.7-126.3s35.5-94.8,35.5-94.8l11.5-21.8c0,0-5.7,69.5-7.4,104.7
				s10.6,125,10.6,125l13.9,4.9l18-137.4c0,0,15.5-71.2,18.8-111.2c3.3-40.1,4.1-42.5,4.1-42.5L149,244.3L142.6,263.9z"/>
			<path id="Path_7096" class="st9" d="M193.2,261.5c9.7,1.4,19.6,2.3,29.4,2.5c9.3-0.2,18.6-1,27.8-2.5c0,0,6.6-43.3,4.8-73.6
				c-1.8-30.3-36.7-137.8-36.7-137.8l-38.1-0.5l-2.1,205.4C178.4,254.9,185.8,260.6,193.2,261.5z"/>
			<path id="Path_7097" class="st11" d="M243.9,46.4c0,0,34.9,81.8,46.8,107.9c11.3,24.7,14.2,34.3,7,52.7
				c-8.4,21.8-13.8,34.9-13.8,34.9l-20.4-52.3L233.2,48.9C233.2,48.9,230,30.1,243.9,46.4z"/>
			<path id="Path_7098" class="st4" d="M268.9,173.2c0,0,4.2-3.5,20.4,1.4"/>
			<path id="Path_7099" class="st11" d="M205,48.5c0,0,16,110.7,30.7,161.4c14.7,50.7-4.1,163.5-4.1,163.5s22.9,0,38.4-6.6
				c8.9-3.6,17.2-8.6,24.5-14.7c0,0,0.8-76.9-14.7-131.6S240.6,42.4,240.6,42.4h-36.8L205,48.5z"/>
			<path id="Path_7100" class="st11" d="M173.2,42.3h-1.6c-6.2,0.2-29.6,1-41.7,1c-14.1,0-19.8,6.3-19.8,8.8
				c0,2.5,18.3,111.6,17.7,127.8c-0.5,16.2-6.8,51.6-17.7,74.6s-28.7,80.8-28.7,80.8s14.6,10.4,53.7,26.1
				c39.1,15.6,67.8,12.2,67.8,12.2s13.6-94.9,4.7-152.3c-8.9-57.4-13.6-171.1-13.6-171.1L173.2,42.3z"/>
			<path id="Path_7101" class="st9" d="M154.8,42.3l98.9,230.6l-5.7-0.8L148.2,42.3H154.8z"/>
			<path id="Path_7102" class="st9" d="M248,272.1c0,0,0,58.9,2.4,63c2.4,4.1,15.5,4.9,15.5-2.4c0-7.4-12.3-59.7-12.3-59.7
				L248,272.1z"/>
			<path id="Path_7103" class="st9" d="M253.7,272.9l35-15.4c0,0,23,52.2,18.9,59.5c-4.1,7.4-47.9,20.9-47.9,20.9L253.7,272.9z"/>
			<path id="Path_7104" class="st5" d="M170.6,38.1c0,0-8.3,53.7-6.8,89.2s-2.1,114.7-6.3,133.5c-4.2,18.8-7.3,49.5-7.3,49.5
				l39.6,2.6c0,0,5.3-79.3,4.7-126.8c-0.6-47.6-2.1-110.6-2.1-120.5V48l12.5,0.5c4.7,21.3,8,42.9,9.9,64.7
				c2.6,32.8,1.5,86.1,1.5,87.6c0,1.6,34.9-4.2,34.9-4.2s0.5-39.6-15.1-91.3S215,38.1,215,38.1l-45.4-8.3L170.6,38.1z"/>
			<path id="Path_7105" class="st5" d="M215,28.7c0,0,6.3,17.2,3.6,21.4c-2.6,4.2-19.8,8.3-38.1-0.5s-8.3-25.6-5.7-27.1
				C177.4,20.9,215,28.7,215,28.7z"/>
			<path id="Path_7106" class="st9" d="M167.8-37c-3.1,15.1-9.6,29.2-19.2,41.3c-15.9,20-20.4,33.5-19.6,46.2
				c0.8,12.7,11.9,21.3,26.2,24.5c14.3,3.3,21.3,0,22.9,8.6s2.9,14.3,12.3,16.4c9.5,2,15.6-0.8,17.2-8.2c1.6-7.4,0.4-10.6,0.4-10.6
				s-4.5,7.4-7.4,3.7c-2.9-3.7,8.2-8.2,4.1-24.5S193.7,44.5,183,35s-15.6-20.9-15.1-36c0.4-15.1,2.8-36.1,2.8-36.1H167.8z"/>
			<path id="Path_7107" class="st4" d="M163.9,61c13.8,5.4,22.5,7,23.2,13.2c0.8,7-1.2,20,7.4,23.3c8.6,3.3,11.9-1.6,11.9-1.6"/>
			<path id="Path_7108" class="st4" d="M156.3,57.8l0.9,0.4L159,59"/>
			<path id="Path_7109" class="st4" d="M172.3-34.2c0,0-7.8,33.1-17.6,45.4c-9,11.3-14.3,35.1-1.3,44.8"/>
			<path id="Path_7110" class="st4" d="M168.2-9.2c0,0-9,25-2.9,39.7c2.5,7.3,8,13.3,15.1,16.4c11.9,4.9,24.5,16.8,24.5,23.7"/>
			<path id="Path_7111" class="st12" d="M166.6-35.1c0,0-0.4,33.6,0,42.6s9,19.6,17.2,23.7c8.2,4.1,24.1,2.9,31.1-4.9
				s11-24.9,11.9-36s1.2-21.3,1.2-21.3l-60.1-6.1L166.6-35.1z"/>
			<path id="Path_7112" class="st9" d="M221.4-32.9c0.5,11.7-0.6,23.4-3.3,34.8c-4.5,18.8-7.4,45,11.9,58.1c0,0-12.3,8.6-7.4,20
				s15.6,13.9,26.6,11.5c6.2-1.2,11.9-4.2,16.3-8.6c0,0,6.1,7,14.3,7c8.2,0,18.8-4.9,19.2-21.7c0.4-16.8-10.2-41.3-23.3-55.6
				S251.7-10,247.1-17s-4.5-16.4-4.5-16.4L221.4-32.9z"/>
			<path id="Path_7113" class="st9" d="M243.6,79.6c-6,4.5-10.3-1.6-9.5-5.8"/>
			<path id="Path_7114" class="st9" d="M230,59.9c3.9-1.8,8.3-2,12.3-0.6c6.1,2.1,8.3,10.7,4.4,16.9"/>
			<path id="Path_7115" class="st4" d="M234.1-31.3c0,0-4.1,9.4,1.6,34.3c5.7,24.9,17.6,33.5,28.2,44.2c10.6,10.7,8.2,29,1.6,35.6"
				/>
			<path id="Path_7116" class="st4" d="M265,23c17.8,13.3,30.3,24.7,34.1,45"/>
			<path id="Path_7117" class="st4" d="M259.6,19l1,0.8l1.9,1.4"/>
			<path id="Path_7118" class="st4" d="M238.2-30.1c0,0,2,28.5,17,45"/>
			<path id="Path_7119" class="st5" d="M166.6-35.1l78.7,8.8c0,0,0.5-26.4-6.8-37.1c-9.8-14.2-27.7-20.1-44-14.7
				C173.9-71.7,165.1-43.9,166.6-35.1z"/>
			<path id="Path_7120" class="st13" d="M174.7-50.1c3.1-6.7,10-16.9,25.3-25.2"/>
			<path id="Path_7121" class="st13" d="M172.4-42.8c0.2-1.4,0.6-2.7,1.1-4"/>
			<path id="Path_7122" class="st13" d="M196.5-54.5c2.8-6.7,6.4-13,10.8-18.8"/>
			<path id="Path_7123" class="st13" d="M194.1-42.8c-0.2-2.6,0.1-5.3,1-7.7"/>
			<path id="Path_7124" class="st13" d="M220.2-57.3c0.5,5.4,0.5,10.9,0,16.4"/>
			<path id="Path_7125" class="st13" d="M215.4-74.8c1.4,2.6,2.4,5.3,3.1,8.1"/>
			<path id="Path_7126" class="st13" d="M233.8-62.2c3.3,7.5,5.1,15.5,5.4,23.7"/>
			<path id="Path_7127" class="st13" d="M225.1-72.9c1.8,1,3.3,2.4,4.5,4.1"/>
			<path id="Path_7128" class="st5" d="M190.5-25.7c0,0-15.6-4.4-29.8-3.5c0,0-2,12.2,1.5,17.6c3.4,5.4,16.1,6.3,22.5,3.9
				C191-10.1,190.5-25.7,190.5-25.7z"/>
			<path id="Path_7129" class="st5" d="M199.1-24.2c0,0,16.2-1.1,29.9,2.8c0,0-0.6,12.3-5.1,16.9c-4.5,4.6-17.1,2.9-22.8-0.8
				C195.4-9,199.1-24.2,199.1-24.2z"/>
			<path id="Path_7130" class="st4" d="M190.5-25.7c0,0,5.5-0.9,8.5,1.5"/>
			<path id="Path_7131" class="st4" d="M190.8-21.4c2.3-1.6,5.4-1,7,1.2c0,0,0.1,0.1,0.1,0.1"/>
			<path id="Path_7134" class="st12" d="M131.6,214.7l10.7,10.7l-12.6,18l-5.8-18L131.6,214.7z"/>
			<path id="Path_7135" class="st11" d="M119.7,45.6c-4.9,0.2-9.4,2.6-12.3,6.6c-4.9,6.5-37.3,118.3-43.1,128.1
				c-5.7,9.8,46.3,77.1,46.3,77.1l25.4-40.9l-25.9-41.1L128.6,93"/>
			<path id="Path_7136" class="st5" d="M148.1,213.3L120.4,257l2.4,3.4l30.1-46.7L148.1,213.3z"/>
			<path id="Path_7137" class="st5" d="M262.3,207.1l-4.3,1.8l29.2,42.8l-1-8.8L262.3,207.1z"/>
			<path id="Path_7138" class="st5" d="M127.1,505.3l-41.8-6l-3.6,62.8c-6,5-11.4,10.8-15.9,17.3c-7.3,10.5-10.5,19.6-7.3,21.4
				c6.4,3.2,13.8,3.6,20.5,0.9c8.2-3.6,10.9-10.9,14.5-18.2c3.6-7.3,9.2-17.3,8.6-23.7S127.1,505.3,127.1,505.3z"/>
			<path id="Path_7139" class="st5" d="M228.1,502.9l-33.7,2.3c0,0,1.8,48.2,2.3,51s-5.5,26.4-4.1,29.1c1.4,2.7,15,1.8,20,3.6
				c5,1.9,14.6,5.9,23.7,7.3c9.1,1.4,20.5,1.4,22.8-3.2c2.3-4.6-23.2-21.4-28.2-26.8c-3.6-4.2-6.8-8.8-9.5-13.6L228.1,502.9z"/>
			<ellipse id="Ellipse_131" class="st7" cx="146.8" cy="598.3" rx="125.9" ry="18.6"/>
		</g>
	</g>
</g>
</svg>
