<?xml version="1.0" encoding="utf-8"?>
<!-- Generator: Adobe Illustrator 25.2.0, SVG Export Plug-In . SVG Version: 6.00 Build 0)  -->
<svg version="1.1" id="Layer_1" xmlns="http://www.w3.org/2000/svg" xmlns:xlink="http://www.w3.org/1999/xlink" x="0px" y="0px"
	 viewBox="0 0 1044.1 860.8" style="enable-background:new 0 0 1044.1 860.8;" xml:space="preserve">
<style type="text/css">
	.st0{opacity:0.64;}
	.st1{fill:#FFFFFF;}
	.st2{opacity:0.35;}
	.st3{fill:#A2A1A1;}
	.st4{fill:#010202;}
	.st5{fill:none;stroke:#263239;stroke-width:1.027;stroke-linecap:round;stroke-linejoin:round;}
	.st6{fill:#263239;stroke:#263239;stroke-width:1.027;stroke-linecap:round;stroke-linejoin:round;}
	.st7{fill:#F6C6C6;stroke:#263239;stroke-width:1.027;stroke-linecap:round;stroke-linejoin:round;}
	.st8{fill:#FFFFFF;stroke:#263239;stroke-width:1.027;stroke-linecap:round;stroke-linejoin:round;}
	.st9{fill:#676766;stroke:#263239;stroke-width:1.027;stroke-linecap:round;stroke-linejoin:round;}
	.st10{fill:#F1A60D;stroke:#263239;stroke-width:1.027;stroke-linecap:round;stroke-linejoin:round;}
</style>
<g id="Group_434" transform="translate(-880.385 -89.257)">
	<g id="freepik--music-notes--inject-2" transform="translate(940.926 460.053)">
		<g id="Group_407" class="st0">
			<path id="Path_7440" class="st1" d="M805.4,54.7v-84.8H888c0.2,0.9,0.4,1.9,0.4,2.9c0,28.1,0,56.2,0,84.3
				c0.3,7.6-5.1,14.4-13.1,16.7c-8.2,2.7-17.4,0.8-23.5-4.8c-5.6-5.6-6.3-13.9-1.6-20.2c5.6-6.9,15.5-9.7,24.5-6.9
				c2.1,0.7,4,1.6,6.5,2.6V-8.8h-67.7v75.9c0,12.5-11.2,20.9-24.5,18.8c-11.6-1.9-19.1-10.3-17.2-19.7s12.4-15.6,23.4-14.2
				C798.7,52.7,802.1,53.6,805.4,54.7L805.4,54.7z"/>
			<path id="Path_7441" class="st1" d="M653.4,185.5v-58.2h56.8c0.1,0.6,0.2,1.3,0.3,2v57.9c0.2,5.2-3.5,9.9-9,11.5
				c-5.6,1.9-12,0.6-16.1-3.3c-3.9-3.9-4.3-9.6-1.1-13.9c3.8-4.7,10.7-6.6,16.8-4.7c1.4,0.4,2.7,1.1,4.5,1.8V142H659v52.1
				c0.4,6.9-5.6,12.8-13.4,13.1c-1.2,0.1-2.4,0-3.5-0.2c-8-1.3-13.1-7.1-11.8-13.5c1.7-6.5,8.7-10.7,16.1-9.7
				C648.7,184.3,651.1,184.8,653.4,185.5z"/>
			<path id="Path_7442" class="st1" d="M516.6,65.3V29.1h35.2c0.1,0.4,0.2,0.9,0.2,1.3v35.9c0.1,3.2-2.1,6-5.4,7.1
				c-3.5,1.2-7.4,0.3-10-2.1c-2.4-2.4-2.7-5.9-0.7-8.6c2.4-2.9,6.6-4.1,10.5-2.9c0.9,0.3,1.8,0.7,2.7,1.1V38.2h-29v32.4
				c0.3,4.3-3.4,7.9-8.2,8.2c-0.8,0-1.5,0-2.2-0.2c-4.6-0.5-7.9-4.1-7.3-8.2c0-0.1,0-0.1,0-0.2c1-4,5.4-6.7,10-6
				C513.7,64.4,515.2,64.8,516.6,65.3L516.6,65.3z"/>
			<path id="Path_7443" class="st1" d="M432.1,13.5v-58.2h56.7c0.2,0.7,0.3,1.3,0.3,2v57.9c0.2,5.2-3.5,9.9-9,11.5
				c-5.7,1.8-12,0.4-16.1-3.5c-3.9-3.9-4.3-9.6-1.1-13.9c3.8-4.7,10.7-6.6,16.8-4.7c1.4,0.4,2.7,1.1,4.5,1.8v-36.5h-46.7V22
				c0.4,6.9-5.6,12.8-13.4,13.1c-1.2,0.1-2.4,0-3.5-0.2c-8-1.3-13.1-7.1-11.8-13.5c1.7-6.5,8.7-10.7,16.1-9.7
				C427.4,12.1,429.8,12.7,432.1,13.5z"/>
			<path id="Path_7444" class="st1" d="M88.3,116V35.3c0.4,0.5,0.6,0.7,0.8,1c4.3,6,9.7,11.3,16,15.6c5.9,3.9,10.6,9,13.6,15
				c2.7,4.8,3.4,10.4,2,15.6c-2.5,6.7-9.6,11.3-17.5,11.4c1.4-1.5,2.7-3,4-4.5c2.5-2.7,3.6-6.2,2.9-9.7c-0.2-1.1-0.6-2.2-1.2-3.2
				c-2.3-3.8-6.1-6.7-10.6-8.3c-0.4-0.1-0.8-0.2-1.5-0.4v60.8c0.3,3.8-0.2,7.6-1.6,11.1c-3.4,7.3-10.6,12.7-19.3,14.3
				c-11,3-22.9,0.2-30.9-7.1c-9.2-8.1-9.3-21.3-0.3-29.5c1-0.9,2.1-1.7,3.3-2.5c11.6-7.6,27.5-7.6,39.1,0.2
				C87.4,115.5,87.8,115.7,88.3,116z"/>
			<path id="Path_7445" class="st1" d="M-27.3-1.5v-48.2l0.5,0.6c2.6,3.6,5.8,6.7,9.6,9.3c3.5,2.3,6.4,5.4,8.2,9
				c1.6,2.9,2,6.2,1.2,9.3c-1.5,4-5.7,6.8-10.5,6.8c0.8-0.9,1.6-1.8,2.4-2.7c1.5-1.6,2.1-3.7,1.7-5.8c-0.1-0.7-0.4-1.3-0.7-1.9
				c-1.4-2.2-3.7-3.9-6.3-4.8c-0.3-0.1-0.6-0.2-0.9-0.2V6.2c0.2,2.2-0.1,4.5-1,6.6c-2.1,4.3-6.4,7.5-11.6,8.4
				c-6.6,1.8-13.7,0.1-18.4-4.3c-5.5-4.8-5.6-12.7-0.2-17.5c0.6-0.6,1.3-1.1,2-1.5c6.9-4.6,16.4-4.6,23.3,0L-27.3-1.5z"/>
			<path id="Path_7446" class="st1" d="M932.8,117.7V69.5l0.5,0.6c2.6,3.6,5.8,6.7,9.6,9.3c3.5,2.3,6.4,5.4,8.2,9
				c1.6,2.9,2,6.2,1.2,9.3c-1.5,4-5.7,6.8-10.5,6.8c0.8-0.9,1.6-1.8,2.4-2.7c1.5-1.6,2.1-3.7,1.7-5.8c-0.1-0.7-0.4-1.3-0.7-1.9
				c-1.4-2.2-3.6-3.9-6.3-4.8c-0.3-0.1-0.6-0.2-0.9-0.2v36.3c0.2,2.3-0.1,4.5-1,6.6c-2,4.4-6.3,7.6-11.5,8.6
				c-6.6,1.8-13.7,0.1-18.5-4.3c-5.5-4.8-5.6-12.7-0.1-17.6c0.6-0.5,1.2-1,1.9-1.5c6.9-4.6,16.4-4.6,23.3,0
				C932.3,117.4,932.6,117.5,932.8,117.7z"/>
			<path id="Path_7447" class="st1" d="M231.1,120.1V71.9l0.5,0.6c2.6,3.6,5.8,6.7,9.6,9.3c3.5,2.3,6.4,5.4,8.2,9
				c1.6,2.9,2,6.2,1.2,9.3c-1.5,4-5.7,6.8-10.5,6.8c0.8-0.9,1.6-1.8,2.4-2.7c1.5-1.6,2.1-3.7,1.7-5.8c-0.1-0.7-0.4-1.3-0.7-1.9
				c-1.4-2.2-3.6-3.9-6.3-4.8c-0.3-0.1-0.6-0.2-0.9-0.2v36.3c0.2,2.3-0.1,4.5-1,6.6c-2,4.4-6.3,7.6-11.5,8.6
				c-6.6,1.8-13.7,0.1-18.5-4.3c-5.5-4.8-5.6-12.7-0.1-17.6c0.6-0.5,1.2-1,1.9-1.5c6.9-4.6,16.4-4.6,23.3,0
				C230.6,119.8,230.8,120,231.1,120.1z"/>
		</g>
	</g>
	<g id="freepik--Microphone--inject-2" transform="translate(1904.363 252.311) rotate(121)" class="st2">
		<path id="Path_7395" class="st1" d="M234.8,148.4c14-88.7-46.5-172-135.1-186C11-51.6-72.3,8.9-86.3,97.6s46.5,172,135.1,186
			c0.1,0,0.1,0,0.2,0C137.6,297.5,220.8,237,234.8,148.4z"/>
		<path id="Path_7396" class="st1" d="M894.2,316.3l-721.4-66l35.1-222l706,159.5c19.5,4.3,32.3,23.1,29.1,42.9l-8.5,54.2
			C931.3,304.2,913.8,317.8,894.2,316.3z"/>
		<path id="Path_7397" class="st3" d="M246,36.5L208,28l-35.1,222l38.9,3.6L246,36.5z"/>
		<path id="Path_7398" class="st4" d="M27.2,278.3c7.2,2.2,14.5,4,22,5.3h4.5l50.9-320.3c-1.6,0.1-3.1-0.2-4.5-0.9
			c-7.4-1-14.9-1.6-22.5-1.7L27.2,278.3z"/>
	</g>
	<g id="Mic_drop-bro" transform="translate(1017.15 163.858)">
		<g id="freepik--Floor--inject-2" transform="translate(209.539 712.624)">
			<ellipse id="Ellipse_145" class="st5" cx="231.6" cy="2.1" rx="170.5" ry="40.6"/>
		</g>
		<g id="freepik--Character--inject-2" transform="translate(235.836 51.069)">
			<path id="Path_7328" class="st6" d="M144.8-24.3c0,0,2.8-8.6,5.3-15.4s6.8-12.3,8.9-13.8s12.9-5.3,33.8-0.6s30.4,12.3,33.8,15.1
				c3.4,2.8,3.4,7.4,4,12.9c0.4,3.6,1,7.2,1.8,10.8c0,0-2.2-4.6-28.6-8.3s-36.6-6.1-44.3-2.5c-7.7,3.7-16.6,8.3-16.6,8.3L144.8-24.3
				z"/>
			<path id="Path_7329" class="st6" d="M151.4,20.1c-4.1-0.4-8.2-1-12.3-2c-10-2-18.2-9.5-9.1-21.9c9.1-12.4,15-21.9,15-21.9
				s3.8-7,18.2-10.8c14.4-3.7,45.8,5.7,58.1,10.4S243.4-15.6,248-7.6s0.6,10.4-6.8,18.2c-7.4,7.7-12,10.1-24.3,13.4
				S151.4,20.1,151.4,20.1z"/>
			<path id="Path_7330" class="st7" d="M161-20.8c0,0-11.8,10.9-11.8,16.4s0.9,23.7,2.3,30.5s11.4,27.8,15.5,31
				c4.1,3.2,18.2-0.5,18.2-0.5l6.8,9.1L228.8,42c0,0-5.9-13.2-6.4-14.6c-0.3-3.2-0.5-6.4-0.5-9.6c0,0,5.5-2.7,7.3-7.3
				c1.1-3.4,1.7-7,1.8-10.5c0,0-15.9-15.9-33.7-21.4S161-20.8,161-20.8z"/>
			<path id="Path_7336" class="st6" d="M210.9-8.9c5.3,4.3,4.3,10.8,8.3,9.2c2.6-1.1,5.1-2.6,7.4-4.3c-6.2-5.4-13-10-20.3-13.7
				C206.4-14.2,208.1-11,210.9-8.9z"/>
			<path id="Path_7337" class="st6" d="M185.1,56.6l14.7-10.9l-7.8,20L185.1,56.6z"/>
			<path id="Path_7338" class="st8" d="M180.9,595.4c0,0-22.7,16-26.4,16.6c-3.7,0.6-19.7,3.7-21.5,7.4c-1.8,3.7-3.1,8.6,3.1,9.8
				c6.1,1.2,33.8,3.1,43.6,3.1s20.9,0.6,26.3-0.6c5.4-1.2,14.1,1.2,17.2-11.1c3.1-12.3,2.5-22.1,0.6-28.9
				C222,585,180.9,595.4,180.9,595.4z"/>
			<path id="Path_7339" class="st5" d="M210.9,626.7c-12.4-1.3-24.8-1.8-37.2-1.6c-15.7,0.5-36.9-2.8-41.6-3.6
				c-1.1,3.2-1.1,6.7,4,7.8c6.1,1.2,33.8,3.1,43.6,3.1s20.9,0.6,26.3-0.6c2.9-0.6,6.7-0.3,10.1-1.6L210.9,626.7z"/>
			<path id="Path_7340" class="st8" d="M176.1,619.5L176.1,619.5c-0.5,0-0.9-0.4-0.9-0.9c0,0,0,0,0,0l0.1-3.2c0-0.5,0.4-0.9,0.9-0.9
				c0,0,0,0,0,0c0.5,0,0.9,0.4,0.9,0.9v3.2c0,0.5-0.4,0.9-0.9,0.9C176.2,619.5,176.2,619.5,176.1,619.5L176.1,619.5z"/>
			<path id="Path_7341" class="st8" d="M176.2,617.2L176.2,617.2c-1-0.1-1.8-0.9-1.8-1.9l0.3-12.4c0.1-1,0.9-1.7,1.9-1.8
				c1,0.1,1.8,0.9,1.8,1.9l-0.3,12.4C178,616.4,177.2,617.2,176.2,617.2z"/>
			<path id="Path_7342" class="st8" d="M154.5,614.8c-1,0-2-0.6-2.4-1.5c-0.7-1.3-0.7-2.9,0-4.1c1.4-2.4,5-2.9,6.4-3
				c1.5,0,2.8,1.2,2.8,2.8c0,1.4-1.1,2.6-2.5,2.8c-0.5,0-1,0.1-1.5,0.3c0,1.1-0.6,2.1-1.5,2.6C155.3,614.7,154.9,614.8,154.5,614.8
				L154.5,614.8z"/>
			<path id="Path_7343" class="st8" d="M161.3,610.6c-1,0-2-0.6-2.4-1.5c-0.7-1.3-0.7-2.9,0-4.1c1.4-2.4,5-2.9,6.4-3
				c1.5-0.1,2.8,1.1,2.9,2.7c0.1,1.5-1.1,2.7-2.5,2.9c-0.5,0-1.1,0.1-1.6,0.3c0,1.1-0.6,2.1-1.5,2.6
				C162.1,610.5,161.7,610.6,161.3,610.6z"/>
			<path id="Path_7344" class="st8" d="M168.1,606.4c-1,0-2-0.6-2.4-1.5c-0.7-1.3-0.7-2.9,0-4.1c1.4-2.5,5-2.9,6.4-3
				c1.5-0.1,2.9,1,3,2.5c0.1,1.5-1,2.9-2.5,3c0,0-0.1,0-0.1,0c-0.5,0-1,0.1-1.5,0.3c0,1.1-0.6,2.1-1.5,2.5
				C169,606.3,168.5,606.4,168.1,606.4L168.1,606.4z"/>
			<path id="Path_7345" class="st5" d="M138.1,616.9c0,0,0.3,0.6,6.3,0.6s7.8,2.7,8.4,4.8"/>
			<path id="Path_7346" class="st5" d="M194.8,614.8c1.3-1.2,2.9-2,4.7-2.4"/>
			<path id="Path_7347" class="st5" d="M186.6,624.7c1.7-2.7,3.6-5.2,5.7-7.5"/>
			<path id="Path_7348" class="st6" d="M155.9,295c0,0-0.6,38.7-0.6,78.7s2.1,76.5,7,88.1c5,11.7,18.1,72.2,19.3,80.2
				c1.2,8-0.6,20.3-0.6,26.3c0,3.8,0.6,7.5,1.8,11.1c0,0-3.1,4.9-3.1,8s-3.7,9.2,0,11.1s6.1,3.7,24.6,6.8
				c18.4,3.1,30.1-14.7,33.2-19.7c3.1-4.9-14.4-122-16.9-143.5c-2.5-21.5-0.8-66,2.9-83.2c3.7-17.2,1.8-57.1-0.6-65.1
				c-2.5-8-26.4-12.9-39.3-11.7C170.7,283.2,155.9,295,155.9,295z"/>
			<path id="Path_7349" class="st6" d="M203.2,312.2c0,0-13.3,94.3-13.3,109.7c0,15.4,6.8,32.6,8.6,39.9c1.8,7.4,8.9,90.7,10.7,96.2
				s2.5,20.3,2.5,20.3s-4.9,1.8-5.5,5.5c-0.6,3.7,2.5,6.1,2.5,9.2s-3.1,8-4.3,12.3c-0.7,2.9-0.5,5.9,0.6,8.6
				c0,0-12.3,16.6-17.8,22.1c-5.5,5.5-19.7,16-27.7,21.5s-24,12.3-24.6,20.9c-0.6,8.6,5.5,16,20.9,16.6s43,1.2,58.4-0.6
				s45.5-19,50.4-25.2c4.9-6.1,8.1-6.8,8.1-24c0-17.2,0.6-33.8,0-35.6c-0.6-1.8-1.8-4.9-0.6-14.7c0.8-5.6,0.2-11.3-1.8-16.6
				c1-3,1.8-6.1,2.5-9.2c0.6-3.7-4.3-12.3-4.3-12.3s3.4-63.6,3.4-77.8s-17.8-44.9-17.8-44.9s2.5-12.9,2.5-15.4s-3.7-8.6-3.7-8.6
				s18.2-50.7,19.9-57.4s6.8-28.9,8-36.3c1.2-7.4-3.1-22.7-8.6-32c-5.5-9.2-29.5-20.3-38.1-12.9C225.2,279,203.2,312.2,203.2,312.2z
				"/>
			<path id="Path_7350" class="st8" d="M151,295.6c0,0,16.6,28.9,27.7,34.4c11.1,5.5,22.1-2.5,37.5-19
				c15.4-16.6,24.6-29.5,35.6-25.2c11.1,4.3,31.3,46.1,34.4,51c3.1,4.9,2.5-40.6-3.7-54.7S245,262.4,207,267.3
				C169,272.2,151,295.6,151,295.6z"/>
			<path id="Path_7351" class="st9" d="M147.9,275.8c0,0-1.2,11.1-1.2,17.2s9.2,5.5,9.2,5.5s27.7-11.7,58.4-13.5
				c30.7-1.8,61.4,6.1,66.4,6.1c4.9,0,7.4-4.3,7.4-9.2s-5.5-16-5.5-16s-12.9-14.1-51-15.4c-38.1-1.2-65.7-0.6-73.7,6.1
				C149.7,263.6,147.9,275.8,147.9,275.8z"/>
			<path id="Path_7352" class="st10" d="M226.8,35.1c0,0-34.5,26.3-41.6,31.8s-1.2,10.2,0.4,11.4c1.6,1.7,3.1,3.5,4.3,5.5
				c-8.1,7.3-16.8,13.9-25.9,20c-15.3,10.2-18,11.8-22.3,17.2c-4.3,5.5-20.4,23.5-20.4,23.5c1.3-5.7,2.1-11.4,2.4-17.2
				c0-7,3.2-15.6-0.3-21.5c-3.5-5.9-12.1-13.3-20-13.3s-14.9,2.7-19.6,10.2c-4.7,7.4-8.3,22.7-11.1,39.1S58,178.2,63.1,186
				s13.3,17.6,24.3,17.6s20.8-0.8,25.9-5.5c5.1-4.7,29.3-15,32-16.9c3-1.9,6.2-3.6,9.4-5.1c0,0-0.4,30.2-2,42.3
				s-11.8,41.2-12.6,47.4c-0.8,6.2,9,12.5,9,12.5s10.2-10.5,40.4-13.3c24.2-1.9,48.4-1.5,72.5,1.2c7.4,1.2,18,6.3,22.8,1.6
				s7.8-4.7,7-15.3s-2.3-21.9-2.3-26.6s3.1-42.3,3.1-43.5c0-1.2,10.2-45.9,10.2-45.9s23.1-7,38.8-10.2c15.7-3.2,22.3-24.7,17.2-37.2
				s-25.1-25.5-33.7-31.4s-37.2-7-41.2-5.5c-3.9,1.5-16.1-0.8-25.5-2s-14.5-1.2-16.1-0.8l-1.6,0.4c0,0-2.4-12.9-5.9-15.3
				C231.6,32.2,226.8,35.1,226.8,35.1z"/>
			<path id="Path_7353" class="st5" d="M316.3,120.1c2.2,0.4,4.4,0.7,6.6,0.8"/>
			<path id="Path_7354" class="st5" d="M275.5,60.2c0,0-10.2,5.5-7.5,14.5c2.7,9,21.2,29.8,29.8,36.9c3.7,3,7.8,5.3,12.3,6.8"/>
			<path id="Path_7355" class="st5" d="M294.3,110.8c0,0,6.7,9.4,13.3,12.1c3.8,1.6,8,2.4,12.1,2.4"/>
			<path id="Path_7356" class="st5" d="M119.6,171.8c-0.9,3.2-2.2,6.3-4,9.1"/>
			<path id="Path_7357" class="st5" d="M121.4,144.4c0,0-1.1,14.6-1.1,22"/>
			<path id="Path_7358" class="st5" d="M120.7,179c0,0-3.1,7.4-7.8,8.6"/>
			<path id="Path_7359" class="st5" d="M151.6,143.7l3,32.5l-8.5-25.8"/>
			<path id="Path_7360" class="st5" d="M261,112.3c0,0,3.9,17.3,17.6,21.2c13.6,3.9,22.3,2.7,22.3,2.7"/>
			<path id="Path_7361" class="st5" d="M169.3,253.4c-1.8,6.7-1.4,11.2,3.2,13.3"/>
			<path id="Path_7362" class="st5" d="M176.6,230.8c-0.9,3.8-2.1,7.6-3.5,11.3l-0.7,1.9"/>
			<path id="Path_7363" class="st5" d="M188.9,106.8c-2.1,6.1-3.9,12.3-5.4,18.5c-3.1,14.7-3.7,49.8-3.7,70
				c0.2,10.1-0.6,20.3-2.2,30.2"/>
			<path id="Path_7364" class="st5" d="M192.1,62.1c0,0-4.9,8.6-2.5,11.1c2.5,2.5,7.4,11.7,7.4,11.7s-3.2,7.9-6.6,17.6"/>
			<path id="Path_7365" class="st8" d="M184.2,194.8c-3.5,0.1-6.9-1.1-9.6-3.4c-6.8-5.8-9.2-18.7-7.6-41.6c0-0.9,0.1-1.9,0.2-2.8
				c0.2-23.9,12.9-51.1,13.6-52.7c0.4-0.9,2.2-4.6,3.1-4.2s1.8-1.8,1.4-0.9c0,0-0.3,0.8-0.8,2c2.1-4.8,3.7-7.9,3.9-8.3
				c0.5-0.9,1.6-1.3,2.5-0.8c0.9,0.4,1.3,1.4,0.9,2.3c0,0.1-0.1,0.1-0.1,0.2c-0.2,0.4-17.9,36.6-20.7,62.8c0,2.1,0.1,4.1,0.4,6.1
				c0.6,4.4,2.3,9.8,7.3,10.4c7.6,0.9,20.1-9.4,26.7-26.2c9.7-24.9,32.4-77,32.6-77.5c0.3-1,1.4-1.5,2.4-1.1c1,0.3,1.5,1.4,1.1,2.4
				c-5.7,20.7-10,41.7-12.9,63c-4,31.3-17.6,65-38.9,69.8C187.8,194.6,186,194.8,184.2,194.8L184.2,194.8z M170.1,162.1
				c0,14,2.2,22.6,6.8,26.5c2.8,2.4,6.7,3.1,11.7,1.9c16.7-3.8,31.6-31.2,36.1-66.7c2-15.4,4.8-30.1,7.4-41.4
				c-7.5,17.4-17.7,41.7-23.5,56.4c-6.6,17-20.3,29.8-30.6,28.5C174.7,167,171.8,165,170.1,162.1L170.1,162.1z"/>
			<path id="Path_7366" class="st8" d="M189.7,73.1l-1.8,14.1l5.5-2.5L189.7,73.1z"/>
			<path id="Path_7367" class="st5" d="M240.6,64.9c0,0-15.7,6.7-20.4,9.8"/>
			<path id="Path_7368" class="st9" d="M267.3,55.9c0,0,1.2,4.3,7.8,10.2s19.6,4.7,24.7,2s6.5-11.4,6.5-11.4s-7.7-8.6-11.7-8.9
				C290.8,47.3,268.8,44.9,267.3,55.9z"/>
			<path id="Path_7369" class="st7" d="M309.1,51.5c-0.8-1.4-1.6-2.8-2.4-4.1c0.2-0.2,0.3-0.4,0.4-0.6c1-1.3,1.3-3.1,0.8-4.7
				c-0.8-1.6-4.3-8.2-5.5-8.2c-0.6,0-3.3,0.4-5.8,0.8l-0.5-0.4c-1.1-1-2.1-2.1-3-3.4c0.8-2.7,3.7-9.8,3-12.3s-7.8-5.1-10.5-4.7
				c-1.8,0.3-5.7,5.1-8.3,8.6l-3.5-0.6c-1.2-3.6-3.7-10.4-5.1-10.7c-2-0.4-5.5,3.9-5.5,5.9c0,0.6,0.1,2.2,0.3,4.1l-4.6,2.9
				c0,0-6.3,15.3-9,18.4s-14,10.2-21.2,10.5c-7.1,0.4-14.9,1.2-13.3,5.9c1.6,4.7,7,5.1,17.6,6.3c10.5,1.2,19.6-3.9,23.5-6.3
				c3.9-2.3,12.1-1.2,17.6-1.2s12.9-2,14.5-2c1.6,0,5.9,3.5,10.5,4.7c4.7,1.2,13.3-1.6,13.3-1.6S313,59,309.1,51.5z"/>
			<path id="Path_7370" class="st7" d="M284.4,19.8l-0.4,11c0,0-2.7,9-1.2,12.1c1.6,3.1,7.8,0.4,8.6-1.2s6.7-21.1,6.3-23.5
				c-0.4-2.4-5.9-5.5-9-5.5c-1.9,0.1-3.8,0.9-5.1,2.4"/>
			<path id="Path_7371" class="st7" d="M311.8,42.1c0,0,7,4.7,7.4,6.3c0.4,1.6-0.8,10.5-0.8,15.3s-1.6,9.4-4.3,6.7
				c-2.7-2.7-2.7-11.8-3.1-13.3c-0.4-1.6-2.4-2.4-2.4-2.4"/>
			<path id="Path_7372" class="st7" d="M266.8,7.2c0,0-9.8-2-10.5,2c-0.7,3.9-1.2,16.9,2,17.6c3.1,0.7,8.2,1.2,9,0
				s3.5-14.9,3.1-17.3S266.8,7.2,266.8,7.2z"/>
			<path id="Path_7373" class="st7" d="M294.2,35.1c0,0,9.4-7,12.1-7.8c2.7-0.8,9.8,6.4,9.8,6.4c-0.6,5.2-1.7,10.3-3.1,15.3
				c-2,5.9-4.3,7.8-6.7,7.8c-2.7-0.1-4.8-2.3-4.7-5c0,0,0-0.1,0-0.1c0-3.1,1.2-13.3,1.2-13.3"/>
			<path id="Path_7374" class="st5" d="M273.8,25.3c0,0-3.5,4.7-6.7,5.5c-2.4,0.5-4.9,0.8-7.4,0.8"/>
			<path id="Path_7375" class="st5" d="M277.8,27.6c0.3,2.4,2.3,4.4,4.7,4.7"/>
			<path id="Path_7376" class="st5" d="M295.8,40.6c0,0-0.8,5.1,5.1,3.9"/>
			<path id="Path_7377" class="st7" d="M114,86.1c4.3-6.7,8.1-13.6,11.4-20.8c4.7-10.5,8.6-17.2,13.7-23.1s18.4-16.3,19.6-16.4
				c3.5-0.4,3.5,3.9,3.5,3.9s6.3-3.5,8.2-2c2,1.5,1.1,5.5-2,7.8c-5.1,3.9-11.7,14-12.1,15.3c-0.3,0.8-0.7,1.6-1.2,2.4
				c0,0,8.6,5.1,8.6,7.5c-0.2,2-0.7,4-1.6,5.9c0.4,3.3-0.3,6.6-2,9.4c-2.7,4.3-4.7,8.6-7,8.6s-3.5-0.4-3.5-2.7s2.7-7.8,2.7-7.8
				c-2.3,2.1-4.4,4.5-6.3,7c-2.4,3.5-4.7,7.8-8.6,9.4c-3.9,1.6-11,3.5-11,3.5l-7.1,11.7c-3.4,0.7-7,0.1-10.1-1.5
				c-4.3-2.7-5.5-8.6-5.5-8.6L114,86.1z"/>
			<path id="Path_7378" class="st9" d="M111.3,86.5c0,2.7,1.3,5.2,3.5,6.7c3.9,3.1,11.8,3.5,11.8,3.5s1.6-1.2,1.6,0.8
				c0,2-5.9,12.1-8.2,16.1c-2.4,3.9-15.3,4.7-20-1.6c-4.7-6.3-4.3-14.5-3.5-15.7c0.8-1.2,11.4-10.5,11.4-10.5S110.9,83.7,111.3,86.5
				z"/>
			<path id="Path_7379" class="st5" d="M162.2,29.6c0,0-9.8,6.7-12.9,11s-5.1,6.7-5.1,6.7"/>
			<line id="Line_79" class="st5" x1="153.2" y1="60.6" x2="162.2" y2="66.5"/>
			<path id="Path_7380" class="st5" d="M155.2,53.2c0,0-2.7-2-4.7-0.8"/>
			<path id="Path_7381" class="st8" d="M272.7,626.7c-1.9,1.7-4,3.6-6.3,5.6c-12.3,11.1-30.7,11.1-30.7,11.1s-6.1-27.7-13.5-29.5
				c-7.4-1.8-17.2,0-17.2,0s-12.3,16.6-17.8,22.1c-5.5,5.5-19.7,16-27.7,21.5s-24,12.3-24.6,20.9s1.5,12.5,16.2,16.8
				c13.7,4,47.7,1,63-0.8c15.4-1.8,45.5-19,50.4-25.2c4.9-6.1,8.1-6.8,8.1-24C272.5,638.7,272.5,632.2,272.7,626.7z"/>
			<path id="Path_7382" class="st5" d="M271.4,653.1c-14.1,11.5-29.9,20.6-46.9,27c-22.6,8.6-51.8,9.2-72.8,5.4
				c-10.8-2-15-5.2-16.6-7.8c-0.1,0.2-0.1,0.5-0.1,0.7c-0.6,8.6,1.5,12.5,16.2,16.8c13.7,4,47.7,1,63-0.8s45.5-19,50.4-25.2
				c4.1-5.1,6.9-6.4,7.7-16.7C271.9,652.7,271.7,652.9,271.4,653.1z"/>
			<path id="Path_7383" class="st5" d="M169.2,652c0,0-7.2,2.4-3.6,5.5c1.7,1.4,18,11,22.2,8.3C194.3,661.6,169.2,652,169.2,652z"/>
			<path id="Path_7384" class="st5" d="M189.9,660.7c0,0,34-23.7,38.3-30.7"/>
			<path id="Path_7385" class="st8" d="M195.8,661.3c-0.7,0-1.4-0.3-2-0.8c-10.5-10.5-19.3-9.5-19.7-9.5c-1.5,0.2-2.9-0.9-3.1-2.4
				c-0.2-1.5,0.8-2.8,2.3-3.1c0.5,0,11.8-1.8,24.6,11c1.1,1.1,1.1,2.8,0,3.9c0,0,0,0,0,0C197.3,661,196.6,661.3,195.8,661.3z"/>
			<path id="Path_7386" class="st8" d="M205,655.4c-0.8,0-1.5-0.3-2-0.9c-10.3-11.2-22.3-9.9-22.4-9.9c-1.5,0.2-2.9-0.9-3.1-2.4
				c-0.2-1.5,0.9-2.9,2.4-3.1c0.6,0,15-1.7,27.2,11.7c1,1.1,1,2.9-0.1,3.9C206.4,655.1,205.7,655.4,205,655.4L205,655.4z"/>
			<path id="Path_7387" class="st8" d="M213.1,649.4c-0.8,0-1.6-0.4-2.2-1.1c-7.8-9.7-20.5-10.5-22.7-9.9c-1.4,0.6-3-0.1-3.6-1.5
				c-0.5-1.3-0.1-2.7,1.1-3.5c3.4-1.9,19.8-0.8,29.5,11.4c1,1.2,0.8,2.9-0.4,3.9C214.4,649.2,213.8,649.4,213.1,649.4L213.1,649.4z"
				/>
			<path id="Path_7388" class="st8" d="M219.6,643c-0.8,0-1.5-0.3-2.1-0.9c-5.9-6.5-14.1-10.4-22.8-11c-1.5-0.1-2.7-1.4-2.6-3
				c0.1-1.4,1.2-2.5,2.6-2.6c10.3,0.5,19.9,5.1,26.9,12.8c1,1.1,1,2.9-0.2,3.9C220.9,642.7,220.2,643,219.6,643L219.6,643z"/>
			<path id="Path_7389" class="st8" d="M227.1,663.6L227.1,663.6c-1-0.1-1.8-0.9-1.8-1.9l0.1-4.9c0-1,0.8-1.8,1.8-1.8
				c0,0,0.1,0,0.1,0l0,0c1,0.1,1.8,0.9,1.8,1.9l-0.1,4.9C228.9,662.8,228.1,663.6,227.1,663.6z"/>
			<path id="Path_7390" class="st8" d="M227.2,659.6L227.2,659.6c-1.5,0-2.7-1.3-2.7-2.8L225,638c-0.1-1.5,1.1-2.8,2.6-2.9
				c1.5-0.1,2.8,1.1,2.9,2.6c0,0.1,0,0.3,0,0.4l-0.4,18.9C230,658.5,228.8,659.7,227.2,659.6z"/>
			<path id="Path_7391" class="st5" d="M212.9,677.2c0.9,1.4,1.4,3.1,1.6,4.7"/>
			<path id="Path_7392" class="st5" d="M149.7,664.9c0,0-4.5,3,3.3,6.3c7.8,3.3,28.2,1.2,41.7-1.5c4-0.9,8.1-0.5,11.8,1.3"/>
			<path id="Path_7393" class="st5" d="M263.4,641.5c0.7-1.4,1.5-2.7,2.4-3.9"/>
			<path id="Path_7394" class="st5" d="M259.2,660.3c0-4.9,0.8-9.8,2.4-14.5"/>
		</g>
		<g id="freepik--Microphone--inject-2-2" transform="translate(399.19 233.105)">
			<path id="Path_7395-2" class="st9" d="M102.9-30.1c1.6-10.1-5.3-19.5-15.3-21.1c-10.1-1.6-19.5,5.3-21.1,15.3
				c-1.6,10.1,5.3,19.5,15.3,21.1c0,0,0,0,0,0C91.9-13.2,101.3-20.1,102.9-30.1z"/>
			<path id="Path_7396-2" class="st6" d="M177.7-11.1l-81.8-7.5l4-25.2l80.1,18.1c2.2,0.5,3.7,2.6,3.3,4.9l-1,6.1
				C181.9-12.4,179.9-10.9,177.7-11.1z"/>
			<path id="Path_7397-2" class="st8" d="M104.2-42.8l-4.3-1l-4,25.2l4.4,0.4L104.2-42.8z"/>
			<path id="Path_7398-2" class="st8" d="M79.3-15.4c0.8,0.3,1.6,0.5,2.5,0.6h0.5l5.8-36.3c-0.2,0-0.4,0-0.5-0.1
				c-0.8-0.1-1.7-0.2-2.5-0.2L79.3-15.4z"/>
		</g>
	</g>
</g>
</svg>
