<?xml version="1.0" encoding="utf-8"?>
<!-- Generator: Adobe Illustrator 25.2.0, SVG Export Plug-In . SVG Version: 6.00 Build 0)  -->
<svg version="1.1" id="Layer_1" xmlns="http://www.w3.org/2000/svg" xmlns:xlink="http://www.w3.org/1999/xlink" x="0px" y="0px"
	 viewBox="0 0 1044.1 860.8" style="enable-background:new 0 0 1044.1 860.8;" xml:space="preserve">
<style type="text/css">
	.st0{opacity:0.35;}
	.st1{fill:#FFFFFF;stroke:#717070;stroke-width:1.0099;stroke-miterlimit:3.9995;}
	.st2{fill:#403D56;}
	.st3{fill:#F6A030;}
	.st4{fill:#2F2F41;}
	.st5{fill:#EC6585;}
	.st6{fill:#F6B6B8;}
	.st7{fill:#E6E6E6;}
	.st8{fill:#F2F2F2;}
	.st9{fill:#F6B4B7;}
	.st10{fill:#CDCCCC;}
</style>
<g id="Group_423" transform="translate(-880.385 -89.257)">
	<g id="Group_405" transform="matrix(0.978, 0.208, -0.208, 0.978, -316.636, -628.914)" class="st0">
		<path id="Path_7307" class="st1" d="M1960.8,1029.6c-0.8,53.9-43.1-5.9-100.7-5.1c-57.6,0.7-103.4-42.5-102.4-96.4
			c1-53.6,48.1-97.7,105.4-98.7C1920.7,828.6,1961.6,975.7,1960.8,1029.6z"/>
		<path id="Path_7308" class="st1" d="M1568.6,547.5c-0.8,53.9-48.2,98.2-105.7,99.1c0,0,0,0,0,0c-57.6,0.8-88.5,110.4-87.7,56.5
			s33.1-250.8,90.7-251.7C1523.4,450.6,1569.4,493.6,1568.6,547.5z"/>
		<path id="Path_7309" class="st1" d="M1429.9,442c15.2-8.4,33.6-5.9,47.7,2.2c16.1,9.2,24.9,25.4,28.6,42.5
			c3.7,18.3,3.3,37.3-1,55.7c-4.1,17.8-14.4,36.7-34.6,42.1c-13.5,3.6-28.4-0.6-33.1-13.5c-3.7-10.5-1.1-22.3,6.7-30.9
			c11.5-12.1,31.2-13,45.9-7.2c17.3,6.7,27.7,22.3,31.9,39c5,19.8,1.4,40.4-4.5,59.9c-6.4,21.2-14.8,42-22.3,62.9
			c-14.7,40.8-28.3,82.3-32.4,125.1c-6.2,65.4,15.7,140.4,78.9,174.5c34.1,18.4,75.5,20.8,114.2,12.8c40.8-8.5,77.4-28.6,109.3-53.9
			c16.6-13.3,32.2-27.7,46.8-42.9c9-10.1,23.4-14.3,36.6-10.6c33,9.4,26.1,59.2-6.8,65.7c-14.9,3-31-3.5-41.9-12.4
			c-11.9-10.1-20.2-23.5-23.6-38.4c-7.9-31.2,2.4-65.8,22.6-92c22.8-29.6,59.3-48.3,95.3-59.6c41-12.9,83.7-17.2,126.2-21.8
			c43.5-4.7,87.4-10.2,128.6-25.5c33.2-12.5,64.1-29.9,91.4-51.6c55.2-43.4,94.7-101.8,112.8-166.6c4.2-15.7,7.1-31.6,8.5-47.6
			c0.6-6.3-9.9-6.1-10.4,0.1c-6.2,69.9-41.7,136.7-94.7,187c-26.4,25.2-57.3,46-91.1,61.4c-40.7,18.5-84.8,26.1-129,31.2
			c-45.2,5.2-90.9,8.6-134.9,21c-38.9,11-77.8,29.1-104.6,58.8c-23.7,26.2-37,61.8-32.9,95.6c3.7,31.4,24.7,63.4,59.8,69.8
			c16.5,3,33.6-1.4,44.8-13.9c12.7-14.6,15.7-34.4,7.9-51.2c-10.2-18.4-33.9-26.1-54.8-17.9c-7.4,3.3-13.9,8-19.1,13.9
			c-30.5,31.3-65.1,60.6-106.5,78.5c-38.6,16.7-83.8,23.4-124.2,11.6c-76.4-22.3-104.5-104-98.9-173c3.7-45.2,18.9-89,34.5-132
			c8-21.9,17-43.8,22.8-66.3c5.1-20.2,6.9-41.5,0.2-61.2c-5.9-17.2-17.9-32.4-36.1-39.4c-16.5-6.3-36.8-5.9-51.8,4.7
			c-21.7,15.3-24.2,52.6,2.1,63.7c17.4,7.4,38.7,1.1,51.8-11.8c14.7-14.5,19.8-34.7,21.7-53.7c3.6-36-4.2-79.3-43-95
			c-16-6.5-34.6-6.9-50.2,1.8c-2.4,1.5-3.1,4.6-1.6,6.8C1424.7,442.5,1427.6,443.1,1429.9,442L1429.9,442z"/>
		<path id="Path_7310" class="st1" d="M2365.3,474.3c-0.9,57.1,92.7,201.5,59.8,245.7c-4.1,5.5-8.4,10.9-12.9,16.1
			c-14.7,17.1-31.5,32.5-50,45.9c-3.1,2.3-6.3,4.5-9.5,6.7c-11.4,7.6-23.2,14.5-35.6,20.6c-2.2,1.1-4.5,2.1-6.8,3.2
			c-145.4,67-317.9,12.6-385.3-121.6c-52.1-103.8-27-229.2,62.6-311.9c2.6-2.4,5.3-4.8,8-7.2c27.2-23.4,58.8-42,93.1-54.6
			c0,0,0,0,0.1,0c51.4-18.9,107-24,160.4-14.8l0.1,0c1.2,0.2,2.4,0.4,3.5,0.7C2383.8,327.2,2367.3,343.8,2365.3,474.3z"/>
		<path id="Path_7311" class="st1" d="M2317.3,808.1c0,0.4,0,0.8-0.1,1.2c-2.2,1.1-4.5,2.1-6.8,3.2c-2.1-0.6-3.5-2.3-3.6-4.3
			c-0.4-4.9-1.3-9.7-2.8-14.4c-12.9-40.7-60.1-60.9-101.5-67.6c-50.6-8.3-104.1-3.8-152.1-22.7c-19.7-7.3-37.1-19-50.6-34.1
			c-14.1-16.7-21.1-37.8-19.4-59.4c3.6-50.7,42.4-91,56.2-139c5.7-19.8,6-40.3-3.3-58.8c-7.9-15.7-22.3-29.4-41.7-31
			c-1.6-0.1-3-0.9-3.9-2.1c2.6-2.4,5.3-4.8,8-7.2c3.5,0.4,7,1.2,10.3,2.4c18.9,6.6,31.9,21.8,39.1,39c8.3,19.9,7.1,41.5,0.9,62.2
			c-14.7,48.2-56.2,90.4-55.4,142.2c0.7,44.8,42.1,72.2,84.1,83.4c52,13.9,108.6,6.2,160,22.4
			C2275.1,736.2,2314.1,765.5,2317.3,808.1z"/>
		<path id="Path_7312" class="st1" d="M2362.3,782.1c-3.1,2.3-6.3,4.5-9.5,6.7c-0.8-0.8-1.2-2-1.1-3.2c2.4-42.1-12.5-83-41.6-114.3
			c-12.6-13.8-27.6-25.3-44.5-34.3c-17.6-9.3-37.1-14.1-56.4-19.7c-19-5.5-38.2-12.3-52.6-25.4c-14.6-13.3-21.6-31.6-23.6-50.6
			c-4.6-44.9,20.2-86.6,22.8-131c1.2-19.8-3.2-38.9-16.1-54.7c-11.1-13.6-27.7-22.7-46.7-20.3c-6.3,0.8-6.4-7.8-1-9.5
			c0.4-0.1,0.8-0.2,1.2-0.2c22.1-2.7,41.9,8.3,54.7,24c15,18.2,19.9,40.6,18,63.6c-3.7,44.5-29.3,87.7-21.9,132.7
			c2.5,19.2,13.7,36.2,30.7,46.9c17.3,10.5,37.8,15.1,57.4,20.8c19.5,5.3,38,13.6,54.6,24.4c16.2,11,30.4,24.4,42,39.7
			C2351.9,707.8,2363.6,744.5,2362.3,782.1L2362.3,782.1z"/>
		<path id="Path_7313" class="st1" d="M2425.2,720c-4.1,5.5-8.4,10.9-12.9,16.1c5-25.3,4.4-51.2-1.9-76
			c-7.6-31.2-23.6-59.9-46.5-83.3c-11.4-11.7-24.7-21.7-39.3-29.8c-16.7-9.2-35-16.9-46.7-31.9c-25.3-32.7-7.2-76,1.6-111.7
			c4.7-18.6,7.3-38.4-0.5-56.2c-6.1-13.8-18.3-26.7-35.2-28c-6.6-0.5-6.5-10.3,0.1-9.8c1.3,0.1,2.5,0.3,3.7,0.4
			c18.4,2.9,32.4,15.5,39.9,31.3c9.7,20.6,7.4,43,1.9,64.7c-9,35.8-29.2,83.3,5.2,112c14.5,12.1,33.5,18.6,49.2,29.3
			c14.1,9.5,26.6,20.8,37.3,33.6C2414,619.9,2429.7,669.6,2425.2,720z"/>
	</g>
	<g id="Group_403" transform="translate(988.563 279.544)">
		<path id="Path_7256" class="st2" d="M394.4,227.4c14.4-14.1,19.5-37.3,11.3-51.8c-8.2-14.6-26.6-14.9-41-0.8s-34.7,52.2-26.5,66.7
			C346.3,256,379.9,241.5,394.4,227.4z M344.5,235.1c-3.1-1.5-3.9-6.1-1.9-10.4s6.2-6.5,9.3-5c3.1,1.5,3.9,6.1,1.9,10.4
			S347.6,236.6,344.5,235.1z"/>
		<path id="Path_7257" class="st3" d="M376.5,216.7l-4.2-3.8c-1.9-1.5-3.5-3.4-4.6-5.6c-1.2-3-1.5-6.4-0.9-9.6
			c0.8-4.6,2.9-8.9,6.2-12.3l-0.2,3.2c1.7-2,3.6-3.6,5.8-5c2.1-1.1,4.3-1,5.2,0.9c1,2.2,0,6,1.4,7.8c2.4,3,8.7-3.5,11.3-0.8
			c1.5,1.6,0.8,5.2,0,8.3c-0.8,3.8-2.1,7.6-3.9,11.1c-3.2,5.8-9.1,9.6-13.1,8C378.5,218.4,377.4,217.7,376.5,216.7z"/>
		<path id="Path_7258" class="st4" d="M364.2,217.5c-0.7-2.5,0.8-5.7,2.2-8.4l0.7-0.7c1.5-0.7,3.1-1.2,4.7-1.4
			c1.6-0.1,3,0.9,3.5,2.4c0.4,1.5,0.1,3.5,1.1,4.4c1.9,1.6,5.9-3.4,7.7-1.7c1,1,0.3,3.6-1.1,4.8c-1.3,1.1-2.8,1.7-4.5,1.8l-7.2,1.2
			c-1.4,0.3-2.8,0.4-4.3,0.2C365.8,219.9,364.6,218.9,364.2,217.5z"/>
		<path id="Path_7259" class="st5" d="M356.3,219.3c0.5-3.7,3.3-9.6,5.8-14.6l1-1.5c1.4-1.7,3-3.1,4.8-4.4c1.4-0.7,2.3-0.2,2,2.2
			c-0.3,2.2-1.6,5.7-1.1,6.6c0.9,1.8,6.7-8.3,7.5-6.3c0.5,1.1-1.4,5.6-3.1,8.3c-1.3,2-2.9,3.7-4.8,5l-6.8,5.2
			c-1.1,1-2.4,1.8-3.8,2.3C356.7,222.4,356,221.6,356.3,219.3z"/>
		<path id="Path_7260" class="st6" d="M357.1,232.7c-1.3-6.2-7.3-10.2-13.6-8.9c-0.7,0.1-1.3,0.3-1.9,0.6l-26.7-30.9l-5.8,20.4
			l26.2,26.2c2.7,5.8,9.6,8.2,15.4,5.5C355.6,243.2,358.2,237.9,357.1,232.7L357.1,232.7z"/>
		<path id="Path_7261" class="st2" d="M268.5,115.1l-7.1,12c0,0,18.7,9.3,19,16.6s1.7,5.5,4.5,7.5c2.8,2,6.1,7.2,6.2,12.9
			c0.1,5.7,44.3,50,44.3,50l-12,16.7c-3.9-3.6-8.3-6.8-13-9.4c-7.2-3.8-27-10.7-28.4-14.6c-1.4-3.9-7.3-6.7-12.8-10.7
			c-5.6-4,6.4-7.4-2.9-14.1c-9.3-6.7-59.5-59.3-68.5-64.4c-9-5.1-9.1-20.6-9.1-20.6l6.7-9.3L268.5,115.1z"/>
		<path id="Path_7262" class="st7" d="M671,428.3v-5.9c0.2-1.7,0.2-3.5,0-5.2v-479c0-6.2-5-11.2-11.2-11.2s-11.2,5-11.2,11.2l0,0
			v479c-0.2,1.7-0.2,3.5,0,5.2v5.9L535.1,660.4c11.3,11.3,29.5,11.3,40.8,0c0,0,0,0,0,0L648.6,476v181.7c0,6.2,5,11.2,11.2,11.2
			s11.2-5,11.2-11.2V476l72.7,184.5c11.3,11.3,29.5,11.3,40.8,0c0,0,0,0,0,0L671,428.3z"/>
		<path id="Path_7263" class="st7" d="M111.6,600.5c-12.2-12.1-22.6-25.8-30.9-40.9c-8.2-15-14.3-31-18.1-47.7
			c-3.8-16.9-5.1-34.3-3.7-51.6c2.7-35.2,15.8-68.8,37.4-96.7c1.3-1.7,2.7-3.4,4.1-5c1.5-1.8,4.2,0.8,2.6,2.6
			C44.5,431,49.4,534,114.3,597.9C116,599.5,113.3,602.2,111.6,600.5L111.6,600.5z"/>
		<path id="Path_7264" class="st7" d="M94.8,366.9c1.5-0.6,3-1.2,4.4-1.9c0.1,0.1,0.1,0.2,0.2,0.3L94.8,366.9z"/>
		<path id="Path_7265" class="st7" d="M123.6,334c-0.6,3.4-1.7,6.7-3.3,9.8c-4.3,8.6-11.2,15.8-19.6,20.4c-0.5,0.3-1,0.5-1.4,0.8
			c-0.6-0.9-1.2-1.8-1.7-2.7c-3.8-6.1-7.2-12.5-8.7-19.5c-1.8-8.1-0.8-17.3,4.4-23.8c5.2-6.5,15.2-9.4,22.4-5.2c2.1,1.2,3.8,3,5.2,5
			c-0.7,0.9-1.4,1.8-2.2,2.7c-0.1,0.1-0.1,0.2-0.2,0.2c-0.6,0.8-1.3,1.5-1.9,2.3c-2.6,3.2-5.2,6.4-7.8,9.6c3.7,0.7,7.4,0.9,11.2,0.8
			l0.9,0C121.7,334.2,122.7,334.1,123.6,334z"/>
		<path id="Path_7266" class="st7" d="M70.8,398.2l-1,13l-0.3,3.5c-0.3-0.1-0.6-0.3-0.9-0.4c-19.7-9.8-34.2-27.5-39.8-48.8
			c-0.9-3.6-1.6-7.3-2-11.1c5.1-0.8,10.2-1.6,15.2-2.4c-4.1-5.3-9.2-9.8-15.1-13.1c1.3-13.1,6.1-25.5,13.7-36.2
			c1.3,21.9,24.2,35.8,32.6,56C78.5,371.6,77.6,386.1,70.8,398.2z"/>
		<path id="Path_7267" class="st7" d="M66.5,512.7c-1.2,0.1-2.4,0.1-3.6,0.1c-21-0.1-41.1-8.9-55.4-24.3
			C1.7,482.2-2.9,475-6.2,467.1l0.3,0c5.1-0.8,10.2-1.6,15.2-2.4c-5.4-7-12.5-12.5-20.7-15.8c-1.1-7.1-1.2-14.3-0.2-21.4
			c11.5,18.7,38.2,20.2,55.1,34.1c8.1,6.7,13.6,16,15.6,26.3c0.5,2.5,0.8,5.1,0.8,7.7c0,0.6,0,1.2,0,1.8l0.4,0.8L66.5,512.7z"/>
		<path id="Path_7268" class="st7" d="M116.8,534.3c-3.2,4-6.5,8-9.7,12c4,0.7,8,1,12.1,0.7c-3.6,12.8-10.5,24.5-20,33.9
			c-0.9,0.9-1.8,1.7-2.8,2.6c-0.2,0.2-0.4,0.3-0.6,0.5l-0.8-2.4l0,0l-4.8-13.3c-6.1-6.1-10.3-13.8-12.1-22.2v0
			c-1.1-4.9-1.4-10-0.8-15c2.7-21.7,21-41.3,16.5-62.7c10.1,8.2,17.9,18.7,22.7,30.8c-2.6,3.2-5.2,6.4-7.8,9.6
			c3.7,0.7,7.4,0.9,11.2,0.8c1.3,5.3,2,10.7,2.1,16.2c0,0.8,0,1.5,0,2.3c-1.6,2-3.3,4.1-4.9,6.1
			C116.9,534.2,116.9,534.3,116.8,534.3L116.8,534.3z"/>
		<path id="Path_7269" class="st7" d="M752.2,642.3c-2-17-1.4-34.3,1.5-51.2c3-16.8,8.3-33.1,15.8-48.5
			c7.6-15.6,17.5-29.9,29.4-42.5c24.2-25.7,55.4-43.8,89.7-51.9c2.1-0.5,4.2-0.9,6.3-1.4c2.4-0.5,2.7,3.2,0.4,3.7
			c-89.3,17.6-150,100.9-139.5,191.3c0.1,1-0.7,1.9-1.7,2C753.2,643.9,752.4,643.2,752.2,642.3L752.2,642.3z"/>
		<path id="Path_7270" class="st7" d="M885.6,449.7c1.5,0.5,3.1,0.9,4.7,1.3c0,0.1,0,0.3,0,0.4L885.6,449.7z"/>
		<path id="Path_7271" class="st7" d="M928.6,442.1c-2.6,2.3-5.5,4.2-8.7,5.6c-8.8,4-18.6,5.3-28.1,3.6c-0.5-0.1-1.1-0.2-1.6-0.3
			c0.1-1.1,0.2-2.1,0.4-3.2c0.9-7.1,2.2-14.2,5.4-20.6c3.7-7.5,10.2-14,18.4-15.8s17.7,2.1,20.7,9.9c0.8,2.3,1.1,4.7,0.9,7.1
			c-1.1,0.2-2.2,0.5-3.3,0.7c-0.1,0-0.2,0-0.3,0.1c-1,0.2-2,0.4-2.9,0.6c-4,0.9-8.1,1.7-12.1,2.6c2.4,2.8,5.2,5.4,8.2,7.6l0.7,0.5
			C927,441.1,927.8,441.6,928.6,442.1z"/>
		<path id="Path_7272" class="st7" d="M847.3,459l-9,9.5l-2.4,2.6c-0.1-0.3-0.3-0.6-0.4-0.9c-9.2-19.9-9.4-42.9-0.5-63
			c1.6-3.4,3.4-6.7,5.4-9.9c4.4,2.6,8.9,5.1,13.3,7.7c0.1-6.7-1.1-13.4-3.6-19.7c9.2-9.3,20.7-16.1,33.4-19.6
			c-12.7,17.9-3.5,43.1-9.7,64.1C869.9,443.1,860.1,453.9,847.3,459L847.3,459z"/>
		<path id="Path_7273" class="st7" d="M772.1,545.6c-1-0.7-2-1.5-2.9-2.2c-16.3-13.3-26.4-32.7-28-53.7c-0.5-8.5,0.4-17,2.8-25.2
			l0.3,0.2c4.4,2.6,8.9,5.1,13.3,7.7c0.2-8.8-2-17.6-6.3-25.3c3.6-6.2,8-11.9,13.2-16.8c-2.8,21.7,17.1,39.7,21.6,61.1
			c2.1,10.3,0.5,21-4.4,30.3c-1.2,2.3-2.6,4.5-4.2,6.5c-0.4,0.5-0.8,1-1.2,1.4l-0.2,0.9L772.1,545.6z"/>
		<path id="Path_7274" class="st7" d="M797.7,594c-5,1.1-10,2.2-15.1,3.2c2.6,3.1,5.7,5.8,9,8.1c-10.8,7.8-23.5,12.6-36.8,13.9
			c-1.2,0.1-2.5,0.2-3.7,0.3c-0.3,0-0.5,0-0.8,0l0.8-2.4v0l4.6-13.3c-0.9-8.6,0.6-17.2,4.5-24.9l0,0c2.2-4.5,5.2-8.7,8.8-12.2
			c15.7-15.3,42.3-19,52.1-38.5c2.7,12.7,2.2,25.8-1.6,38.2c-4,0.9-8.1,1.7-12.1,2.6c2.4,2.8,5.2,5.4,8.2,7.6
			c-2.3,4.9-5.1,9.6-8.5,13.9c-0.5,0.6-1,1.2-1.5,1.8c-2.6,0.6-5.1,1.1-7.7,1.6C798,593.9,797.8,593.9,797.7,594L797.7,594z"/>
		<path id="Path_7275" class="st8" d="M867.4,349.2H452.3c-10,0-18.2-8.2-18.2-18.2V40.8c0-10,8.2-18.2,18.2-18.2h415.1
			c10,0,18.2,8.2,18.2,18.2V331C885.5,341,877.4,349.2,867.4,349.2z"/>
		<path id="Path_7276" class="st7" d="M721.2,40.7H598.4c-16.2,0-29.3-13.1-29.4-29.4v-0.5h181.5v0.5
			C750.5,27.6,737.4,40.7,721.2,40.7L721.2,40.7z"/>
		<path id="Path_7277" class="st7" d="M721.7,367.3H599c-16.2,0-29.3-13.1-29.4-29.4v-0.5h181.5v0.5
			C751.1,354.2,737.9,367.3,721.7,367.3z"/>
		<path id="Path_7278" class="st3" d="M691.8,293.2c0,17.7-13.3-2.1-31-2.1c-17.7-0.1-31.9-14.5-31.8-32.2
			c0.1-17.5,14.3-31.7,31.8-31.8C678.6,227,691.8,275.5,691.8,293.2z"/>
		<path id="Path_7279" class="st3" d="M569.1,133.1c0,17.7-14.3,32-32,32c-17.7,0-26.7,35.8-26.7,18.1s9-82.2,26.7-82.2
			C554.7,101,569.1,115.4,569.1,133.1C569.1,133,569.1,133.1,569.1,133.1z"/>
		<path id="Path_7280" class="st2" d="M526,97.7c4.6-2.7,10.3-1.8,14.7,1c5,3.1,7.8,8.5,9,14.1c1.2,6,1.2,12.3-0.1,18.3
			c-1.2,5.8-4.2,12-10.4,13.7c-4.1,1.1-8.7-0.3-10.2-4.6c-1.2-3.5-0.5-7.3,1.9-10.1c3.5-3.9,9.5-4.1,14.1-2.2
			c5.3,2.3,8.6,7.5,10,12.9c1.6,6.5,0.6,13.3-1.1,19.6c-1.9,6.9-4.3,13.7-6.6,20.5c-4.3,13.3-8.3,26.9-9.4,40.9
			c-1.6,21.4,5.5,46.2,25.1,57.7c10.6,6.2,23.3,7.2,35.1,4.7c12.5-2.6,23.6-9,33.3-17.2c5-4.3,9.8-8.9,14.2-13.9
			c2.7-3.3,7.1-4.6,11.2-3.3c10.2,3.2,8.3,19.5-1.8,21.5c-4.6,0.9-9.5-1.3-12.9-4.3c-3.7-3.4-6.3-7.8-7.4-12.7
			c-2.6-10.3,0.4-21.6,6.5-30.1c6.9-9.6,18-15.6,29-19.1c12.5-4,25.6-5.2,38.7-6.6c13.3-1.4,26.8-2.9,39.4-7.8
			c10.1-3.9,19.5-9.5,27.8-16.5c16.7-14,28.6-33,33.9-54.2c1.2-5.1,2-10.3,2.4-15.6c0.1-2.1-3.1-2-3.2,0
			c-1.6,22.9-12.2,44.7-28.2,61c-8,8.1-17.4,14.8-27.7,19.7c-12.4,5.9-25.9,8.2-39.5,9.6c-13.9,1.5-27.9,2.4-41.3,6.2
			c-11.9,3.4-23.8,9.2-31.9,18.8c-7.1,8.5-11.1,20.1-9.7,31.2c1.3,10.3,7.9,20.9,18.7,23.2c5,1.2,10.3-0.5,13.7-4.4
			c3.8-4.7,4.7-11.2,2.2-16.8c-3.2-6.1-10.5-8.7-16.9-6.1c-2.3,1-4.2,2.6-5.8,4.5c-9.2,10.1-19.7,19.6-32.3,25.3
			c-11.8,5.3-25.6,7.3-38.1,3.2c-23.6-7.7-32.6-34.6-31.2-57.3c0.9-14.8,5.4-29.1,10-43.2c2.4-7.2,5-14.3,6.7-21.7
			c1.5-6.6,1.9-13.6-0.2-20.1c-1.9-5.7-5.7-10.7-11.3-13.1c-5.1-2.2-11.3-2.1-15.9,1.3c-6.6,4.9-7.2,17.1,0.9,20.9
			c5.4,2.5,11.9,0.6,15.9-3.6c4.5-4.7,5.9-11.3,6.4-17.5c0.9-11.8-1.7-26-13.7-31.4c-4.9-2.4-10.6-2.3-15.4,0.3
			c-0.8,0.5-1,1.5-0.5,2.2C524.3,97.9,525.2,98.2,526,97.7L526,97.7z"/>
		<path id="Path_7281" class="st3" d="M813.5,112.8c0,18.8,29.4,66.6,19.5,80.9c-1.2,1.8-2.5,3.5-3.9,5.2
			c-4.4,5.5-9.5,10.5-15.1,14.8c-0.9,0.7-1.9,1.5-2.9,2.2c-3.5,2.4-7.1,4.6-10.8,6.6c-0.7,0.3-1.4,0.7-2.1,1
			c-44.4,21.3-97.6,2.6-118.9-41.7c-16.5-34.3-9.4-75.4,17.8-102.1c0.8-0.8,1.6-1.6,2.4-2.3c8.3-7.6,17.9-13.5,28.3-17.5
			c0,0,0,0,0,0c15.7-6,32.8-7.4,49.2-4.1h0c0.4,0.1,0.7,0.1,1.1,0.2C818.5,64.5,813.5,69.9,813.5,112.8z"/>
		<path id="Path_7282" class="st2" d="M800.3,222.1c0,0.1,0,0.3,0,0.4c-0.7,0.3-1.4,0.7-2.1,1c-0.6-0.2-1.1-0.8-1.1-1.4
			c-0.1-1.6-0.4-3.2-0.9-4.7c-4.2-13.4-18.8-20.3-31.5-22.7c-15.6-3-32-1.7-46.8-8.2c-6.1-2.5-11.5-6.4-15.7-11.4
			c-4.4-5.5-6.6-12.5-6.2-19.6c0.9-16.6,12.6-29.7,16.6-45.4c1.7-6.5,1.7-13.2-1.3-19.3c-2.5-5.2-7-9.7-13-10.4
			c-0.5,0-0.9-0.3-1.2-0.7c0.8-0.8,1.6-1.6,2.4-2.3c1.1,0.2,2.1,0.4,3.2,0.8c5.8,2.2,9.9,7.3,12.2,13c2.6,6.6,2.4,13.7,0.6,20.4
			c-4.3,15.8-16.9,29.4-16.4,46.4c0.4,14.7,13.3,23.9,26.2,27.8c16,4.8,33.4,2.5,49.3,8.1C787,198.3,799.1,208.1,800.3,222.1z"/>
		<path id="Path_7283" class="st2" d="M814,213.8c-0.9,0.7-1.9,1.5-2.9,2.2c-0.3-0.3-0.4-0.7-0.4-1c0.5-13.8-4.2-27.3-13.3-37.7
			c-3.9-4.6-8.6-8.4-13.8-11.5c-5.5-3.1-11.5-4.8-17.4-6.7c-5.8-1.9-11.8-4.2-16.3-8.6c-4.6-4.5-6.8-10.5-7.5-16.7
			c-1.6-14.8,5.8-28.3,6.4-42.9c0.3-6.5-1.2-12.8-5.2-18c-3.5-4.5-8.6-7.6-14.4-6.9c-1.9,0.2-2-2.6-0.4-3.1c0.1,0,0.2-0.1,0.4-0.1
			c6.8-0.8,12.9,2.9,16.9,8.1c4.7,6.1,6.3,13.4,5.8,21c-0.9,14.6-8.6,28.6-6.1,43.5c0.9,6.3,4.4,12,9.6,15.5
			c5.4,3.5,11.7,5.1,17.7,7.1c6,1.8,11.7,4.6,16.9,8.3c5,3.7,9.5,8.2,13.1,13.2C810.5,189.4,814.3,201.4,814,213.8L814,213.8z"/>
		<path id="Path_7284" class="st2" d="M833,193.7c-1.2,1.8-2.5,3.5-3.9,5.2c1.4-8.3,1.1-16.8-0.9-25c-2.5-10.3-7.5-19.8-14.7-27.6
			c-3.6-3.9-7.7-7.2-12.2-10c-5.2-3.1-10.8-5.7-14.5-10.7c-7.9-10.8-2.6-25,0-36.7c1.3-6.1,2.1-12.6-0.4-18.5
			c-1.9-4.6-5.8-8.8-10.9-9.4c-2-0.2-2-3.4,0-3.2c0.4,0,0.8,0.1,1.2,0.2c5.7,1,10,5.3,12.4,10.5c3.1,6.8,2.5,14.1,0.9,21.3
			c-2.6,11.7-8.6,27.2,2.1,36.8c4.5,4,10.4,6.3,15.2,9.8c4.4,3.2,8.3,7,11.6,11.2C829.2,160.8,834.2,177.2,833,193.7z"/>
		<path id="Path_7285" class="st9" d="M260,636.2H279l9-73.1h-28V636.2z"/>
		<path id="Path_7286" class="st4" d="M250,669h13.6l2.4-12.8l6.2,12.8h36c4.5,0,8.1-3.6,8.1-8.1c0-2.7-1.3-5.2-3.5-6.7l-28.8-19.9
			v-13l-30.3,1.8L250,669z"/>
		<path id="Path_7287" class="st9" d="M113.2,598.6l16.3,9.7l45-58.2l-24-14.3L113.2,598.6z"/>
		<path id="Path_7288" class="st4" d="M87.8,621.8l11.7,6.9l8.6-9.8l-1.2,14.2l31,18.4c3.8,2.3,8.8,1,11.1-2.8
			c1.4-2.3,1.5-5.1,0.4-7.5l-14.6-31.8l6.6-11.2l-26.9-13.9L87.8,621.8z"/>
		<path id="Path_7289" class="st9" d="M262.1,169.1l15.6,58.7l-87.4,1.2l11.5-56.4L262.1,169.1z"/>
		<path id="Path_7290" class="st4" d="M278,227l18.6,60.6l8.2,162l-21.3,154.7h-23.6l-9.7-152.1L226.5,348l13.9,108.9l-72.9,106.6
			h-35.8L197.5,446l-38.3-121.9c0,0,3.8-60.3,28.2-92.3l5.9-17.1L278,227z"/>
		<path id="Path_7291" class="st2" d="M279.2,115.1c0-0.5-0.1-1.1-0.2-1.6c-3.9-26.4-28.4-44.6-54.8-40.8
			c-11.9,1.8-22.7,7.8-30.5,17v0c-0.4,0.5-0.8,1-1.2,1.5c-0.7,0.9-1.3,1.8-1.9,2.7c-5.4,8.2-8.2,17.9-8,27.8c0,0,4.6,24.3,5.5,30.8
			c0.7,4.2,1.2,8.3,1.5,12.3c0.2,2,0.4,4,0.6,5.9v0c0.8,9.6,1,18.2,1.2,24.8c0.1,3.6,2.6,13.9,2.8,14c0.2,0.1,0.3,0.2,0.5,0.3
			c2.6,1.5,5.8,1.6,8.4,0.3l11.3-5.3l0,0c7.5-3.5,15.8-4.8,24-3.7c13.4,1.7,33,4.1,33.9,3.4c1.1-0.9,6.2-46.5,7.5-60.8
			c0.2-2.1,0.3-4.2,0.4-6.5v0C280.5,129.8,280.1,122.4,279.2,115.1L279.2,115.1z"/>
		<path id="Path_7292" class="st6" d="M344.2,123.2c-1.9,5.7-8.1,8.8-13.8,6.8c-0.6-0.2-1.2-0.5-1.7-0.8l-28.7,26l-3.1-19.9
			l27.7-21.6c3.2-5.1,10-6.6,15.1-3.3C344,113.2,345.8,118.5,344.2,123.2L344.2,123.2z"/>
		<path id="Path_7293" class="st2" d="M237.5,72.9c0,0,28.2,5.3,12.2,60l6.2,27.1l29.1-16.7l1.8-7.1l25.5-17.9l12,21.7l-14.6,14
			l-4.2,8.7l-7.5,2.5l-23.3,22.2l-9.8,6c0,0-12.4,7.7-23.4,3.5c-2.9-1.1-5.7-2.7-8.2-4.6c-4.8-3.8-9.1-9.7-11.8-18.6
			c-9.9-32.9-13.7-55.9-13.7-55.9L237.5,72.9z"/>
		<path id="Path_7294" class="st2" d="M342.3,149.9l-17.1-64.3c-0.2-0.8,0.3-1.5,1.1-1.7c0.7-0.1,1.3,0.2,1.6,0.8l23,60L342.3,149.9
			z"/>
		<path id="Path_7295" class="st10" d="M356.5,164.5c-2.5-0.5-4.9-1.3-7.2-2.4c-1.2-0.6-2.3-1.2-3.4-1.8c-0.4-0.2-0.8-0.5-1.2-0.7
			c-0.9-0.5-1.8-1.1-2.8-1.6c-0.8-0.5-1.6-0.9-2.4-1.4c-1.2-0.5-2.2-1.5-2.7-2.7c-0.2-1.2,0.2-2.5,1-3.4c0.8-1,1.8-1.8,2.9-2.6
			c2.4-1.8,4.8-3.5,7.2-5.3l0.6-1.4c2,0.8,3.8,2,5.3,3.4c1.2,1.3,1.9,3,1.9,4.8c0,0.4-0.1,0.8-0.2,1.1c-0.5,1.6-1.7,3-2.4,4.6
			c-0.1,0.3-0.3,0.7-0.4,1c-0.7,2.1-0.4,4.3,0.8,6.1C354.4,163.2,355.4,164,356.5,164.5L356.5,164.5z"/>
		<path id="Path_7296" class="st7" d="M360.1,165.1c-1.2,0.1-2.4-0.1-3.6-0.6C357.7,164.8,358.9,165,360.1,165.1z"/>
		<path id="Path_7297" class="st3" d="M356.5,164.5c-2.5-0.5-4.9-1.3-7.2-2.4c-1.2-0.6-2.3-1.2-3.4-1.8c-0.4-0.2-0.8-0.5-1.2-0.7
			c-0.9-0.5-1.8-1.1-2.8-1.6c0.3-0.4,0.7-0.9,1-1.2c3.4-3.7,8.1-5.8,12.8-7.4c0,0.4-0.1,0.8-0.2,1.1c-0.5,1.6-1.7,3-2.4,4.6
			c-0.1,0.3-0.3,0.7-0.4,1c-0.7,2.1-0.4,4.3,0.8,6.1C354.4,163.2,355.4,164,356.5,164.5L356.5,164.5z"/>
		<path id="Path_7298" class="st10" d="M925.5,669.3c0,0.7-0.6,1.3-1.3,1.3c0,0,0,0,0,0H3.9c-0.7,0-1.3-0.6-1.3-1.3s0.6-1.3,1.3-1.3
			h920.4C925,668,925.5,668.6,925.5,669.3C925.5,669.3,925.5,669.3,925.5,669.3L925.5,669.3z"/>
		<circle id="Ellipse_141" class="st9" cx="224.8" cy="27.8" r="37"/>
		<path id="Path_7299" class="st4" d="M202.2-2.4L202.2-2.4c0,1.6-0.2,3.2-0.6,4.8c-0.1,0.3-0.1,0.6-0.2,0.8v0
			c-1.8,5.6-6.1,10.1-11.6,12.1c-0.4,0.2-0.8,0.3-1.2,0.4c-0.9,0.3-1.8,0.4-2.7,0.5c-0.8,0.1-1.6,0.2-2.5,0.2c-0.6,0-1.3,0-1.9-0.1
			c-1.5-0.2-3-0.5-4.4-1c-0.2-0.1-0.4-0.1-0.6-0.2c-0.1,0-0.2-0.1-0.3-0.1C166.5,11,162,0,166-9.7c0.1-0.3,0.2-0.6,0.4-0.9l0,0
			c0.9-1.9,2.2-3.7,3.7-5.2c3.4-3.4,4.9-11.9,10.1-11.9c0.2,0,0.5,0,0.7,0c3.5,0.1,9.9,7.6,12.6,9.4c2,1.3,3.8,2.9,5.2,4.9
			c1.4,2,2.5,4.3,3,6.7C202.1-5.2,202.2-3.8,202.2-2.4z"/>
		<path id="Path_7300" class="st4" d="M179.2-8.9c-2.9,3.4-7.5,4.7-11.6,6.5c-14.8,6.5-25.4,19.9-28.4,35.8c-1.1,6.4-1,13-2.8,19.2
			c-1.8,6.2-6.2,12.3-12.6,13.4c-4.3,0.7-8.6-0.9-12.7-2.6c-2.2-0.9-4.5-1.8-6.7-2.7c2.3-5.8,4.7-11.7,7-17.5
			c-3.7,5.5-8.1,10.6-12.9,15.1c-8-3.2-16-6.4-24-9.7c19.7,0.1,16.3-19.1,20.7-38.2c2.4-10.5,23.1-17.7,27.1-27.7
			c6.3-15.7,24.2-23.4,39.9-17c6.8,2.7,12.4,7.8,15.8,14.2C182-18.6,182.1-12.3,179.2-8.9z"/>
		<path id="Path_7301" class="st4" d="M258.3-9.2c-3.6-4.8-12.7-4.9-14.5,0.7l-3.8-5.2c-5-10.9-18.1-8.7-30-7.2
			c-11.9,1.4-22.3,9.8-27.6,20.5c-5.3,10.7-5.8,23.4-2.7,35c2.1,7.8,5.8,15.4,12.1,20.4s35.7,17,38.2,6.7
			c-3.1,13.4,3.1,11.3,12.2,21.5c4.7-14.2,6.9-41,11.7-55.2l2.1-6.4c1.5-4.5,3-9,4.1-13.6C261.3,2.2,261.9-4.5,258.3-9.2z"/>
		<path id="Path_7302" class="st5" d="M234,31.6l-1.6-10.1c1.1-12.5-0.7-32.4,7.5-35.2l5,5C241.8-7.6,235.7,11.1,234,31.6z"/>
		<path id="Path_7303" class="st5" d="M245.7-21.7c0,7.7-2.6,13.9-5.9,13.9s-5.9-6.2-5.9-13.9s5.9-13.9,5.9-13.9
			S245.7-29.4,245.7-21.7z"/>
		<path id="Path_7304" class="st5" d="M250.5-18.3c-3.1,7-8,11.6-11,10.3s-2.9-8,0.2-15.1c3.1-7,11-10.3,11-10.3
			S253.6-25.3,250.5-18.3z"/>
	</g>
</g>
</svg>
