<?xml version="1.0" encoding="utf-8"?>
<!-- Generator: Adobe Illustrator 25.2.0, SVG Export Plug-In . SVG Version: 6.00 Build 0)  -->
<svg version="1.1" id="Layer_1" xmlns="http://www.w3.org/2000/svg" xmlns:xlink="http://www.w3.org/1999/xlink" x="0px" y="0px"
	 viewBox="0 0 1044.1 860.8" style="enable-background:new 0 0 1044.1 860.8;" xml:space="preserve">
<style type="text/css">
	.st0{opacity:0.35;fill:#FFFFFF;enable-background:new    ;}
	.st1{fill:#F0F0F0;}
	.st2{fill:#403D56;}
	.st3{fill:#F6A030;}
	.st4{fill:none;stroke:#403D56;stroke-width:1.1495;stroke-miterlimit:10;}
	.st5{fill:#F6B4B7;}
	.st6{fill:#2F2F41;}
	.st7{fill:#F6A030;stroke:#010202;stroke-width:1.1495;}
</style>
<g id="Group_441" transform="translate(-880.385 -89.257)">
	<path id="Icon_material-camera" class="st0" d="M1300.3,455.1l205.3-355.5c-30.7-6.7-62-10.2-93.4-10.3
		c-99.2-0.1-195.2,34.2-272,96.8l157.5,273.3L1300.3,455.1z M1822.8,390.6c-39.5-125.7-135.6-226.4-258.3-272.9L1407,390.6H1822.8
		L1822.8,390.6z M1834,433.6h-322.3l12.5,21.5L1729,810.2c70.5-76.6,113.6-178.2,113.6-290.5C1842.6,490.8,1839.7,461.9,1834,433.6
		L1834,433.6z M1263.3,519.7l-167.8-290.5c-70.1,76.6-113.6,178.2-113.6,290.5c0,28.9,2.9,57.7,8.6,86.1h322.3L1263.3,519.7
		L1263.3,519.7z M1001.7,648.8c39.6,125.7,135.6,226.4,258.3,272.9l157.5-272.9L1001.7,648.8L1001.7,648.8z M1486.7,648.8
		l-167.8,291c30.7,6.7,62,10.2,93.4,10.3c99.2,0.1,195.2-34.2,272-96.8L1526.7,580L1486.7,648.8L1486.7,648.8z"/>
	<g id="Group_397" transform="translate(868 169)">
		<path id="Path_7143" class="st1" d="M1055.1,688.9c0,4.8-4.2,9.5-12.1,13.9c-40.6,22.7-178.2,39.4-341.7,39.4
			c-6.4,0-12.8,0-19.2-0.1c-186.5-1.5-334.7-24.8-334.7-53.3c0-29.5,158.4-53.4,353.8-53.4c53.5,0,104.2,1.8,149.7,5
			c11.4,0.8,22.5,1.7,33.2,2.7c4.5,0.4,8.9,0.8,13.2,1.3c20.4,2.1,39.4,4.4,56.5,7.1c8.3,1.3,16.2,2.6,23.6,4
			c19.4,3.6,35.6,7.7,48.2,12C1044.6,674.1,1055.1,681.3,1055.1,688.9z"/>
		<path id="Path_7144" class="st1" d="M720.1,466.7c0,19.4-158.4,35.2-353.8,35.2c-32.3,0-63.6-0.4-93.3-1.2
			c-114.6-3.1-206.1-11.8-243-23c-11.4-3.4-17.6-7.1-17.6-11c0-4.4,8.1-8.6,22.9-12.5c8.6-2.3,19.5-4.4,32.4-6.4c0.1,0,0.2,0,0.3,0
			c29.5-4.6,69.5-8.5,116.5-11.2c53.1-3.2,115.3-5,181.7-5C561.6,431.5,720.1,447.3,720.1,466.7z"/>
		<path id="Path_7145" class="st2" d="M675.8,245.9l-25.8-7.5c0,0-10.1-2.1-3.9-22.7s18.4-14.8,18.4-14.8l22.9,6.9l9,2.9l-12.7,18.6
			l-1.1,12.4L675.8,245.9z"/>
		<path id="Path_7146" class="st2" d="M725.7,191.6l8.1,33.7l-41.5,41.9l-3.6,0.9l-9.5-2.8l-8.1-33.7l8.2-9l-8.4-2.3l17.9-18.1
			l9.3,2l7.5-7.7l-5.1-2.1l-0.5-2l6.1-5L725.7,191.6z"/>
		<path id="Path_7147" class="st3" d="M686.8,239.1l5.4,22.3L717,237l-6.2-22.6L686.8,239.1z"/>
		<path id="Path_7148" class="st4" d="M725.7,191.6l1.1,4.7l-41.3,41.8L682,239l-9.2-2.6h-0.5l-1.2-4.8l8.2-9l-8.4-2.3l17.9-18.1
			l9.3,2l7.5-7.7l-5.1-2.1l-0.5-2l6.1-5L725.7,191.6z"/>
		
			<ellipse id="Ellipse_132" transform="matrix(0.9629 -0.2698 0.2698 0.9629 -25.3472 197.7507)" class="st3" cx="706.7" cy="191.1" rx="3.4" ry="2.4"/>
		
			<ellipse id="Ellipse_133" transform="matrix(0.9629 -0.2698 0.2698 0.9629 -36.0659 191.998)" class="st3" cx="680.4" cy="227.2" rx="3.4" ry="2.4"/>
		<path id="Path_7149" class="st5" d="M658.6,287.9l5.6-19.9c0,0-14.6-36.4,2.3-39.9s18,34,18,34l-6.8,22.3L658.6,287.9z"/>
		<ellipse id="Ellipse_134" class="st5" cx="763.2" cy="202.5" rx="44.8" ry="46.6"/>
		<path id="Path_7150" class="st5" d="M748.8,235.4c0,0-2.6,34.3-9.2,37c-6.6,2.7,71.1,21.9,71.1,21.9L790.9,271
			c0,0-3.9-35.6,5.3-43.8L748.8,235.4z"/>
		<path id="Path_7151" class="st1" d="M685.7,277.3l-18-2.3c0,0-21.4,11.7-21.4,27s-12.4,39.9-12.4,39.9s-9,32.8,11.3,35.2
			c20.3,2.3,38.3-35.2,38.3-35.2L685.7,277.3z"/>
		<path id="Path_7152" class="st6" d="M675.5,463.8c0,0-39.4-38.7-50.7-36.4c-11.3,2.3-33.8,5.9-33.8,23.5s37.2,58.6,37.2,58.6
			s28.2,64.5,55.2,66.8c17.8,1.7,35.5,4.4,53,8.2c0,0-12.4,46.9-5.6,59.8c6.8,12.9,32.7,28.1,34.9,27c2.3-1.2,33.8-31.7,47.3-75
			c13.5-43.4,22.5-76.2,10.1-78.6C810.8,515.4,675.5,463.8,675.5,463.8z"/>
		<path id="Path_7153" class="st6" d="M594.4,447.4c0,0-7.9-1.2-6.8,18.8c1.1,19.9,4.5,91.5,10.1,105.5c5.6,14.1,6.8,30.5,4.5,36.4
			s-6.8,15.2,1.1,16.4s40.6-3.5,43.9-4.7c3.4-1.2,6.8-21.1,4.5-21.1s-7.9-1.2-5.6-9.4c2.3-8.2,3.4-8.2,0-10.6
			c-3.4-2.3-12.4-5.9-10.1-8.2c2.3-2.3,4.5-57.5,4.5-57.5L594.4,447.4z"/>
		<path id="Path_7154" class="st6" d="M605.7,620.9c0,0-19.2-5.9-21.4,7c0,0-3.4,19.9,11.3,27c9.5,4.6,18.5,10.1,27,16.4
			c0,0,23.7,9.4,24.8-2.3s-4.5-53.9-4.5-53.9L605.7,620.9z"/>
		<path id="Path_7155" class="st6" d="M733,635l36.1-30.5c0,0-6.8,37.5,2.3,44.6l4.1,12.5l-11.5,9.8
			C763.9,671.4,728.5,665.5,733,635z"/>
		<path id="Path_7156" class="st6" d="M783.7,583.4c0,0-23.7,7-20.3,31.7c3.4,24.6,7.7,51.4,7.7,51.4s1.3,65.9,18.2,70.6
			c16.9,4.7,21.4-4.7,21.4-4.7s19.2-51.5,13.5-66.8c-6.9-18.6-16.8-39.5-13.5-45.7C814,613.6,808.5,579.9,783.7,583.4z"/>
		<path id="Path_7157" class="st1" d="M797.2,259.7c0,0-9,1.2-23.7,3.5c-14.6,2.3-24.8-9.4-32.7-7c-7.9,2.3-73.2,18.8-73.2,18.8
			l10.1,80.9c0,0-12.4,93.8-10.1,110.2c2.3,16.4-27,14.1-10.1,34c16.9,19.9,46.2,37.5,105.9,31.7c59.7-5.9,67.6-4.7,67.6-14.1
			s-13.5-89.1-9-96.2s13.5-15.2,9-23.5s-9-12.9-2.3-19.9c6.8-7,10.1-14.1,10.1-17.6s15.8-61,15.8-61s-6.8-28.1-14.6-29.3
			c-7.9-1.2-14.6-7-20.3-7c-5.6,0-9,1.2-12.4,0L797.2,259.7z"/>
		<path id="Path_7158" class="st6" d="M698.9,194.2c5.2-0.7,10.5-3.9,13.4-5.9c3.3,3.3,23.4,22.3,58,27.8c0,0,0.1-0.7,0.3-1.9
			l11.9,2.1l21.9-2.2c-0.1,0.4-0.2,0.6-0.2,0.6s3.1-0.9,4.2-8.3c0.2-1.4,0.5-2.8,0.8-4.2c1.8-8.4,6-38.6-18.2-58.7
			c-17.7-14.7-38.1-10.1-50.9-4.4c-10.6,4.6-18.9,13.4-23.1,24.5c-1.1,2.7-1.8,5.6-2.1,8.6l-0.5,1.5c-3.9,0.6-11.8-2.9-16-1.2
			c-5.8,2.2-8.6,11.3-9.2,14C688.6,188.9,691.3,195.2,698.9,194.2z M773.6,202.7c3.1-8.4,9-17.5,19.8-17
			c11.2,0.5,13.2,9.7,12.8,17.6l-27.9,1.1L773.6,202.7z"/>
		
			<ellipse id="Ellipse_135" transform="matrix(0.1772 -0.9842 0.9842 0.1772 502.1137 869.9517)" class="st6" cx="771.3" cy="134.7" rx="1.9" ry="4.9"/>
		<ellipse id="Ellipse_136" class="st3" cx="430.5" cy="-49.3" rx="29.3" ry="30.5"/>
		<path id="Path_7159" class="st6" d="M382,144.5c-0.1-0.4-9.9-41.7-11.6-85.1c-1-25.6,1-46.9,5.9-63.4
			c6.2-20.9,17.1-34.1,32.3-39.3l0.7,2.2c-33.1,11.3-38.2,60.8-36.7,100.4c1.7,43.2,11.4,84.2,11.5,84.6L382,144.5z"/>
		<path id="Path_7160" class="st3" d="M506.4,375.1c-15.6,21.3,2.3,62.7,2.3,62.7s43.1,6.9,58.7-14.3c15.6-21.3-2.3-62.7-2.3-62.7
			S522,353.9,506.4,375.1z"/>
		<path id="Path_7161" class="st3" d="M210.2,409.9c12.9,15.6,45.8,8.3,45.8,8.3s12-32.7-0.9-48.3s-45.8-8.3-45.8-8.3
			S197.3,394.3,210.2,409.9z"/>
		<path id="Path_7162" class="st6" d="M562.9,466.6c-126-71.3-225.3-67.5-286.4-51.8c-66.1,17-103,51.3-103.3,51.6l-1.5-1.7
			c0.4-0.4,37.6-35,104.3-52.2c39.1-10.1,80.6-12.3,123.4-6.5c53.4,7.2,108.8,26.9,164.7,58.5L562.9,466.6z"/>
		<rect id="Rectangle_214" x="366.8" y="256.8" class="st6" width="2.3" height="147.2"/>
		<ellipse id="Ellipse_137" class="st7" cx="368.5" cy="299" rx="81.1" ry="84.4"/>
		<ellipse id="Ellipse_138" class="st7" cx="368.5" cy="157.1" rx="60.9" ry="63.3"/>
		<ellipse id="Ellipse_139" class="st7" cx="368.5" cy="51.6" rx="47.3" ry="49.3"/>
	</g>
</g>
</svg>
