<?xml version="1.0" encoding="utf-8"?>
<!-- Generator: Adobe Illustrator 25.2.0, SVG Export Plug-In . SVG Version: 6.00 Build 0)  -->
<svg version="1.1" id="Layer_1" xmlns="http://www.w3.org/2000/svg" xmlns:xlink="http://www.w3.org/1999/xlink" x="0px" y="0px"
	 viewBox="0 0 1044.1 860.8" style="enable-background:new 0 0 1044.1 860.8;" xml:space="preserve">
<style type="text/css">
	.st0{opacity:0.35;fill:#FFFFFF;enable-background:new    ;}
	.st1{opacity:0.26;fill:#291B43;enable-background:new    ;}
	.st2{fill:none;stroke:#545562;stroke-width:2.3012;stroke-miterlimit:10;}
	.st3{fill:#F6A030;}
	.st4{opacity:0.25;fill:#010202;enable-background:new    ;}
	.st5{fill:#464353;}
	.st6{fill:#514E80;}
	.st7{opacity:0.1;fill:#010202;enable-background:new    ;}
	.st8{opacity:0.5;fill:#F6A030;enable-background:new    ;}
	.st9{fill:url(#Path_6764_1_);}
	.st10{fill:#403D56;}
	.st11{fill:#F9D0D5;}
	.st12{opacity:5.000000e-02;fill:#010202;enable-background:new    ;}
	.st13{opacity:0.1;}
	.st14{fill:#010202;}
</style>
<g id="Group_424" transform="translate(-880.385 -89.257)">
	<path id="Icon_material-movie" class="st0" d="M1714.3,90.7l104,214.5h-155.9l-104-214.5h-104l104,214.5h-155.9l-104-214.5h-104
		l104,214.5h-155.9l-104-214.5h-52c-57.2,0-103.4,48.3-103.4,107.2l-0.5,643.4c0,59,46.8,107.2,104,107.2h831.7
		c57.2,0,104-48.3,104-107.2V90.7H1714.3z"/>
	<g id="Group_350" transform="translate(842.555 251.512)">
		<ellipse id="Ellipse_100" class="st1" cx="479.3" cy="575.7" rx="265" ry="9"/>
		<g id="flowers" transform="translate(659 404.035)">
			<path id="Path_6736" class="st2" d="M52.7,168.6c0,0,30.5-38.7,28.2-77.1c-1.1-16.1,3.1-32.2,11.9-45.7c4.2-6.4,9-12.4,14.3-17.9
				"/>
			<path id="Path_6737" class="st3" d="M105.7,3.7C103.6,9,107,28.5,107,28.5s16-11.7,18.2-17.1c2.2-5.4-0.4-11.5-5.8-13.6
				C114-4.3,107.9-1.7,105.7,3.7L105.7,3.7L105.7,3.7z"/>
			<path id="Path_6738" class="st3" d="M77.7,27c1.1,5.7,14.6,20.2,14.6,20.2s7.1-18.5,6-24.2c-1.1-5.7-6.6-9.4-12.3-8.3
				C80.3,15.8,76.6,21.3,77.7,27L77.7,27z"/>
			<path id="Path_6739" class="st3" d="M58,78.1c3.8,4.3,22.8,10,22.8,10s-3.2-19.5-7.1-23.9c-3.9-4.3-10.5-4.7-14.8-0.9
				C54.6,67.2,54.2,73.8,58,78.1L58,78.1z"/>
			<path id="Path_6740" class="st3" d="M51.7,120.2c3,4.9,20.8,13.7,20.8,13.7s0.1-19.8-2.9-24.7c-3-4.9-9.5-6.5-14.4-3.4
				C50.2,108.8,48.7,115.2,51.7,120.2L51.7,120.2L51.7,120.2z"/>
			<path id="Path_6741" class="st3" d="M112.3,56.4c-5.4,2.2-24.9-1.1-24.9-1.1S99,39.2,104.4,37c5.3-2.2,11.5,0.3,13.7,5.7
				C120.3,48,117.8,54.1,112.3,56.4C112.4,56.4,112.4,56.4,112.3,56.4L112.3,56.4z"/>
			<path id="Path_6742" class="st3" d="M104.4,105.5C98.7,106,81,96.9,81,96.9s15.8-11.9,21.6-12.4c5.8-0.5,10.8,3.8,11.3,9.6
				C114.5,99.9,110.2,105,104.4,105.5L104.4,105.5L104.4,105.5z"/>
			<path id="Path_6743" class="st3" d="M90.2,152.2c-5.6,1.5-24.5-4.5-24.5-4.5s13.6-14.4,19.2-15.8c5.6-1.3,11.3,2.2,12.6,7.8
				C98.8,145.1,95.5,150.6,90.2,152.2L90.2,152.2z"/>
			<path id="Path_6744" class="st4" d="M105.7,3.7C103.6,9,107,28.5,107,28.5s16-11.7,18.2-17.1c2.2-5.4-0.4-11.5-5.8-13.6
				C114-4.3,107.9-1.7,105.7,3.7L105.7,3.7L105.7,3.7z"/>
			<path id="Path_6745" class="st4" d="M77.7,27c1.1,5.7,14.6,20.2,14.6,20.2s7.1-18.5,6-24.2c-1.1-5.7-6.6-9.4-12.3-8.3
				C80.3,15.8,76.6,21.3,77.7,27L77.7,27z"/>
			<path id="Path_6746" class="st4" d="M58,78.1c3.8,4.3,22.8,10,22.8,10s-3.2-19.5-7.1-23.9c-3.9-4.3-10.5-4.7-14.8-0.9
				C54.6,67.2,54.2,73.8,58,78.1L58,78.1z"/>
			<path id="Path_6747" class="st4" d="M51.7,120.2c3,4.9,20.8,13.7,20.8,13.7s0.1-19.8-2.9-24.7c-3-4.9-9.5-6.5-14.4-3.4
				C50.2,108.8,48.7,115.2,51.7,120.2L51.7,120.2L51.7,120.2z"/>
			<path id="Path_6748" class="st4" d="M112.3,56.4c-5.4,2.2-24.9-1.1-24.9-1.1S99,39.2,104.4,37c5.3-2.2,11.5,0.3,13.7,5.7
				C120.3,48,117.8,54.1,112.3,56.4C112.4,56.4,112.4,56.4,112.3,56.4L112.3,56.4z"/>
			<path id="Path_6749" class="st4" d="M104.4,105.5C98.7,106,81,96.9,81,96.9s15.8-11.9,21.6-12.4c5.8-0.5,10.8,3.8,11.3,9.6
				C114.5,99.9,110.2,105,104.4,105.5L104.4,105.5L104.4,105.5z"/>
			<path id="Path_6750" class="st4" d="M90.2,152.2c-5.6,1.5-24.5-4.5-24.5-4.5s13.6-14.4,19.2-15.8c5.6-1.3,11.3,2.2,12.6,7.8
				C98.8,145.1,95.5,150.6,90.2,152.2L90.2,152.2z"/>
			<path id="Path_6751" class="st2" d="M53,167c0,0,43.6-23,57-59.1c5.5-15.2,15.8-28.1,29.4-37c6.5-4.1,13.3-7.7,20.4-10.6"/>
			<path id="Path_6752" class="st3" d="M168.3,37.7c-4.1,4-8.9,23.3-8.9,23.3s19.4-4.2,23.5-8.2c4.2-4,4.2-10.7,0.2-14.8
				C179.1,33.7,172.4,33.6,168.3,37.7L168.3,37.7L168.3,37.7z"/>
			<path id="Path_6753" class="st3" d="M133.2,47.6c-1.3,5.6,5.2,24.4,5.2,24.4s14-14,15.3-19.7c1.3-5.6-2.1-11.3-7.8-12.6
				c-5.6-1.3-11.3,2.1-12.6,7.8C133.2,47.5,133.2,47.6,133.2,47.6L133.2,47.6z"/>
			<path id="Path_6754" class="st3" d="M94.4,86.4c1.7,5.5,16.8,18.4,16.8,18.4s5-19.2,3.2-24.7c-1.6-5.6-7.5-8.7-13-7.1
				s-8.7,7.5-7.1,13C94.4,86.2,94.4,86.3,94.4,86.4L94.4,86.4z"/>
			<path id="Path_6755" class="st3" d="M71.7,122.3c0.8,5.7,13.4,21,13.4,21s8.1-18.1,7.4-23.8c-0.7-5.8-5.9-9.9-11.7-9.2
				c-5.8,0.7-9.9,5.9-9.2,11.7C71.7,122.1,71.7,122.2,71.7,122.3L71.7,122.3z"/>
			<path id="Path_6756" class="st3" d="M152.9,88.5c-5.8-0.2-22.3-11.1-22.3-11.1s17.1-10,22.9-9.8c5.8,0.2,10.4,5,10.2,10.8
				C163.6,84.1,158.7,88.7,152.9,88.5L152.9,88.5z"/>
			<path id="Path_6757" class="st3" d="M125.8,130.2c-5.5-1.9-17.9-17.3-17.9-17.3s19.3-4.4,24.8-2.5c5.4,2,8.2,8,6.2,13.5
				C136.9,129.2,131.2,132,125.8,130.2L125.8,130.2z"/>
			<path id="Path_6758" class="st3" d="M93.9,167.1c-5.7-0.9-20.6-14-20.6-14s18.3-7.6,24-6.7c5.7,0.9,9.6,6.3,8.7,12
				c-0.9,5.7-6.3,9.6-12,8.7C94,167.1,94,167.1,93.9,167.1L93.9,167.1z"/>
		</g>
		<path id="Path_6759" class="st5" d="M697.5,572.6h-8.7L625,243.5l-8.2,329.1h-9.3l-10.4-328.6l-62.1,328.6h-9.8l42.2-338.3l1.4-11
			l82.8-9.3l2.6,20.3L697.5,572.6z"/>
		<rect id="Rectangle_125" x="468.8" y="148.1" class="st5" width="52.7" height="32.7"/>
		<path id="Path_6760" class="st5" d="M774.7,133.8l31.9-12.9h7c2.1,0,3.8,1.7,3.8,3.8v89.8c0,2.1-1.7,3.8-3.8,3.8h-7l-31.9-13.3
			V133.8z"/>
		<rect id="Rectangle_126" x="709.5" y="137.9" class="st5" width="65.2" height="63.1"/>
		<rect id="Rectangle_127" x="596.4" y="19.3" class="st6" width="42" height="7.6"/>
		<rect id="Rectangle_128" x="548.5" y="29.2" class="st6" width="118.1" height="86.2"/>
		<rect id="Rectangle_129" x="548.5" y="105.2" class="st7" width="118.1" height="10.2"/>
		<rect id="Rectangle_130" x="708.5" y="137.9" class="st7" width="2.6" height="63.1"/>
		<rect id="Rectangle_131" x="503.5" y="148.1" class="st7" width="18" height="32.7"/>
		<path id="Path_6761" class="st7" d="M654.3,234.4h-86.8l1.4-11l82.8-9.3L654.3,234.4z"/>
		<path id="Rectangle_132" class="st6" d="M517.5,106.8h179.7c6.8,0,12.3,5.5,12.3,12.3v101.2c0,6.8-5.5,12.3-12.3,12.3H517.5
			c-6.8,0-12.3-5.5-12.3-12.3V119.2C505.2,112.4,510.7,106.8,517.5,106.8z"/>
		<path id="Path_6762" class="st6" d="M774.1,133.8h0.6v71.3h-0.6c-2.8,0-5.1-2.3-5.1-5.1v-61.1C769,136.1,771.3,133.8,774.1,133.8z
			"/>
		<path id="Path_6763" class="st6" d="M806.6,121h6.6c2.3,0,4.2,1.9,4.2,4.2l0,0v89.1c0,2.3-1.9,4.2-4.2,4.2l0,0h-6.6V121z"/>
		<rect id="Rectangle_133" x="468.8" y="148.1" class="st7" width="9.4" height="32.7"/>
		<path id="Rectangle_134" class="st6" d="M466.5,137.9h1.8c4.6,0,8.3,3.7,8.3,8.3v39c0,4.6-3.7,8.3-8.3,8.3h-1.8
			c-4.6,0-8.3-3.7-8.3-8.3v-39C458.2,141.6,461.9,137.9,466.5,137.9z"/>
		<circle id="Ellipse_101" class="st5" cx="548.5" cy="29.2" r="58.9"/>
		<circle id="Ellipse_102" class="st3" cx="548.5" cy="29.2" r="44.1"/>
		<circle id="Ellipse_103" class="st5" cx="657.6" cy="30.4" r="42.9"/>
		<circle id="Ellipse_104" class="st3" cx="657.6" cy="30.4" r="32.2"/>
		<circle id="Ellipse_105" class="st3" cx="654.3" cy="125.6" r="5.7"/>
		<circle id="Ellipse_106" class="st8" cx="672.2" cy="125.6" r="5.7"/>
		
			<linearGradient id="Path_6764_1_" gradientUnits="userSpaceOnUse" x1="-564.0792" y1="665.6845" x2="-564.0792" y2="666.8351" gradientTransform="matrix(330.2774 0 0 -550.0182 186722.1875 366717.8438)">
			<stop  offset="0" style="stop-color:#808081;stop-opacity:0.251"/>
			<stop  offset="0.54" style="stop-color:#808081;stop-opacity:0.122"/>
			<stop  offset="1" style="stop-color:#808081;stop-opacity:0.102"/>
		</linearGradient>
		<path id="Path_6764" class="st9" d="M601.1,145.1l-0.4-0.8c2.5,0.8,4.9,1.9,7.1,3.3c-1-8.5-33.7-32.5-39.6-32.5
			c-5.9,0-12.5-10.2-12.5-10.2s-17-2.6-19.7-5.4c-2.6-2.8-20.3-1.2-24.6-0.2c-4.3,1-10.8-2.6-10.8-2.6s-3.6-5.9-8.2-5.9
			c-4.6,0-9.5-6.6-9.5-6.6s-4.3-3.9-8.2-4.6s-8.8-4.9-11.1-8.2c-2.3-3.3-13.8-4.9-20.3-3.9c-6.5,1-24.2-1.3-24.2-1.3
			c7.2-3.3,8.9-11.2,8.9-11.2c-6.4-0.3-23.4-14.6-23.4-14.6s0.7,4.6,1.5,11l-1.1-1.4l-0.1,0.1c-0.3-4.6-0.4-9.2-0.1-13.8
			c0-0.4,0.1-0.7,0.1-1.1c8.5-7.5,12.2-19.1,9.6-30.2c-0.2-0.7-0.4-1.5-0.6-2.2c1.3,0.5,2.6,0.9,3.9,1h0.7c1.6,0,3.2-0.7,4.3-1.9
			l0,0c0.2-0.2,0.3-0.5,0.5-0.7c0-0.1,0.1-0.1,0.1-0.2c0.1-0.2,0.2-0.5,0.3-0.7c0-0.1,0.1-0.2,0.1-0.3c0-0.2,0.1-0.4,0.1-0.6
			c0-0.2,0-0.3,0-0.5v-0.4c0-1.5-0.4-3-1-4.4c-1-2.5-2.5-5-2.4-7.8c0-0.2,0-0.4,0.1-0.7c0.3-2.2,1.4-4.1,2.1-6.2v-0.1
			c0.1-0.3,0.2-0.6,0.2-0.9c0-0.1,0.1-0.2,0.1-0.3c0.1-0.4,0.1-0.7,0.1-1.1v-0.1c0.3-4.1-3.1-7.7-6.8-9.4c-3.4-1.5-7.2-1.9-10.3-3.9
			c-3.5-2.3-5.4-6.3-8-9.6c-3.8-4.8-9.7-8.4-15.7-7.7c-3.7,0.4-7.1,2.4-10.8,3.1c-5.6,1.2-11.6-0.5-17.2,0.8c-1.4,0.2-2.6,0.9-3.5,2
			c-0.4,0.5-0.6,1.1-0.7,1.8l0,0c-0.1,0.6-0.1,1.2,0,1.8v0c0.1,0.6,0.2,1.1,0.3,1.7l0.1,0.3c0,0.1,0,0.2,0.1,0.3
			c0,0.1,0.1,0.5,0.2,0.7c0.1,0.4,0.2,0.8,0.3,1.2v0.1c0.1,0.4,0.2,0.8,0.2,1.2l0,0c0.2,0.9,0.3,1.7,0.3,2.6l0,0
			c0.2,2.4-0.3,4.9-1.5,7c-2.5,3.9-7.7,5.7-9.9,9.8c-0.5,1-0.9,2.1-1,3.2l0,0c0,0.4-0.1,0.7,0,1.1v0.1c0,0.3,0,0.7,0.1,1
			c0,0.1,0,0.2,0,0.2c0.1,0.3,0.1,0.6,0.2,0.9c0,0.1,0,0.2,0.1,0.3c0.1,0.3,0.2,0.7,0.4,1l0,0c1.1,2.2,3,4,3.5,6.4l0,0
			c0,0.1,0,0.2,0,0.2c0.2,1.8-0.5,3.5-0.9,5.3c0,0.2-0.1,0.4-0.1,0.6l0,0v1.3c0,0.1,0,0.2,0,0.3v0.6c0,0.1,0.1,0.2,0.1,0.4l0.1,0.2
			c0,0.1,0.1,0.2,0.2,0.3l0.1,0.2c0.1,0.1,0.1,0.2,0.2,0.3c0,0.1,0.1,0.1,0.1,0.2c0.1,0.2,0.3,0.3,0.5,0.4c1.4,1,3.5,0.7,4.6,2
			c0.1,0.1,0.2,0.3,0.3,0.5l0.1,0.1c0.1,0.2,0.1,0.4,0.2,0.5l0,0c0.2,0.7,0.2,1.5,0,2.2c-0.4,2-1.2,3.8-1.7,5.7
			c-0.1,0.4-0.1,0.8-0.2,1.2l0,0c0,0.2,0,0.4,0,0.5v0.8c0,0.3,0,0.5,0.1,0.7c0.1,0.2,0,0.2,0.1,0.3l0.1,0.3c0,0.1,0.1,0.3,0.1,0.4
			l0.1,0.2c0,0.1,0.1,0.3,0.2,0.4c0,0.1,0.1,0.1,0.1,0.2c0.1,0.2,0.2,0.4,0.4,0.6c1.3,1.5,3.2,2.3,5.2,2.2c1.2,0,2.3-0.1,3.5-0.4
			c0.3,0.6,0.5,1.2,0.8,1.8c1.4,2.9,3.3,5.5,5.5,7.8c0,0.3,0,0.6-0.1,0.9c-0.2,2.2-0.5,4.6-0.8,7.1c-2.5-1.2-4.5-1.6-5.3-0.8
			c-3.3,3.6,0,16.1,0,16.1s-16.1,0-20,3.6c-3.9,3.6-11.1,0-11.1,0s-14.7,1.7-13.8,4.6c1,3-7.9,0-7.9,0s-6.2,0.7-5.9,4.9
			s-9.5,6.2-8.2,9.2c1.3,3-5.9,4.9-5.9,4.9s-7.2-0.3-4.6,3.9l0,0c0,0-3.9,9.2-7.2,9.8s-7.5,8.2-7.5,8.2s-12.6,2.3-12,6.2
			c0.6,3.9-19.4,32.1-19.4,32.1s-6.6,13.5-2,23.4s7.9,16.4,8.8,20c1,3.6,12.9,19.5,12.8,22.4c0,0.9,2.9,5.9,7,12.2l-1.2,1.2
			l-2.6,2.7c0,0-8.2,20.4,1.6,21.3c8.3,0.8,14.3,1.4,17.3,0.6c0.5-0.1,1-0.3,1.4-0.6l0.1-0.1c3.6,5.3,6.1,9,6.1,9s0.4-0.5,1-1.4
			l1,1.4c0,0,0.8-1.1,2.1-2.9c-0.4,8.9-0.5,17.7-0.5,17.7s4.3-0.7,2.3,19s11.8,35.8,11.8,35.8v29.2l0,0c0,0.7,0.1,1.3,0.1,2
			c0.4,4.2,1.6,14.1,5.1,20.6c4.6,8.5,0,30.9,0,30.9s-0.3,18.2,0.8,40.9c0,0.6,0.1,1.3,0.1,1.9c-19.9,16.6-41.2,38.6-41.2,38.6
			c1,0.3,2,0.7,2.9,1.3l-1.2,1.5l-5.4,6.7l0,0l-4.2,5.2l0,0l6.6,20.4l7.2-2.8c0,0,3.9,6.8,3.1,11.4c-0.1,0.8-0.5,1.6-1,2.3
			c-0.3,0.3-0.4,0.7-0.5,1.1c-1.9,7.4,6,39.3,18.6,40.7c0,0,4.3,1.4,5.6-2.4c0.7-1.8,0.6-4.9-0.8-9.9c0,0-6.6-8-2.3-16.6
			c2.5-5,6.7-11.8,9.7-16.6l1.2-2c2.7,3.4,4.4,5.6,4.4,5.6l9.6-10.4c0.2,0.4,0.4,0.9,0.6,1.3c0.7,1.4,1.6,2.8,2.5,4.1l6.5,26
			l2.6-0.6c-0.1,0.6-0.1,1.3-0.1,2c-0.2,4.7,0,10.7,2.2,15c1.5,3.5,5,5.7,8.8,5.5c15.2-0.4,19.7-8.6,19.7-8.6V550l5.2-1.2
			c0,0-0.4-45.3-1.7-70.6c0-0.6-0.1-1.1-0.1-1.6v-0.2l33.6-36.2l2.6-1c21.6-8.5,22-30.5,22-30.5c0.1-7.5,0.9-15,2.6-22.3
			c2.6-10.2,0.3-63.1-4.6-76.2c-3.2-9-5.4-18.4-6.6-27.9c0,0,4.9-6.9,0-12.6c-1.4-1.7-2.5-3.6-3.4-5.6l6.4-1.1l3.7-0.6l2-0.3
			c-1,8.7-1.2,15.4,1.2,17c7.2,4.9,31.4-11.5,31.4-11.5c-8.8,0-13.8-66-12-67.6c1.8-1.6,4.5-34.7,2.1-40.6
			c-2.3-5.9,8.2-32.2,8.2-32.2l1.6-2.4l0,0c0,0,38.7,16.9,42.9,20.1s17.7-7.9,20-3.6c2.3,4.3,16.7,10.7,16.7,10.7s21.3-2.2,23.6,3.1
			c2.3,5.3,16.1,17.6,16.1,17.6c0-2.9,0.2-5.8,0.5-8.6c0.3,0.7,0.6,1.4,0.9,2.1c6.5,15.4,17.4,35,27.4,24.5
			C615.4,178.3,606.7,156.2,601.1,145.1z M309.8,214.8v0.2l-0.1-0.1L309.8,214.8z M302.1,139.1L298,183l-8.2,8.5l-1,1l-8.5-9.2
			c0,0-4.3-2,0-5.6c4.3-3.6-7.2-11.8-7.2-11.8s-0.3-5.9,3.9-7.5c4.3-1.7,9.8-12.5,9.8-12.5l15.4-7.9l0,0L302.1,139.1z M356.9,364
			c0.3-0.3,0.6-0.5,1-0.7c1.8-1,3,0.1,3.6,2.1c0.8,3.4,0.6,6.9-0.7,10.1c-2.3,5.3,3.3,26.3,3.3,26.3s-7.2,3.3-8.5,9.5
			c-0.2,0.8-0.5,1.5-1,2.1c-0.1-0.6-0.2-1.1-0.2-1.6c-0.6-3.9-1-6.5-1-6.5c-1.2-5.1-1.4-10.3-0.7-15.4c1-6.3,3.1-19.2,3.9-24
			C356.9,364.7,357,364,356.9,364L356.9,364z"/>
		<path id="Path_6765" class="st5" d="M402.6,44l2.1-1.4l6,12.6l-2.3,2.7h-7c0,0,0.2-6.9,0.4-7.1C402,50.6,402.6,44,402.6,44z"/>
		<path id="Path_6766" class="st10" d="M361.5,544.6v27c0,0-4.4,8.2-19.7,8.6c-3.8,0.2-7.3-2-8.8-5.5c-2.1-4.3-2.4-10.3-2.2-15
			c0.1-2.3,0.4-4.6,0.7-6.9L361.5,544.6z"/>
		<path id="Path_6767" class="st7" d="M361.5,544.6v8.4l-30.6,6.8c0.1-2.3,0.4-4.6,0.7-6.9L361.5,544.6z"/>
		<path id="Path_6768" class="st6" d="M366.8,549.8l-38.3,8.5l-6.5-25.9c-0.9-1.3-1.8-2.7-2.5-4.1c-0.4-0.8-0.8-1.7-1.2-2.6
			c-7.1-16.3-10.3-45.8-11.7-70.8c-0.1-1.3-0.1-2.5-0.2-3.8c-1.1-22.7-0.8-40.8-0.8-40.8s4.6-22.3,0-30.8
			c-3.5-6.6-4.7-16.4-5.1-20.6c-0.1-1.2-0.1-2-0.1-2l0.7-1.9l2.9-7.6h31.8l18.5,15.7l2.8,2.4l-0.3,2c-0.8,4.9-2.9,17.7-3.9,24
			c-0.7,5.1-0.5,10.3,0.7,15.4c0,0,0.4,2.5,1,6.5c0.1,1,0.3,2,0.5,3.2c2.3,14.5,6.8,41,8.6,47.4c0.8,4,1.2,8,1.3,12
			c0.1,1.2,0.1,2.4,0.2,3.7C366.4,504.6,366.8,549.8,366.8,549.8z"/>
		<path id="Path_6769" class="st7" d="M361.5,571.3v0.3c0,0-4.4,8.2-19.7,8.6c-3.8,0.2-7.3-2-8.8-5.5
			C339.9,576.4,351,577.5,361.5,571.3z"/>
		<path id="Path_6770" class="st11" d="M603.9,192.1c-10.1,10.5-20.9-9-27.4-24.4c-3.7-8.7-6-16-6-16l26.9-11.4c0,0,1.7,2.6,3.7,6.8
			C606.7,158.2,615.4,180.2,603.9,192.1z"/>
		<path id="Path_6771" class="st11" d="M404.9,38.6c-0.4,9.7,0.3,19.5,2.2,29c0,0-54.7,5.9-49.8-2.6c2.9-5,4.7-18.2,5.8-28.2
			c0.8-7.1,1.1-12.7,1.1-12.7s52.4-21,44.5-3.3C406.4,26.5,405.1,32.5,404.9,38.6z"/>
		<path id="Path_6772" class="st5" d="M409.5,179.3l-7.3,87.8l33.7-5.6l-5.9-72.4l2-19.3L409.5,179.3z"/>
		<path id="Path_6773" class="st7" d="M435.9,261.7l-14.7,2.4l-19.1,3.1l1.3-16l6-71.8l7.7-3.2l5.4-2.3l9.4-4l-2,19.3L435.9,261.7z"
			/>
		<path id="Path_6774" class="st10" d="M293.8,550.2c-4.3,8.6,2.3,16.6,2.3,16.6c1.5,5,1.5,8,0.8,9.8c-1.4,3.8-5.6,2.4-5.6,2.4
			c-13.4-1.5-21.5-37.6-18.1-41.7c3.4-4.1-2.1-13.6-2.1-13.6l-7.2,2.8l-6.6-20.4l4.2-5.2l5.4-6.7l3.7-4.5l36.6,38.2
			c0,0-1.6,2.3-3.7,5.7C300.5,538.4,296.4,545.2,293.8,550.2z"/>
		<path id="Path_6775" class="st7" d="M365,479.4l-45.6,48.9c-8-15.6-11.4-47-12.9-73.4c8.5-7.1,16.7-13.2,22.9-16.1
			c0,0,21-15.2,25.4-22.5c2.3,14.5,6.8,41,8.6,47.4C364.1,465.7,364.6,471.6,365,479.4z"/>
		<path id="Path_6776" class="st7" d="M354.1,363l-53.1-8l2.9-7.6h31.8L354.1,363z"/>
		<path id="Path_6777" class="st7" d="M364.9,475.7l-46.6,50c-7.2-16.3-10.3-45.8-11.7-70.8c-0.1-1.3-0.1-2.5-0.2-3.8
			c8.6-7.2,16.9-13.3,23.1-16.3c0,0,19.6-14.2,24.9-21.7c0.1,1,0.3,2,0.5,3.2c2.3,14.5,6.8,41,8.6,47.4
			C364.3,467.6,364.7,471.6,364.9,475.7z"/>
		<path id="Path_6778" class="st7" d="M307.2,528c0,0-1.6,2.3-3.7,5.7c-7.8-9.9-26.3-32.6-36.6-39.4l3.7-4.5L307.2,528z"/>
		<path id="Path_6779" class="st6" d="M425.7,387.6c-1.7,7.3-2.5,14.8-2.6,22.3c0,0-0.3,21.9-22,30.5l-2.6,1l-89.4,95.9
			c0,0-33.1-43.2-43.9-45.9c0,0,43.6-44.9,64.2-54.7c0,0,24.9-18,26.2-24.2s8.5-9.5,8.5-9.5s-5.6-21-3.3-26.2
			c1.3-3.2,1.5-6.7,0.7-10.1c-0.6-2-1.8-3.1-3.6-2.1c-0.4,0.2-0.7,0.4-1,0.7l-56.7-8.5v-29.1c0,0-13.8-16-11.8-35.7
			c2-19.7-2.3-19-2.3-19s0.2-33.2,3-36c2.8-2.8,29.7-15.5,29.7-15.5l84.4,15l3.5,16.1c0,0,2.9,12.8,7.9,18.5s0,12.6,0,12.6
			c1.2,9.5,3.4,18.8,6.6,27.9C426.1,324.8,428.4,377.5,425.7,387.6z"/>
		<path id="Path_6780" class="st7" d="M408.7,20.8c-2.3,5.7-3.6,11.7-3.8,17.8c-12.2,10.6-30.6,9.8-41.8-1.8
			c0.8-7.1,1.1-12.7,1.1-12.7S416.6,3.1,408.7,20.8z"/>
		<path id="Path_6781" class="st11" d="M415.4,14.6c0,16.8-13.7,30.5-30.5,30.4c-16.8,0-30.5-13.7-30.4-30.5
			c0-16.8,13.7-30.5,30.5-30.4c14.1,0,26.3,9.7,29.6,23.3C415.1,9.8,415.4,12.2,415.4,14.6z"/>
		<path id="Path_6782" class="st7" d="M390.7,67.6c0,0-21.9-10.2-23.3-11.5s-46.8,115.3-46.8,115.3l-12.8,58
			c0,0,68.1,29.1,82.9,25.2c14.7-3.9,16,0,16,0s15.1-84.5,20-92s-4.6-84.2-4.6-84.2l-17-22.3L390.7,67.6z"/>
		<path id="Path_6783" class="st7" d="M390.7,63.7c0,0-21.9-10.2-23.3-11.5s-46.8,115.3-46.8,115.3l-12.8,58
			c0,0,68.1,29.1,82.9,25.2c14.7-3.9,16,0,16,0s15.1-84.5,20-92c4.9-7.5-4.6-84.2-4.6-84.2l-17-22.3L390.7,63.7z"/>
		<path id="Path_6784" class="st3" d="M426.7,160.7c-1,1.6-2.5,6.4-4.1,13.1c-1.2,4.7-2.4,10.2-3.7,16.2
			c-5.8,27.1-12.1,62.7-12.1,62.7s-0.4-1.2-3.2-1.6c-2.3-0.3-6.2-0.1-12.8,1.6c-14.7,3.9-82.9-25.2-82.9-25.2l2-8.8l10.8-49.1
			c0,0,45.5-116.6,46.8-115.3c0.8,0.8,9.3,4.9,15.8,8c4.1,2,7.5,3.5,7.5,3.5l13.8-10.9l0.8-0.6l17,22.3
			C422.2,76.5,431.6,153.1,426.7,160.7z"/>
		<path id="Path_6785" class="st7" d="M374.6,77.1c2,7.6-2.6,20-2.6,20s-15.7,38.7-20.3,56.5c-4.6,17.9-30.8,53.9-30.8,53.9
			s-3.9,3.9-9.2,9.2c-0.6,0.6-1.2,1.2-1.9,1.9l10.8-49.1c0,0,45.5-116.6,46.8-115.3c0.8,0.8,9.3,4.9,15.8,8
			C379.1,65.8,373.3,72.1,374.6,77.1z"/>
		<path id="Path_6786" class="st5" d="M372.7,77.1c2,7.6-2.6,20-2.6,20s-15.7,38.7-20.3,56.5c-4.6,17.9-30.8,53.9-30.8,53.9
			s-3.9,3.9-9.2,9.2c-0.6,0.6-1.3,1.3-2,2c-10.5,10.5-25.3,25.2-30,29.5c-0.7,0.6-1.1,1.1-1.3,1.2c-0.4,0.3-0.9,0.5-1.4,0.6
			c-3,0.8-9,0.2-17.3-0.6c-9.8-1-1.6-21.3-1.6-21.3l2.6-2.7l2.4-2.4l26.8-27.5l2-2.1l8.2-8.4l4.2-43.8l0.1-1.1c0,0-1.2-2.8-3.1-7
			c-5-11.5-14.8-33.7-18.4-40.8c-0.4-0.8-0.7-1.5-1-1.8c0,0,0-0.1-0.1-0.1c-2.6-4.3,4.6-3.9,4.6-3.9s7.2-2,5.9-4.9s8.5-4.9,8.2-9.2
			c-0.3-4.3,5.9-4.9,5.9-4.9s8.8,2.9,7.9,0s13.8-4.6,13.8-4.6s7.2,3.6,11.1,0c3.9-3.6,20.1-3.6,20.1-3.6s-3.3-12.5,0-16.1
			c3.3-3.6,28,16.1,28,16.1S370.7,69.6,372.7,77.1z"/>
		<path id="Path_6787" class="st7" d="M290.8,244.8c0,0,27.2,38.3,46.2,25.9c19-12.4-25.5-44.9-25.5-44.9L290.8,244.8z"/>
		<path id="Path_6788" class="st11" d="M290.8,242.9c0,0,27.2,38.3,46.2,25.9c19-12.4-25.5-44.9-25.5-44.9L290.8,242.9z"/>
		<path id="Path_6789" class="st7" d="M421.2,264c2.1-18.1,8.1-45.3,3.2-53.5c-2.4-4.1-4.2-11.9-5.5-20.4c-0.7-4.6-1.3-9.4-1.7-14
			c-1.2-12.1-1.6-22.5-1.6-22.5s-11.8-52.6-9.5-63.4c1.4-6.8-0.2-23.7-1.7-35.4l0.8-0.6l17,22.3c0,0,9.5,76.6,4.6,84.2
			c-1,1.6-2.5,6.4-4.1,13.1l9.4-3.9l-2,19.3l5.9,72.4L421.2,264z"/>
		<path id="Path_6790" class="st5" d="M404.7,42.6c0,0,16.9,14.2,23.4,14.5c0,0-1.7,7.9-8.9,11.1c0,0,17.7,2.3,24.2,1.3
			c6.6-1,18,0.6,20.3,3.9c2.3,3.3,7.3,7.5,11.2,8.2c3.9,0.7,8.2,4.6,8.2,4.6l-28.8,42.6c0,0-10.5,26.2-8.2,32.1s-0.3,39-2.1,40.6
			c-1.8,1.6,3.1,67.5,12,67.5c0,0-24.2,16.4-31.4,11.5c-7.2-4.9,9.2-58,2-70.1c-7.2-12.1-8.8-56.8-8.8-56.8s-11.8-52.6-9.5-63.4
			C410.4,79.4,404.7,42.6,404.7,42.6z"/>
		<path id="Path_6791" class="st7" d="M601.1,147c-8.8-2.7-22.2-2.8-24.6,20.6c-3.7-8.7-6-16-6-16l26.9-11.4
			C597.4,140.3,599.1,142.9,601.1,147z"/>
		<path id="Path_6792" class="st5" d="M467.1,84.3l16.1,2c0,0,4.9,6.6,9.5,6.6s8.2,5.9,8.2,5.9s6.6,3.6,10.8,2.6
			c4.3-1,21.9-2.6,24.6,0.2c2.6,2.8,19.7,5.4,19.7,5.4s6.6,10.2,12.5,10.2s38.6,23.9,39.6,32.4c0,0-32.4-20.6-32.8,24.7
			c0,0-13.8-12.3-16.1-17.5s-23.6-3.1-23.6-3.1s-14.4-6.4-16.7-10.7c-2.3-4.3-15.7,6.8-20,3.5c-4.3-3.2-42.9-20.1-42.9-20.1L444,104
			L467.1,84.3z"/>
		<circle id="Ellipse_107" class="st10" cx="393" cy="121.4" r="2.8"/>
		<circle id="Ellipse_108" class="st10" cx="390.2" cy="179.4" r="2.8"/>
		<circle id="Ellipse_109" class="st10" cx="393" cy="148.9" r="2.8"/>
		<circle id="Ellipse_110" class="st10" cx="384.9" cy="210" r="2.8"/>
		<path id="Path_6793" class="st7" d="M297.1,576.6c-1.4,3.8-5.6,2.4-5.6,2.4c-13.4-1.5-21.5-37.6-18.1-41.7
			c3.4-4.1-2.1-13.7-2.1-13.7l-7.2,2.8l-6.6-20.4l4.2-5.2c4.2,7.2,10.1,17.6,11.5,20.3c2.7,5.5,3.9,11.6,3.7,17.7
			C276.5,545.3,284,575.8,297.1,576.6z"/>
		<path id="Path_6794" class="st7" d="M414.6,7.5c-0.7-0.2-1.3-0.5-2-0.8c-2.3-0.9-4.6-2-6-3.9c-1.2-1.8-1.7-4.4-3.6-5.4
			c-2.2-1.2-4.9,0.4-7.3,1c-2.9,0.7-5.9-0.1-8.7-1.2c-4.2-1.5-10-4.4-14.3-1.4c-3.3,2.3-2,7.1-2.9,10.6c-1.3,5.4-7,8.8-8.1,14.3
			c-0.5,2.4-0.2,5.3-2.1,6.8c-0.6,0.4-1.2,0.7-1.9,0.8c-7.4-15.1-1.3-33.4,13.8-40.8c15.1-7.4,33.4-1.3,40.8,13.8
			C413.3,3.2,414.1,5.3,414.6,7.5L414.6,7.5z"/>
		<path id="Path_6795" class="st5" d="M386.9-4.9c2.8,1,5.8,1.8,8.7,1.2c2.5-0.6,5.1-2.2,7.3-1c2,1.1,2.4,3.6,3.6,5.4
			c1.4,2,3.7,3.1,6,3.9c1.7,0.8,3.5,1.3,5.3,1.5c1.9,0.2,3.7-0.5,5-1.9c1.7-2.1,1.2-5.3,0.2-7.8c-1-2.5-2.5-5-2.4-7.8
			c0.1-3.2,2.5-6.1,2.7-9.3c0.3-4.1-3.1-7.7-6.8-9.3c-3.4-1.5-7.2-1.9-10.3-3.9c-3.5-2.3-5.4-6.3-8-9.6c-3.8-4.8-9.7-8.4-15.7-7.7
			c-3.7,0.4-7.1,2.4-10.8,3.1c-5.6,1.2-11.6-0.5-17.2,0.8c-1.4,0.2-2.6,0.9-3.5,1.9c-1.4,1.8-0.7,4.4-0.1,6.7c1.1,4,1.6,8.5-0.6,12
			c-2.5,4-7.7,5.7-9.9,9.7c-1.3,2.4-1.4,5.4-0.2,7.9c1.1,2.3,3.2,4.1,3.5,6.6c0.2,1.8-0.5,3.5-0.9,5.3s-0.3,3.9,1.2,4.9
			c1.4,1,3.5,0.7,4.6,2c0.7,1,0.9,2.2,0.5,3.4c-0.4,2-1.2,3.7-1.7,5.7c-0.6,1.9-0.3,4,0.8,5.7c1.9,2.6,5.8,2.4,8.8,1.7
			c0.9-0.1,1.7-0.5,2.5-1c2-1.5,1.6-4.4,2.1-6.8c1.1-5.4,6.8-8.9,8.1-14.3c0.9-3.5-0.4-8.3,2.9-10.6C376.9-9.2,382.8-6.4,386.9-4.9z
			"/>
		<path id="Path_6796" class="st7" d="M382.2,350.6c0,0,30.8,19.7,31.8,27.2L382.2,350.6z"/>
		<path id="Path_6797" class="st7" d="M380.6,366.4c0,0,35.4,17,33.4,22.9L380.6,366.4z"/>
		<path id="Path_6798" class="st7" d="M378.2,381.4c0,0,20,10.5,21.3,16.7L378.2,381.4z"/>
		<path id="Path_6799" class="st7" d="M386.8,405c0,0,13.1,11.5,15.7,8.5S386.8,405,386.8,405z"/>
		<path id="Path_6800" class="st7" d="M368.4,412.2c0,0,10.2,16.4,5.3,17.4S368.4,412.2,368.4,412.2z"/>
		<path id="Path_6801" class="st7" d="M323.6,121.4c0,0-17.4,10.5-12.1,13.1C316.7,137.1,323.6,121.4,323.6,121.4z"/>
		<path id="Path_6802" class="st7" d="M323.6,82.7c0,0-17.7,32.4-9.5,30.1C322.3,110.5,323.6,82.7,323.6,82.7z"/>
		<path id="Path_6803" class="st7" d="M511.6,115.1c0,0-10.8,12.7-8.8,19.7L511.6,115.1z"/>
		<path id="Path_6804" class="st7" d="M539.8,121.4c0,0-16.2,14.4-13.8,16L539.8,121.4z"/>
		<path id="Path_6805" class="st7" d="M549.9,139c0,0-1.6,9.5,1,9.8L549.9,139z"/>
		<path id="Path_6806" class="st12" d="M372.8,338.9c-4.2,5.4-4.2,15-6.1,18.9c-1,2.2-3.3,5.9-5.2,8.9c-0.6-2-1.8-3.1-3.6-2.1
			c-1.2-9-3.3-24.6-4-27.7c-1-4.4,9.8-16.2,9.8-16.2s10.6,2.2,13.3,7.6C379.7,333.8,377,333.5,372.8,338.9z"/>
		<path id="Path_6807" class="st7" d="M318.3,225.2c-11.8,1.6-33.7,33.1-33.7,33.1s-2.9-4.2-6.9-10c-5-7.4-11.8-17.5-16.7-25.2
			l28.8-29.7l5.2,5.6c0,0,10.2,10.2,10.2,12.1c0,0.8,2,3.1,4.5,5.6C313.4,220.7,318.3,225.2,318.3,225.2z"/>
		<path id="Path_6808" class="st7" d="M280.7,92.2c-0.4-0.8-0.7-1.5-1-1.8l12.7,0.8l6.7,41.8C294.1,121.5,284.3,99.4,280.7,92.2z"/>
		<path id="Path_6809" class="st7" d="M307.7,218.7c-10.5,10.5-25.3,25.2-30,29.5c-0.7,0.6-1.1,1.1-1.3,1.2
			c-0.4,0.3-0.9,0.5-1.4,0.6c-4.6-6.8-11.2-16.6-16.3-24.6l2.4-2.4l26.8-27.6l3.3,3.6c0,0,10.2,10.2,10.2,12.1
			C301.3,212.1,304.4,215.5,307.7,218.7z"/>
		<path id="Path_6810" class="st5" d="M294.4,91.2l-14.7-1c0,0-3.9,9.2-7.2,9.8s-7.5,8.2-7.5,8.2s-12.6,2.3-12.1,6.2
			s-19.4,32-19.4,32s-6.6,13.5-2,23.3s7.9,16.4,8.8,20c1,3.6,12.6,19.3,12.5,22.3c-0.1,2.9,29.7,46.2,29.7,46.2s21.9-31.4,33.7-33.1
			c0,0-13.1-12.1-13.1-14.1c0-2-10.1-12.1-10.1-12.1l-12.8-13.8c0,0-4.3-2,0-5.6c4.3-3.6-7.2-11.8-7.2-11.8s-0.3-5.9,3.9-7.5
			c4.3-1.6,9.8-12.4,9.8-12.4l15.4-7.9L294.4,91.2z"/>
		<path id="Path_6811" class="st7" d="M238.1,156.4c0,0,17.7-3.6,18-1.3C256.4,157.4,238.1,156.4,238.1,156.4z"/>
		<path id="Path_6812" class="st7" d="M252.8,174.2c0,0,15,2,14.3,5.2C266.5,182.6,252.8,174.2,252.8,174.2z"/>
		<path id="Path_6813" class="st7" d="M265.2,118.6c0,0,14.4,20.4,16.4,16.2L265.2,118.6z"/>
		<g id="Group_349" transform="translate(337.58 17.602)" class="st13">
			<path id="Path_6814" class="st14" d="M14.3-51.1c0.1-2.4-0.2-4.8-0.9-7c-0.3-1-0.5-2-0.6-2.9c-0.1,1.7,0.1,3.3,0.6,4.9
				C13.9-54.5,14.1-52.8,14.3-51.1L14.3-51.1z"/>
			<path id="Path_6815" class="st14" d="M83.2-29.5c0.4-2.9,2.4-5.6,2.6-8.6c0-0.5,0-1-0.1-1.5c-0.4,3-2.5,5.8-2.6,8.8
				C83.1-30.4,83.1-29.9,83.2-29.5L83.2-29.5z"/>
			<path id="Path_6816" class="st14" d="M85.3-15.3c-1.3,1.4-3.1,2.1-5,1.9c-1.8-0.2-3.7-0.7-5.3-1.5c-2.3-0.9-4.6-2-6-3.9
				c-1.2-1.8-1.7-4.4-3.6-5.4c-2.2-1.2-4.9,0.4-7.3,1c-2.9,0.7-5.9-0.1-8.7-1.2c-4.2-1.5-10-4.4-14.3-1.5c-3.3,2.3-2,7.1-2.9,10.6
				C30.8-9.9,25.1-6.4,24-1c-0.5,2.4-0.2,5.3-2.1,6.8c-0.7,0.5-1.6,0.8-2.5,1c-3.1,0.7-7,0.8-8.8-1.7c-0.5-0.7-0.9-1.6-1-2.5
				c-0.3,1.6,0.1,3.2,1,4.5c1.9,2.6,5.8,2.4,8.8,1.7c0.9-0.1,1.7-0.5,2.5-1c2-1.5,1.6-4.4,2.1-6.8c1.1-5.4,6.8-8.9,8.1-14.3
				c0.9-3.5-0.4-8.3,2.9-10.6c4.3-2.9,10.2-0.1,14.3,1.5c2.8,1,5.8,1.8,8.7,1.2c2.5-0.6,5.1-2.2,7.3-1c2,1.1,2.3,3.6,3.6,5.4
				c1.4,2,3.7,3.1,6,3.9c1.7,0.8,3.5,1.3,5.3,1.5c1.9,0.2,3.7-0.5,5-1.9c1-1.3,1.3-2.9,1.1-4.5C86.3-16.9,85.9-16,85.3-15.3
				L85.3-15.3z"/>
			<path id="Path_6817" class="st14" d="M6.1-22c-0.3-2.5-2.4-4.3-3.5-6.6c-0.4-0.9-0.7-1.8-0.8-2.7c-0.2,1.6,0.1,3.2,0.8,4.7
				c1.1,2.2,3,4,3.5,6.4C6.2-20.8,6.2-21.4,6.1-22L6.1-22z"/>
			<path id="Path_6818" class="st14" d="M11.6-6.6c0.3-1.1,0.1-2.2-0.6-3.1c-1.1-1.3-3.2-1-4.6-2c-0.7-0.6-1.2-1.4-1.3-2.3
				c-0.2,1.6,0,3.4,1.3,4.3S9.9-9,11-7.8C11.3-7.4,11.5-7,11.6-6.6z"/>
		</g>
		<path id="Path_6819" class="st3" d="M224,517c0,0-40.6-2.5-35.9,26c-0.5,3,0.9,5.9,3.6,7.3c0,0,0.1-2.1,4.2-1.4
			c1.5,0.2,2.9,0.3,4.4,0.2c2-0.1,3.9-0.9,5.4-2.2l0,0c0,0,11.4-4.7,15.9-23.4c0,0,3.3-4.1,3.2-5.1l-6.9,2.9c0,0,2.3,4.9,0.5,9.1
			c0,0-0.2-8.8-1.5-8.7c-0.3,0-3.6,1.7-3.6,1.7s4,8.6,1,14.9c0,0,1.2-10.6-2.3-14.3l-4.8,2.8c0,0,4.7,8.9,1.5,16.2
			c0,0,0.8-11.1-2.5-15.5l-4.4,3.4c0,0,4.4,8.8,1.7,14.8c0,0-0.4-13-2.7-14c0,0-3.8,3.4-4.4,4.8c0,0,3,6.4,1.2,9.7
			c0,0-1.2-8.6-2.1-8.7c0,0-3.8,5.7-4.2,9.6c0.2-3.6,1.3-7.1,3.3-10.2c-2.2,0.4-4.2,1.5-5.8,3c0,0,0.6-4,6.8-4.4c0,0,3.2-4.3,4-4.6
			c0,0-6.2-0.5-9.9,1.1c0,0,3.3-3.8,11-2.1l4.3-3.5c0,0-8.1-1.1-11.5,0.1c0,0,3.9-3.4,12.7-0.9l4.7-2.8c0,0-6.9-1.5-11-1
			c0,0,4.3-2.3,12.4,0.2l3.4-1.5c0,0-5.1-1-6.5-1.2s-1.6-0.6-1.6-0.6c3.2-0.5,6.5-0.2,9.5,1.1C217,520.1,224.2,517.4,224,517z"/>
		<ellipse id="Ellipse_111" class="st1" cx="196" cy="552.8" rx="28.8" ry="4.9"/>
	</g>
</g>
</svg>
