<?xml version="1.0" encoding="utf-8"?>
<!-- Generator: Adobe Illustrator 25.2.0, SVG Export Plug-In . SVG Version: 6.00 Build 0)  -->
<svg version="1.1" id="Layer_1" xmlns="http://www.w3.org/2000/svg" xmlns:xlink="http://www.w3.org/1999/xlink" x="0px" y="0px"
	 viewBox="0 0 1044.1 860.8" style="enable-background:new 0 0 1044.1 860.8;" xml:space="preserve">
<style type="text/css">
	.st0{opacity:0.35;fill:#FFFFFF;enable-background:new    ;}
	.st1{fill:#F6A030;}
	.st2{fill:#444053;}
	.st3{fill:#D6D7DB;}
	.st4{opacity:0.1;fill:#010202;enable-background:new    ;}
	.st5{opacity:0.3;fill:#FFFFFF;enable-background:new    ;}
	.st6{fill:#393768;}
	.st7{opacity:0.45;fill:#FFFFFF;enable-background:new    ;}
	.st8{opacity:0.1;fill:#F6A030;enable-background:new    ;}
	.st9{fill:url(#Path_6997-2_1_);}
	.st10{fill:#BE6F72;}
	.st11{fill:#3E373A;}
	.st12{fill:#4B4B5C;}
	.st13{opacity:2.000000e-02;fill:#010202;enable-background:new    ;}
	.st14{fill:#E7C7C9;}
	.st15{fill:#C4C7D9;}
	.st16{opacity:0.1;}
	.st17{fill:#010202;}
	.st18{opacity:0.1;fill:none;stroke:#010202;stroke-width:1.0255;stroke-miterlimit:10;enable-background:new    ;}
	.st19{fill:#FFD13A;}
	.st20{opacity:0.63;fill:#F6A030;enable-background:new    ;}
	.st21{fill:#66627D;}
	.st22{fill:#9D9CB5;}
</style>
<g id="Group_427" transform="translate(-880.385 -89.257)">
	<path id="Icon_ionic-ios-bookmarks-2" class="st0" d="M1812.2,89.5v245.6l-46-27.8L1748,295l-18.3,12.3l-46,27.8V89.5h-83.1
		c-45.1,0.4-81.5,36.1-81.5,79.5v601.5c0,14.4-11.6,26.9-26.7,27.7c-15.5,0.7-28.7-10.7-29.5-25.6c0-0.4,0-0.9,0-1.3V169
		c0-43.4-36.3-79.1-81.5-79.5h-213.3c-60.8,0-110.6,47.6-110.6,105.8v556.6c0,58.2,49.8,105.8,110.6,105.8l216.7-0.2
		c8.2,0.2,16.4,1.1,24.5,2.7c30.7,6,53.8,31.9,53.4,61.8c-0.2,13.8,10.4,26.1,24.9,27.7c15.4,1.7,29.4-8.9,31.1-23.7
		c0.1-1.1,0.2-2.3,0.2-3.4c-0.4-30.3,22.9-56.5,54-62.4c7.9-1.5,16-2.4,24.1-2.5l216.7,0.2c60.8,0,110.6-47.6,110.6-105.8V195.3
		C1924.6,137.1,1873,89.5,1812.2,89.5z"/>
	<g id="Group_383-2" transform="translate(1035.193 194.243)">
		<path id="Path_6923-2" class="st1" d="M225.1,534.8l-298.5-1.5l-29.7-69.6l104.9-7.6l-18.3-76.3l207.4-26.9L-7.7,284l17.5-4.2
			l319.4,52.1l-17.6,119l-25.1,65.4L225.1,534.8z"/>
		<path id="Path_6924-2" class="st1" d="M-68.8,504.3c0,0,18.3-2.9,29.3,10c0,0-8.1,6.3-25.4-2.4L-68.8,504.3z"/>
		<path id="Path_6925-2" class="st1" d="M-70.8,504c0,0-11.7,14.4-5.9,30.4c0,0,9.5-3.8,10.6-23.2L-70.8,504z"/>
		<path id="Path_6926-2" class="st1" d="M-81.3,480.3c0,0,7.3-13.4,36.6,5.4c0,0-3.9,9-16.8,8.3C-74.4,493.3-77.8,487.4-81.3,480.3z
			"/>
		<path id="Path_6927-2" class="st1" d="M-83.1,479.4c0,0-15.2-1.7-16.7,33.1c0,0,9.6,2,16.5-9S-79.3,486.2-83.1,479.4z"/>
		<path id="Path_6928-2" class="st1" d="M-92,451.6c0,0,8.5-23.7,39.6-6.8c0,0-7.1,21.7-36.4,14.9L-92,451.6z"/>
		<path id="Path_6929-2" class="st1" d="M-101.5,416.2c0,0,16.1-23.9,44.7-1.7c0,0-10,22.5-42.2,10.3L-101.5,416.2z"/>
		<path id="Path_6930-2" class="st1" d="M-104.9,382.5c0,0,18.8-22,47.1,0c0,0-17.8,19.3-47.1,5.6V382.5z"/>
		<path id="Path_6931-2" class="st1" d="M-107.9,349.8c0,0,19-23,46.1-1.2c0,0-21.5,20.3-46.1,6.6V349.8z"/>
		<path id="Path_6932-2" class="st1" d="M-106.2,320.7c0,0,20.1-29.5,45.4-9.5c0,0-21.5,25.4-45.4,15.1V320.7z"/>
		<path id="Path_6933-2" class="st1" d="M-101.5,286.8c0,0,21.2-29.3,45.9-6.8c0,0-25.2,25.4-45.9,12.2L-101.5,286.8z"/>
		<path id="Path_6934-2" class="st1" d="M-94.4,256.4c0,0,25.2-27.5,47.1-16.6c0,0-26.2,29.2-48.2,23.9L-94.4,256.4z"/>
		<path id="Path_6935-2" class="st1" d="M-85.7,227.7c0,0,29-33.7,45.9-22.5c0,0-21.4,26.2-48,28.8L-85.7,227.7z"/>
		<path id="Path_6936-2" class="st1" d="M-73,194.3c0,0,25.4-27.5,44-20.7c0,0-21.7,28.6-47.4,29.3L-73,194.3z"/>
		<path id="Path_6937-2" class="st1" d="M-61.5,163.1c0,0,28.1-26.4,40.3-21.7c0,0-20.3,29.3-41.5,27.6L-61.5,163.1z"/>
		<path id="Path_6938-2" class="st1" d="M-50.2,134.3c0,0,24.2-31.5,37.4-29.1c0,0-14.7,28.1-37.4,32.3V134.3z"/>
		<path id="Path_6939-2" class="st1" d="M-38.1,95.4c0,0,21.4-24.1,32.9-24.1c0,0-16.9,32.3-33.8,32L-38.1,95.4z"/>
		<path id="Path_6940-2" class="st1" d="M-30.8,69.6l20.6-50.3c0,0,1,45.5-23.3,59.6L-30.8,69.6z"/>
		<path id="Path_6941-2" class="st1" d="M-22.5,14.1c0,0,3.4-42,1.2-45.4c0,0,14.8,34.9-1.4,64L-22.5,14.1z"/>
		<path id="Path_6942-2" class="st1" d="M-92.8,451c0,0-21.4-13.3-35.3,19.2c0,0,19,12.6,37.8-10.9L-92.8,451z"/>
		<path id="Path_6943-2" class="st1" d="M-102.2,414.8c0,0-26.3-12-39,21.9c0,0,20.3,14,41.4-13.3L-102.2,414.8z"/>
		<path id="Path_6944-2" class="st1" d="M-106.2,384.5c0,0-18.8-22-47.1,0c0,0,17.8,19.3,47.1,5.6V384.5z"/>
		<path id="Path_6945-2" class="st1" d="M-108.5,349.8c0,0-19-23-46.1-1.2c0,0,21.5,20.3,46.1,6.6V349.8z"/>
		<path id="Path_6946-2" class="st1" d="M-106.2,321.5c0,0-13.4-33.1-42.4-18.9c0,0,15.7,29.3,41.2,24.4L-106.2,321.5z"/>
		<path id="Path_6947-2" class="st1" d="M-99.8,286.6c0,0-13.3-33.7-42.7-18.1c0,0,18,30.9,41.4,23.3L-99.8,286.6z"/>
		<path id="Path_6948-2" class="st1" d="M-91.6,256.6c0,0-5.2-36.9-29.7-40.2c0,0,5.2,38.9,26.4,46.9L-91.6,256.6z"/>
		<path id="Path_6949-2" class="st1" d="M-85,227.7c0,0-2-44.5-22.2-46c0,0,0.7,33.8,20,52.3L-85,227.7z"/>
		<path id="Path_6950-2" class="st1" d="M-70.9,193.1c0,0-6-37-25.3-41.5c0,0,2.4,35.8,23.4,50.6L-70.9,193.1z"/>
		<path id="Path_6951-2" class="st1" d="M-59.2,163.4c0,0-0.2-38.5-12-44.2c0,0-7.3,34.9,8.6,49.1L-59.2,163.4z"/>
		<path id="Path_6952-2" class="st1" d="M-49.3,133.9c0,0-1.6-39.7-13.8-45.3c0,0-4.2,31.4,12,47.9L-49.3,133.9z"/>
		<path id="Path_6953-2" class="st1" d="M-36.4,98.6c0,0-0.1-32.3-8.8-39.8c0,0-8.7,35.3,4.2,46.3L-36.4,98.6z"/>
		<path id="Path_6954-2" class="st1" d="M-31.9,68l-8.5-53.7c0,0-11.5,44,8.9,63.4L-31.9,68z"/>
		<path id="Path_6955-2" class="st1" d="M-30.2,14.6c0,0-21.7-36.1-21.3-40.1c0,0,2.3,37.8,29.7,56.7L-30.2,14.6z"/>
		<path id="Path_6956-2" class="st1" d="M-27.7,3.9c0,0-20.5-51.3-29.8-55.4c0,0,29.3,14.9,31.5,54L-27.7,3.9z"/>
		<path id="Path_6957-2" class="st2" d="M-39,103.6l-1.4-0.4C-23.1,46.7-18.8,10.8-28.3,1.7l1-1.1C-17.2,10.2-21.3,45.8-39,103.6z"
			/>
		<path id="Path_6958-2" class="st2" d="M-86.7,235.8l-2.1-0.7c1.8-5.2,3.8-10.4,5.9-15.6c18.1-45,33.5-86.9,43.3-119.1l1.8-0.9
			c-9.9,32.2-25,75.7-43.1,120.8C-82.9,225.4-84.9,230.6-86.7,235.8z"/>
		<path id="Path_6959-2" class="st2" d="M-43,546.5c-0.3-0.3-28.3-31.9-47.9-85.8c-11.5-31.6-17.8-64.8-18.9-98.4
			c-1.3-42,7.5-88.8,22.6-131.4l1.6,1.9c-33.9,95.6-20.4,177.4-2.6,226.7c19.4,53.4,47.1,84.7,47.4,85L-43,546.5z"/>
		<path id="Path_6960-2" class="st3" d="M395.4,479.4c0,0-19.8,24.1-4.1,60.6l-157.8,68.5l-15.1,3.2l-7-30.5l4.7-38.5v-21.1
			L395.4,479.4z"/>
		<path id="Path_6961-2" class="st1" d="M-103.1,463.8L115.4,424l289.5,46.1l-179.8,64.7L-103.1,463.8z"/>
		<path id="Path_6962-2" class="st1" d="M-103.1,463.8L115.4,424l289.5,46.1l-179.8,64.7L-103.1,463.8z"/>
		<path id="Path_6963-2" class="st1" d="M-103.1,463.8c0,0-20.4,38.7,3.1,74.5l324,70.2c0,0-20.1-30.8,1-73.6L-103.1,463.8z"/>
		<path id="Path_6964-2" class="st4" d="M-103.1,463.8c0,0-20.4,38.7,3.1,74.5l324,70.2c0,0-20.1-30.8,1-73.6L-103.1,463.8z"/>
		<path id="Path_6965-2" class="st4" d="M-93.4,477.2c0,0-11.7,28.3,0,46.7"/>
		<path id="Path_6966-2" class="st1" d="M224,608.5l180.9-77.2c0,0,10.1,2.2,3.6,9.6s-181,75-181,75L-100,538.3L224,608.5z"/>
		<path id="Path_6967-2" class="st4" d="M224,608.5l180.9-77.2c0,0,10.1,2.2,3.6,9.6s-181,75-181,75L-100,538.3L224,608.5z"/>
		<path id="Path_6968-2" class="st4" d="M209.2,542.6c0,0-17.4,20.9,0,52.3"/>
		
			<rect id="Rectangle_182-2" x="213.4" y="555.3" transform="matrix(0.9486 -0.3165 0.3165 0.9486 -162.7919 109.1561)" class="st4" width="82.5" height="0.9"/>
		
			<rect id="Rectangle_183-2" x="212.2" y="557.5" transform="matrix(0.9347 -0.3554 0.3554 0.9347 -181.1754 129.7291)" class="st4" width="100.5" height="0.9"/>
		
			<rect id="Rectangle_184-2" x="211.7" y="561.6" transform="matrix(0.9255 -0.3788 0.3788 0.9255 -192.7817 144.1459)" class="st4" width="116.5" height="0.9"/>
		
			<rect id="Rectangle_185-2" x="211.4" y="563.3" transform="matrix(0.9113 -0.4117 0.4117 0.9113 -207.4054 164.6073)" class="st4" width="134.1" height="0.9"/>
		
			<rect id="Rectangle_186-2" x="212.1" y="565.1" transform="matrix(0.9161 -0.401 0.401 0.9161 -202.8333 161.9423)" class="st4" width="146.6" height="0.9"/>
		
			<rect id="Rectangle_187-2" x="213.1" y="565.7" transform="matrix(0.918 -0.3965 0.3965 0.918 -199.803 165.698)" class="st4" width="175.5" height="0.9"/>
		<path id="Path_6969-2" class="st5" d="M-21.9,468.1l153.5-32.3l93.5,17.9L99.3,494.2L-21.9,468.1z"/>
		<path id="Path_6970-2" class="st1" d="M404.9,470.1c0,0,7.9,3.2,3.3,8.1c-4.7,4.9-183.1,56.6-183.1,56.6L404.9,470.1z"/>
		<path id="Path_6971-2" class="st3" d="M482,395.5c0,0-19.8,24.1-4.1,60.6l-157.8,68.5l-15.1,3.2l-7-30.5l4.7-38.5v-21.1L482,395.5
			z"/>
		<path id="Path_6972-2" class="st6" d="M-16.5,379.9L202,340.1l289.5,46.1L311.7,451L-16.5,379.9z"/>
		<path id="Path_6973-2" class="st6" d="M-16.5,379.9c0,0-20.4,38.7,3.1,74.5l324,70.2c0,0-20.1-30.9,1.1-73.6L-16.5,379.9z"/>
		<path id="Path_6974-2" class="st4" d="M-16.5,379.9c0,0-20.4,38.7,3.1,74.5l324,70.2c0,0-20.1-30.9,1.1-73.6l-102.4-22.2
			L-16.5,379.9z"/>
		<path id="Path_6975-2" class="st4" d="M-6.8,393.4c0,0-11.7,28.3,0,46.7"/>
		<path id="Path_6976-2" class="st6" d="M310.6,524.6l180.9-77.2c0,0,10.1,2.2,3.6,9.6c-6.5,7.4-181,75-181,75l-327.5-77.6
			L310.6,524.6z"/>
		<path id="Path_6977-2" class="st4" d="M310.6,524.6l180.9-77.2c0,0,10.1,2.2,3.6,9.6c-6.5,7.4-181,75-181,75l-327.5-77.6
			L310.6,524.6z"/>
		<path id="Path_6978-2" class="st4" d="M295.8,458.8c0,0-17.4,20.9,0,52.3"/>
		
			<rect id="Rectangle_188-2" x="300" y="471.4" transform="matrix(0.9486 -0.3165 0.3165 0.9486 -131.7991 132.2505)" class="st4" width="82.5" height="0.9"/>
		
			<rect id="Rectangle_189-2" x="298.8" y="473.6" transform="matrix(0.9347 -0.3554 0.3554 0.9347 -145.7101 155.0351)" class="st4" width="100.5" height="0.9"/>
		
			<rect id="Rectangle_190-2" x="298.3" y="477.7" transform="matrix(0.9255 -0.3788 0.3788 0.9255 -154.553 170.6966)" class="st4" width="116.5" height="0.9"/>
		
			<rect id="Rectangle_191-2" x="298" y="479.5" transform="matrix(0.9113 -0.4117 0.4117 0.9113 -165.1952 192.8223)" class="st4" width="134.1" height="0.9"/>
		
			<rect id="Rectangle_192-2" x="298.7" y="481.2" transform="matrix(0.9161 -0.401 0.401 0.9161 -161.9227 189.6257)" class="st4" width="146.6" height="0.9"/>
		
			<rect id="Rectangle_193-2" x="299.7" y="481.8" transform="matrix(0.918 -0.3965 0.3965 0.918 -159.4414 193.1577)" class="st4" width="175.5" height="0.9"/>
		<path id="Path_6979-2" class="st7" d="M64.7,384.2l153.5-32.3l93.5,17.9l-125.8,40.6L64.7,384.2z"/>
		<path id="Path_6980-2" class="st6" d="M491.5,386.2c0,0,7.9,3.2,3.3,8.1c-4.6,4.9-183.1,56.6-183.1,56.6L491.5,386.2z"/>
		<path id="Path_6981-2" class="st3" d="M490.2,299.6c0,0-19.8,43.3-4.1,79.8l-157.8,49.3l-15.1,3.2l-7-30.5l4.7-38.5v-21.1
			L490.2,299.6z"/>
		<path id="Path_6982-2" class="st1" d="M-8.3,284l218.5-39.8l289.5,46.1L319.9,355L-8.3,284z"/>
		<path id="Path_6983-2" class="st1" d="M-8.3,284c0,0-20.5,38.7,3.1,74.5l324,70.2c0,0-20.1-30.9,1.1-73.6L-8.3,284z"/>
		<path id="Path_6984-2" class="st4" d="M-8.3,284c0,0-20.5,38.7,3.1,74.5l324,70.2c0,0-20.1-30.9,1.1-73.6L-8.3,284z"/>
		<path id="Path_6985-2" class="st4" d="M1.4,297.4c0,0-11.7,28.3,0,46.7"/>
		<path id="Path_6986-2" class="st1" d="M318.8,428.7l180.9-58c0,0,10.1,2.2,3.6,9.6c-6.5,7.4-181,55.8-181,55.8L-5.1,358.4
			L318.8,428.7z"/>
		<path id="Path_6987-2" class="st4" d="M318.8,428.7l180.9-58c0,0,10.1,2.2,3.6,9.6c-6.5,7.4-181,55.8-181,55.8L-5.1,358.4
			L318.8,428.7z"/>
		<path id="Path_6988-2" class="st4" d="M304,362.8c0,0-17.4,20.9,0,52.3"/>
		
			<rect id="Rectangle_194-2" x="308.2" y="375.5" transform="matrix(0.9486 -0.3165 0.3165 0.9486 -101.0082 129.9245)" class="st4" width="82.5" height="0.9"/>
		
			<rect id="Rectangle_195-2" x="307.1" y="377.7" transform="matrix(0.9347 -0.3554 0.3554 0.9347 -111.0685 151.6947)" class="st4" width="100.5" height="0.9"/>
		
			<rect id="Rectangle_196-2" x="306.5" y="381.8" transform="matrix(0.9255 -0.3788 0.3788 0.9255 -117.595 166.6601)" class="st4" width="116.5" height="0.9"/>
		
			<rect id="Rectangle_197-2" x="306.2" y="383.5" transform="matrix(0.9113 -0.4117 0.4117 0.9113 -124.9634 187.7033)" class="st4" width="134.1" height="0.9"/>
		
			<rect id="Rectangle_198-2" x="307" y="385.3" transform="matrix(0.9161 -0.401 0.401 0.9161 -122.7541 184.8761)" class="st4" width="146.6" height="0.9"/>
		
			<rect id="Rectangle_199-2" x="308" y="385.8" transform="matrix(0.918 -0.3965 0.3965 0.918 -120.7251 188.5587)" class="st4" width="175.5" height="0.9"/>
		<path id="Path_6989-2" class="st5" d="M72.9,288.2L226.4,256l93.5,17.9l-125.8,40.6L72.9,288.2z"/>
		<path id="Path_6990-2" class="st1" d="M499.7,290.3c0,0,7.9,3.2,3.3,8.1c-4.7,4.9-183.1,56.6-183.1,56.6L499.7,290.3z"/>
		<path id="Path_6991-2" class="st1" d="M116,25.6c0,0-33.1-2-29.3,21.3c-0.4,2.4,0.8,4.8,2.9,6c0,0,0.1-1.7,3.4-1.1
			c1.2,0.2,2.4,0.3,3.6,0.2c1.6-0.1,3.2-0.7,4.4-1.8l0,0c0,0,9.3-3.9,13-19.1c0,0,2.7-3.3,2.6-4.2l-5.6,2.4c0,0,1.9,4,0.4,7.4
			c0,0-0.2-7.2-1.3-7.1c-0.2,0-2.9,1.4-2.9,1.4s3.3,7,0.8,12.1c0,0,0.9-8.7-1.8-11.6l-3.9,2.3c0,0,3.8,7.3,1.2,13.2
			c0,0,0.7-9.1-2.1-12.6L98,37c0,0,3.6,7.2,1.4,12.1c0,0-0.3-10.6-2.2-11.4c0,0-3.1,2.8-3.6,3.9c0,0,2.5,5.2,0.9,7.9
			c0,0-0.9-7.1-1.7-7.1c0,0-3.1,4.7-3.4,7.8c0.2-3,1.1-5.8,2.7-8.3c-1.8,0.3-3.4,1.2-4.8,2.5c0,0,0.5-3.3,5.5-3.6
			c0,0,2.6-3.5,3.3-3.8c0,0-5-0.4-8.1,0.9c0,0,2.7-3.1,9-1.7l3.5-2.9c0,0-6.6-0.9-9.4,0.1c0,0,3.2-2.8,10.4-0.7l3.8-2.3
			c0,0-5.6-1.2-9-0.8c0,0,3.5-1.9,10.1,0.2l2.7-1.2c0,0-4.1-0.8-5.3-0.9s-1.3-0.5-1.3-0.5c2.6-0.4,5.3-0.1,7.8,0.9
			C110.3,28,116.2,25.9,116,25.6z"/>
		<path id="Path_6992-2" class="st8" d="M582.2,121.1c0,0-33.1-2-29.3,21.3c-0.4,2.4,0.8,4.8,2.9,6c0,0,0.1-1.7,3.4-1.1
			c1.2,0.2,2.4,0.3,3.6,0.2c1.6-0.1,3.1-0.8,4.4-1.8l0,0c0,0,9.3-3.9,13-19.1c0,0,2.7-3.3,2.6-4.2l-5.6,2.4c0,0,1.9,4,0.4,7.4
			c0,0-0.2-7.2-1.3-7.1c-0.2,0-2.9,1.4-2.9,1.4s3.3,7,0.8,12.1c0,0,0.9-8.7-1.8-11.6l-3.9,2.3c0,0,3.8,7.3,1.2,13.2
			c0,0,0.7-9.1-2.1-12.6l-3.6,2.8c0,0,3.6,7.2,1.4,12.1c0,0-0.3-10.6-2.2-11.4c0,0-3.1,2.8-3.6,3.9c0,0,2.5,5.2,0.9,7.9
			c0,0-0.9-7.1-1.7-7.1c0,0-3.1,4.7-3.4,7.8c0.2-3,1.1-5.8,2.7-8.3c-1.8,0.3-3.5,1.2-4.8,2.5c0,0,0.5-3.3,5.5-3.6
			c0,0,2.6-3.5,3.3-3.8c0,0-5-0.4-8.1,0.9c0,0,2.7-3.1,9-1.7l3.5-2.9c0,0-6.6-0.9-9.4,0.1c0,0,3.2-2.8,10.4-0.7l3.8-2.3
			c0,0-5.6-1.2-9-0.8c0,0,3.5-1.9,10.1,0.2l2.7-1.2c0,0-4.1-0.8-5.3-0.9c-1.2-0.1-1.3-0.5-1.3-0.5c2.6-0.4,5.3-0.1,7.8,0.9
			C576.4,123.6,582.4,121.5,582.2,121.1z"/>
		<path id="Path_6993-2" class="st8" d="M171.9,169.2c0,0-14.4-29.9-32.8-15.2c-2.3,0.8-3.8,3-3.8,5.5c0,0,1.5-0.8,2.6,2.4
			c0.4,1.1,0.9,2.2,1.6,3.2c0.9,1.4,2.2,2.4,3.7,3l0,0c0,0,7.9,6.3,23,2c0,0,4.2,0.7,4.9,0.2l-4.8-3.7c0,0-2.6,3.6-6.3,4
			c0,0,6.2-3.7,5.6-4.5c-0.1-0.2-2.6-1.9-2.6-1.9s-4.5,6.3-10.2,6.6c0,0,8-3.4,9.3-7.3l-3.9-2.3c0,0-4.5,6.9-10.9,7.5
			c0,0,8.3-3.8,10-8L153,159c0,0-4.5,6.6-9.9,7.1c0,0,9.1-5.4,8.9-7.5c0,0-3.9-1.4-5.2-1.2c0,0-3.3,4.7-6.5,4.7c0,0,5.7-4.3,5.3-5
			c0,0-5.6-0.4-8.5,0.9c2.7-1.3,5.6-1.9,8.6-1.7c-1.2-1.4-2.7-2.4-4.5-3c0,0,3.1-1.2,5.8,3.1c0,0,4.4,0.5,4.9,1c0,0-2.1-4.6-4.7-6.6
			c0,0,4,0.8,5.9,7l4.2,1.7c0,0-2.4-6.2-4.7-8.2c0,0,4,1.5,5.7,8.7l3.9,2.2c0,0-1.7-5.5-3.7-8.2c0,0,3.4,2.2,4.8,8.9l2.4,1.8
			c0,0-1.3-4-1.7-5.1c-0.4-1.1-0.2-1.3-0.2-1.3c1.7,2.1,2.7,4.6,3,7.2C166.9,165.4,171.5,169.4,171.9,169.2z"/>
		<path id="Path_6994-2" class="st8" d="M506.5,78.8c0,0-14.4-29.9-32.8-15.2c-2.3,0.8-3.8,3-3.8,5.5c0,0,1.5-0.8,2.6,2.4
			c0.4,1.1,0.9,2.2,1.6,3.2c0.9,1.4,2.2,2.4,3.7,3l0,0c0,0,7.9,6.3,23,2c0,0,4.2,0.7,4.9,0.2l-4.8-3.7c0,0-2.6,3.6-6.3,4
			c0,0,6.2-3.7,5.6-4.6c-0.1-0.2-2.6-1.9-2.6-1.9s-4.5,6.3-10.2,6.6c0,0,8-3.4,9.3-7.3l-4-2.3c0,0-4.5,6.9-10.9,7.5
			c0,0,8.3-3.9,10-8l-4.2-1.7c0,0-4.5,6.7-9.9,7.1c0,0,9.1-5.4,8.9-7.5c0,0-3.9-1.4-5.1-1.2c0,0-3.3,4.7-6.5,4.7c0,0,5.7-4.3,5.4-5
			c0,0-5.6-0.4-8.6,0.9c2.7-1.3,5.6-1.9,8.6-1.7c-1.2-1.4-2.7-2.4-4.5-3c0,0,3.1-1.2,5.8,3.1c0,0,4.4,0.5,4.9,1c0,0-2.1-4.6-4.8-6.6
			c0,0,4,0.8,5.9,7l4.2,1.7c0,0-2.4-6.2-4.7-8.2c0,0,4,1.5,5.7,8.7l3.9,2.2c0,0-1.7-5.5-3.7-8.2c0,0,3.4,2.2,4.8,8.9l2.4,1.8
			c0,0-1.3-4-1.7-5.1c-0.4-1.1-0.2-1.3-0.2-1.3c1.7,2.1,2.7,4.6,3,7.2C501.5,75.1,506.3,79.1,506.5,78.8z"/>
		<path id="Path_6995-2" class="st8" d="M552.7,226.9c0,0-14.4-29.9-32.9-15.2c-2.3,0.8-3.8,3-3.8,5.5c0,0,1.5-0.8,2.6,2.4
			c0.4,1.1,0.9,2.2,1.6,3.2c0.9,1.4,2.2,2.4,3.7,3l0,0c0,0,7.9,6.3,23,2c0,0,4.2,0.7,4.9,0.2l-4.8-3.7c0,0-2.6,3.6-6.3,4
			c0,0,6.2-3.7,5.6-4.6c-0.1-0.2-2.6-1.9-2.6-1.9s-4.5,6.3-10.2,6.6c0,0,8-3.4,9.3-7.3l-3.9-2.3c0,0-4.5,6.9-10.9,7.5
			c0,0,8.3-3.9,10-8l-4.2-1.7c0,0-4.5,6.6-9.9,7.1c0,0,9.1-5.4,8.9-7.5c0,0-3.9-1.4-5.2-1.2c0,0-3.3,4.7-6.5,4.7c0,0,5.7-4.3,5.4-5
			c0,0-5.6-0.4-8.6,0.9c2.7-1.3,5.6-1.9,8.6-1.7c-1.2-1.4-2.7-2.4-4.5-3c0,0,3.1-1.2,5.8,3.1c0,0,4.4,0.5,4.9,1c0,0-2.1-4.6-4.7-6.6
			c0,0,4,0.8,5.9,7l4.2,1.7c0,0-2.4-6.2-4.7-8.2c0,0,4,1.5,5.7,8.7l3.9,2.2c0,0-1.7-5.5-3.7-8.2c0,0,3.4,2.2,4.8,8.9l2.4,1.7
			c0,0-1.3-4-1.7-5.1s-0.2-1.3-0.2-1.3c1.7,2.1,2.7,4.6,3,7.2C547.6,223.1,552.4,227.2,552.7,226.9z"/>
		<ellipse id="Ellipse_119-2" class="st8" cx="21.4" cy="614.3" rx="20" ry="2.2"/>
		<ellipse id="Ellipse_120-2" class="st8" cx="-110" cy="576.2" rx="20" ry="2.2"/>
		<ellipse id="Ellipse_121-2" class="st8" cx="121.6" cy="639.6" rx="20" ry="2.2"/>
		<ellipse id="Ellipse_122-2" class="st8" cx="635" cy="584.5" rx="20" ry="2.2"/>
		<ellipse id="Ellipse_123-2" class="st8" cx="468.2" cy="573.6" rx="20" ry="2.2"/>
		<ellipse id="Ellipse_124-2" class="st8" cx="360.3" cy="624.8" rx="23.7" ry="4.1"/>
		<path id="Path_6996-2" class="st1" d="M370.8,583.9c0,0-33,17.1-16,37.1c0,0,1.6,4.4,6.2,4.1c0,0-0.9-1.7,2.6-3
			c1.3-0.5,2.5-1.1,3.6-1.9c1.5-1,2.6-2.5,3.2-4.3l0,0c0,0,6.7-9,1.5-25.8c0,0,0.7-4.7,0.1-5.5l-4,5.5c0,0,4.1,2.8,4.6,6.9
			c0,0-4.4-6.9-5.2-6.1c-0.2,0.2-2,3-2,3s7.2,4.9,7.7,11.2c0,0-4-8.9-8.4-10.1l-2.5,4.5c0,0,7.8,4.8,8.7,12c0,0-4.6-9.1-9.2-11
			l-1.8,4.7c0,0,7.6,4.8,8.3,10.8c0,0-6.3-10-8.6-9.7c0,0-1.4,4.4-1.2,5.8c0,0,5.3,3.6,5.4,7.1c0,0-4.9-6.2-5.7-5.8
			c0,0-0.3,6.3,1.2,9.5c-1.6-2.9-2.3-6.2-2.2-9.5c-1.5,1.4-2.6,3.1-3.2,5.1c0,0-1.4-3.4,3.3-6.6c0,0,0.4-4.9,1-5.5
			c0,0-5.1,2.5-7.2,5.5c0,0,0.8-4.5,7.7-6.8l1.7-4.8c0,0-6.9,2.9-9,5.5c0,0,1.5-4.5,9.5-6.6l2.4-4.4c0,0-6.1,2.1-9.1,4.4
			c0,0,2.3-3.9,9.8-5.6l1.9-2.7c0,0-4.4,1.6-5.7,2.1c-1.2,0.6-1.5,0.3-1.5,0.3c2.3-1.9,5-3.2,7.9-3.6
			C366.8,589.6,371.1,584.2,370.8,583.9z"/>
		
			<linearGradient id="Path_6997-2_1_" gradientUnits="userSpaceOnUse" x1="-756.9959" y1="723.116" x2="-756.9959" y2="724.1415" gradientTransform="matrix(290.586 0 0 -426.7924 220294.4844 308990.8125)">
			<stop  offset="0" style="stop-color:#808081;stop-opacity:0.251"/>
			<stop  offset="0.54" style="stop-color:#808081;stop-opacity:0.122"/>
			<stop  offset="1" style="stop-color:#808081;stop-opacity:0.102"/>
		</linearGradient>
		<path id="Path_6997-2" class="st9" d="M468.8,261.7c-5.7-15.5-37.1-17-50.7-13c-9.7,2.8-30.1,6-41,7.6l-0.7-0.7
			c1.4-0.4,1.4-1.4,1.3-3c-0.1-2-0.1-4,0.1-6c6.7,2.1,12.6-2.8,12.6-2.8l0,0c7.8-3.5,5.7-18.4,7.2-22.5c1.1-3.1,2.3-21,2.9-30h0.1
			l0.1-3c0.1-1.3,0.1-2.1,0.1-2.1s0.8-21.9,2.3-26.4c1.4-4.1,2.5-24.6,2.7-27.9v-0.4l-0.1-1.9c0.1-1.4,0.1-2.9,0.1-4.6
			c0-7.5-0.8-16.8-0.9-18.4v-0.8c0.1-3.2-0.3-19.1-13.9-25.2c-5-2.2-11-4.9-16.8-7.5c-1.5-13-4.9-25.8-4.6-38.9c0-2,0.2-3.9,0.4-5.9
			c0,0.6-0.1,1.1-0.1,1.7v3.8c0.5-16.3,6.7-32.7,6.1-48.7c-0.1,1.6-0.2,3.1-0.3,4.7c0.3-5.4-0.3-10.8-1.7-16c-0.4-1.9-1.3-3.6-2.7-5
			c-1.4-1-3.1-1.6-4.8-1.9c-4.1-1.1-8.3-1.8-12.5-2.3c-0.6-2-1.6-3.8-2.8-5.5c-8.8-12.1-21.9-23.5-37.4-26.2
			c-7.8-1.3-16.7-0.2-22,5.3c-0.6,0.5-1.1,1-1.6,1.6c-2.8,3.4-4.1,7.8-7,11.2c-0.2,0.2-0.4,0.4-0.6,0.7c-5.7,5.1-14.6,6.2-20.9,10.7
			c-1.1,0.8-2.2,1.7-3.1,2.7c-2.6,2.5-4.8,5.3-6.8,8.3c-2.9,4-5.8,8.2-6.7,13c-1.8,9.6,4.7,18.7,5.9,28.3
			c2.7,21.6-21.2,40.8-16.7,62.1c1.2,5.2,3.9,10,7.7,13.8c-9.3,8.4-17.3,16.6-17.3,16.6v0.5h-1.5l0.1,1.7h-0.1l0.8,9.5l-0.8,13.8
			v1.3h0.1c0.3,5,1.3,23.2,2.6,27c1.5,4.4,2.3,26.4,2.3,26.4s1.7,31,3.2,35.1c1.5,4.1-0.6,19,7.2,22.5l0,0c2.3,1.8,5,2.9,7.9,3.3
			c-0.4,3.3-0.1,5.6,1.2,6.4c0.6,0.3,1.2,0.5,1.8,0.5c-0.5,0.8-1,1.6-1.4,2.5c-3.1-0.3-6.2-1-9.1-2.2c-8.5-3.5-36.5-11.3-44.7-5.8
			c-8.2,5.5-27.8,10.5-18.7,32.7c9.1,22.2,13.3,22.8,13.3,22.8c2.8,2,5.2,4.5,7.2,7.3c2.7,4.1,28.1,13.4,34.4,13.4
			c2.7,0,5.4,0.1,8.1,0.4c0,0-6.9,6-6,9.5c0.9,3.5-2.1,31.6-2.1,31.6s7,7,10-2.2l0.1,0.1c0.6,0.8,3.6,4.2,9.3-0.1
			c2.3-1.8,4.8-3.3,7.4-4.7l27.5-3.9c2.9-0.2,5.7-0.2,8.6-0.1c4.4,0.4,8.6-2.2,11.3-4.2c5.7,2.2,12.1,4.5,15.1,5.4
			c6.2,1.7,34.6,9.4,41.2,7c1.4-0.5,2.6-1.4,3.6-2.5l6.3,0.2l-3,0.6c0,0,5.8,0.1,13.6,0.2l-0.3,0.2l9.8-0.1
			c14.4,0.1,30.6,0.2,32.7-0.3c3.3-0.7,20.6-0.2,25.7,0h1.4c0,0,19-3.8,11.2-23.1c-6-14.8-24.6-19.1-32.8-20.3
			c2.3-0.5,4.3-0.8,5.6-1c5.7-0.9,16.9-6.1,17.8-7.9s10.3-7,12.7-9.9S474.6,277.2,468.8,261.7z M311.3,305.1l-0.9,0.3l-0.6,0.2
			l-1.2,1.2c-1-0.6-2-1.3-3.1-2C307.4,304.9,309.3,305,311.3,305.1L311.3,305.1z"/>
		<path id="Path_6998-2" class="st10" d="M366.9,213.1c0,0,13.3,34.9,20.9,31.4c7.6-3.5,5.5-18.3,7-22.4c1.4-4.1,3.1-34.9,3.1-34.9
			s0.7-21.8,2.2-26.2c1.3-4.1,2.4-24.5,2.6-27.7v-0.4l-1.4-25.3l-8.1-2l-18.9,7l-2.6,14.9l-1,5.8l-0.4,2.5L366.9,213.1z"/>
		<path id="Path_6999-2" class="st4" d="M371.3,207.3c0,0,12.7,10.4,16.6,11.3c3.8,0.9,6.2,9,6.2,9"/>
		<path id="Path_7000-2" class="st10" d="M262.5,214.6c0,0-13.3,34.9-20.9,31.4c-7.6-3.5-5.5-18.3-7-22.4
			c-1.4-4.1-3.1-34.9-3.1-34.9s-0.7-21.8-2.2-26.2c-1.3-4.1-2.4-24.5-2.6-27.7v-0.4l1.4-25.3l8.1-2l18.9,7l2.6,14.9l1,5.8l0.4,2.5
			L262.5,214.6z"/>
		<rect id="Rectangle_200-2" x="319.7" y="28" class="st11" width="29.8" height="46.4"/>
		<rect id="Rectangle_201-2" x="319.7" y="28" class="st4" width="29.8" height="46.4"/>
		<path id="Path_7001-2" class="st12" d="M257.3,249.4c0,0-10.2,11.2-6.4,13.2s28.2,40.1,28.2,40.1s80.2,9.9,95.4-4.9
			c15.1-14.8,14.8-41.3,14.8-41.3s-12.2,2.6-13.5,1.2c-1.3-1.4-8.6-8.3-8.6-8.3S264.3,243.1,257.3,249.4z"/>
		<path id="Path_7002-2" class="st13" d="M257.3,249.4c0,0-10.2,11.2-6.4,13.2s28.2,40.1,28.2,40.1s80.2,9.9,95.4-4.9
			c15.1-14.8,14.8-41.3,14.8-41.3s-12.2,2.6-13.5,1.2c-1.3-1.4-8.6-8.3-8.6-8.3S264.3,243.1,257.3,249.4z"/>
		<path id="Path_7003-2" class="st10" d="M401.7,108l-26.2,20.9l-7.9,0.6l-2.9,0.2l-48.8,3.6l-50.6-3.7l-7.5-0.5l-9.6-0.7
			l-20.1-19.2c0,0,14.2-15.2,26.6-25.5c4.9-4.1,9.5-7.3,12.9-8.6l0.6-0.2c2.1-0.8,4-2.1,5.5-3.9c9.8-10.1,18.9-35.1,18.9-35.1
			s43.3-22.4,38.1,7c-5.2,29.4,19.5,22.1,19.5,22.1l8.1,3.7l3.2,1.5l8.2,3.8l18.5,8.5C403,89.1,401.7,108,401.7,108z"/>
		<circle id="Ellipse_125-2" class="st4" cx="314" cy="20.8" r="39"/>
		<path id="Path_7004-2" class="st4" d="M401.8,135.7h-175v-0.4l1.4-25.3c0,0,14.2-15.2,26.6-25.5l109.9-4.4l5.1-5.4l18.5,8.5
			c14.5,6.7,13.4,25.6,13.4,25.6S403.7,130.7,401.8,135.7z"/>
		<path id="Path_7005-2" class="st14" d="M401.8,134.8h-175v-0.4l1.4-25.3c0,0,14.2-15.2,26.6-25.5l109.9-4.4l5.1-5.4l18.5,8.5
			c14.5,6.7,13.4,25.6,13.4,25.6S403.7,129.9,401.8,134.8z"/>
		<path id="Path_7006-2" class="st4" d="M285.9,63.9c0,0,27.6,35.2,64.4-0.7s4.1,80.1,4.1,80.1l-79.4,9.4L285.9,63.9z"/>
		<path id="Path_7007-2" class="st14" d="M285.9,65.7c0,0,27.6,35.2,64.4-0.7s4.1,80.1,4.1,80.1l-79.4,9.4L285.9,65.7z"/>
		<path id="Path_7008-2" class="st4" d="M361.7,71.8l2.9,44.6l3.1,14.8l2.4,11.3c0,0,6.1,87.2,4.4,91.6c-1.7,4.4,0.9,7.8,1.2,10.2
			c0.4,2.3-0.4,8.1-0.1,10.8c0.3,2.6,0,3.8-6.7,2.8c-6.7-0.9-16-2.6-16-2.6s-23.5,1.7-31.7-1.2s-23.5-2.9-23.5-2.9
			s-23.3,0.6-30.8-0.3s-11.6,9.3-16.6,6.4s5.8-31.1,9.3-39.2s-4.6-28.8-4.6-28.8l10.5-58.1l2.3-13.2V76.8l0.6-0.2
			c2.1-0.8,4-2.1,5.5-3.9l2.6,41.6l82,2.9V70.4"/>
		<path id="Path_7009-2" class="st14" d="M361.7,70.1l2.9,44.6l3.1,14.8l2.4,11.3c0,0,6.1,87.2,4.4,91.6c-1.7,4.4,0.9,7.8,1.2,10.2
			c0.4,2.3-0.4,8.1-0.1,10.8c0.3,2.6,0,3.8-6.7,2.8c-6.7-0.9-16-2.6-16-2.6s-23.5,1.7-31.7-1.2c-8.1-2.9-23.5-2.9-23.5-2.9
			s-23.3,0.6-30.8-0.3s-11.6,9.3-16.6,6.4s5.8-31.1,9.3-39.2c3.5-8.1-4.6-28.8-4.6-28.8l10.5-58.1l2.3-13.2V75l0.6-0.2
			c2.1-0.8,4-2.1,5.5-3.9l2.6,41.6l82,2.9V68.7"/>
		<path id="Path_7010-2" class="st4" d="M371.1-22.9c-0.4-1.9-1.3-3.6-2.6-4.9c-1.4-1-2.9-1.6-4.6-1.9c-4-1-8-1.8-12.1-2.3
			c-0.6-1.9-1.5-3.8-2.6-5.4c-8.5-12.1-21.2-23.5-36.1-26c-7.8-1.4-16.8-0.1-21.8,6c-2.7,3.4-3.9,7.8-6.7,11.2
			c-5.3,6.4-14.9,7.2-21.7,12.2c-3.6,2.6-6.2,6.4-8.7,10.1c-2.7,4-5.6,8.1-6.4,12.9c-1.7,9.5,4.5,18.6,5.7,28.2
			c2.6,21.5-20.4,40.5-16.1,61.7c2.5,12.4,14,21.1,25.8,25.5c4.2,1.6,8.9,3.1,10.9,7.1c0.9,1.7,1,3.8,1.8,5.5
			c2.8,5.9,11.8,6.1,16.7,1.8c4.9-4.3,6.4-11.2,7-17.7c2.3-28.2-9-56.1-7.6-84.4c0.4-8.6,2.8-18.3,10.5-22.1
			c10.3-5.2,22.7,3.5,34.1,1.8c5.4,13.1,6.5,27.5,3.3,41.3c-1.8,7.5-4.9,14.8-5.2,22.6c-0.3,11.8,6,22.6,11.5,33.1
			c1.2,2,2,4.1,2.3,6.4c0.1,2.3-0.3,4.6-1.2,6.7c-3.1,8.4-8.5,16.2-9.1,25.1c-0.2,1,0.1,2.1,0.7,3c0.6,0.6,1.4,0.9,2.2,1
			c9.4,1.6,17.6-6.7,22.2-15.1c5.1-9.3,8.1-19.5,8.7-30.1c1-17.8-5.4-35.2-5-53C367.3,17,376.4-3.4,371.1-22.9z"/>
		<path id="Path_7011-2" class="st11" d="M372-23.8c-0.4-1.9-1.3-3.6-2.6-4.9c-1.4-1-2.9-1.6-4.6-1.9c-4-1-8-1.8-12.1-2.3
			c-0.6-1.9-1.5-3.8-2.6-5.4c-8.5-12.1-21.2-23.5-36.1-26c-7.8-1.4-16.8-0.1-21.8,6c-2.7,3.4-3.9,7.8-6.7,11.2
			c-5.3,6.4-14.9,7.2-21.7,12.2c-3.6,2.6-6.2,6.4-8.7,10.1c-2.7,4-5.6,8.1-6.4,12.9c-1.7,9.5,4.5,18.6,5.7,28.2
			c2.6,21.5-20.4,40.5-16.1,61.7c2.5,12.4,14,21.1,25.8,25.5c4.2,1.6,8.9,3.1,10.9,7.1c0.9,1.7,1,3.8,1.8,5.5
			c2.8,5.9,11.8,6.1,16.7,1.8c4.9-4.3,6.4-11.2,7-17.7c2.3-28.2-9-56.1-7.6-84.4c0.4-8.6,2.8-18.3,10.5-22.1
			c10.3-5.2,22.7,3.5,34.1,1.8c5.4,13.1,6.5,27.5,3.3,41.3c-1.8,7.5-4.9,14.8-5.2,22.6c-0.3,11.8,6,22.6,11.5,33.1
			c1.2,2,2,4.1,2.3,6.4c0.1,2.3-0.3,4.6-1.2,6.7c-3.1,8.4-8.5,16.2-9.1,25.1c-0.2,1,0.1,2.1,0.7,3c0.6,0.6,1.4,0.9,2.2,1
			c9.4,1.6,17.6-6.7,22.2-15.1c5.1-9.3,8.1-19.5,8.7-30.1c1-17.8-5.4-35.2-5-53C368.2,16.1,377.3-4.3,372-23.8z"/>
		<path id="Path_7012-2" class="st15" d="M352.7,362.4l34.6,1.1l-5-25.7l-26.5,2.5L352.7,362.4z"/>
		<path id="Path_7013-2" class="st12" d="M459.9,301.6c-2.3,2.9-11.3,8.1-12.2,9.9c-0.9,1.7-11.6,7-17.2,7.8s-23,4.7-26.2,6.7
			c-2.3,1.5-20.7,6.1-32.8,8.7c-3.3,0.8-6.6,1.4-9.9,1.8c-5.2,0.3-62.5-19.2-62.5-19.2l11-11.3l0.6-0.2c3.1-1.1,17.5-5.9,25.6-8.3
			c9-2.6,19.5-13.4,19.5-13.4s15.4-5.2,17.4-5.8s-5.2-20.3-5.2-20.3s33.4-4.6,46.5-8.6c13.1-3.9,43.3-2.5,48.8,12.9
			C468.9,277.7,462.3,298.7,459.9,301.6z"/>
		<path id="Path_7014-2" class="st14" d="M307.6,350.7c0,0-6.7,7-13.4,6.4c-6.7-0.6-30.1,1.7-30.1,1.7c-4.2,1.7-8.2,4-11.8,6.8
			c-5.5,4.3-8.4,0.9-8.9,0.1l-0.1-0.1c-2.9,9.2-9.6,2.2-9.6,2.2s2.9-27.9,2-31.4s5.7-9.5,5.7-9.5l7.8-2l19.9-5.1l28.5,9.9
			L307.6,350.7z"/>
		<path id="Path_7015-2" class="st4" d="M249.3,325l-5.9,40.8l-0.1-0.1c-2.9,9.2-9.6,2.2-9.6,2.2s2.9-27.9,2-31.4
			c-0.9-3.5,5.7-9.5,5.7-9.5L249.3,325z"/>
		<path id="Path_7016-2" class="st4" d="M290.5,208.8c0,0,15.4,5.2,28.8,0"/>
		<path id="Path_7017-2" class="st4" d="M343,218.7c0,0,6.4,3.2,11.3,0"/>
		<path id="Path_7018-2" class="st4" d="M343,226.3c0,0,10.8,1.4,12.8-1.5"/>
		<path id="Path_7019-2" class="st4" d="M339.5,242.5c0,0,20.2-2.6,25.2-6.1"/>
		<path id="Path_7020-2" class="st4" d="M277.9,236.4c0,0,11.3,6.4,19.8,6.1"/>
		<path id="Path_7021-2" class="st4" d="M371.6,334.7c-3.3,0.8-6.6,1.4-9.9,1.8c-5.2,0.3-62.5-19.2-62.5-19.2l11-11.3l0.6-0.2
			c1.7,1.2,3.2,2.3,4.2,3.1c4.8,3.8,9.4-1.2,11.2-1.2c1.7,0,16.9,12.5,16.9,12.5s14,3.2,16.3,6.1c2.3,2.9,10.5,2.3,11.9,4.4
			C371.7,331.2,371.7,332.8,371.6,334.7z"/>
		<path id="Path_7022-2" class="st12" d="M264.1,259.1c0,0-14.1,0.8-22.2-2.6c-8.1-3.4-35.2-11.3-43-5.8c-7.8,5.6-26.7,10.5-18,32.6
			c8.7,22.1,12.8,22.7,12.8,22.7c2.7,2,5.1,4.5,7,7.2c2.6,4.1,27,13.4,33.1,13.4c6.1,0,16.9,0,32,10.5
			c15.1,10.5,28.8,11.6,28.8,11.6s19.2,7.8,25.2,9.6c6,1.7,33.3,9.3,39.7,7s10.5-16.9,10.5-16.9s2.9-13.1,1.4-15.1
			c-1.5-2-9.6-1.5-11.9-4.4c-2.3-2.9-16.3-6.1-16.3-6.1s-15.1-12.5-16.8-12.5s-6.4,4.9-11.2,1.2c-9.6-7.1-19.6-13.5-30.1-19.2
			C273.9,286.4,264.1,259.1,264.1,259.1z"/>
		<path id="Path_7023-2" class="st4" d="M235.7,267.6c5.1-1,10.4,0.4,14.3,3.8c7,5.8,30.5,17.5,30.5,17.5"/>
		<path id="Path_7024-2" class="st4" d="M410.2,267.2c0,0-31.1,4.7-36.9,11.1"/>
		<path id="Path_7025-2" class="st14" d="M445.9,363.5h-1.4c-4.9-0.2-21.6-0.7-24.8,0c-3.8,0.9-53.8,0-53.8,0l9.8-2
			c0,0-3.6-12.7-1.3-13.8c0,0-13.1-8.6-3.2-14.4c9.9-5.8,20.5-3.4,20.5-3.4l24.8-8.4l4.8-1.6c0,0,27.9,1.5,35.5,20.6
			C464.2,359.7,445.9,363.5,445.9,363.5z"/>
		<path id="Path_7026-2" class="st4" d="M445.9,363.5h-1.4c8.1-6.7,26.5-27.1-28.1-41.9l4.8-1.6c0,0,27.9,1.5,35.5,20.6
			C464.2,359.8,445.9,363.5,445.9,363.5z"/>
		<circle id="Ellipse_126-2" class="st12" cx="394.6" cy="339.4" r="1.5"/>
		<circle id="Ellipse_127-2" class="st12" cx="385.8" cy="341.9" r="1.5"/>
		<g id="Group_382-2" transform="translate(382.879 53.482)" class="st16">
			<path id="Path_7027-2" class="st17" d="M-40.3-34.1c0.3-9.6-1.4-19.1-5-28c-11.3,1.7-23.8-7.1-34.1-1.8
				c-7.6,3.9-10,13.6-10.5,22.1c-0.1,2.3-0.1,4.5-0.1,6.8c0-0.8,0-1.6,0.1-2.4c0.4-8.6,2.8-18.3,10.5-22.1
				c10.3-5.2,22.7,3.5,34.1,1.8C-42.3-50.3-40.6-42.2-40.3-34.1L-40.3-34.1z"/>
			<path id="Path_7028-2" class="st17" d="M-128.2-35.7c0.1-1.9,0.1-3.8-0.1-5.7c-0.9-7.7-5.1-15-5.9-22.5c-1,9,4.8,17.7,5.9,26.9
				C-128.2-36.6-128.2-36.2-128.2-35.7z"/>
			<path id="Path_7029-2" class="st17" d="M-82.2,42.6c-0.5,6.5-2.1,13.4-7,17.7c-4.9,4.3-14,4.1-16.7-1.8c-0.9-1.7-1-3.8-1.8-5.5
				c-1.9-4-6.7-5.5-10.9-7.1c-11.8-4.4-23.2-13.1-25.8-25.5c-0.2-1.1-0.4-2.3-0.5-3.4c-0.2,2.6-0.1,5.2,0.5,7.8
				c2.5,12.4,14,21.1,25.8,25.5c4.2,1.6,8.9,3.1,10.9,7.1c0.9,1.7,1,3.8,1.8,5.5c2.7,5.9,11.8,6.1,16.7,1.8s6.4-11.2,7-17.7
				c0.3-3.4,0.4-6.8,0.3-10.2C-82,38.7-82.1,40.6-82.2,42.6z"/>
			<path id="Path_7030-2" class="st17" d="M-14.9-21.3v3.8C-14.4-33.8-8.4-50.1-9-66C-9.5-51.3-14.5-36.3-14.9-21.3z"/>
			<path id="Path_7031-2" class="st17" d="M-33.6,44.3c0.2-1,0.3-2.1,0.2-3.1c-0.4-2.3-1.1-4.4-2.3-6.4c-5-9.6-10.8-19.4-11.5-30.1
				c0,0.5-0.1,0.9-0.1,1.4c-0.3,11.8,6,22.6,11.5,33.1C-34.8,40.7-34.1,42.5-33.6,44.3L-33.6,44.3z"/>
			<path id="Path_7032-2" class="st17" d="M-9.9,31.7c-0.7,10.6-3.7,20.9-8.8,30.1c-4.6,8.4-12.7,16.7-22.2,15.1
				c-0.8-0.1-1.6-0.4-2.2-1c-0.2-0.2-0.3-0.4-0.4-0.7c-0.1,0.7-0.2,1.4-0.2,2.1c-0.2,1,0.1,2.1,0.7,3c0.6,0.6,1.4,0.9,2.2,1
				c9.4,1.6,17.6-6.7,22.2-15.1c5.1-9.3,8.1-19.5,8.8-30.1c0.1-2,0.1-4.1,0.1-6.1C-9.8,30.5-9.8,31.1-9.9,31.7z"/>
		</g>
		<path id="Path_7033-2" class="st18" d="M374.4,347.7c0,0,22.1,9.3,36.6-11.2"/>
		<path id="Path_7034-2" class="st18" d="M378.8,363.9c0,0,18-11.7,41-0.4"/>
		<path id="Path_7035-2" class="st18" d="M258.1,361.2c0,0,7.6-17.1,27.8-4.1"/>
		<path id="Path_7036-2" class="st4" d="M233.6,108.7l15.4-14c0,0,59.9-3.9,62.3,16.4c0,0,21.2-24.1,65.8-18.7l18.9,15l-52.2,22.9
			l-50.7,17.6l-37.4-16.7L233.6,108.7z"/>
		<path id="Path_7037-2" class="st3" d="M233.6,109.6l15.4-14c0,0,59.9-3.9,62.3,16.4c0,0,21.2-24.1,65.8-18.7l18.9,15l-52.2,22.9
			l-50.7,17.6l-37.4-16.7L233.6,109.6z"/>
		<path id="Path_7038-2" class="st4" d="M226.8,111.3l6.8,81.7l72.4,3.6l-3.1-81.3l-0.1-1.4L226.8,111.3z"/>
		<path id="Path_7039-2" class="st1" d="M226.8,109.6l6.8,81.7l72.4,3.6l-3.1-81.3l-0.1-1.4L226.8,109.6z"/>
		<path id="Path_7040-2" class="st4" d="M399.4,109.6l-74.7,11.2v82.1l73-10.5L399.4,109.6z"/>
		<path id="Path_7041-2" class="st1" d="M399.4,107.8L324.7,119v82.1l73-10.5L399.4,107.8z"/>
		<path id="Path_7042-2" class="st5" d="M381.8,127.8l-40.3,4.5l0.9,13.7l39.4-4.3L381.8,127.8z"/>
		<path id="Path_7043-2" class="st10" d="M237.5,235l4.1,11c0,0,6.1,5.2,12.8,2.6c6.7-2.6,12.5-3.9,15.4-6.5c2.9-2.5,7-15.3,7-15.3
			s4.1-14,8.1-17.4c4.1-3.5,14.8-51.5,0-46.8s-26.2,48.3-26.2,48.3c-1.6,1.9-3.9,3.1-6.4,3.5c-3.8,0.3-11.3-0.6-12.8,2.6
			C238.1,220.2,233.2,228.6,237.5,235z"/>
		<path id="Path_7044-2" class="st4" d="M324.7,120.7c-7.8,1.7-15.9-0.3-21.9-5.5l3.1,81.3c0,0,7.4,8,18.7,6.2V120.7z"/>
		<path id="Path_7045-2" class="st1" d="M324.7,119c-7.8,1.7-15.9-0.3-21.9-5.5l3.1,81.3c0,0,7.4,8,18.7,6.2V119z"/>
		<path id="Path_7046-2" class="st4" d="M324.7,119c-7.8,1.7-15.9-0.3-21.9-5.5l3.1,81.3c0,0,7.4,8,18.7,6.2V119z"/>
		<path id="Path_7047-2" class="st4" d="M326.5,109.8c0,0,30.4-9.3,38.3-8"/>
		<path id="Path_7048-2" class="st4" d="M292.5,105.8c0,0-29.4-7-34.4-5"/>
		<path id="Path_7049-2" class="st4" d="M345.6,111c0,0,20.3-7.4,27.7-3.9"/>
		<path id="Path_7050-2" class="st4" d="M335.4,297.8c3.1-2.4,6.5-4.4,10-6.2c5.2-2.5,14.8-9.1,14.8-9.1"/>
		<path id="Path_7051-2" class="st4" d="M258.1,208.8c0,0-12.7,10.4-16.6,11.3c-3.8,0.9-6.2,9-6.2,9"/>
		<path id="Path_7052-2" class="st10" d="M391.9,233.4l-4.1,11.1c0,0-6.1,5.2-12.8,2.6s-12.5-3.9-15.4-6.5c-2.9-2.5-7-15.3-7-15.3
			s-4.1-14-8.1-17.4c-4.1-3.5-14.8-51.5,0-46.8c14.8,4.7,26.2,48.3,26.2,48.3c1.6,1.9,3.9,3.1,6.4,3.5c3.8,0.3,11.3-0.6,12.8,2.6
			C391.3,218.6,396.3,227.1,391.9,233.4z"/>
		<path id="Path_7053-2" class="st4" d="M384.8,213.1c0,0,8.3,5.4,8.3,11.8"/>
		<circle id="Ellipse_128-2" class="st10" cx="314.1" cy="18.9" r="39"/>
		<path id="Path_7054-2" class="st11" d="M289.6,8.4c4.7-0.7,8.9-3.5,13.4-5.1c10.1-3.5,21.3-1.1,31.5,2.1c3.9,1.2,7.9,2.6,12,2.6
			s8.5-1.7,10.6-5.2c1.9-3.3,1.6-7.5-0.1-10.9c-1.6-3.4-4.4-6.2-7.1-8.8c-9.1-8.6-20.3-16.6-32.8-15.7c-5,0.4-9.8,2.1-14.4,4.1
			c-5.8,2.5-11.4,5.3-16.9,8.5c-4.2,2.4-12,5.7-14.4,10.1C266,0.2,281.1,9.8,289.6,8.4z"/>
		<path id="Path_7055-2" class="st4" d="M357.2-0.8c-2.1,3.5-6.5,5.2-10.6,5.2s-8.1-1.3-12-2.6c-10.2-3.2-21.4-5.6-31.5-2.1
			c-4.5,1.6-8.7,4.4-13.4,5.1c-6.9,1.1-18-4.9-19.2-12.5C269.1,1.1,282,8.6,289.6,7.4c4.7-0.7,8.9-3.5,13.4-5.1
			c10.1-3.6,21.3-1.1,31.5,2.1c3.9,1.2,7.9,2.6,12,2.6s8.5-1.7,10.6-5.2c1.1-1.9,1.5-4.2,1.2-6.4C358.2-3.2,357.8-2,357.2-0.8z"/>
		<g id="Group_394-2" transform="translate(-83)">
			<path id="Path_7056-2" class="st1" d="M671.2,471.8c0,0,5.2,6.8-2.4,17c-7.6,10.2-13.8,18.8-11.3,25.2c0,0,11.4-19,20.7-19.2
				C687.5,494.5,681.4,483.2,671.2,471.8z"/>
			<path id="Path_7057-2" class="st4" d="M671.2,471.8c0.5,0.7,0.8,1.4,1.1,2.1c9.1,10.6,13.9,20.6,5.2,20.8
				c-8.1,0.2-17.8,14.7-20.2,18.4c0.1,0.3,0.2,0.6,0.3,0.9c0,0,11.4-19,20.7-19.2C687.5,494.5,681.4,483.2,671.2,471.8z"/>
			<path id="Path_7058-2" class="st19" d="M680.8,480.4c0,2.4-0.3,4.3-0.6,4.3s-0.6-1.9-0.6-4.3c0-2.4,0.3-1.3,0.7-1.3
				S680.8,478,680.8,480.4z"/>
			<path id="Path_7059-2" class="st19" d="M684.1,483.3c-2.1,1.1-3.9,1.8-4.1,1.5c-0.2-0.3,1.4-1.4,3.5-2.6c2.1-1.2,1.3-0.3,1.4,0
				C685.1,482.5,686.2,482.1,684.1,483.3z"/>
			<path id="Path_7060-2" class="st1" d="M643.8,471.8c0,0-5.2,6.8,2.4,17c7.6,10.2,13.8,18.8,11.3,25.2c0,0-11.4-19-20.7-19.2
				C627.5,494.5,633.7,483.2,643.8,471.8z"/>
			<path id="Path_7061-2" class="st4" d="M643.8,471.8c-0.5,0.7-0.8,1.4-1.1,2.1c-9.1,10.6-13.9,20.6-5.2,20.8
				c8.1,0.2,17.8,14.7,20.2,18.4c-0.1,0.3-0.2,0.6-0.3,0.9c0,0-11.4-19-20.7-19.2C627.5,494.5,633.7,483.2,643.8,471.8z"/>
			<path id="Path_7062-2" class="st19" d="M634.2,480.4c0,2.4,0.3,4.3,0.6,4.3s0.6-1.9,0.6-4.3c0-2.4-0.3-1.3-0.7-1.3
				C634.4,479.2,634.2,478,634.2,480.4z"/>
			<path id="Path_7063-2" class="st19" d="M630.9,483.3c2.1,1.1,3.9,1.8,4.1,1.5c0.2-0.3-1.4-1.4-3.5-2.6c-2.1-1.2-1.3-0.3-1.4,0
				C629.9,482.5,628.8,482.1,630.9,483.3z"/>
			<ellipse id="Ellipse_129-2" class="st20" cx="657.5" cy="557.4" rx="54.1" ry="8.3"/>
			<path id="Path_7064-2" class="st21" d="M685.3,504.9l-0.3,2.1l-0.4,3l-0.1,1.2l-0.4,3l-0.2,1.2l-0.4,3l-4.1,33.9
				c-0.4,3-5.3,5.4-11.3,5.4h-21.5c-6,0-10.9-2.4-11.3-5.4l-4.1-33.9l-0.4-3l-0.1-1.2l-0.4-3l-0.2-1.2l-0.4-3l-0.3-2.1
				c-0.2-1.7,2.5-3.2,5.9-3.2h44C682.9,501.7,685.5,503.1,685.3,504.9z"/>
			<path id="Path_7065-2" class="st22" d="M685.1,507l-0.4,3h-54.4l-0.4-3H685.1z"/>
			<path id="Path_7066-2" class="st22" d="M684.6,511.2l-0.4,3h-53.4l-0.4-3H684.6z"/>
			<path id="Path_7067-2" class="st22" d="M684,515.4l-0.4,3h-52.3l-0.4-3H684z"/>
		</g>
	</g>
</g>
</svg>
